<svg width="6" height="5" viewBox="0 0 6 5" fill="none" xmlns="http://www.w3.org/2000/svg">
<path d="M3.0001 4.5C2.87245 4.49936 2.74655 4.47031 2.63153 4.41496C2.5165 4.35961 2.41524 4.27935 2.3351 4.18L0.230096 1.63C0.107093 1.47648 0.0296886 1.2915 0.00670418 1.09613C-0.0162803 0.900766 0.0160793 0.702871 0.100096 0.525C0.168235 0.370413 0.279432 0.238707 0.420405 0.145611C0.561378 0.0525159 0.726169 0.00196653 0.895096 0H5.10509C5.27402 0.00196653 5.43881 0.0525159 5.57979 0.145611C5.72076 0.238707 5.83196 0.370413 5.90009 0.525C5.98411 0.702871 6.01647 0.900766 5.99349 1.09613C5.9705 1.2915 5.8931 1.47648 5.7701 1.63L3.6651 4.18C3.58495 4.27935 3.48369 4.35961 3.36866 4.41496C3.25364 4.47031 3.12774 4.49936 3.0001 4.5Z" fill="#181A22"/>
</svg>
