<svg width="6" height="5" viewBox="0 0 6 5" fill="none" xmlns="http://www.w3.org/2000/svg">
<path d="M2.99997 4.5C2.87233 4.49936 2.74643 4.47031 2.6314 4.41496C2.51638 4.35961 2.41512 4.27935 2.33497 4.18L0.229974 1.63C0.106971 1.47648 0.0295666 1.2915 0.00658211 1.09613C-0.0164023 0.900766 0.0159572 0.702871 0.0999735 0.525C0.168113 0.370413 0.27931 0.238707 0.420283 0.145611C0.561256 0.0525159 0.726047 0.00196653 0.894974 0H5.10497C5.2739 0.00196653 5.43869 0.0525159 5.57966 0.145611C5.72064 0.238707 5.83183 0.370413 5.89997 0.525C5.98399 0.702871 6.01635 0.900766 5.99337 1.09613C5.97038 1.2915 5.89298 1.47648 5.76997 1.63L3.66497 4.18C3.58482 4.27935 3.48357 4.35961 3.36854 4.41496C3.25352 4.47031 3.12762 4.49936 2.99997 4.5Z" fill="white"/>
</svg>
