<svg width="83" height="49" viewBox="0 0 83 49" fill="none" xmlns="http://www.w3.org/2000/svg">
<path d="M3 22.3276C8.19881 16.5828 13.1 10.6177 20.0601 7.04951C22.1804 5.96254 29.2011 1.89966 31.6675 3.28455C38.3926 7.06068 28.0709 24.9583 26.5387 29.2027C22.5988 40.1163 23.8669 48.6391 37.6062 45.2447C52.4266 41.5832 59.3465 29.8734 71.5086 20.418C74.7261 17.9166 83.3494 14.4705 75.2878 14.4705C72.3933 14.4705 60.2089 14.2093 69.6191 15.3981C70.4576 15.504 79.9307 15.2256 79.9307 15.6709C79.9307 16.7487 75.664 20.8219 75.0178 22.2732C73.8979 24.7887 72.5884 26.3659 72.5884 29.2029" stroke="#1C1C1C" stroke-width="5" stroke-linecap="round"/>
</svg>
