<svg width="202" height="76" viewBox="0 0 202 76" fill="none" xmlns="http://www.w3.org/2000/svg">
<path d="M2.68715 34.0016C15.4366 13.7337 41.9915 -10.2005 65.2397 12.3493C78.1125 24.8354 83.3992 58.6604 62.9746 67.5196C55.6722 70.6871 55.9997 62.3839 57.2486 58.0059C59.5165 50.0555 65.474 43.8428 72.6875 40.0321C90.8444 30.4404 104.037 48.1879 118.416 55.7501C137.078 65.5649 165.529 67.9487 185.709 61.7153C203.15 56.3279 192.031 55.0311 180.799 49.2882C172.257 44.9208 191.261 50.8304 193.953 52.1407C197.337 53.7874 200.863 52.8018 197.448 55.8639C191.662 61.052 185.986 67.3086 180.971 73.2882" stroke="#181818" stroke-width="5" stroke-linecap="round"/>
</svg>
