<svg width="126" height="126" viewBox="0 0 126 126" fill="none" xmlns="http://www.w3.org/2000/svg">
<g filter="url(#filter0_b_1409_34849)">
<rect y="29.5923" width="100" height="100" rx="30" transform="rotate(-17.213 0 29.5923)" fill="url(#paint0_linear_1409_34849)"/>
<rect x="-0.625568" y="29.2626" width="101" height="101" rx="30.5" transform="rotate(-17.213 -0.625568 29.2626)" stroke="url(#paint1_radial_1409_34849)"/>
</g>
<g opacity="0.25" filter="url(#filter1_f_1409_34849)">
<rect x="29.1875" y="72.8945" width="68.1223" height="42.5764" rx="21.2882" transform="rotate(-17.213 29.1875 72.8945)" fill="url(#paint2_linear_1409_34849)"/>
</g>
<rect x="16.2656" y="38.1631" width="73.7991" height="73.7991" rx="25" transform="rotate(-17.213 16.2656 38.1631)" fill="url(#paint3_linear_1409_34849)"/>
<path d="M84.1145 57.7423C84.5043 59.5577 84.7675 61.4003 84.9221 63.1996L40.7174 68.1606L40.2661 66.0585L82.6421 52.4278C83.2467 54.1637 83.7246 55.9269 84.1145 57.7423Z" fill="#FFFEFE"/>
<path d="M80.8517 47.9477L80.7319 48.0068L39.8347 64.052L39.3696 61.8863L74.5554 39.1378L75.0774 38.7925C77.3304 41.5739 79.2831 44.6529 80.8517 47.9477Z" fill="#FFFEFE"/>
<path d="M85.1508 68.1154C85.0732 71.7637 84.5498 75.3411 83.662 78.7635L83.0444 78.6629L41.6213 72.365L41.1562 70.1992L85.0036 68.047L85.0173 68.1107L85.1508 68.1154Z" fill="#FFFEFE"/>
<defs>
<filter id="filter0_b_1409_34849" x="-35.4766" y="-35.4741" width="196.062" height="196.062" filterUnits="userSpaceOnUse" color-interpolation-filters="sRGB">
<feFlood flood-opacity="0" result="BackgroundImageFix"/>
<feGaussianBlur in="BackgroundImageFix" stdDeviation="21"/>
<feComposite in2="SourceAlpha" operator="in" result="effect1_backgroundBlur_1409_34849"/>
<feBlend mode="normal" in="SourceGraphic" in2="effect1_backgroundBlur_1409_34849" result="shape"/>
</filter>
<filter id="filter1_f_1409_34849" x="29.0712" y="52.6162" width="77.9044" height="61.0675" filterUnits="userSpaceOnUse" color-interpolation-filters="sRGB">
<feFlood flood-opacity="0" result="BackgroundImageFix"/>
<feBlend mode="normal" in="SourceGraphic" in2="BackgroundImageFix" result="shape"/>
<feGaussianBlur stdDeviation="2.73" result="effect1_foregroundBlur_1409_34849"/>
</filter>
<linearGradient id="paint0_linear_1409_34849" x1="0" y1="29.5923" x2="133.791" y2="85.9156" gradientUnits="userSpaceOnUse">
<stop stop-color="white" stop-opacity="0.47"/>
<stop offset="1" stop-color="white" stop-opacity="0"/>
</linearGradient>
<radialGradient id="paint1_radial_1409_34849" cx="0" cy="0" r="1" gradientUnits="userSpaceOnUse" gradientTransform="translate(0 29.5923) rotate(47.959) scale(163.589 275.776)">
<stop stop-color="white" stop-opacity="0.7"/>
<stop offset="1" stop-color="white" stop-opacity="0"/>
</radialGradient>
<linearGradient id="paint2_linear_1409_34849" x1="63.2486" y1="114.227" x2="63.2486" y2="72.8945" gradientUnits="userSpaceOnUse">
<stop stop-color="#0062E0"/>
<stop offset="1" stop-color="#19AFFF"/>
</linearGradient>
<linearGradient id="paint3_linear_1409_34849" x1="23.3019" y1="64.8829" x2="88.2592" y2="73.0235" gradientUnits="userSpaceOnUse">
<stop stop-color="#366FFF"/>
<stop offset="0.408231" stop-color="#0039C7"/>
<stop offset="1" stop-color="#002789"/>
</linearGradient>
</defs>
</svg>
