<svg width="146" height="81" viewBox="0 0 146 81" fill="none" xmlns="http://www.w3.org/2000/svg">
<path d="M56.4375 19.1104H60.8399L68.3262 33.1882L75.8083 19.1104H80.1171V42.2594H76.5229V24.5106L69.9596 36.7883H66.5993L60.0275 24.5106V42.2594H56.4375V19.1104Z" fill="#FFFEFE"/>
<path d="M91.6948 42.653C90.1605 42.6882 88.6455 42.2925 87.3093 41.5075C86.0613 40.7534 85.0404 39.6521 84.3616 38.3275C83.6384 36.8907 83.2755 35.2873 83.3067 33.6658C83.2743 32.0319 83.6278 30.4145 84.3361 28.9555C84.9892 27.6321 85.9832 26.5234 87.2073 25.7534C88.4822 24.9652 89.9438 24.5638 91.4268 24.5947C92.8441 24.5358 94.245 24.9275 95.4427 25.7177C96.6404 26.5079 97.578 27.659 98.1304 29.0175C98.776 30.5714 99.0909 32.2522 99.0534 33.9445V34.9662H86.867C87.0247 36.2421 87.6071 37.4204 88.5131 38.2965C89.4302 39.1227 90.614 39.5572 91.8266 39.5128C92.7708 39.5355 93.7101 39.3658 94.5915 39.013C95.4018 38.6585 96.1406 38.1483 96.7693 37.5093L98.6749 39.9418C96.7738 41.7516 94.2714 42.7235 91.6948 42.653ZM94.3192 28.9423C93.9304 28.5381 93.4648 28.2228 92.9521 28.0164C92.4394 27.81 91.8909 27.7171 91.3417 27.7437C90.792 27.729 90.2451 27.8294 89.7336 28.0392C89.222 28.2489 88.7563 28.5635 88.3642 28.9644C87.5278 29.8607 86.9947 31.0157 86.8457 32.255H95.6081C95.5762 31.0236 95.1204 29.845 94.3235 28.9334L94.3192 28.9423Z" fill="#FFFEFE"/>
<path d="M103.411 28.0661H100.102V25.0099H103.411V19.9502H106.873V25.0099H111.892V28.0705H106.873V35.8148C106.873 37.1004 107.084 38.0203 107.507 38.5747C107.93 39.129 108.655 39.4032 109.685 39.3973C110.073 39.4016 110.46 39.3824 110.846 39.3398C111.165 39.3044 111.514 39.2514 111.892 39.185V42.2058C111.459 42.3377 111.017 42.4382 110.57 42.5065C110.055 42.584 109.537 42.6224 109.017 42.6215C105.277 42.6215 103.408 40.4956 103.411 36.2438V28.0661Z" fill="#FFFEFE"/>
<path d="M129.959 42.2593H126.556V39.8488C125.969 40.7359 125.176 41.454 124.25 41.9364C123.262 42.44 122.173 42.6917 121.073 42.6706C119.695 42.6976 118.342 42.2923 117.189 41.5074C116.04 40.7082 115.119 39.6001 114.527 38.3008C113.859 36.8449 113.527 35.2473 113.557 33.6348C113.525 32.0172 113.863 30.4148 114.544 28.9599C115.153 27.6578 116.095 26.5547 117.266 25.771C118.461 24.9868 119.851 24.5839 121.264 24.6122C122.318 24.5948 123.361 24.8293 124.314 25.2978C125.202 25.7384 125.971 26.3991 126.556 27.2217V25.0103H129.959V42.2593ZM126.492 31.0563C126.15 30.1127 125.537 29.3017 124.735 28.7343C123.916 28.162 122.948 27.8655 121.962 27.8851C121.298 27.8548 120.636 27.9779 120.023 28.2456C119.41 28.5133 118.862 28.9188 118.419 29.4331C117.542 30.468 117.103 31.8671 117.1 33.6304C117.097 35.3936 117.523 36.7971 118.376 37.8409C118.8 38.3559 119.33 38.7638 119.928 39.0335C120.526 39.3033 121.175 39.4278 121.826 39.3977C122.842 39.4075 123.838 39.0993 124.684 38.5131C125.508 37.9609 126.143 37.151 126.496 36.2L126.492 31.0563Z" fill="#FFFEFE"/>
<path d="M17.339 59.6518H14.6873L14.6729 58.4936H17.0803C17.4779 58.4936 17.8253 58.4239 18.1223 58.2844C18.4193 58.1449 18.6493 57.9456 18.8122 57.6866C18.9799 57.4226 19.0637 57.1088 19.0637 56.7451C19.0637 56.3466 18.9894 56.0228 18.8409 55.7737C18.6972 55.5197 18.4744 55.3354 18.1726 55.2208C17.8756 55.1012 17.4971 55.0415 17.0372 55.0415H14.9963V64.7403H13.6094V53.8609H17.0372C17.5738 53.8609 18.0528 53.9182 18.4744 54.0327C18.896 54.1423 19.2529 54.3167 19.5452 54.5558C19.8422 54.7899 20.0674 55.0888 20.2207 55.4524C20.374 55.8161 20.4506 56.252 20.4506 56.7601C20.4506 57.2084 20.3405 57.6144 20.1201 57.978C19.8997 58.3367 19.5931 58.6306 19.2002 58.8597C18.8122 59.0889 18.3571 59.2358 17.8349 59.3006L17.339 59.6518ZM17.2743 64.7403H14.1412L14.9245 63.5672H17.2743C17.7151 63.5672 18.0888 63.4875 18.3954 63.3281C18.7068 63.1687 18.9439 62.9445 19.1068 62.6556C19.2697 62.3617 19.3512 62.0155 19.3512 61.6169C19.3512 61.2135 19.2817 60.8648 19.1428 60.5708C19.0038 60.2769 18.7858 60.0503 18.4888 59.8909C18.1918 59.7315 17.8085 59.6518 17.339 59.6518H15.3628L15.3772 58.4936H18.0792L18.3738 58.912C18.8769 58.9569 19.3032 59.1063 19.653 59.3604C20.0027 59.6094 20.2686 59.9282 20.4506 60.3168C20.6375 60.7053 20.7309 61.1337 20.7309 61.602C20.7309 62.2795 20.5872 62.8523 20.2997 63.3206C20.0171 63.7839 19.617 64.1375 19.0996 64.3816C18.5822 64.6207 17.9738 64.7403 17.2743 64.7403Z" fill="#FFFEFE"/>
<path d="M27.335 62.8723V56.6554H28.6717V64.7403H27.3997L27.335 62.8723ZM27.5865 61.1686L28.1399 61.1537C28.1399 61.6917 28.0848 62.1898 27.9746 62.6481C27.8692 63.1014 27.6967 63.4949 27.4572 63.8287C27.2177 64.1625 26.9039 64.424 26.5158 64.6133C26.1277 64.7976 25.6559 64.8897 25.1001 64.8897C24.7216 64.8897 24.3743 64.8325 24.0581 64.7179C23.7467 64.6033 23.4784 64.4265 23.2533 64.1874C23.0281 63.9483 22.8532 63.6369 22.7287 63.2533C22.6089 62.8698 22.549 62.409 22.549 61.871V56.6554H23.8785V61.8859C23.8785 62.2496 23.9168 62.551 23.9934 62.7901C24.0749 63.0242 24.1827 63.211 24.3168 63.3505C24.4558 63.485 24.6091 63.5796 24.7767 63.6344C24.9492 63.6892 25.1265 63.7166 25.3085 63.7166C25.8738 63.7166 26.3218 63.6045 26.6523 63.3804C26.9829 63.1512 27.22 62.8449 27.3638 62.4613C27.5123 62.0727 27.5865 61.6419 27.5865 61.1686Z" fill="#FFFEFE"/>
<path d="M35.2255 62.5958C35.2255 62.3965 35.1824 62.2122 35.0961 62.0429C35.0147 61.8685 34.8446 61.7116 34.5859 61.5721C34.332 61.4277 33.9487 61.3031 33.4361 61.1985C33.0049 61.1039 32.6145 60.9918 32.2648 60.8623C31.9198 60.7327 31.6252 60.5758 31.3809 60.3915C31.1413 60.2072 30.9569 59.9905 30.8275 59.7414C30.6982 59.4924 30.6335 59.201 30.6335 58.8672C30.6335 58.5484 30.7006 58.247 30.8347 57.9631C30.9736 57.6791 31.1677 57.4276 31.4168 57.2084C31.6707 56.9892 31.9749 56.8173 32.3294 56.6928C32.684 56.5683 33.0792 56.506 33.5152 56.506C34.138 56.506 34.6698 56.6206 35.1105 56.8497C35.5513 57.0789 35.889 57.3852 36.1238 57.7688C36.3585 58.1474 36.4759 58.5683 36.4759 59.0316H35.1464C35.1464 58.8074 35.0818 58.5907 34.9524 58.3815C34.8278 58.1673 34.6434 57.9905 34.3991 57.851C34.1595 57.7115 33.8649 57.6418 33.5152 57.6418C33.1463 57.6418 32.8468 57.7015 32.6169 57.8211C32.3917 57.9357 32.2264 58.0826 32.121 58.262C32.0204 58.4413 31.9701 58.6306 31.9701 58.8298C31.9701 58.9793 31.9941 59.1138 32.042 59.2333C32.0947 59.3479 32.1857 59.455 32.3151 59.5546C32.4444 59.6493 32.6265 59.739 32.8612 59.8236C33.096 59.9083 33.3954 59.993 33.7595 60.0777C34.3967 60.2271 34.9213 60.4065 35.3333 60.6157C35.7453 60.8249 36.0519 61.0814 36.2531 61.3853C36.4543 61.6892 36.5549 62.0578 36.5549 62.4912C36.5549 62.8449 36.4831 63.1687 36.3393 63.4626C36.2004 63.7565 35.9968 64.0105 35.7285 64.2247C35.465 64.4339 35.1488 64.5983 34.7799 64.7179C34.4158 64.8325 34.0062 64.8897 33.5511 64.8897C32.866 64.8897 32.2863 64.7627 31.812 64.5087C31.3377 64.2546 30.9784 63.9258 30.7341 63.5223C30.4898 63.1188 30.3676 62.6929 30.3676 62.2446H31.7042C31.7234 62.6232 31.8288 62.9246 32.0204 63.1487C32.2121 63.3679 32.4468 63.5248 32.7247 63.6195C33.0025 63.7091 33.278 63.754 33.5511 63.754C33.9152 63.754 34.2194 63.7042 34.4637 63.6045C34.7129 63.5049 34.9021 63.3679 35.0315 63.1936C35.1608 63.0192 35.2255 62.82 35.2255 62.5958Z" fill="#FFFEFE"/>
<path d="M39.7456 56.6554V64.7403H38.409V56.6554H39.7456ZM38.3084 54.5109C38.3084 54.2868 38.373 54.0975 38.5024 53.9431C38.6365 53.7886 38.833 53.7114 39.0917 53.7114C39.3456 53.7114 39.5396 53.7886 39.6737 53.9431C39.8127 54.0975 39.8821 54.2868 39.8821 54.5109C39.8821 54.7251 39.8127 54.9095 39.6737 55.0639C39.5396 55.2133 39.3456 55.288 39.0917 55.288C38.833 55.288 38.6365 55.2133 38.5024 55.0639C38.373 54.9095 38.3084 54.7251 38.3084 54.5109Z" fill="#FFFEFE"/>
<path d="M43.2094 58.3815V64.7403H41.8799V56.6554H43.1375L43.2094 58.3815ZM42.8932 60.3915L42.3398 60.3691C42.3446 59.8162 42.4237 59.3056 42.577 58.8373C42.7303 58.3641 42.9459 57.9531 43.2237 57.6044C43.5016 57.2557 43.8322 56.9867 44.2154 56.7974C44.6035 56.6031 45.0323 56.506 45.5018 56.506C45.885 56.506 46.23 56.5608 46.5366 56.6704C46.8432 56.775 47.1043 56.9444 47.3199 57.1785C47.5402 57.4126 47.7079 57.7165 47.8229 58.0901C47.9379 58.4587 47.9954 58.9095 47.9954 59.4426V64.7403H46.6587V59.4276C46.6587 59.0042 46.5988 58.6655 46.4791 58.4114C46.3593 58.1524 46.1844 57.9656 45.9545 57.851C45.7245 57.7314 45.4419 57.6717 45.1065 57.6717C44.7759 57.6717 44.4741 57.7439 44.2011 57.8884C43.9328 58.0328 43.7004 58.2321 43.504 58.4861C43.3124 58.7402 43.1614 59.0316 43.0513 59.3604C42.9459 59.6842 42.8932 60.0279 42.8932 60.3915Z" fill="#FFFEFE"/>
<path d="M53.2413 64.8897C52.6999 64.8897 52.2089 64.7951 51.7681 64.6058C51.3322 64.4115 50.9561 64.14 50.6399 63.7913C50.3285 63.4426 50.089 63.0292 49.9213 62.551C49.7536 62.0727 49.6698 61.5497 49.6698 60.9818V60.668C49.6698 60.0104 49.7632 59.4251 49.95 58.912C50.1369 58.394 50.3908 57.9556 50.7118 57.5969C51.0327 57.2383 51.3968 56.9668 51.8041 56.7825C52.2113 56.5982 52.6329 56.506 53.0688 56.506C53.6246 56.506 54.1036 56.6056 54.5061 56.8049C54.9133 57.0041 55.2463 57.2831 55.505 57.6418C55.7637 57.9955 55.9553 58.4139 56.0799 58.8971C56.2044 59.3753 56.2667 59.8984 56.2667 60.4662V61.0864H50.4602V59.9581H54.9372V59.8535C54.9181 59.4949 54.8462 59.1462 54.7217 58.8074C54.6019 58.4687 54.4103 58.1897 54.1468 57.9705C53.8833 57.7514 53.524 57.6418 53.0688 57.6418C52.767 57.6418 52.4891 57.709 52.2352 57.8435C51.9813 57.973 51.7633 58.1673 51.5813 58.4263C51.3992 58.6854 51.2579 59.0017 51.1573 59.3753C51.0567 59.7489 51.0064 60.1798 51.0064 60.668V60.9818C51.0064 61.3654 51.0567 61.7265 51.1573 62.0653C51.2627 62.399 51.4136 62.6929 51.61 62.947C51.8112 63.201 52.0532 63.4003 52.3358 63.5448C52.6233 63.6892 52.9491 63.7615 53.3132 63.7615C53.7827 63.7615 54.1803 63.6618 54.5061 63.4626C54.8318 63.2633 55.1169 62.9968 55.3612 62.663L56.1661 63.3281C55.9984 63.5921 55.7852 63.8436 55.5265 64.0828C55.2678 64.3219 54.9492 64.5161 54.5707 64.6656C54.1971 64.815 53.7539 64.8897 53.2413 64.8897Z" fill="#FFFEFE"/>
<path d="M62.3462 62.5958C62.3462 62.3965 62.3031 62.2122 62.2169 62.0429C62.1354 61.8685 61.9654 61.7116 61.7066 61.5721C61.4527 61.4277 61.0695 61.3031 60.5569 61.1985C60.1257 61.1039 59.7352 60.9918 59.3855 60.8623C59.0406 60.7327 58.7459 60.5758 58.5016 60.3915C58.2621 60.2072 58.0776 59.9905 57.9483 59.7414C57.8189 59.4924 57.7542 59.201 57.7542 58.8672C57.7542 58.5484 57.8213 58.247 57.9554 57.9631C58.0944 57.6791 58.2884 57.4276 58.5375 57.2084C58.7914 56.9892 59.0957 56.8173 59.4502 56.6928C59.8047 56.5683 60.1999 56.506 60.6359 56.506C61.2587 56.506 61.7905 56.6206 62.2312 56.8497C62.672 57.0789 63.0097 57.3852 63.2445 57.7688C63.4792 58.1474 63.5966 58.5683 63.5966 59.0316H62.2672C62.2672 58.8074 62.2025 58.5907 62.0731 58.3815C61.9486 58.1673 61.7641 57.9905 61.5198 57.851C61.2803 57.7115 60.9856 57.6418 60.6359 57.6418C60.267 57.6418 59.9676 57.7015 59.7376 57.8211C59.5125 57.9357 59.3472 58.0826 59.2418 58.262C59.1412 58.4413 59.0909 58.6306 59.0909 58.8298C59.0909 58.9793 59.1148 59.1138 59.1627 59.2333C59.2154 59.3479 59.3065 59.455 59.4358 59.5546C59.5652 59.6493 59.7472 59.739 59.982 59.8236C60.2167 59.9083 60.5161 59.993 60.8802 60.0777C61.5174 60.2271 62.042 60.4065 62.454 60.6157C62.866 60.8249 63.1726 61.0814 63.3739 61.3853C63.5751 61.6892 63.6757 62.0578 63.6757 62.4912C63.6757 62.8449 63.6038 63.1687 63.4601 63.4626C63.3211 63.7565 63.1175 64.0105 62.8493 64.2247C62.5858 64.4339 62.2696 64.5983 61.9007 64.7179C61.5366 64.8325 61.127 64.8897 60.6718 64.8897C59.9868 64.8897 59.4071 64.7627 58.9328 64.5087C58.4585 64.2546 58.0992 63.9258 57.8548 63.5223C57.6105 63.1188 57.4883 62.6929 57.4883 62.2446H58.825C58.8441 62.6232 58.9495 62.9246 59.1412 63.1487C59.3328 63.3679 59.5676 63.5248 59.8454 63.6195C60.1233 63.7091 60.3988 63.754 60.6718 63.754C61.0359 63.754 61.3402 63.7042 61.5845 63.6045C61.8336 63.5049 62.0228 63.3679 62.1522 63.1936C62.2815 63.0192 62.3462 62.82 62.3462 62.5958Z" fill="#FFFEFE"/>
<path d="M69.9492 62.5958C69.9492 62.3965 69.9061 62.2122 69.8199 62.0429C69.7384 61.8685 69.5684 61.7116 69.3097 61.5721C69.0557 61.4277 68.6725 61.3031 68.1599 61.1985C67.7287 61.1039 67.3382 60.9918 66.9885 60.8623C66.6436 60.7327 66.3489 60.5758 66.1046 60.3915C65.8651 60.2072 65.6806 59.9905 65.5513 59.7414C65.4219 59.4924 65.3572 59.201 65.3572 58.8672C65.3572 58.5484 65.4243 58.247 65.5585 57.9631C65.6974 57.6791 65.8914 57.4276 66.1405 57.2084C66.3945 56.9892 66.6987 56.8173 67.0532 56.6928C67.4077 56.5683 67.803 56.506 68.2389 56.506C68.8617 56.506 69.3935 56.6206 69.8342 56.8497C70.275 57.0789 70.6128 57.3852 70.8475 57.7688C71.0823 58.1474 71.1996 58.5683 71.1996 59.0316H69.8702C69.8702 58.8074 69.8055 58.5907 69.6762 58.3815C69.5516 58.1673 69.3671 57.9905 69.1228 57.851C68.8833 57.7115 68.5886 57.6418 68.2389 57.6418C67.87 57.6418 67.5706 57.7015 67.3406 57.8211C67.1155 57.9357 66.9502 58.0826 66.8448 58.262C66.7442 58.4413 66.6939 58.6306 66.6939 58.8298C66.6939 58.9793 66.7178 59.1138 66.7657 59.2333C66.8184 59.3479 66.9095 59.455 67.0388 59.5546C67.1682 59.6493 67.3502 59.739 67.585 59.8236C67.8197 59.9083 68.1191 59.993 68.4832 60.0777C69.1204 60.2271 69.645 60.4065 70.057 60.6157C70.469 60.8249 70.7756 61.0814 70.9769 61.3853C71.1781 61.6892 71.2787 62.0578 71.2787 62.4912C71.2787 62.8449 71.2068 63.1687 71.0631 63.4626C70.9242 63.7565 70.7205 64.0105 70.4523 64.2247C70.1888 64.4339 69.8726 64.5983 69.5037 64.7179C69.1396 64.8325 68.73 64.8897 68.2748 64.8897C67.5898 64.8897 67.0101 64.7627 66.5358 64.5087C66.0615 64.2546 65.7022 63.9258 65.4578 63.5223C65.2135 63.1188 65.0914 62.6929 65.0914 62.2446H66.428C66.4471 62.6232 66.5525 62.9246 66.7442 63.1487C66.9358 63.3679 67.1706 63.5248 67.4484 63.6195C67.7263 63.7091 68.0018 63.754 68.2748 63.754C68.6389 63.754 68.9432 63.7042 69.1875 63.6045C69.4366 63.5049 69.6259 63.3679 69.7552 63.1936C69.8846 63.0192 69.9492 62.82 69.9492 62.5958Z" fill="#FFFEFE"/>
<path d="M80.7357 60.4737H77.9403V59.3006H80.7357C81.2771 59.3006 81.7154 59.2109 82.0508 59.0316C82.3862 58.8523 82.6305 58.6032 82.7838 58.2844C82.9419 57.9656 83.0209 57.6019 83.0209 57.1934C83.0209 56.8198 82.9419 56.4686 82.7838 56.1399C82.6305 55.8111 82.3862 55.5471 82.0508 55.3478C81.7154 55.1436 81.2771 55.0415 80.7357 55.0415H78.2637V64.7403H76.8767V53.8609H80.7357C81.5262 53.8609 82.1945 54.0028 82.7407 54.2868C83.2868 54.5707 83.7012 54.9643 83.9839 55.4674C84.2665 55.9655 84.4079 56.5359 84.4079 57.1785C84.4079 57.8759 84.2665 58.4712 83.9839 58.9643C83.7012 59.4575 83.2868 59.8336 82.7407 60.0926C82.1945 60.3467 81.5262 60.4737 80.7357 60.4737Z" fill="#FFFEFE"/>
<path d="M90.4587 63.358V59.196C90.4587 58.8772 90.3964 58.6007 90.2718 58.3666C90.1521 58.1275 89.97 57.9431 89.7257 57.8136C89.4813 57.6841 89.1795 57.6194 88.8202 57.6194C88.4848 57.6194 88.1902 57.6791 87.9363 57.7987C87.6872 57.9182 87.4908 58.0752 87.347 58.2694C87.2081 58.4637 87.1386 58.6729 87.1386 58.8971H85.8092C85.8092 58.6082 85.881 58.3217 86.0248 58.0378C86.1685 57.7539 86.3745 57.4973 86.6428 57.2682C86.9159 57.034 87.2416 56.8497 87.6201 56.7152C88.0034 56.5757 88.4297 56.506 88.8992 56.506C89.4646 56.506 89.9628 56.6056 90.394 56.8049C90.8299 57.0041 91.1701 57.3055 91.4144 57.709C91.6635 58.1075 91.7881 58.6082 91.7881 59.2109V62.9769C91.7881 63.2459 91.8097 63.5323 91.8528 63.8362C91.9007 64.14 91.9702 64.4016 92.0612 64.6207V64.7403H90.6742C90.6072 64.5809 90.5545 64.3692 90.5161 64.1052C90.4778 63.8362 90.4587 63.5871 90.4587 63.358ZM90.6886 59.8386L90.703 60.81H89.3592C88.9807 60.81 88.6429 60.8423 88.3459 60.9071C88.0489 60.9669 87.7998 61.059 87.5985 61.1836C87.3973 61.3081 87.244 61.465 87.1386 61.6543C87.0332 61.8386 86.9805 62.0553 86.9805 62.3044C86.9805 62.5584 87.0356 62.7901 87.1458 62.9993C87.256 63.2085 87.4213 63.3754 87.6417 63.4999C87.8668 63.6195 88.1423 63.6793 88.4681 63.6793C88.8753 63.6793 89.2346 63.5896 89.546 63.4103C89.8574 63.2309 90.1041 63.0117 90.2862 62.7527C90.473 62.4937 90.5736 62.2421 90.588 61.998L91.1557 62.663C91.1222 62.8723 91.0312 63.1039 90.8826 63.358C90.7341 63.612 90.5353 63.8561 90.2862 64.0902C90.0419 64.3194 89.7496 64.5112 89.4095 64.6656C89.0741 64.815 88.6956 64.8897 88.2741 64.8897C87.7471 64.8897 87.2848 64.7826 86.8871 64.5684C86.4943 64.3542 86.1877 64.0678 85.9673 63.7091C85.7517 63.3455 85.6439 62.9395 85.6439 62.4912C85.6439 62.0578 85.7253 61.6767 85.8882 61.348C86.0511 61.0142 86.2859 60.7377 86.5925 60.5185C86.8991 60.2944 87.268 60.125 87.6992 60.0104C88.1303 59.8959 88.6118 59.8386 89.1436 59.8386H90.6886Z" fill="#FFFEFE"/>
<path d="M95.2087 57.9257V64.7403H93.8793V56.6554H95.1728L95.2087 57.9257ZM97.6377 56.6106L97.6305 57.8958C97.5203 57.8709 97.4149 57.856 97.3143 57.851C97.2185 57.841 97.1083 57.836 96.9837 57.836C96.6771 57.836 96.4064 57.8859 96.1717 57.9855C95.9369 58.0851 95.7381 58.2246 95.5752 58.4039C95.4123 58.5833 95.283 58.7975 95.1872 59.0465C95.0962 59.2906 95.0363 59.5596 95.0075 59.8535L94.6338 60.0777C94.6338 59.5895 94.6794 59.1312 94.7704 58.7028C94.8662 58.2744 95.0123 57.8958 95.2087 57.567C95.4052 57.2333 95.6543 56.9743 95.9561 56.7899C96.2627 56.6007 96.6268 56.506 97.0484 56.506C97.1442 56.506 97.2544 56.5185 97.379 56.5434C97.5035 56.5633 97.5898 56.5857 97.6377 56.6106Z" fill="#FFFEFE"/>
<path d="M102.481 56.6554V57.7165H98.2773V56.6554H102.481ZM99.7001 54.6903H101.03V62.7378C101.03 63.0117 101.07 63.2185 101.152 63.358C101.233 63.4974 101.339 63.5896 101.468 63.6344C101.597 63.6793 101.736 63.7017 101.885 63.7017C101.995 63.7017 102.11 63.6917 102.23 63.6718C102.354 63.6469 102.448 63.627 102.51 63.612L102.517 64.7403C102.412 64.7752 102.273 64.8076 102.1 64.8374C101.933 64.8723 101.729 64.8897 101.489 64.8897C101.164 64.8897 100.864 64.8225 100.591 64.688C100.318 64.5535 100.1 64.3293 99.9373 64.0155C99.7792 63.6967 99.7001 63.2683 99.7001 62.7303V54.6903Z" fill="#FFFEFE"/>
<path d="M105.37 58.3815V64.7403H104.041V56.6554H105.298L105.37 58.3815ZM105.054 60.3915L104.501 60.3691C104.505 59.8162 104.584 59.3056 104.738 58.8373C104.891 58.3641 105.107 57.9531 105.384 57.6044C105.662 57.2557 105.993 56.9867 106.376 56.7974C106.764 56.6031 107.193 56.506 107.662 56.506C108.046 56.506 108.391 56.5608 108.697 56.6704C109.004 56.775 109.265 56.9444 109.481 57.1785C109.701 57.4126 109.869 57.7165 109.984 58.0901C110.099 58.4587 110.156 58.9095 110.156 59.4426V64.7403H108.819V59.4276C108.819 59.0042 108.76 58.6655 108.64 58.4114C108.52 58.1524 108.345 57.9656 108.115 57.851C107.885 57.7314 107.603 57.6717 107.267 57.6717C106.937 57.6717 106.635 57.7439 106.362 57.8884C106.093 58.0328 105.861 58.2321 105.665 58.4861C105.473 58.7402 105.322 59.0316 105.212 59.3604C105.107 59.6842 105.054 60.0279 105.054 60.3915Z" fill="#FFFEFE"/>
<path d="M115.402 64.8897C114.861 64.8897 114.37 64.7951 113.929 64.6058C113.493 64.4115 113.117 64.14 112.801 63.7913C112.489 63.4426 112.25 63.0292 112.082 62.551C111.914 62.0727 111.83 61.5497 111.83 60.9818V60.668C111.83 60.0104 111.924 59.4251 112.111 58.912C112.298 58.394 112.551 57.9556 112.872 57.5969C113.193 57.2383 113.558 56.9668 113.965 56.7825C114.372 56.5982 114.794 56.506 115.23 56.506C115.785 56.506 116.264 56.6056 116.667 56.8049C117.074 57.0041 117.407 57.2831 117.666 57.6418C117.924 57.9955 118.116 58.4139 118.241 58.8971C118.365 59.3753 118.427 59.8984 118.427 60.4662V61.0864H112.621V59.9581H117.098V59.8535C117.079 59.4949 117.007 59.1462 116.882 58.8074C116.763 58.4687 116.571 58.1897 116.307 57.9705C116.044 57.7514 115.685 57.6418 115.23 57.6418C114.928 57.6418 114.65 57.709 114.396 57.8435C114.142 57.973 113.924 58.1673 113.742 58.4263C113.56 58.6854 113.419 59.0017 113.318 59.3753C113.217 59.7489 113.167 60.1798 113.167 60.668V60.9818C113.167 61.3654 113.217 61.7265 113.318 62.0653C113.423 62.399 113.574 62.6929 113.771 62.947C113.972 63.201 114.214 63.4003 114.497 63.5448C114.784 63.6892 115.11 63.7615 115.474 63.7615C115.943 63.7615 116.341 63.6618 116.667 63.4626C116.993 63.2633 117.278 62.9968 117.522 62.663L118.327 63.3281C118.159 63.5921 117.946 63.8436 117.687 64.0828C117.428 64.3219 117.11 64.5161 116.731 64.6656C116.358 64.815 115.915 64.8897 115.402 64.8897Z" fill="#FFFEFE"/>
<path d="M121.309 57.9257V64.7403H119.98V56.6554H121.273L121.309 57.9257ZM123.738 56.6106L123.731 57.8958C123.621 57.8709 123.515 57.856 123.415 57.851C123.319 57.841 123.209 57.836 123.084 57.836C122.777 57.836 122.507 57.8859 122.272 57.9855C122.037 58.0851 121.838 58.2246 121.676 58.4039C121.513 58.5833 121.383 58.7975 121.287 59.0465C121.196 59.2906 121.137 59.5596 121.108 59.8535L120.734 60.0777C120.734 59.5895 120.78 59.1312 120.871 58.7028C120.966 58.2744 121.113 57.8958 121.309 57.567C121.505 57.2333 121.755 56.9743 122.056 56.7899C122.363 56.6007 122.727 56.506 123.149 56.506C123.245 56.506 123.355 56.5185 123.479 56.5434C123.604 56.5633 123.69 56.5857 123.738 56.6106Z" fill="#FFFEFE"/>
<path d="M37.8571 19.2607C34.9689 19.2607 32.7103 21.5208 30.6643 24.3956C27.8569 20.676 25.509 19.2607 22.6974 19.2607C16.9678 19.2607 12.5781 27.0139 12.5781 35.236C12.5781 40.3708 14.9644 43.6128 18.9585 43.6128C21.8424 43.6128 23.9139 42.1975 27.5975 35.5057L30.1879 30.7424C30.558 31.366 30.945 32.0338 31.3576 32.7503L33.0846 35.7711C36.4492 41.6269 38.325 43.6128 41.7193 43.6128C45.6198 43.6128 47.7892 40.3266 47.7892 35.0856C47.7977 26.4788 43.3102 19.2607 37.8571 19.2607ZM24.7944 33.6791C21.8169 38.5442 20.7748 39.6367 19.1159 39.6367C17.457 39.6367 16.3851 38.0754 16.3851 35.289C16.3851 29.3315 19.2435 23.2369 22.6506 23.2369C24.4924 23.2369 26.0534 24.347 28.3971 27.8587C26.1555 31.4368 24.7944 33.6791 24.7944 33.6791ZM36.0663 33.0643L34.0033 29.4863C33.4376 28.5442 32.8974 27.6774 32.3912 26.8768C34.2501 23.8914 35.7941 22.4009 37.6146 22.4009C41.4046 22.4009 44.4203 28.2125 44.4203 35.3421C44.4203 38.0621 43.5696 39.6411 41.7874 39.6411C40.1072 39.6588 39.2948 38.469 36.0663 33.0643Z" fill="#0081FB"/>
</svg>
