<svg width="125" height="125" viewBox="0 0 125 125" fill="none" xmlns="http://www.w3.org/2000/svg">
<path d="M115.94 35H44.0598C39.0642 35 35 39.0642 35 44.0598V52.1376H125V44.0598C125 39.0642 120.936 35 115.94 35ZM52.1425 46.2382H46.4202C44.964 46.2382 43.7834 45.0577 43.7834 43.6015C43.7834 42.1453 44.964 40.9648 46.4202 40.9648H52.1425C53.5987 40.9648 54.7793 42.1453 54.7793 43.6015C54.7793 45.0577 53.5987 46.2382 52.1425 46.2382ZM66.7324 46.2382H61.01C59.5538 46.2382 58.3733 45.0577 58.3733 43.6015C58.3733 42.1453 59.5538 40.9648 61.01 40.9648H66.7324C68.1886 40.9648 69.3691 42.1453 69.3691 43.6015C69.3691 45.0577 68.1886 46.2382 66.7324 46.2382ZM113.677 46.2382H88.5873C87.1311 46.2382 85.9505 45.0577 85.9505 43.6015C85.9505 42.1453 87.1311 40.9648 88.5873 40.9648H113.677C115.133 40.9648 116.314 42.1453 116.314 43.6015C116.314 45.0577 115.133 46.2382 113.677 46.2382Z" fill="#E4E4F6"/>
<path d="M35 57.4102V115.94C35 120.936 39.0641 125 44.0598 125H115.94C120.936 125 125 120.936 125 115.94V57.4102H35ZM71.5783 76.493C71.5783 73.5627 73.9619 71.1791 76.8922 71.1791H85.785C87.2422 71.1791 88.4217 72.3604 88.4217 73.8158C88.4217 75.2713 87.2422 76.4525 85.785 76.4525H76.8922C76.8693 76.4525 76.8518 76.4701 76.8518 76.493V82.749H85.785C87.2422 82.749 88.4217 83.9303 88.4217 85.3857C88.4217 86.843 87.2422 88.0225 85.785 88.0225H76.8518V94.2785C76.8518 94.3014 76.8693 94.3189 76.8922 94.3189H85.785C87.2422 94.3189 88.4217 95.5002 88.4217 96.9557C88.4217 98.4129 87.2422 99.5924 85.785 99.5924H76.8922C73.9619 99.5924 71.5783 97.2088 71.5783 94.2785V76.493ZM59.6814 88.0225C55.0373 88.0225 51.258 84.2449 51.258 79.6008C51.258 74.9566 55.0373 71.1791 59.6814 71.1791H65.4664C66.9219 71.1791 68.1031 72.3604 68.1031 73.8158C68.1031 75.2713 66.9219 76.4525 65.4664 76.4525H59.6814C57.9447 76.4525 56.5314 77.8641 56.5314 79.6008C56.5314 81.3375 57.9447 82.749 59.6814 82.749C64.3238 82.749 68.1031 86.5283 68.1031 91.1707C68.1031 95.8148 64.3238 99.5924 59.6814 99.5924H53.8947C52.4393 99.5924 51.258 98.4129 51.258 96.9557C51.258 95.5002 52.4393 94.3189 53.8947 94.3189H59.6814C61.4164 94.3189 62.8297 92.9074 62.8297 91.1707C62.8297 89.4357 61.4164 88.0225 59.6814 88.0225ZM106.105 110.528H53.8947C52.4393 110.528 51.258 109.346 51.258 107.891C51.258 106.434 52.4393 105.254 53.8947 105.254H106.105C107.561 105.254 108.742 106.434 108.742 107.891C108.742 109.346 107.561 110.528 106.105 110.528ZM108.742 94.3084C108.742 97.2228 106.371 99.5924 103.456 99.5924H97.1826C94.2682 99.5924 91.8969 97.2228 91.8969 94.3084V76.4648C91.8969 73.5504 94.2682 71.1791 97.1826 71.1791H103.456C106.371 71.1791 108.742 73.5504 108.742 76.4648V94.3084ZM97.1826 76.4525L97.1703 94.3084L103.456 94.3189L103.469 76.4648L103.456 76.4525H97.1826Z" fill="#E4E4F6"/>
<g clip-path="url(#clip0)">
<path d="M37.5198 6.01758C20.1294 6.01758 6.03174 20.1152 6.03174 37.5056C6.03174 54.8961 20.1294 68.9937 37.5198 68.9937C54.9102 68.9937 69.0079 54.8961 69.0079 37.5056C68.9889 20.1231 54.9023 6.03651 37.5198 6.01758ZM37.5198 9.01644C46.7818 9.02375 55.461 13.5378 60.785 21.1169L57.0364 24.8654C56.1242 24.3135 55.0798 24.0181 54.0135 24.0108C50.7011 24.0108 48.0158 26.6961 48.0158 30.0085C48.0211 31.0759 48.3148 32.1219 48.866 33.0358L39.0477 42.8541C37.1886 41.7206 34.8521 41.7206 32.993 42.8541L26.1736 36.0347C26.7248 35.1208 27.0185 34.0748 27.0238 33.0074C27.0279 29.7015 24.3514 27.0182 21.0455 27.0141C18.3115 27.0107 15.9227 28.8601 15.2412 31.5079H9.67836C12.5173 18.3978 24.1059 9.03612 37.5198 9.01644ZM57.0124 30.0085C57.0124 31.6648 55.6698 33.0074 54.0135 33.0074C52.3572 33.0074 51.0147 31.6648 51.0147 30.0085C51.0147 28.3522 52.3572 27.0096 54.0135 27.0096C55.6698 27.0096 57.0124 28.3522 57.0124 30.0085ZM39.0192 48.0017C39.0192 49.658 37.6767 51.0005 36.0204 51.0005C34.3641 51.0005 33.0215 49.658 33.0215 48.0017C33.0215 46.3454 34.3641 45.0028 36.0204 45.0028C37.6767 45.0028 39.0192 46.3454 39.0192 48.0017ZM24.0249 33.0074C24.0249 34.6637 22.6824 36.0062 21.0261 36.0062C19.3697 36.0062 18.0272 34.6637 18.0272 33.0074C18.0272 31.351 19.3697 30.0085 21.0261 30.0085C22.6824 30.0085 24.0249 31.351 24.0249 33.0074ZM51.3622 62.4161C47.1278 64.7672 42.3633 65.999 37.5198 65.9947C21.7964 66.0054 9.04128 53.2679 9.0306 37.5444C9.02985 36.5297 9.08346 35.5155 9.19104 34.5066H15.2412C15.9229 37.1465 18.2995 38.9946 21.0261 39.0049C22.0935 38.9996 23.1395 38.7059 24.0534 38.1547L30.8728 44.9741C30.3216 45.888 30.0279 46.9341 30.0226 48.0015C30.0226 51.3139 32.7079 53.9992 36.0204 53.9992C39.3328 53.9992 42.0181 51.3139 42.0181 48.0015C42.0128 46.9341 41.7191 45.888 41.1679 44.9741L50.9862 35.1559C51.9001 35.7071 52.9461 36.0008 54.0135 36.006C57.326 36.006 60.0113 33.3207 60.0113 30.0083C60.006 28.9409 59.7123 27.8949 59.1611 26.9809L62.4298 23.7137C70.061 37.4575 65.1058 54.7851 51.3622 62.4161Z" fill="#221EC4"/>
<path d="M75.0056 15.0133C77.7322 15.003 80.1088 13.1551 80.7904 10.515H89.9999V7.51613H80.7904C80.1088 4.87601 77.7322 3.02815 75.0056 3.01784C71.6932 3.01784 69.0079 5.70313 69.0079 9.01557C69.0132 10.083 69.3068 11.129 69.8581 12.0429L67.2236 14.6774C54.618 -1.74529 31.086 -4.83975 14.6633 7.76579C-1.75945 20.3713 -4.8539 43.9036 7.75163 60.3263C19.6504 75.828 41.4617 79.5884 57.8641 68.9659L62.3894 73.4911L64.5096 75.6113L76.58 87.6818C79.6499 90.7517 84.6269 90.7517 87.6968 87.6818C90.7667 84.6119 90.7667 79.6349 87.6968 76.565L75.6264 64.4945L73.5062 62.3743L68.9809 57.8491C77.0139 45.4757 77.0139 29.534 68.9809 17.1605L71.9798 14.1616C72.8931 14.713 73.9388 15.0073 75.0056 15.0133ZM75.0056 6.0167C76.6619 6.0167 78.0045 7.35926 78.0045 9.01557C78.0045 10.6719 76.6619 12.0144 75.0056 12.0144C73.3493 12.0144 72.0068 10.6719 72.0068 9.01557C72.0068 7.35926 73.3495 6.0167 75.0056 6.0167ZM85.5766 78.6852C87.497 80.5625 87.5321 83.6412 85.6548 85.5616C83.7775 87.482 80.6988 87.517 78.7784 85.6397C78.752 85.614 78.7261 85.588 78.7002 85.5616L66.6298 73.4911L73.5062 66.6147L85.5766 78.6852ZM71.386 64.4945L64.5096 71.3709L60.3592 67.2205C60.5706 67.0586 60.7685 66.8801 60.977 66.7137C61.1854 66.5473 61.4268 66.3478 61.6502 66.1604C61.9786 65.8845 62.3024 65.6056 62.6203 65.3192C62.7838 65.1693 62.9397 65.0193 63.1001 64.8694C63.7149 64.2936 64.3102 63.6983 64.886 63.0836C65.0359 62.9231 65.1859 62.7672 65.3358 62.6038C65.6222 62.2859 65.9011 61.962 66.177 61.6336C66.365 61.4117 66.5494 61.1874 66.7303 60.9604C66.8952 60.7535 67.0736 60.5555 67.2356 60.3441L71.386 64.4945ZM65.5712 57.5297C65.0989 58.1894 64.6116 58.8357 64.0973 59.458C63.9473 59.6394 63.7869 59.8148 63.6324 59.9932C63.1736 60.527 62.6998 61.0449 62.211 61.5467C61.9981 61.7665 61.7816 61.983 61.5617 62.1959C61.0619 62.6847 60.5442 63.1586 60.0083 63.6174C59.8299 63.7673 59.6544 63.9308 59.473 64.0822C58.8508 64.5965 58.2045 65.0838 57.5448 65.5561C42.0226 76.6454 20.4498 73.0518 9.36052 57.5297C-1.72871 42.0076 1.86486 20.4347 17.387 9.34544C32.9091 -1.74379 54.482 1.84959 65.5712 17.3719C74.1519 29.3827 74.1519 45.5189 65.5712 57.5297Z" fill="#221EC4"/>
</g>
<defs>
<clipPath id="clip0">
<rect width="90" height="90" fill="white"/>
</clipPath>
</defs>
</svg>
