<svg width="125" height="125" viewBox="0 0 125 125" fill="none" xmlns="http://www.w3.org/2000/svg">
<g clip-path="url(#clip0)">
<path d="M103.17 38.4546C97.0111 36.227 88.7817 35 80.0001 35C71.2185 35 62.9891 36.2277 56.8301 38.4563C51.4511 40.4033 48.2397 42.9442 48.2397 45.2557C48.2397 47.5673 51.4511 50.1077 56.8304 52.0537C62.9891 54.2825 71.2178 55.5103 80.0001 55.5103C88.7824 55.5103 97.0111 54.2825 103.17 52.0537C108.549 50.1067 111.76 47.5659 111.76 45.254C111.76 42.9422 108.549 40.4024 103.17 38.4546Z" fill="#E4E4F6"/>
<path d="M80.0002 105.611C67.5523 105.611 54.5289 103.039 48.2217 98.1675V114.744C48.2217 117.056 51.4439 119.598 56.8223 121.545C62.9795 123.772 71.2199 124.999 80.0048 124.999C85.1731 125.019 90.3319 124.557 95.4145 123.62C105.044 121.772 111.779 118.122 111.779 114.744V98.1675C105.472 103.039 92.4482 105.611 80.0002 105.611ZM85.5797 116.872H74.4208C73.3491 116.872 72.4801 116.003 72.4801 114.932C72.4801 113.86 73.3491 112.991 74.4208 112.991H85.5797C86.6514 112.991 87.5203 113.86 87.5203 114.932C87.5203 116.003 86.6514 116.872 85.5797 116.872Z" fill="#E4E4F6"/>
<path d="M80.0002 82.5016C67.5523 82.5016 54.5289 79.9299 48.2217 75.0583V91.4738C48.2217 93.7861 51.4439 96.3284 56.8223 98.2746C62.9795 100.503 71.2199 101.73 80.0048 101.73C88.7898 101.73 97.0231 100.503 103.18 98.2746C108.559 96.3286 111.779 93.7863 111.779 91.4738V75.0581C105.472 79.9297 92.4482 82.5016 80.0002 82.5016ZM85.5797 93.3417H74.4208C73.3491 93.3417 72.4801 92.4727 72.4801 91.401C72.4801 90.3293 73.3491 89.4603 74.4208 89.4603H85.5797C86.6514 89.4603 87.5203 90.3293 87.5203 91.401C87.5203 92.4727 86.6514 93.3417 85.5797 93.3417Z" fill="#E4E4F6"/>
<path d="M80.0002 59.3924C67.5523 59.3924 54.5289 56.8203 48.2217 51.9487V68.3644C48.2217 70.6767 51.4439 73.2193 56.8223 75.1653C62.9795 77.3934 71.2199 78.6202 80.0048 78.6202C88.7898 78.6202 97.0231 77.3934 103.18 75.1653C108.559 73.2193 111.779 70.6767 111.779 68.3644V51.9487C105.472 56.8203 92.4482 59.3924 80.0002 59.3924ZM85.5797 70.5385H74.4208C73.3491 70.5385 72.4801 69.6695 72.4801 68.5978C72.4801 67.526 73.3491 66.6571 74.4208 66.6571H85.5797C86.6514 66.6571 87.5203 67.526 87.5203 68.5978C87.5203 69.6695 86.6514 70.5385 85.5797 70.5385Z" fill="#E4E4F6"/>
</g>
<g clip-path="url(#clip1)">
<path d="M89.808 80.9802C88.9801 77.7734 85.7092 75.8451 82.5024 76.673C80.39 77.2184 78.7405 78.8679 78.1952 80.9802H50.784C50.2354 78.8823 48.5972 77.244 46.4992 76.6955V67.4874H82.4801C86.6179 67.4825 89.9713 64.1292 89.9761 59.9914V50.9962C89.9696 48.6274 88.8397 46.4024 86.9313 44.9994C88.8397 43.5963 89.9696 41.3713 89.9761 39.0025V30.0073C89.9696 27.6386 88.8397 25.4136 86.9313 24.0105C88.8397 22.6074 89.9696 20.3824 89.9761 18.0137V9.01848C89.9713 4.88068 86.6179 1.52733 82.4801 1.52246H7.51996C3.38216 1.52733 0.0288195 4.88068 0.0239471 9.01848V18.0137C0.0305061 20.3824 1.16034 22.6074 3.06883 24.0105C1.16034 25.4136 0.0305061 27.6386 0.0239471 30.0073V39.0025C0.0305061 41.3713 1.16034 43.5963 3.06883 44.9994C1.16034 46.4024 0.0305061 48.6274 0.0239471 50.9962V59.9914C0.0288195 64.1292 3.38216 67.4825 7.51996 67.4874H43.5008V76.6955C41.4029 77.244 39.7646 78.8823 39.2161 80.9802H11.8047C10.9768 77.7734 7.70586 75.8451 4.49907 76.673C1.29227 77.501 -0.636077 80.7719 0.191858 83.9787C1.01979 87.1854 4.29068 89.1138 7.49747 88.2859C9.60985 87.7405 11.2593 86.091 11.8047 83.9787H39.2161C40.0292 87.1731 43.2778 89.1035 46.4721 88.2906C48.5904 87.7514 50.2446 86.0972 50.784 83.9787H78.1954C79.0233 87.1854 82.2942 89.1138 85.501 88.2859C88.7078 87.4579 90.6362 84.187 89.808 80.9802ZM6.02076 85.4779C4.3647 85.4779 3.02235 84.1355 3.02235 82.4794C3.02235 80.8234 4.3647 79.481 6.02076 79.481C7.67682 79.481 9.01917 80.8234 9.01917 82.4794C9.01917 84.1355 7.67663 85.4779 6.02076 85.4779ZM3.02235 18.0137V9.01848C3.02235 6.53449 5.03597 4.52087 7.51996 4.52087H82.4801C84.9641 4.52087 86.9777 6.53449 86.9777 9.01848V18.0137C86.9777 20.4977 84.9641 22.5113 82.4801 22.5113H7.51996C5.03597 22.5113 3.02235 20.4977 3.02235 18.0137ZM3.02235 39.0025V30.0073C3.02235 27.5233 5.03597 25.5097 7.51996 25.5097H82.4801C84.9641 25.5097 86.9777 27.5233 86.9777 30.0073V39.0025C86.9777 41.4865 84.9641 43.5002 82.4801 43.5002H7.51996C5.03597 43.5002 3.02235 41.4865 3.02235 39.0025ZM7.51996 64.489C5.03597 64.489 3.02235 62.4754 3.02235 59.9914V50.9962C3.02235 48.5122 5.03597 46.4986 7.51996 46.4986H82.4801C84.9641 46.4986 86.9777 48.5122 86.9777 50.9962V59.9914C86.9777 62.4754 84.9641 64.489 82.4801 64.489H7.51996ZM45 85.4779C43.344 85.4779 42.0016 84.1355 42.0016 82.4794C42.0016 80.8234 43.344 79.481 45 79.481C46.6561 79.481 47.9984 80.8234 47.9984 82.4794C47.9984 84.1355 46.6559 85.4779 45 85.4779ZM83.9793 85.4779C82.3233 85.4779 80.9809 84.1355 80.9809 82.4794C80.9809 80.8234 82.3233 79.481 83.9793 79.481C85.6354 79.481 86.9777 80.8234 86.9777 82.4794C86.9777 84.1355 85.6352 85.4779 83.9793 85.4779Z" fill="#221EC4"/>
<path d="M18.0143 9.01855H10.5182C9.69031 9.01855 9.01904 9.68982 9.01904 10.5178V16.5146C9.01904 17.3425 9.69031 18.0138 10.5182 18.0138H18.0143C18.8422 18.0138 19.5135 17.3425 19.5135 16.5146V10.5178C19.5135 9.68982 18.8422 9.01855 18.0143 9.01855ZM16.5151 15.0154H12.0175V12.017H16.5151V15.0154Z" fill="#221EC4"/>
<path d="M18.0143 30.0073H10.5182C9.69031 30.0073 9.01904 30.6786 9.01904 31.5065V37.5033C9.01904 38.3313 9.69031 39.0025 10.5182 39.0025H18.0143C18.8422 39.0025 19.5135 38.3313 19.5135 37.5033V31.5065C19.5135 30.6786 18.8422 30.0073 18.0143 30.0073ZM16.5151 36.0041H12.0175V33.0057H16.5151V36.0041Z" fill="#221EC4"/>
<path d="M18.0143 50.9961H10.5182C9.69031 50.9961 9.01904 51.6674 9.01904 52.4953V58.4921C9.01904 59.32 9.69031 59.9913 10.5182 59.9913H18.0143C18.8422 59.9913 19.5135 59.32 19.5135 58.4921V52.4953C19.5135 51.6674 18.8422 50.9961 18.0143 50.9961ZM16.5151 56.9929H12.0175V53.9945H16.5151V56.9929Z" fill="#221EC4"/>
<path d="M79.482 7.51904H64.4899C63.662 7.51904 62.9907 8.19031 62.9907 9.01825C62.9907 9.84618 63.662 10.5175 64.4899 10.5175H79.482C80.3099 10.5175 80.9812 9.84618 80.9812 9.01825C80.9812 8.19031 80.3099 7.51904 79.482 7.51904Z" fill="#221EC4"/>
<path d="M79.482 13.5161H64.4899C63.662 13.5161 62.9907 14.1874 62.9907 15.0153C62.9907 15.8433 63.662 16.5145 64.4899 16.5145H79.482C80.3099 16.5145 80.9812 15.8433 80.9812 15.0153C80.9812 14.1874 80.3099 13.5161 79.482 13.5161Z" fill="#221EC4"/>
<path d="M79.482 28.5083H64.4899C63.662 28.5083 62.9907 29.1796 62.9907 30.0075C62.9907 30.8354 63.662 31.5067 64.4899 31.5067H79.482C80.3099 31.5067 80.9812 30.8354 80.9812 30.0075C80.9812 29.1796 80.3099 28.5083 79.482 28.5083Z" fill="#221EC4"/>
<path d="M79.482 34.5049H64.4899C63.662 34.5049 62.9907 35.1762 62.9907 36.0041C62.9907 36.832 63.662 37.5033 64.4899 37.5033H79.482C80.3099 37.5033 80.9812 36.832 80.9812 36.0041C80.9812 35.1762 80.3099 34.5049 79.482 34.5049Z" fill="#221EC4"/>
<path d="M79.482 49.4971H64.4899C63.662 49.4971 62.9907 50.1683 62.9907 50.9963C62.9907 51.8242 63.662 52.4955 64.4899 52.4955H79.482C80.3099 52.4955 80.9812 51.8242 80.9812 50.9963C80.9812 50.1683 80.3099 49.4971 79.482 49.4971Z" fill="#221EC4"/>
<path d="M79.482 55.4937H64.4899C63.662 55.4937 62.9907 56.1649 62.9907 56.9929C62.9907 57.8208 63.662 58.4921 64.4899 58.4921H79.482C80.3099 58.4921 80.9812 57.8208 80.9812 56.9929C80.9812 56.1649 80.3099 55.4937 79.482 55.4937Z" fill="#221EC4"/>
</g>
<defs>
<clipPath id="clip0">
<rect width="90" height="90" fill="white" transform="translate(35 35)"/>
</clipPath>
<clipPath id="clip1">
<rect width="90" height="90" fill="white"/>
</clipPath>
</defs>
</svg>
