<svg width="125" height="125" viewBox="0 0 125 125" fill="none" xmlns="http://www.w3.org/2000/svg">
<path d="M124.798 118.532L118.333 105.606C117.377 103.69 115.449 102.497 113.304 102.497H110.773L89.2115 80.9357L90.7452 79.402C92.4851 77.6659 92.4851 74.8347 90.6664 73.016C88.3341 70.6836 86.1666 69.2361 83.8455 68.4636C82.173 67.9048 80.8456 66.5774 80.287 64.9051C79.5107 62.5801 78.0671 60.4128 75.7346 58.0842L55.8454 38.1987C51.7318 34.085 44.5321 34.0664 40.3998 38.1987L38.1949 40.3999C36.1362 42.4622 35 45.2034 35 48.132C35 51.0456 36.1362 53.7868 38.1949 55.8492L58.0804 75.7347C60.4127 78.067 62.5802 79.5145 64.9013 80.2871C66.5738 80.8458 67.9012 82.1733 68.4598 83.8456C69.2323 86.1706 70.6835 88.3379 73.0834 90.7379C73.9347 91.5891 75.0557 92.0578 76.2521 92.0578C77.4408 92.0578 78.5582 91.5928 79.4019 90.7491L80.9356 89.2155L102.497 110.777V113.308C102.497 115.453 103.69 117.38 105.606 118.34L118.532 124.805C118.802 124.933 119.086 124.996 119.372 124.996C119.855 124.996 120.335 124.809 120.699 124.449L124.449 120.699C125.019 120.125 125.157 119.255 124.798 118.532Z" fill="#E4E4F6"/>
<path d="M124.966 52.6205C124.929 51.9717 124.486 51.353 123.916 51.0455C123.331 50.7305 122.622 50.7418 122.052 51.083L111.789 57.2365C108.673 55.6241 106.637 52.6017 106.296 49.1556L117.755 42.2821C118.28 41.9672 118.618 41.4159 118.663 40.8048C118.704 40.1936 118.445 39.6011 117.969 39.2149C114.62 36.5111 110.649 35.0562 106.284 35C101.638 35 96.9548 37.1524 93.4337 40.9097C89.2489 45.3682 87.314 49.7893 87.5128 54.4167C87.6216 56.9554 86.4854 59.6103 84.2729 61.8301C83.8266 62.2951 83.6466 62.9551 83.8041 63.5775C83.954 64.2038 84.4191 64.7062 85.0303 64.9087C87.884 65.8536 90.5913 67.6386 93.3137 70.3647C94.4086 71.4596 95.1473 72.7946 95.511 74.3395C95.6685 74.9995 96.171 75.5244 96.8235 75.7119C96.9923 75.7606 97.1647 75.7831 97.3373 75.7831C97.8286 75.7831 98.3048 75.5919 98.6648 75.2356L101.961 71.9394C103.483 72.3182 104.867 72.4982 106.247 72.4982C111.388 72.4982 116.36 70.3533 119.893 66.611C123.47 62.8164 125.274 57.8478 124.966 52.6205Z" fill="#E4E4F6"/>
<path d="M75.727 96.8388C75.5282 96.2013 75.0107 95.7063 74.3621 95.5563C72.8584 95.2039 71.5011 94.4539 70.4324 93.3852C67.665 90.6215 65.8575 87.8879 64.9051 85.0268C64.699 84.4081 64.1889 83.9431 63.5589 83.793C62.9289 83.6392 62.2615 83.8343 61.8003 84.2917L61.4478 84.648C59.6066 86.4854 56.9143 87.4978 53.7495 87.4978C43.411 87.498 35 95.9088 35 106.247C35 106.903 35.0824 107.533 35.1687 108.167L35.2287 108.61C35.3074 109.236 35.7012 109.783 36.2712 110.057C36.8412 110.335 37.5086 110.304 38.0562 109.978L50.0819 102.764C53.1981 104.376 55.2342 107.398 55.5754 110.844L43.0322 118.37C42.4885 118.697 42.1471 119.274 42.1247 119.904C42.0985 120.534 42.3946 121.138 42.9084 121.505C46.1109 123.781 49.8457 124.993 53.7155 125H53.738C58.3953 125 63.0977 122.814 66.645 119.008C70.7735 114.579 72.6823 110.192 72.4872 105.595C72.3859 103.21 73.3908 100.746 75.3145 98.6574C75.7683 98.1699 75.9258 97.4763 75.727 96.8388Z" fill="#E4E4F6"/>
<g clip-path="url(#clip0)">
<path d="M15.8292 69.6004C14.5692 69.6004 13.358 69.9149 12.2834 70.5054C6.6227 63.249 3.51562 54.2347 3.51562 45C3.51562 22.1251 22.1251 3.51562 45 3.51562C47.7809 3.51562 50.5605 3.79234 53.2617 4.33823C54.212 4.53049 55.1404 3.91525 55.3326 2.96356C55.5249 2.01187 54.9097 1.0849 53.958 0.891953C51.0281 0.300064 48.0144 0 45 0C32.9803 0 21.6795 4.68086 13.1802 13.1802C4.68086 21.6795 0 32.9803 0 45C0 55.1109 3.43323 64.978 9.68376 72.8881C8.87901 74.0904 8.44643 75.5035 8.44643 76.9833C8.44643 78.9553 9.21478 80.8092 10.6094 82.2031C12.0033 83.5977 13.8572 84.3661 15.8292 84.3661C17.8013 84.3661 19.6552 83.5977 21.0498 82.2031C22.4444 80.8092 23.2121 78.9546 23.2121 76.9826C23.2121 75.0112 22.4444 73.1566 21.0498 71.7627C19.6552 70.3681 17.8013 69.6004 15.8292 69.6004ZM18.5635 79.7175C17.8336 80.4481 16.862 80.8504 15.8292 80.8504C14.7965 80.8504 13.8256 80.4481 13.095 79.7175C12.3644 78.9869 11.9621 78.016 11.9621 76.9833C11.9621 75.9499 12.3644 74.9789 13.095 74.2484C13.8249 73.5178 14.7965 73.1161 15.8292 73.1161C16.862 73.1161 17.8329 73.5184 18.5635 74.2484C19.2941 74.9789 19.6964 75.9499 19.6964 76.9833C19.6964 78.016 19.2941 78.9869 18.5635 79.7175Z" fill="#221EC4"/>
<path d="M80.3148 17.1097C82.2257 14.243 81.9188 10.3236 79.3912 7.79604C77.9967 6.40215 76.1427 5.63379 74.1707 5.63379C72.1986 5.63379 70.3447 6.40215 68.9501 7.79604C67.5555 9.19061 66.7878 11.0446 66.7878 13.0166C66.7878 14.9886 67.5555 16.8426 68.9501 18.2372C70.3447 19.6317 72.1986 20.3994 74.1707 20.3994C75.4307 20.3994 76.6419 20.0849 77.7165 19.4944C83.3772 26.7516 86.4843 35.7652 86.4843 44.9999C86.4843 67.8748 67.8748 86.4842 44.9999 86.4842C42.2465 86.4842 39.493 86.213 36.8171 85.6774C35.8655 85.4872 34.9392 86.1045 34.7483 87.0562C34.5581 88.0086 35.1754 88.9342 36.1271 89.1251C39.0295 89.7053 42.0151 89.9999 44.9999 89.9999C57.0196 89.9999 68.3204 85.319 76.8197 76.8197C85.319 68.3204 89.9999 57.0196 89.9999 44.9999C89.9999 34.8883 86.566 25.0205 80.3148 17.1097ZM71.4364 15.7515C70.7058 15.0209 70.3035 14.05 70.3035 13.0166C70.3035 11.9839 70.7058 11.013 71.4364 10.2824C72.1663 9.55179 73.1379 9.14941 74.1707 9.14941C75.2034 9.14941 76.175 9.55179 76.9056 10.2824C78.4128 11.7903 78.4128 14.2436 76.9056 15.7515C76.175 16.4814 75.2034 16.8838 74.1707 16.8838C73.1373 16.8838 72.1663 16.4814 71.4364 15.7515Z" fill="#221EC4"/>
<path d="M37.7461 75.2344C37.7461 76.2053 38.5337 76.9922 39.5039 76.9922H50.495C51.466 76.9922 52.2529 76.2053 52.2529 75.2344V71.8266C54.5641 71.2045 56.7737 70.2885 58.8501 69.0923L61.2561 71.4983C61.5857 71.8279 62.0327 72.0133 62.4997 72.0133C62.9652 72.0133 63.4129 71.8279 63.7425 71.4977L71.5112 63.7234C72.1972 63.0368 72.1972 61.9238 71.5112 61.2378L69.1079 58.8345C70.3041 56.7581 71.2201 54.5485 71.8422 52.2372H75.2369C76.2079 52.2372 76.9948 51.4503 76.9948 50.4794V39.4883C76.9948 38.5174 76.2079 37.7305 75.2369 37.7305H71.8415C71.2194 35.4199 70.3041 33.2103 69.1079 31.1339L71.4982 28.7437C71.8277 28.4141 72.0131 27.9664 72.0131 27.5002C72.0125 27.0339 71.8271 26.5862 71.4975 26.2566L63.7226 18.4879C63.0366 17.802 61.9236 17.802 61.2369 18.4886L58.8501 20.8761C56.7737 19.6799 54.5641 18.764 52.2529 18.1419V14.7656C52.2529 13.7947 51.466 13.0078 50.495 13.0078H39.5039C38.5337 13.0078 37.7461 13.7947 37.7461 14.7656V18.1425C35.4355 18.764 33.2259 19.6799 31.1495 20.8761L28.762 18.4886C28.0761 17.8027 26.963 17.802 26.2764 18.4879L18.5022 26.2573C18.1719 26.5869 17.9865 27.0339 17.9865 27.5002C17.9865 27.9664 18.1719 28.4141 18.5015 28.7437L20.8917 31.1339C19.6956 33.2103 18.7796 35.4192 18.1575 37.7305H14.7689C13.798 37.7305 13.0111 38.5174 13.0111 39.4876L13.0049 50.4787C13.0042 50.945 13.1896 51.3927 13.5192 51.7223C13.8488 52.0518 14.2958 52.2372 14.7627 52.2372H18.1575C18.7796 54.5485 19.6956 56.7581 20.8917 58.8345L18.4884 61.2378C17.8025 61.9238 17.8018 63.0368 18.4884 63.7234L26.2571 71.4977C26.5867 71.8272 27.0337 72.0133 27.5 72.0133H27.5007C27.9669 72.0133 28.4139 71.8279 28.7435 71.4983L31.1488 69.0923C33.2259 70.2885 35.4355 71.2045 37.7461 71.8266V75.2344ZM31.8382 65.3954C31.1426 64.9457 30.2273 65.0432 29.6409 65.6289L27.5007 67.7692L22.2169 62.4813L24.3551 60.3424C24.9408 59.7567 25.0383 58.8414 24.5886 58.1458C22.9949 55.6794 21.8743 52.9761 21.2591 50.11C21.0846 49.3005 20.3692 48.7216 19.5404 48.7216H16.5212L16.5253 41.2461H19.5404C20.3692 41.2461 21.0846 40.668 21.2591 39.8577C21.8743 36.9923 22.9949 34.289 24.5886 31.8226C25.0383 31.127 24.9408 30.2117 24.3551 29.626L22.2307 27.5008L27.5185 22.2171L29.6409 24.3402C30.2273 24.9259 31.1419 25.0227 31.8382 24.5737C34.3039 22.98 37.0073 21.8594 39.8733 21.2441C40.6829 21.0697 41.2617 20.3535 41.2617 19.5255V16.5234H48.7372V19.5248C48.7372 20.3535 49.3154 21.0697 50.1256 21.2434C52.991 21.8594 55.695 22.9793 58.1608 24.573C58.8563 25.0227 59.7716 24.9259 60.3573 24.3395L62.4804 22.2171L67.7683 27.5008L65.6438 29.6253C65.0574 30.2117 64.9606 31.127 65.4104 31.8226C67.0041 34.289 68.124 36.9923 68.7399 39.8577C68.9136 40.668 69.6298 41.2461 70.4586 41.2461H73.4791V48.7216H70.4586C69.6298 48.7216 68.9143 49.3005 68.7399 50.11C68.1247 52.9754 67.0041 55.6794 65.4104 58.1451C64.9606 58.8414 65.0581 59.7567 65.6438 60.3424L67.782 62.4806L62.4983 67.7685L60.358 65.6289C59.7716 65.0425 58.8563 64.9457 58.1608 65.3954C55.6943 66.9891 52.991 68.1091 50.1256 68.725C49.3154 68.8994 48.7372 69.6149 48.7372 70.4436V73.4766H41.2617V70.4436C41.2617 69.6156 40.6829 68.8994 39.8733 68.725C37.008 68.1097 34.3046 66.9891 31.8382 65.3954Z" fill="#221EC4"/>
<path d="M59.5248 45.0002C59.5248 36.9912 53.0092 30.4756 45.0002 30.4756C36.9912 30.4756 30.4756 36.9912 30.4756 45.0002C30.4756 53.0092 36.9912 59.5248 45.0002 59.5248C53.0092 59.5248 59.5248 53.0092 59.5248 45.0002ZM33.9912 45.0002C33.9912 38.9296 38.9296 33.9912 45.0002 33.9912C51.0708 33.9912 56.0092 38.9303 56.0092 45.0002C56.0092 51.0701 51.0708 56.0092 45.0002 56.0092C38.9296 56.0092 33.9912 51.0708 33.9912 45.0002Z" fill="#221EC4"/>
<path d="M61.1855 6.64806C61.6483 6.64806 62.1015 6.45992 62.4284 6.13307C62.7552 5.80417 62.9434 5.35098 62.9434 4.88818C62.9434 4.42813 62.7559 3.97426 62.4284 3.64536C62.1015 3.31851 61.6483 3.13037 61.1855 3.13037C60.7214 3.13037 60.2702 3.31851 59.9434 3.64536C59.6159 3.97426 59.4277 4.42607 59.4277 4.88818C59.4277 5.35236 59.6159 5.80417 59.9434 6.13307C60.2702 6.45992 60.7214 6.64806 61.1855 6.64806Z" fill="#221EC4"/>
<path d="M28.8911 83.3833C28.429 83.3833 27.9751 83.5714 27.6483 83.8983C27.3214 84.2251 27.1333 84.679 27.1333 85.1411C27.1333 85.6053 27.3214 86.0571 27.6483 86.3839C27.9751 86.7108 28.429 86.8989 28.8911 86.8989C29.3532 86.8989 29.8071 86.7108 30.1339 86.3839C30.4608 86.0571 30.6489 85.6032 30.6489 85.1411C30.6489 84.679 30.4608 84.2251 30.1339 83.8983C29.8071 83.5714 29.3532 83.3833 28.8911 83.3833Z" fill="#221EC4"/>
</g>
<defs>
<clipPath id="clip0">
<rect width="90" height="90" fill="white"/>
</clipPath>
</defs>
</svg>
