<svg width="125" height="125" viewBox="0 0 125 125" fill="none" xmlns="http://www.w3.org/2000/svg">
<g clip-path="url(#clip0)">
<path d="M79.4632 88.036L73.7002 82.2729L71.2798 84.6947L74.3978 88.036H79.4632Z" fill="#E4E4F6"/>
<path d="M115.357 39.8216C115.357 37.1588 113.199 35 110.536 35H49.4642C46.8014 35 44.6426 37.1588 44.6426 39.8216V51.0716H115.357V39.8216ZM52.6784 47.8574C50.0156 47.8574 47.8575 45.6986 47.8575 43.0358C47.8575 40.373 50.0156 38.2142 52.6784 38.2142C55.3412 38.2142 57.5 40.373 57.5 43.0358C57.5 44.3143 56.9919 45.5407 56.0876 46.445C55.184 47.3493 53.9576 47.8574 52.6784 47.8574ZM65.5358 47.8574C62.873 47.8574 60.7142 45.6986 60.7142 43.0358C60.7142 40.373 62.873 38.2142 65.5358 38.2142C68.1986 38.2142 70.3575 40.373 70.3575 43.0358C70.3575 44.3143 69.8493 45.5407 68.945 46.445C68.0407 47.3493 66.8144 47.8574 65.5358 47.8574ZM78.3926 47.8574C75.7298 47.8574 73.5716 45.6986 73.5716 43.0358C73.5716 40.373 75.7298 38.2142 78.3926 38.2142C81.0554 38.2142 83.2142 40.373 83.2142 43.0358C83.2142 44.3143 82.7061 45.5407 81.8025 46.445C80.8981 47.3493 79.6718 47.8574 78.3926 47.8574ZM110.536 44.6426H94.4642C93.5764 44.6426 92.8575 43.9236 92.8575 43.0358C92.8575 42.148 93.5764 41.4284 94.4642 41.4284H110.536C111.424 41.4284 112.143 42.148 112.143 43.0358C112.143 43.9236 111.424 44.6426 110.536 44.6426Z" fill="#E4E4F6"/>
<path d="M84.9499 71.9642C84.9499 73.7392 83.5106 75.1784 81.7357 75.1784C79.96 75.1784 78.5215 73.7392 78.5215 71.9642C78.5215 70.1892 79.96 68.75 81.7357 68.75C83.5106 68.75 84.9499 70.1892 84.9499 71.9642Z" fill="#E4E4F6"/>
<path d="M54.286 43.0357C54.286 43.9235 53.5664 44.6424 52.6785 44.6424C51.7914 44.6424 51.0718 43.9235 51.0718 43.0357C51.0718 42.1478 51.7914 41.4282 52.6785 41.4282C53.5664 41.4282 54.286 42.1478 54.286 43.0357Z" fill="#E4E4F6"/>
<path d="M79.9998 43.0357C79.9998 43.9235 79.2802 44.6424 78.3924 44.6424C77.5052 44.6424 76.7856 43.9235 76.7856 43.0357C76.7856 42.1478 77.5052 41.4282 78.3924 41.4282C79.2802 41.4282 79.9998 42.1478 79.9998 43.0357Z" fill="#E4E4F6"/>
<path d="M36.6074 94.4643H97.6784C98.5662 94.4643 99.2858 93.7447 99.2858 92.8576V63.9285C99.2858 63.0414 98.5662 62.3218 97.6784 62.3218H36.6074C35.7196 62.3218 35 63.0414 35 63.9285V92.8576C35 93.7447 35.7196 94.4643 36.6074 94.4643ZM81.7358 65.536C85.2858 65.536 88.1642 68.4137 88.1642 71.9643C88.1642 75.515 85.2858 78.3927 81.7358 78.3927C78.1852 78.3927 75.3075 75.515 75.3075 71.9643C75.3075 68.4137 78.1852 65.536 81.7358 65.536ZM47.8574 88.036H50.5024L61.2704 76.4935C61.5814 76.1803 62.0044 76.0046 62.4452 76.0046C62.886 76.0046 63.309 76.1803 63.6201 76.4935L69.0844 82.3437L72.5636 78.8638C73.1912 78.2362 74.2088 78.2362 74.8364 78.8638L84.479 88.507C84.858 88.8867 85.0221 89.4299 84.9178 89.9558C84.8127 90.4818 84.4522 90.9213 83.9565 91.1266C83.7621 91.2069 83.5534 91.2495 83.3426 91.2502H47.8574C46.9696 91.2502 46.25 90.5306 46.25 89.6427C46.25 88.7556 46.9696 88.036 47.8574 88.036Z" fill="#E4E4F6"/>
<path d="M67.1424 43.0357C67.1424 43.9235 66.4235 44.6424 65.5357 44.6424C64.6478 44.6424 63.9282 43.9235 63.9282 43.0357C63.9282 42.1478 64.6478 41.4282 65.5357 41.4282C66.4235 41.4282 67.1424 42.1478 67.1424 43.0357Z" fill="#E4E4F6"/>
<path d="M67.9275 85.8134C67.9275 85.8134 67.9097 85.8038 67.9035 85.7969C67.8966 85.7907 67.8905 85.7729 67.8808 85.7633L62.4502 79.9453L54.8984 88.0361H70.0053L67.9275 85.8134Z" fill="#E4E4F6"/>
<path d="M89.6426 104.107H68.75C67.8622 104.107 67.1426 104.826 67.1426 105.714V115.357C67.1426 116.245 67.8622 116.964 68.75 116.964H89.6426C90.5304 116.964 91.25 116.245 91.25 115.357V105.714C91.25 104.826 90.5304 104.107 89.6426 104.107ZM73.5716 112.143H71.9642C71.0764 112.143 70.3575 111.424 70.3575 110.536C70.3575 109.648 71.0764 108.928 71.9642 108.928H73.5716C74.4588 108.928 75.1784 109.648 75.1784 110.536C75.1784 111.424 74.4588 112.143 73.5716 112.143ZM86.4284 112.143H80C79.1122 112.143 78.3926 111.424 78.3926 110.536C78.3926 109.648 79.1122 108.928 80 108.928H86.4284C87.3162 108.928 88.0358 109.648 88.0358 110.536C88.0358 111.424 87.3162 112.143 86.4284 112.143Z" fill="#E4E4F6"/>
<path d="M102.5 100.892H115.357V54.2856H44.6426V59.1073H97.6784C100.341 59.1073 102.5 61.2654 102.5 63.9282V92.8573C102.5 95.5201 100.341 97.6782 97.6784 97.6782H44.6426V120.178C44.6426 122.841 46.8014 125 49.4642 125H110.536C113.199 125 115.357 122.841 115.357 120.178H102.5C99.8372 120.178 97.6784 118.02 97.6784 115.357V105.714C97.6784 103.051 99.8372 100.892 102.5 100.892ZM94.4642 115.357C94.4642 118.02 92.3054 120.178 89.6426 120.178H68.75C66.0872 120.178 63.9284 118.02 63.9284 115.357V105.714C63.9284 103.051 66.0872 100.892 68.75 100.892H89.6426C92.3054 100.892 94.4642 103.051 94.4642 105.714V115.357Z" fill="#E4E4F6"/>
<path d="M123.393 104.107H102.5C101.612 104.107 100.893 104.826 100.893 105.714V115.357C100.893 116.245 101.612 116.964 102.5 116.964H123.393C124.28 116.964 125 116.245 125 115.357V105.714C125 104.826 124.28 104.107 123.393 104.107ZM107.322 112.143H105.714C104.826 112.143 104.107 111.424 104.107 110.536C104.107 109.648 104.826 108.928 105.714 108.928H107.322C108.209 108.928 108.928 109.648 108.928 110.536C108.928 111.424 108.209 112.143 107.322 112.143ZM120.178 112.143H113.75C112.862 112.143 112.143 111.424 112.143 110.536C112.143 109.648 112.862 108.928 113.75 108.928H120.178C121.066 108.928 121.786 109.648 121.786 110.536C121.786 111.424 121.066 112.143 120.178 112.143Z" fill="#E4E4F6"/>
</g>
<g clip-path="url(#clip1)">
<path d="M79.8152 33.4424H74.0964V24.4182C74.0888 18.5023 69.2953 13.7079 63.3785 13.7011H48.3426C46.6167 13.702 44.9492 13.0773 43.6481 11.9447L38.8571 7.77413C37.0025 6.16076 34.6282 5.27197 32.17 5.27197H10.7171C4.80117 5.27874 0.00677175 10.0731 0 15.9891V72.4934C0.0076182 79.0502 5.13891 84.4583 11.6863 84.8104V84.8273H72.4052C77.2538 84.818 81.4277 81.3991 82.3901 76.6462L89.7942 45.6587L89.8069 45.6003C90.3977 42.6114 89.6181 39.515 87.6839 37.161C85.7489 34.8069 82.8625 33.4424 79.8152 33.4424ZM3.03459 72.4934V15.9891C3.03967 11.7475 6.47633 8.31079 10.718 8.30572H32.1709C33.8968 8.30572 35.5644 8.92956 36.8662 10.063L41.6572 14.2327C43.511 15.8461 45.8853 16.7348 48.3426 16.7348H63.3785C67.6201 16.7399 71.0576 20.1774 71.0627 24.4191V33.4424H69.6212C68.8856 29.5114 65.4565 26.6597 61.457 26.6538H60.9559C60.2186 22.6415 56.7235 19.7254 52.6435 19.7195H17.7555C12.1333 19.7263 7.57674 24.282 7.57081 29.9042V80.4765C4.75884 78.7988 3.03628 75.7667 3.03459 72.4934ZM61.457 29.6875C63.7831 29.69 65.8341 31.2145 66.5062 33.4424H40.7422C36.0299 33.4281 31.9288 36.6599 30.8394 41.2443L21.4004 74.5749L21.3835 74.6384C21.0288 76.1459 20.3034 77.5409 19.2724 78.6963V36.8385C19.2766 32.8905 22.4763 29.6917 26.4233 29.6875H61.457ZM10.6046 81.6293V29.9042C10.6088 25.9563 13.8084 22.7575 17.7555 22.7532H52.6435C55.0501 22.7558 57.1679 24.3438 57.8442 26.6538H26.4233C20.8011 26.6597 16.2454 31.2162 16.2386 36.8385V80.9403C14.478 81.7504 12.5083 81.9908 10.6046 81.6293ZM86.8366 44.984L79.4334 75.969L79.4207 76.0283C78.7529 79.3752 75.8173 81.7868 72.4052 81.7936H20.4541C22.3823 80.1074 23.7367 77.8626 24.3283 75.3706L33.7673 42.0409L33.7842 41.9774C34.5401 38.7481 37.4249 36.4669 40.7422 36.4762H79.8152C81.95 36.4762 83.9722 37.4293 85.3308 39.0757C86.6893 40.7221 87.2412 42.889 86.8366 44.9849V44.984Z" fill="#221EC4"/>
</g>
<defs>
<clipPath id="clip0">
<rect width="90" height="90" fill="white" transform="translate(35 35)"/>
</clipPath>
<clipPath id="clip1">
<rect width="90" height="90" fill="white"/>
</clipPath>
</defs>
</svg>
