<svg width="102" height="102" viewBox="0 0 102 102" fill="none" xmlns="http://www.w3.org/2000/svg">
<g filter="url(#filter0_b_1685_1790)">
<rect x="1" y="1" width="100" height="100" rx="30" fill="url(#paint0_linear_1685_1790)"/>
<rect x="0.5" y="0.5" width="101" height="101" rx="30.5" stroke="url(#paint1_radial_1685_1790)"/>
</g>
<g opacity="0.25" filter="url(#filter1_f_1685_1790)">
<rect x="16.0625" y="51" width="68.1223" height="42.5764" rx="21.2882" fill="url(#paint2_linear_1685_1790)"/>
</g>
<rect x="14" y="13.9998" width="73.7991" height="73.7991" rx="30" fill="url(#paint3_linear_1685_1790)"/>
<g clip-path="url(#clip0_1685_1790)">
<path d="M32.0547 51.4994C32.0547 58.7999 36.2975 65.109 42.4499 68.0988L33.6516 43.9932C32.6282 46.287 32.0547 48.8255 32.0547 51.4994Z" fill="white"/>
<path d="M62.956 50.5688C62.956 48.2893 62.1372 46.7107 61.4349 45.482C60.5 43.9628 59.6236 42.6762 59.6236 41.1569C59.6236 39.4614 60.9095 37.8832 62.7209 37.8832C62.8026 37.8832 62.8802 37.8934 62.9599 37.8979C59.6784 34.8916 55.3064 33.0562 50.5045 33.0562C44.0609 33.0562 38.3918 36.3621 35.0938 41.3696C35.5265 41.3825 35.9343 41.3917 36.2807 41.3917C38.21 41.3917 41.1963 41.1576 41.1963 41.1576C42.1906 41.099 42.3078 42.5593 41.3146 42.6769C41.3146 42.6769 40.3154 42.7944 39.2035 42.8527L45.9203 62.8308L49.9567 50.7253L47.083 42.852C46.0898 42.7937 45.1488 42.6762 45.1488 42.6762C44.1549 42.6179 44.2714 41.0983 45.2654 41.1569C45.2654 41.1569 48.3114 41.391 50.1237 41.391C52.0526 41.391 55.0393 41.1569 55.0393 41.1569C56.0343 41.0983 56.1512 42.5586 55.1576 42.6762C55.1576 42.6762 54.1563 42.7937 53.0466 42.852L59.7121 62.6788L61.5518 56.5311C62.3492 53.9801 62.956 52.1477 62.956 50.5688Z" fill="white"/>
<path d="M50.823 53.1128L45.2891 69.1932C46.9414 69.6789 48.6888 69.9446 50.4995 69.9446C52.6474 69.9446 54.7072 69.5733 56.6245 68.8991C56.575 68.8201 56.5301 68.7362 56.4932 68.645L50.823 53.1128Z" fill="white"/>
<path d="M66.6857 42.6504C66.765 43.2379 66.8099 43.8686 66.8099 44.5469C66.8099 46.4186 66.4603 48.5226 65.4074 51.1533L59.7734 67.4422C65.2569 64.2446 68.9452 58.304 68.9452 51.4997C68.9455 48.293 68.1264 45.2776 66.6857 42.6504Z" fill="white"/>
<path d="M50.5007 30C38.6455 30 29 39.6446 29 51.4995C29 63.3558 38.6455 73 50.5007 73C62.3555 73 72.0025 63.3558 72.0025 51.4995C72.0021 39.6446 62.3555 30 50.5007 30ZM50.5007 72.0145C39.1892 72.0145 29.9859 62.8114 29.9859 51.4995C29.9859 40.1882 39.1888 30.9858 50.5007 30.9858C61.8119 30.9858 71.0145 40.1882 71.0145 51.4995C71.0145 62.8114 61.8119 72.0145 50.5007 72.0145Z" fill="white"/>
</g>
<defs>
<filter id="filter0_b_1685_1790" x="-42" y="-42" width="186" height="186" filterUnits="userSpaceOnUse" color-interpolation-filters="sRGB">
<feFlood flood-opacity="0" result="BackgroundImageFix"/>
<feGaussianBlur in="BackgroundImageFix" stdDeviation="21"/>
<feComposite in2="SourceAlpha" operator="in" result="effect1_backgroundBlur_1685_1790"/>
<feBlend mode="normal" in="SourceGraphic" in2="effect1_backgroundBlur_1685_1790" result="shape"/>
</filter>
<filter id="filter1_f_1685_1790" x="10.6025" y="45.54" width="79.045" height="53.4964" filterUnits="userSpaceOnUse" color-interpolation-filters="sRGB">
<feFlood flood-opacity="0" result="BackgroundImageFix"/>
<feBlend mode="normal" in="SourceGraphic" in2="BackgroundImageFix" result="shape"/>
<feGaussianBlur stdDeviation="2.73" result="effect1_foregroundBlur_1685_1790"/>
</filter>
<linearGradient id="paint0_linear_1685_1790" x1="109.753" y1="116.797" x2="-24.0373" y2="60.4736" gradientUnits="userSpaceOnUse">
<stop stop-color="white" stop-opacity="0.47"/>
<stop offset="1" stop-color="white" stop-opacity="0"/>
</linearGradient>
<radialGradient id="paint1_radial_1685_1790" cx="0" cy="0" r="1" gradientUnits="userSpaceOnUse" gradientTransform="translate(1 1) rotate(47.959) scale(163.589 275.776)">
<stop stop-color="white" stop-opacity="0.7"/>
<stop offset="1" stop-color="white" stop-opacity="0"/>
</radialGradient>
<linearGradient id="paint2_linear_1685_1790" x1="50.1236" y1="92.3324" x2="50.1236" y2="51" gradientUnits="userSpaceOnUse">
<stop stop-color="#0062E0"/>
<stop offset="1" stop-color="#19AFFF"/>
</linearGradient>
<linearGradient id="paint3_linear_1685_1790" x1="50.8996" y1="13.9998" x2="50.8996" y2="87.7989" gradientUnits="userSpaceOnUse">
<stop offset="2.0541e-07" stop-color="#1FC0F7"/>
<stop offset="1" stop-color="#224EEB"/>
</linearGradient>
<clipPath id="clip0_1685_1790">
<rect width="43" height="43" fill="white" transform="translate(29 30)"/>
</clipPath>
</defs>
</svg>
