<?xml version="1.0" encoding="UTF-8"?>
<svg xmlns="http://www.w3.org/2000/svg" width="129" height="50" viewBox="0 0 129 50" fill="none">
  <mask id="mask0_711_914" style="mask-type:alpha" maskUnits="userSpaceOnUse" x="0" y="0" width="129" height="50">
    <rect width="128.788" height="50" fill="#C4C4C4"></rect>
  </mask>
  <g mask="url(#mask0_711_914)">
    <path d="M129.002 34.8951H126.272V29.4363H111.041V26.7203H126.272V18.5321H116.486C115.554 18.5321 114.676 18.7141 113.85 19.078C113.025 19.433 112.306 19.9212 111.693 20.5425C111.081 21.155 110.593 21.8739 110.229 22.6994C109.874 23.5249 109.696 24.4081 109.696 25.3489V34.8951H106.967V25.3489C106.967 24.4702 107.078 23.627 107.3 22.8192C107.53 22.0027 107.85 21.2437 108.258 20.5425C108.675 19.8325 109.172 19.1889 109.749 18.612C110.335 18.0262 110.979 17.5247 111.68 17.1075C112.39 16.6903 113.149 16.3708 113.957 16.1489C114.764 15.9181 115.608 15.8027 116.486 15.8027H129.002V34.8951Z" fill="white"></path>
    <path d="M103.357 15.8027L103.331 25.3489C103.331 26.2365 103.215 27.0886 102.985 27.9052C102.763 28.7129 102.443 29.4718 102.026 30.1819C101.618 30.8831 101.121 31.5266 100.535 32.1125C99.9579 32.6894 99.3144 33.1865 98.6043 33.6036C97.9031 34.0119 97.1486 34.3315 96.3409 34.5623C95.5332 34.7842 94.69 34.8951 93.8112 34.8951H91.8008C90.9221 34.8951 90.0744 34.7842 89.2578 34.5623C88.4501 34.3315 87.6912 34.0075 86.9811 33.5903C86.2799 33.1732 85.6408 32.6761 85.0639 32.0992C84.4869 31.5133 83.9899 30.8698 83.5727 30.1686C83.1644 29.4585 82.8449 28.6996 82.6141 27.8919C82.3922 27.0753 82.2812 26.2276 82.2812 25.3489V15.8027H85.0106V25.3489C85.0106 26.2898 85.1882 27.1774 85.5432 28.0117C85.8982 28.8372 86.382 29.5606 86.9944 30.1819C87.6157 30.7944 88.3391 31.2781 89.1646 31.6332C89.9901 31.9882 90.8688 32.1657 91.8008 32.1657H93.8112C94.7521 32.1657 95.6353 31.9882 96.4607 31.6332C97.2862 31.2781 98.0052 30.7944 98.6176 30.1819C99.2301 29.5606 99.7138 28.8372 100.069 28.0117C100.424 27.1774 100.601 26.2898 100.601 25.3489V15.8027H103.331H103.357Z" fill="white"></path>
    <path d="M69.4723 29.4363C69.4723 30.1997 69.3303 30.9142 69.0462 31.5799C68.7622 32.2367 68.3717 32.8137 67.8746 33.3107C67.3864 33.7989 66.8095 34.185 66.1438 34.4691C65.4869 34.7531 64.7813 34.8951 64.0268 34.8951H47.4375V32.1657H64.0268C64.4085 32.1657 64.7635 32.0947 65.092 31.9527C65.4204 31.8107 65.7044 31.6154 65.9441 31.3669C66.1926 31.1183 66.3879 30.8299 66.5299 30.5015C66.6719 30.1642 66.7429 29.8091 66.7429 29.4363C66.7429 29.0635 66.6719 28.7129 66.5299 28.3845C66.3879 28.0561 66.1926 27.7676 65.9441 27.5191C65.7044 27.2706 65.4204 27.0753 65.092 26.9333C64.7635 26.7913 64.4085 26.7203 64.0268 26.7203H52.8963C52.1507 26.7203 51.445 26.5783 50.7793 26.2942C50.1136 26.0102 49.5322 25.6241 49.0352 25.1359C48.547 24.6388 48.1565 24.0575 47.8636 23.3918C47.5795 22.726 47.4375 22.016 47.4375 21.2615C47.4375 20.5159 47.5795 19.8103 47.8636 19.1446C48.1565 18.4789 48.547 17.9019 49.0352 17.4137C49.5322 16.9167 50.1136 16.5261 50.7793 16.2421C51.445 15.9492 52.1507 15.8027 52.8963 15.8027H68.1142V18.5321H52.8963C52.5235 18.5321 52.1684 18.6031 51.8311 18.7451C51.5027 18.8872 51.2143 19.0824 50.9657 19.331C50.7172 19.5795 50.5219 19.8724 50.3799 20.2097C50.2379 20.5381 50.1669 20.8887 50.1669 21.2615C50.1669 21.6343 50.2379 21.9893 50.3799 22.3266C50.5219 22.655 50.7172 22.9435 50.9657 23.192C51.2143 23.4406 51.5027 23.6358 51.8311 23.7779C52.1684 23.9199 52.5235 23.9909 52.8963 23.9909H64.0268C64.7813 23.9909 65.4869 24.1373 66.1438 24.4302C66.8095 24.7143 67.3864 25.1048 67.8746 25.6019C68.3717 26.0901 68.7622 26.667 69.0462 27.3327C69.3303 27.9895 69.4723 28.6908 69.4723 29.4363Z" fill="white"></path>
    <path d="M45.6425 18.5321H28.6005V34.8951H25.8711V15.8027H45.6425V18.5321ZM43.2992 26.7203H29.9585V23.9909H43.2992V26.7203Z" fill="white"></path>
    <path d="M23.1798 15.8027L13.141 34.8951H10.0255L0 15.8027H3.10218L11.5832 31.9527L20.0643 15.8027H23.1798Z" fill="white"></path>
  </g>
</svg>
