<svg width="160" height="94" viewBox="0 0 160 94" fill="none" xmlns="http://www.w3.org/2000/svg">
<rect width="160" height="94" fill="white"/>
<path d="M50.4163 67.8629C55.3823 67.8629 59.4081 63.8371 59.4081 58.8711C59.4081 53.905 55.3823 49.8792 50.4163 49.8792C45.4502 49.8792 41.4244 53.905 41.4244 58.8711C41.4244 63.8371 45.4502 67.8629 50.4163 67.8629Z" fill="black"/>
<path d="M39.9159 43.848C33.9995 45.1294 30.7557 49.2959 31.7368 55.2636C31.8613 56.0398 32.0883 56.8013 32.2421 57.5774C32.7441 59.8263 32.3322 62.1825 31.097 64.1276C29.8618 66.0728 27.9045 67.4476 25.6556 67.9496C23.4068 68.4516 21.0506 68.0397 19.1055 66.8045C17.1603 65.5693 15.7855 63.612 15.2835 61.3631C14.9963 60.2741 14.9264 59.1392 15.0779 58.0232C15.2294 56.9072 15.5992 55.832 16.1663 54.8589C16.7334 53.8859 17.4867 53.0341 18.383 52.3522C19.2794 51.6703 20.3013 51.1717 21.3904 50.8848C23.3894 50.3576 25.4616 50.0134 27.1531 48.6881C30.2577 46.301 31.1291 43.0279 30.6898 39.2935C30.5726 38.2903 30.2943 37.3092 30.1625 36.306C29.8917 34.3277 30.318 32.3169 31.3682 30.6186C32.4184 28.9204 34.027 27.6407 35.9179 26.9993C37.8379 26.2873 39.9476 26.2754 41.8755 26.9659C43.8033 27.6563 45.4258 29.0047 46.4573 30.7737C47.4888 32.5427 47.8632 34.6189 47.5144 36.6368C47.1657 38.6547 46.1163 40.4848 44.551 41.8051C43.1915 42.8468 41.602 43.5474 39.9159 43.848Z" fill="black"/>
<path d="M95.5103 50.4196C95.3048 50.1966 95.1463 49.9345 95.0444 49.6489C94.9425 49.3633 94.8992 49.0601 94.9172 48.7574V43.0167H98.9079V39.8095H94.8293V36.4998L90.9924 34.9182V39.8315H88.2392V43.024H90.9045V49.2993C90.8445 50.0032 90.9389 50.7118 91.181 51.3755C91.4232 52.0393 91.8073 52.6421 92.3065 53.1421C92.8057 53.642 93.4081 54.0269 94.0715 54.27C94.7348 54.5131 95.4433 54.6084 96.1473 54.5494H98.9738V50.9981H97.1578C96.8585 51.0164 96.5585 50.9747 96.2756 50.8753C95.9927 50.776 95.7324 50.621 95.5103 50.4196Z" fill="black"/>
<path d="M113.982 40.4065C112.723 39.7403 111.321 39.3921 109.896 39.3921C108.472 39.3921 107.069 39.7403 105.81 40.4065C104.621 41.0551 103.635 42.0208 102.962 43.1963C102.285 44.4135 101.93 45.7832 101.93 47.176C101.93 48.5688 102.285 49.9386 102.962 51.1557C103.644 52.3297 104.634 53.2945 105.825 53.9455C107.076 54.6245 108.481 54.97 109.904 54.9487C111.324 54.9661 112.725 54.6128 113.968 53.9236C115.159 53.2716 116.147 52.3037 116.823 51.1264C117.505 49.9109 117.863 48.5405 117.863 47.1467C117.863 45.753 117.505 44.3826 116.823 43.167C116.146 42.0052 115.163 41.0506 113.982 40.4065V40.4065ZM112.759 50.094C111.997 50.8171 110.987 51.2202 109.937 51.2202C108.886 51.2202 107.876 50.8171 107.114 50.094C106.74 49.7061 106.449 49.2467 106.258 48.7433C106.067 48.24 105.979 47.7031 106.001 47.165C105.978 46.6281 106.063 46.0919 106.252 45.5887C106.44 45.0854 106.729 44.6254 107.099 44.2361C107.862 43.5125 108.874 43.1091 109.926 43.1091C110.977 43.1091 111.989 43.5125 112.752 44.2361C113.124 44.6252 113.414 45.0848 113.605 45.5879C113.796 46.091 113.885 46.6272 113.865 47.165C113.884 47.6966 113.795 48.2265 113.605 48.7233C113.415 49.2201 113.128 49.6737 112.759 50.0574V50.094Z" fill="black"/>
<path d="M142.596 40.9951C142.13 40.4659 141.553 40.0463 140.906 39.7665C140.26 39.4867 139.559 39.3537 138.854 39.3769C137.953 39.3713 137.065 39.5902 136.269 40.0139C135.482 40.424 134.804 41.0165 134.292 41.742C133.877 41.0125 133.266 40.4139 132.528 40.0139C131.756 39.5932 130.888 39.3812 130.009 39.3988C129.16 39.3985 128.324 39.6019 127.57 39.9919C126.81 40.3685 126.144 40.9116 125.623 41.5809V39.7576H122.101V54.4902H126.084V46.5308C126.018 45.5826 126.276 44.6401 126.816 43.8581C127.068 43.542 127.391 43.2901 127.759 43.1233C128.127 42.9565 128.529 42.8796 128.932 42.8989C129.242 42.8763 129.552 42.9315 129.835 43.0594C130.117 43.1873 130.363 43.3838 130.551 43.6311C130.965 44.3017 131.16 45.0851 131.107 45.8718V54.4536H134.981V46.4869C134.918 45.539 135.176 44.5977 135.713 43.8142C135.958 43.5 136.274 43.249 136.636 43.0821C136.998 42.9152 137.394 42.8374 137.792 42.855C138.106 42.8346 138.419 42.8906 138.706 43.0181C138.993 43.1457 139.245 43.341 139.44 43.5872C139.864 44.2545 140.064 45.0393 140.011 45.8279V54.4097H143.994V45.1615C144.061 43.6474 143.562 42.1626 142.596 40.9951V40.9951Z" fill="black"/>
<path d="M81.2892 39.8269V41.1742C79.9713 40.0247 78.2705 39.4108 76.5223 39.4534C75.1375 39.4373 73.7731 39.7885 72.5682 40.4712C71.4028 41.1239 70.4438 42.0905 69.8004 43.261C69.1342 44.474 68.7937 45.8388 68.8118 47.2224C68.801 48.6173 69.1489 49.9915 69.8223 51.2131C70.4705 52.3845 71.4312 53.3529 72.5975 54.0103C73.8087 54.6996 75.1799 55.0582 76.5735 55.05C78.3186 55.0742 80.0101 54.4477 81.3184 53.2927V54.6253H84.8112V39.8928H81.2892V39.8269ZM79.7515 50.0782C78.9788 50.8175 77.9505 51.2302 76.8811 51.2302C75.8116 51.2302 74.7834 50.8175 74.0107 50.0782C73.2765 49.2984 72.8676 48.2678 72.8676 47.1968C72.8676 46.1258 73.2765 45.0952 74.0107 44.3155C74.7834 43.5761 75.8116 43.1634 76.8811 43.1634C77.9505 43.1634 78.9788 43.5761 79.7515 44.3155C80.1303 44.6913 80.4288 45.1401 80.629 45.6348C80.8291 46.1295 80.9267 46.6596 80.9157 47.1932C80.9282 47.7291 80.8315 48.2619 80.6313 48.7592C80.4311 49.2564 80.1318 49.7077 79.7515 50.0855V50.0782Z" fill="black"/>
</svg>
