<svg width="540" height="340" viewBox="0 0 540 340" fill="none" xmlns="http://www.w3.org/2000/svg">
<rect width="540" height="340" fill="white"/>
<path d="M173.231 237.891C189.669 237.891 202.994 224.565 202.994 208.127C202.994 191.689 189.669 178.364 173.231 178.364C156.793 178.364 143.467 191.689 143.467 208.127C143.467 224.565 156.793 237.891 173.231 237.891Z" fill="black"/>
<path d="M138.474 158.4C118.89 162.642 108.153 176.433 111.4 196.186C111.812 198.756 112.564 201.276 113.073 203.845C114.735 211.289 113.371 219.088 109.282 225.527C105.194 231.965 98.715 236.516 91.2712 238.178C83.8274 239.839 76.0283 238.476 69.5897 234.387C63.1512 230.299 58.6005 223.82 56.9388 216.376C55.9881 212.772 55.7569 209.015 56.2583 205.321C56.7597 201.627 57.9839 198.068 59.861 194.847C61.7381 191.626 64.2314 188.807 67.1984 186.549C70.1653 184.292 73.5479 182.642 77.1529 181.692C83.7697 179.947 90.6289 178.808 96.2278 174.421C106.504 166.52 109.389 155.685 107.934 143.324C107.547 140.004 106.626 136.756 106.189 133.435C105.293 126.887 106.704 120.231 110.18 114.61C113.656 108.989 118.981 104.753 125.24 102.63C131.595 100.273 138.578 100.234 144.96 102.519C151.341 104.804 156.712 109.268 160.126 115.123C163.54 120.979 164.78 127.851 163.625 134.53C162.471 141.21 158.997 147.268 153.816 151.638C149.316 155.086 144.055 157.405 138.474 158.4Z" fill="black"/>
<path d="M322.495 180.153C321.814 179.415 321.29 178.547 320.953 177.602C320.615 176.656 320.472 175.653 320.531 174.651V155.648H333.741V145.032H320.241V134.077L307.54 128.842V145.105H298.427V155.673H307.249V176.444C307.051 178.774 307.363 181.12 308.165 183.317C308.966 185.514 310.237 187.509 311.89 189.164C313.542 190.819 315.536 192.093 317.732 192.898C319.928 193.702 322.273 194.018 324.603 193.822H333.959V182.067H327.948C326.957 182.128 325.964 181.99 325.028 181.661C324.091 181.332 323.23 180.819 322.495 180.153Z" fill="black"/>
<path d="M383.638 147.008C379.471 144.803 374.828 143.651 370.113 143.651C365.399 143.651 360.756 144.803 356.589 147.008C352.652 149.155 349.389 152.352 347.161 156.243C344.919 160.272 343.743 164.806 343.743 169.416C343.743 174.026 344.919 178.56 347.161 182.589C349.417 186.475 352.694 189.669 356.637 191.824C360.778 194.071 365.427 195.215 370.138 195.144C374.84 195.202 379.477 194.032 383.59 191.751C387.532 189.593 390.803 186.389 393.042 182.492C395.299 178.468 396.484 173.932 396.484 169.319C396.484 164.706 395.299 160.17 393.042 156.146C390.799 152.3 387.547 149.14 383.638 147.008V147.008ZM379.59 179.075C377.068 181.468 373.724 182.803 370.247 182.803C366.77 182.803 363.425 181.468 360.903 179.075C359.667 177.791 358.703 176.27 358.07 174.604C357.437 172.938 357.147 171.161 357.219 169.38C357.142 167.602 357.425 165.828 358.049 164.162C358.674 162.496 359.628 160.973 360.855 159.685C363.381 157.289 366.729 155.954 370.21 155.954C373.691 155.954 377.04 157.289 379.566 159.685C380.797 160.973 381.757 162.494 382.39 164.159C383.022 165.824 383.315 167.599 383.25 169.38C383.311 171.139 383.019 172.893 382.391 174.537C381.762 176.182 380.81 177.684 379.59 178.953V179.075Z" fill="black"/>
<path d="M478.351 148.957C476.81 147.205 474.9 145.816 472.759 144.89C470.618 143.964 468.298 143.523 465.966 143.6C462.983 143.582 460.043 144.306 457.41 145.709C454.804 147.066 452.56 149.028 450.866 151.429C449.491 149.014 447.468 147.033 445.025 145.709C442.47 144.317 439.596 143.615 436.687 143.673C433.878 143.672 431.11 144.345 428.616 145.636C426.099 146.883 423.895 148.68 422.169 150.896V144.861H410.51V193.626H423.696V167.28C423.476 164.142 424.331 161.022 426.119 158.434C426.952 157.387 428.021 156.553 429.239 156.001C430.457 155.449 431.788 155.195 433.124 155.258C434.148 155.184 435.175 155.366 436.11 155.79C437.046 156.213 437.861 156.864 438.481 157.682C439.853 159.902 440.497 162.495 440.323 165.099V193.505H453.144V167.135C452.936 163.998 453.79 160.882 455.568 158.288C456.379 157.248 457.427 156.417 458.624 155.865C459.822 155.313 461.134 155.055 462.451 155.113C463.489 155.046 464.527 155.231 465.477 155.653C466.427 156.075 467.26 156.722 467.905 157.537C469.307 159.745 469.969 162.343 469.795 164.953V193.36H482.981V162.748C483.2 157.736 481.55 152.821 478.351 148.957V148.957Z" fill="black"/>
<path d="M275.422 145.09V149.55C271.059 145.745 265.43 143.713 259.643 143.854C255.059 143.8 250.543 144.963 246.555 147.223C242.697 149.383 239.523 152.583 237.393 156.457C235.188 160.472 234.061 164.99 234.121 169.57C234.085 174.187 235.237 178.736 237.466 182.779C239.611 186.657 242.791 189.862 246.652 192.038C250.661 194.32 255.2 195.507 259.813 195.48C265.589 195.56 271.188 193.486 275.519 189.663V194.074H287.08V145.308H275.422V145.09ZM270.332 179.022C267.774 181.47 264.371 182.836 260.831 182.836C257.291 182.836 253.887 181.47 251.33 179.022C248.899 176.441 247.546 173.03 247.546 169.485C247.546 165.94 248.899 162.528 251.33 159.947C253.887 157.5 257.291 156.134 260.831 156.134C264.371 156.134 267.774 157.5 270.332 159.947C271.586 161.191 272.574 162.677 273.237 164.315C273.899 165.952 274.222 167.707 274.186 169.473C274.227 171.247 273.907 173.01 273.244 174.656C272.582 176.302 271.591 177.796 270.332 179.047V179.022Z" fill="black"/>
</svg>
