<svg width="350" height="263" viewBox="0 0 350 263" fill="none" xmlns="http://www.w3.org/2000/svg">
<path fill-rule="evenodd" clip-rule="evenodd" d="M179.552 32.3882C178.494 35.1878 177.437 37.9878 176.379 40.7875C175.701 42.5816 175.024 44.3753 174.346 46.1694C174.105 46.8055 173.972 47.458 173.507 47.8996C172.411 48.9394 170.444 49.6011 169.127 50.3325C168.245 50.8227 167.363 51.3128 166.48 51.8029C166.026 52.0559 165.017 52.3734 164.698 52.7931C164.347 53.2556 164.513 54.1049 164.513 54.7444V60.2658V70.6694C169.07 70.0997 173.628 69.5302 178.185 68.9605C172.113 75.9663 166.042 82.9717 159.97 89.9775C158.474 91.704 156.657 93.3658 155.542 95.3745C153.17 99.6504 150.85 103.957 148.505 108.248C146.321 112.242 144.138 116.236 141.954 120.23L161.597 119.394C166.683 119.178 171.907 119.503 176.807 118.062C180.846 116.874 184.885 115.686 188.925 114.498C189.462 114.339 191.136 114.161 191.516 113.728C191.873 113.323 191.865 111.793 191.966 111.275C193.873 101.476 196.3 90.6769 201.864 82.2416C205.854 76.1949 211.237 70.9008 216.167 65.6279C218.091 63.57 220.049 61.5366 221.905 59.4161C222.381 58.873 223.067 58.2567 223.382 57.5971C223.585 57.1709 223.868 56.3587 223.742 55.9804C223.688 55.8163 222.419 55.2277 222.237 55.1108C220.952 54.2847 219.678 53.4412 218.401 52.6017C214.813 50.2426 211.228 47.8777 207.619 45.5501C204.806 43.7352 202 41.8108 199.033 40.2512C195.957 38.6345 192.569 37.4967 189.345 36.2194C186.086 34.9284 182.821 33.6521 179.552 32.3882Z" fill="#221EC4"/>
<path fill-rule="evenodd" clip-rule="evenodd" d="M290.155 181.953C288.59 183.427 285.74 185.406 283.488 184.506C282.357 184.055 281.39 183.062 280.36 182.422C279.149 181.671 278.011 180.918 276.985 179.916C274.937 177.916 273.387 174.994 270.968 173.428C270.155 172.902 268.569 172.789 268.005 171.948C267.752 171.571 267.728 171 267.775 170.564C267.876 169.625 268.383 169.681 267.536 168.992H268.852C268.877 168.483 268.37 168.441 267.992 168.507C268.167 167.701 268.346 164.549 266.878 165.978C265.605 167.216 266.242 169.27 265.341 170.612C264.651 171.639 262.819 170.807 262.572 169.677C262.461 169.17 263.02 168.377 263.087 167.879C263.233 166.776 262.74 165.821 262.025 164.986C260.454 166.032 261.344 168.197 260.45 169.572C259.64 170.816 257.837 170.235 256.604 170.017C255.126 169.754 253.455 170.02 252.041 169.671C249.905 169.144 250.703 166.637 250.492 165.019C250.265 163.286 248.513 160.88 249.04 159.131C249.605 157.254 252.91 156.848 254.49 156.393C258.1 155.351 263.25 155.151 265.934 152.235C268.069 154.616 269.786 157.342 272.025 159.635C274.444 162.11 277.027 164.396 279.349 166.971C281.765 169.652 284.26 172.28 286.588 175.038C287.605 176.241 288.497 177.538 289.548 178.712C290.482 179.756 291.467 180.717 290.155 181.953ZM182.843 135.649C183.953 135.059 184.094 135.428 184.093 136.644C183.774 136.06 183.457 135.904 182.843 135.649ZM173.437 159.269V157.127C174.506 157.099 173.849 158.931 173.437 159.269ZM173.175 162.458C173.175 161.51 173.15 160.607 173.423 159.684C173.567 160.69 173.841 161.56 173.175 162.458ZM177.774 227.612C178.756 227.704 180.27 227.028 181.096 227.798C181.945 228.59 181.877 230.895 182.078 231.965C182.41 233.733 182.704 235.507 182.984 237.284C183.168 238.449 183.395 239.632 182.078 240.077C180.132 240.736 177.351 239.796 175.322 239.711C171.315 239.542 167.31 239.308 163.299 239.226C159.412 239.148 155.516 239.21 151.646 239.614C149.898 239.797 148.189 240.12 146.459 240.411C145.547 240.566 143.103 241.21 142.279 240.441C140.73 238.994 143.306 235.615 144.414 234.661C146.471 232.89 149.396 231.613 151.974 230.844C153.353 230.433 155.65 229.279 156.736 230.57C157.569 231.56 157.536 232.882 158.729 233.632C161.495 235.37 159.876 230.384 158.148 229.77C159.309 227.054 161.521 230.889 162.438 231.81C162.764 232.138 163.826 233.218 164.287 232.675C164.632 232.268 163.943 230.811 163.815 230.414C163.621 229.812 163.13 228.896 163.271 228.243C163.527 227.061 165.184 226.739 166.177 226.64C167.717 226.488 169.227 226.976 170.75 227.139C173.084 227.389 175.437 227.393 177.774 227.612ZM162.314 116.285C159.274 116.527 156.215 116.063 153.183 116.443C150.314 116.803 147.61 117.857 144.906 118.824C148.927 109.394 154.129 100.809 160.47 92.7668C163.627 88.7613 167.023 84.7834 170.435 80.9926C172.023 79.2289 173.665 77.5237 175.304 75.8096C176.766 74.2804 177.814 71.6834 179.568 70.5414C181.066 69.5666 183.684 70.2618 185.343 70.3223C187.22 70.3907 189.503 70.5613 191.332 69.9368C192.658 69.4843 193.023 68.2767 191.363 68.2367C189.406 68.1892 187.48 68.3932 185.497 68.2097C180.359 67.7349 175.406 66.9546 170.226 67.3972C169.039 67.4984 167.477 68.0039 166.313 67.8522C165.475 67.7425 166.026 68.1636 165.444 67.4916C165.221 67.2346 164.953 66.6303 164.887 66.2888C164.516 64.371 165.569 61.6305 165.821 59.6996C166.054 57.9127 165.847 55.9488 166.283 54.2087C166.681 52.6251 167.891 52.4139 169.382 52.2447C173.461 51.7816 177.623 51.5351 181.72 51.1862C191.071 50.3898 200.718 49.1884 210.004 51.1564C213.358 51.867 217.447 52.9659 220.442 54.7255C221.379 55.2754 222.324 55.9231 221.983 57.0627C221.63 58.2456 219.897 59.4952 219.039 60.2745C212.695 66.0331 206.569 71.9069 202.113 79.2959C196.43 88.7182 193.169 98.8945 191.255 109.692C190.844 112.014 190.462 113.23 188.072 113.899C185.506 114.617 183.03 115.083 180.37 115.302C174.356 115.796 168.324 115.806 162.314 116.285ZM164.351 53.887C163.89 57.317 163.266 60.7394 163.205 64.1963C163.181 65.502 163.058 66.1562 161.669 66.4474C160.032 66.7906 158.368 67.0462 156.724 67.4024C148.788 69.1223 141.001 71.2346 133.237 73.6121C125.691 75.9234 118.27 78.5234 110.554 80.2355C107.235 80.972 103.352 81.4683 100.329 83.0991C97.0771 84.8538 97.5051 87.7307 97.2132 90.8907C96.8232 95.1125 95.5712 99.2004 95.1309 103.421C94.9204 105.437 94.7286 107.466 94.7604 109.495C94.7874 111.225 95.0352 113.138 93.8724 114.593C91.5397 111.475 90.434 107.552 89.9742 103.73C89.7507 101.872 89.8392 99.9989 89.7753 98.1323C89.7237 96.6294 89.7572 94.2389 88.7783 92.9838C86.6503 90.2563 83.8827 101.187 83.6196 102.354C83.1769 104.319 82.8119 106.3 82.371 108.265C82.1755 109.136 81.9246 112.302 80.7577 112.617C78.3395 113.272 78.8703 106.476 78.832 105.442C78.7554 103.353 78.7035 101.262 78.7524 99.1724C78.7879 97.6637 79.0798 96.0265 78.9065 94.5171C78.481 90.811 76.397 94.7157 75.8112 96.0952C74.3309 99.5778 73.6613 103.305 72.3338 106.844C72.113 107.432 71.5941 109.414 70.7721 109.451C69.8574 109.491 69.8646 107.445 69.8123 106.847C69.5088 103.382 68.4838 99.9404 68.7931 96.439C69.1055 92.9035 70.3448 89.2688 72.0986 86.1937C75.8064 79.692 82.5022 75.9589 88.9157 72.5584C96.2554 68.6674 104.004 65.5932 111.919 63.0889C121.437 60.077 131.21 57.64 141.042 55.9057C146.045 55.0235 151.124 54.3926 156.178 53.8867C157.954 53.709 159.73 53.6051 161.483 53.267C162.145 53.1392 164.532 52.5318 164.351 53.887ZM169.464 42.7872C166.956 42.807 164.394 41.5912 161.951 41.0888C159.042 40.49 156.201 39.6235 153.298 38.9984C147.612 37.7744 141.923 36.5808 136.243 35.3299C133.777 34.7868 131.299 34.314 128.842 33.7306C126.214 33.1065 123.375 32.4106 120.685 33.0829C116.607 34.1021 114.885 38.5629 113.388 42.0441C112.33 44.503 111.502 47.2439 109.853 49.3835C109.266 50.1464 108.431 51.0563 107.366 50.8092C105.388 50.3505 105.702 47.733 105.954 46.2862C106.319 44.1865 106.836 42.1115 107.25 40.0214C107.417 39.1778 108.71 33.6568 106.402 34.5116C104.69 35.1456 103.784 39.3217 103.136 40.8133C102.655 41.9218 102.144 43.023 101.604 44.1041C100.883 45.5462 98.8251 50.3645 96.547 49.7431C93.2869 48.8537 96.414 40.2832 96.9695 38.4768C97.2743 37.4852 100.588 29.9654 97.7911 30.5799C96.6 30.8421 95.4396 33.0545 94.8322 33.9716C93.7552 35.5982 92.6816 37.2364 91.6678 38.903C90.625 40.6171 90.0925 42.5681 89.0582 44.2573C88.5141 45.1463 87.4036 46.3309 86.3194 45.5079C84.6292 44.2258 85.631 39.766 85.927 38.0796C86.4777 34.9443 87.8455 31.7301 89.7223 29.1669C92.5425 25.3156 97.8639 24.0711 102.339 23.3229C108.115 22.357 113.971 22.6212 119.771 23.1927C126.295 23.8356 132.718 24.524 139.148 25.8385C145.628 27.1633 152.112 28.4775 158.492 30.2296C161.498 31.055 164.547 31.7868 167.51 32.7558C170.66 33.7856 173.734 35.0674 176.972 35.8094C175.833 38.6514 174.694 41.4935 173.555 44.3359C172.465 43.2575 170.977 42.7749 169.464 42.7872ZM225.287 50.6188C226.286 50.0726 227.389 49.8149 227.753 48.6076C228.076 47.5409 227.525 46.3323 227.262 45.3083C226.526 42.4413 226.332 39.4714 226.983 36.5706C227.606 37.5211 229.937 41.1773 231.355 38.9639C232.21 37.6288 229.919 35.7082 229.25 34.7697C230.717 33.8639 232.814 31.433 234.505 32.899C235.598 33.8468 236.061 34.7594 237.533 35.2201C239.321 35.7797 241.005 35.6515 242.831 35.497C244.109 35.389 244.417 35.2184 244.916 36.2028C245.308 36.9766 245.511 37.9344 245.74 38.7653C246.191 40.4035 247.236 43.6314 245.999 45.1661C244.915 46.5104 240.709 45.3578 240.125 47.0931C239.806 48.0396 241.326 48.0734 241.907 48.5417C242.627 49.1214 243.222 50.0439 243.613 50.868C243.902 51.4774 244.343 52.4843 243.85 53.1074C243.169 53.9694 241.907 53.3156 241.358 52.689C240.629 51.8568 240.393 50.7189 239.785 49.8125C238.669 48.1493 238.602 49.4724 238.298 50.6666C237.983 51.9074 237.236 51.8219 236.093 51.9812C234.087 52.2611 232.06 52.6559 230.107 53.1935C229.106 53.469 228.136 53.8201 227.183 54.2302C226.569 54.4941 225.504 55.2935 224.838 55.3011C223.603 55.3151 222.747 53.2496 222.109 52.3879C223.168 51.797 224.223 51.2005 225.287 50.6188ZM291.605 177.091C288.521 173.389 285.85 169.367 282.807 165.632C279.806 161.949 276.333 158.728 272.965 155.391C271.375 153.817 269.852 152.089 268.097 150.694C266.788 149.653 265.781 149.637 264.206 150.098C259.732 151.409 255.176 152.986 250.942 154.941C246.999 156.762 243.408 159.101 239.132 160.116C234.768 161.153 230.23 161.486 225.757 161.229C221.169 160.965 216.841 160.011 212.478 158.607C208.345 157.279 204.037 156.118 200.502 153.484C196.797 150.723 193.935 146.752 191.283 143.017C189.94 141.126 188.607 139.14 187.702 136.997C186.917 135.137 186.404 132.942 184.995 131.426C184.649 131.916 184.219 132.336 184.044 132.911C183.964 133.173 184.435 133.165 184.386 133.373C184.295 133.764 183.774 134.163 183.471 134.376C182.383 135.142 182.377 134.532 182.662 135.964C182.828 136.799 182.514 138.682 181.153 138.066C181.654 138.666 180.858 139.423 180.598 139.918C180.419 139.712 180.197 139.641 179.931 139.703C180.428 140.694 180.134 140.72 179.652 141.507C179.564 141.651 179.252 142.404 179.297 142.341C178.804 143.043 178.234 143.219 177.947 144.094C177.711 144.812 177.771 145.601 177.508 146.318C177.19 145.879 176.872 145.439 176.553 144.999C176.618 145.345 176.748 145.857 176.899 146.171C176.994 146.367 177.402 146.825 177.396 146.932C177.374 147.332 176.875 147.236 176.733 147.581C176.466 148.228 176.852 148.323 176.706 148.954C176.539 149.679 176.092 149.389 175.879 150.007C175.838 150.124 176.153 150.585 176.103 150.838C176.033 151.196 175.709 151.396 175.594 151.714C175.303 152.522 175.409 153.114 175.005 153.89C174.848 154.191 174.62 154.391 174.51 154.733C174.413 155.034 174.621 155.674 174.435 155.943C173.533 157.242 173.66 155.005 173.728 154.45C174.302 149.793 176.143 144.985 177.828 140.632C178.666 138.469 179.481 136.239 180.531 134.167C180.953 133.333 181.441 132.472 182.139 131.833C183.022 131.026 184.275 130.703 185.075 129.801C184.949 129.944 185.942 129.004 185.783 129.313C185.926 129.037 185.677 128.663 185.766 128.395C185.875 128.063 186.083 127.994 186.314 127.703C186.729 127.182 187.222 126.922 186.57 126.257C187.538 126.043 188.001 125.729 188.194 124.693C188.336 123.934 188.05 123.984 188.548 123.478C189.047 122.97 189.3 123.367 189.615 122.487C189.992 121.435 190.241 120.004 190.467 118.903C190.664 117.941 190.186 116.527 190.996 115.848C192.023 114.989 192.941 115.353 192.757 113.624C192.578 111.938 193.102 110.918 193.628 109.323C194.678 106.139 195.084 102.777 196.005 99.5555C197.971 92.68 201.443 86.4808 205.177 80.4286C208.627 74.8361 213.45 70.0715 218.108 65.4828C219.383 64.2261 220.645 62.9512 221.79 61.5734C222.776 60.387 223.227 58.7717 224.175 57.6454C224.751 56.9615 225.823 56.6689 226.627 56.3063C227.968 55.7013 229.566 54.9121 231.08 55.0345C230.479 57.0623 230.283 59.432 232.058 60.9527C234.211 62.7973 236.163 60.8809 238.138 59.8292C241.736 57.912 246.883 59.672 250.02 56.7985C250.768 56.1142 250.976 55.0208 251.753 54.3816C252.323 53.913 253.134 53.7941 253.776 53.4448C255.726 52.3835 256.672 50.4407 255.913 48.2946C255.219 46.3326 254.141 45.6521 256.541 44.6578C258.489 43.8512 259.23 42.6358 258.348 40.4719C257.507 38.4088 255.967 38.1712 254.51 36.8211C253.098 35.5134 254.72 33.9914 255.777 33.0097C257.141 31.7434 257.402 30.6021 255.821 29.2852C254.165 27.9064 251.801 27.9546 249.871 28.6365C247.689 29.4072 246.251 30.6886 245.327 32.765C244.386 34.879 242.055 34.2891 240.167 33.6998C238.361 33.1366 237.891 31.9211 236.706 30.6124C235.387 29.1567 232.699 30.4015 231.144 31.0666C227.313 32.7038 223.506 35.2878 223.354 39.8648C223.264 42.5941 224.418 44.9139 225.018 47.4756C225.567 49.8183 221.804 49.6337 221.152 51.8998C214.199 48.2194 206.457 47.0931 198.685 46.8426C190.425 46.576 182.045 46.3624 173.856 47.6653C175.757 44.3533 176.761 40.7214 178.415 37.3188C178.891 36.3392 179.096 36.4229 180.146 36.7189C182.165 37.2873 184.168 37.9234 186.182 38.5089C193.54 40.6479 200.754 43.225 207.869 46.0476C208.56 46.3221 210.104 47.0839 210.71 46.2554C211.41 45.3001 209.792 44.1222 209.137 43.6417C206.272 41.54 202.722 40.2644 199.513 38.7899C192.499 35.5671 184.731 34.0372 177.412 31.6436C161.611 26.4753 145.264 22.5501 128.843 19.9576C124.836 19.3249 120.786 19.2323 116.762 18.7626C113.197 18.3467 109.625 18.3562 106.061 18.7859C99.4769 19.5799 91.8442 21.293 88.1258 27.3195C84.769 32.7609 82.5282 38.8787 83.3847 45.3332C83.6421 47.2719 84.4631 49.5678 86.8553 49.068C88.5148 48.7215 89.3959 47.3116 90.1663 45.9355C91.3305 43.8567 92.4803 41.7779 93.7419 39.7548C94.2098 42.7882 92.5094 45.7711 92.7766 48.8613C92.9585 50.9582 94.1172 54.2712 96.8396 53.6775C100.571 52.864 102.107 47.0347 103.901 44.2381C103.992 46.3921 103.237 48.515 103.468 50.6738C103.696 52.8063 105.362 54.8195 107.702 54.5272C109.91 54.2517 111.344 51.8868 112.282 50.1064C113.586 47.6287 114.523 44.9723 115.798 42.4782C116.992 40.1403 118.407 37.3571 121.258 36.9179C123.803 36.5255 126.719 37.4336 129.232 37.8082C136.205 38.8473 143.036 40.6164 149.933 42.0458C157.327 43.5781 164.895 44.5088 172.062 46.9814C169.542 50.411 162.948 49.67 159.194 50.0381C153.522 50.5945 147.777 51.0132 142.136 51.8342C136.566 52.645 131.112 54.0843 125.584 55.1291C120.086 56.1685 114.598 57.2097 109.278 58.9822C99.4 62.2734 89.3576 66.4385 80.6548 72.181C76.6055 74.8532 73.0085 77.9072 70.5072 82.1249C67.9899 86.369 66.7802 91.1682 66.3188 96.0501C66.0317 99.09 66.5195 101.721 67.1084 104.679C67.5349 106.821 67.673 110.408 69.3906 111.976C72.6687 114.97 75.3905 102.827 75.9958 101.36C76.4316 103.764 75.7189 117.304 80.9788 116.203C83.3263 115.712 83.8588 112.49 84.2481 110.549C84.9584 107.011 85.5945 103.402 86.8092 99.9948C87.5888 104.586 87.9139 109.369 89.5935 113.754C90.7091 116.666 93.8923 121.833 96.1115 116.848C97.7761 113.109 97.205 108.818 97.4046 104.848C97.6257 100.449 98.8886 96.2059 99.3357 91.8501C99.509 90.1626 99.3521 88.2609 101.048 87.3401C102.503 86.5498 104.632 86.2925 106.222 85.8512C110.929 84.5442 115.667 83.3428 120.353 81.9561C125.04 80.5684 129.663 78.9472 134.288 77.3651C138.711 75.8519 143.227 74.9916 147.704 73.6959C150.249 72.959 152.764 72.1882 155.345 71.573C156.546 71.2869 157.761 71.064 158.96 70.7677C159.848 70.5483 161.018 69.7201 161.932 69.7348C162.872 69.7502 163.225 70.5459 164.303 70.6084C165.463 70.6754 166.643 70.4194 167.797 70.3309C170.608 70.1152 173.597 69.7666 176.401 70.1562C174.716 72.1557 172.439 73.538 170.443 75.1943C168.142 77.1046 165.915 79.1674 163.949 81.4232C159.994 85.9623 156.256 90.7601 152.783 95.6775C149.357 100.529 146.599 105.837 144.201 111.261C143.006 113.963 141.846 116.725 141.02 119.566C140.681 120.733 140.404 121.904 139.792 122.965C139.231 123.939 138.439 124.778 139.103 125.953C139.56 125.667 139.971 125.312 140.384 124.968C139.906 128.332 138.876 131.586 138.346 134.939C137.824 138.243 137.845 141.641 137.879 144.977C137.95 151.965 138.469 158.794 139.887 165.648C141.32 172.579 143.162 179.457 145.484 186.143C147.719 192.58 149.963 199.331 153.083 205.398C156.415 211.879 160.38 218.692 165.204 224.178C162.053 225.468 158.043 225.227 154.706 225.747C151.218 226.29 148.201 227.316 145.229 229.246C142.222 231.199 140.59 233.713 140.174 237.274C139.879 239.808 139.001 243.317 142.326 243.983C144.718 244.462 147.391 243.676 149.788 243.481C153.979 243.141 158.177 242.929 162.378 242.746C166.569 242.563 170.76 242.402 174.951 242.272C176.923 242.211 178.895 242.18 180.866 242.109C181.749 242.078 182.285 242.064 183.077 242.32C183.703 242.522 183.657 242.941 184.354 242.423C185.479 241.586 185.247 238.949 185.216 237.79C185.168 236.001 184.999 234.191 184.65 232.435C184.442 231.392 181.928 224.668 183.883 224.385C181.612 221.889 180.705 218.325 179.685 215.197C178.406 211.278 177.284 207.37 176.403 203.339C174.522 194.729 173.69 186.025 173.69 177.215C182.412 182.591 191.64 185.503 201.913 185.828C212.127 186.151 223.348 185.312 233.046 181.914C237.538 180.341 241.56 178.274 245.411 175.49C246.791 174.492 248.27 172.232 250.081 172.271C252.243 172.318 254.664 173.136 256.811 173.486C260.917 174.155 266.275 174.533 269.752 177.072C271.64 178.452 272.993 180.383 274.678 181.972C275.96 183.181 277.655 183.838 278.927 185.047C280.299 186.352 279.754 188.056 282.03 188.162C283.976 188.252 286.109 187.469 287.787 186.55C291.134 184.717 294.699 180.805 291.605 177.091Z" fill="#181A22"/>
<path fill-rule="evenodd" clip-rule="evenodd" d="M259.43 89.9032C264.329 93.3831 269.948 95.7603 275.067 98.8942C276.349 99.6786 280.341 101.307 280.302 102.762C280.28 103.613 279.08 104.68 278.555 105.269C277.655 106.279 276.808 107.3 275.978 108.368C272.176 113.261 268.596 118.2 264.476 122.847C263.856 123.546 261.987 126.884 261.384 125.226C261.11 124.475 261.336 123.63 260.623 122.929C260.256 122.568 258.839 122.37 259.252 121.595C259.527 121.719 259.802 121.843 260.078 121.967C259.864 121.348 259.88 120.67 259.559 120.085C259.36 119.722 258.97 119.55 258.835 119.141C258.649 118.576 258.965 117.919 258.912 117.336C258.86 116.755 258.559 116.206 258.379 115.657C257.313 112.408 256.931 109.131 256.385 105.778C255.845 102.461 255.004 99.2466 254.673 95.8919C254.324 92.3485 253.897 88.8122 253.326 85.2972C254.345 85.4401 255.127 86.5465 255.847 87.172C256.979 88.155 258.209 89.0358 259.43 89.9032ZM255.589 124.208C255.356 124.025 255.173 123.799 255.041 123.532C257.442 122.343 255.993 124.372 255.589 124.208ZM254.129 121.672C253.083 121.96 252.331 122.018 251.524 121.588C251.447 121.547 251.535 121.232 251.397 121.168C251.277 121.112 251.092 121.181 250.989 121.128C250.638 120.95 250.022 121.341 249.963 120.657C251.298 120.248 252.612 119.494 254.022 119.367C255.982 119.19 255.891 121.186 254.129 121.672ZM249.544 117.727C248.116 118.061 246.939 118.841 245.422 118.637C243.998 118.447 242.76 117.708 241.637 116.857C244.447 116.061 247.394 115.918 250.203 115.148C251.117 114.897 252.318 114.237 253.304 114.503C254.399 114.799 254.468 115.824 254.796 116.758C253.044 117.073 251.278 117.322 249.544 117.727ZM240.612 113.768C239.24 114.096 237.838 114.812 236.691 113.575C236.505 113.376 236.343 113.575 236.365 112.96C236.388 112.312 236.977 111.894 237.483 111.666C238.673 111.129 240.341 111.476 241.605 111.397C243.622 111.272 245.674 110.853 247.668 110.53C249.049 110.307 250.475 109.811 251.887 109.909C252.976 109.985 254.291 110.913 252.703 111.591C251.257 112.208 249.088 112.113 247.522 112.381C245.206 112.776 242.898 113.222 240.612 113.768ZM239.272 107.313C239.361 107.404 239.45 107.495 239.539 107.585C239.524 107.582 240.065 107.144 240.208 107.131C240.903 107.071 241.603 107.119 242.3 107.079C243.905 106.989 245.522 106.709 247.099 106.401C248.383 106.15 249.691 105.718 251.013 105.826C252.157 105.92 252.277 106.154 252.352 107.259C249.431 107.259 246.422 107.197 243.552 107.815C241.683 108.218 239.623 109.416 238.687 107.256C238.882 107.275 239.077 107.294 239.272 107.313ZM241.098 102.638C241.822 103.19 243.797 102.272 244.665 102.181C245.608 102.081 246.495 101.977 247.408 101.742C248.218 101.534 250.899 100.493 251.52 101.488C252.472 103.014 248.615 103.294 248.004 103.369C245.439 103.686 242.778 103.967 240.283 104.64C240.555 103.973 240.826 103.305 241.098 102.638ZM244.616 97.4566C244.803 98.1617 250.603 95.5634 250.708 97.4518C250.79 98.9007 244.97 99.6226 243.924 99.4954C244.169 98.8283 244.821 98.2308 244.616 97.4566ZM246.563 93.0245C246.687 91.6023 246.877 91.6105 248.018 91.4765C248.888 91.3743 250.083 90.8644 249.857 92.4148C249.663 93.7423 246.439 94.4597 246.563 93.0245ZM248.636 88.131C248.911 87.3675 249.528 88.3952 249.541 88.7835C249.576 89.8168 248.792 89.5932 248.038 89.5932C248.248 89.1106 248.448 88.6225 248.636 88.131ZM258.182 82.3994C258.028 82.2142 257.164 82.1434 256.919 82.0535C256.314 81.8321 256.4 81.36 255.627 81.8256C255.588 81.7866 255.662 81.4366 255.62 81.4205C255.599 81.4123 255.057 81.2079 254.881 81.0951C254.456 80.8231 254.073 80.5568 253.683 80.2154C253.268 79.8527 252.852 79.3263 252.378 79.0375C252.178 78.9158 252.015 78.7432 251.774 78.706C251.149 78.6096 251.328 79.045 250.781 79.1315C250.445 79.1848 250.2 78.7918 249.759 78.9613C249.379 79.1076 249.158 79.6411 248.989 79.9587C248.372 81.1143 247.897 82.3581 247.294 83.526C244.209 89.4982 240.702 95.2438 237.714 101.272C236.274 104.176 234.773 107.1 233.759 110.186C233.029 112.412 231.38 115.663 232.799 117.887C233.831 119.504 235.897 120.203 237.545 120.984C240.026 122.16 242.312 123.696 244.82 124.836C247.81 126.196 250.714 127.617 253.629 129.135C254.872 129.783 255.994 130.715 257.233 131.328C257.991 131.703 259.161 131.063 259.408 131.923C260.358 130.773 261.895 131.54 262.994 130.73C263.64 130.253 264.113 129.314 264.652 128.728C265.46 127.848 266.338 127.032 267.163 126.167C270.438 122.734 273.462 119.158 276.441 115.47C279.287 111.949 282.612 108.622 285.016 104.767C285.97 103.237 286.143 101.632 285.513 99.9415C285.053 98.7083 283.945 96.8462 282.362 97.6627C282.962 96.666 280.647 95.6017 279.945 95.4069C279.934 95.4041 279.796 96.1698 279.6 96.1506C279.67 96.1574 279.011 94.4543 278.722 94.2359C277.864 93.5861 276.819 92.828 275.882 92.2931C275.023 91.8026 274.116 91.5596 273.284 91.0107C272.275 90.3455 271.349 89.5567 270.336 88.896C269.358 88.2582 268.268 87.5042 267.187 87.0657C266.25 86.6852 265.408 86.6107 264.565 85.9873C263.522 85.2158 262.612 84.6926 261.409 84.1611C260.368 83.7013 258.926 83.2997 258.182 82.3994Z" fill="#181A22"/>
<path fill-rule="evenodd" clip-rule="evenodd" d="M116.111 174.768C116.303 174.318 116.494 173.869 116.685 173.42C116.921 174.203 116.988 174.593 116.111 174.768ZM116.366 176.844C115.951 176.918 116.115 175.617 116.115 175.391C116.831 175.796 116.238 176.282 116.366 176.844ZM115.72 173.092C116.073 172.883 116.427 172.674 116.78 172.466C116.288 173.377 116.481 172.808 116.684 173.417C116.313 173.523 115.952 173.399 115.72 173.092ZM113.625 180.219C112.3 185.026 108.092 188.816 103.648 190.78C101.094 191.908 98.5834 192.19 95.8254 192.065C94.7617 192.016 93.5101 191.67 92.4864 191.735C91.6982 191.784 91.7337 191.818 91.0809 192.486C90.7921 191.954 91.0013 191.581 90.4219 191.271C89.699 190.885 89.3989 191.334 89.0404 191.869C88.5711 191.383 88.379 191.129 87.771 190.84C87.7901 190.849 87.1889 190.827 87.2135 190.834C87.1048 190.801 86.4509 190.38 86.2462 190.304C85.4061 189.988 84.4347 189.859 83.6595 189.407C82.9814 189.012 82.4229 187.903 81.647 188.755C81.6463 187.332 79.7292 186.742 78.8306 185.996C77.4265 184.831 76.3102 183.107 75.6102 181.438C74.8637 179.659 74.6145 177.954 74.2652 176.12C74.0211 174.839 72.4229 172.987 73.3827 171.695C73.6113 172.237 73.504 172.792 73.8837 173.283C74.2255 172.625 74.4135 171.888 74.568 171.167C74.6439 170.814 75.0835 169.778 75.0335 169.47C74.932 168.84 74.1527 168.806 74.5848 168.035C75.481 169.01 76.2042 167.297 75.5271 166.615C75.1928 166.992 75.0701 167.42 74.916 167.887C74.0348 166.108 76.4735 166.681 75.94 165.075C76.83 164.904 77.3417 164.68 77.6801 163.8C78.0564 162.822 77.7795 162.608 78.634 161.962C78.928 161.74 79.7592 161.42 79.9113 161.054C80.2056 160.348 79.4567 160.138 80.1127 159.476C80.3341 159.865 81.1975 160.634 81.6702 159.902C81.7649 159.756 81.3674 159.653 81.6565 159.316C82.0848 158.819 82.564 158.331 83.2883 158.435C82.7148 157.001 86.3795 156.888 87.3181 156.549C88.2587 156.211 89.0568 155.988 90.0542 155.91C91.0505 155.831 91.1001 155.539 91.9436 154.939C92.015 155.797 92.2215 155.609 92.8316 155.76C92.9782 155.509 93.1286 155.48 93.2824 155.675C93.4356 155.821 93.6229 155.889 93.8437 155.881C94.1786 155.899 94.5587 155.855 94.9097 155.862C95.7338 155.878 96.5838 155.809 97.3922 155.827C97.6007 155.792 97.7955 155.72 97.978 155.609C98.0543 155.753 98.1308 155.897 98.2067 156.041C98.635 156.094 98.6681 156.631 99.1948 156.044C99.3507 156.79 99.7984 156.402 100.271 156.604C100.703 156.789 100.772 157.084 101.17 157.29C101.432 157.503 101.712 157.531 102.012 157.375C102.298 157.587 102.588 157.792 102.881 157.991C103.423 158.297 104.062 158.485 104.632 158.726C105.012 158.883 105.39 159.046 105.764 159.215C105.775 159.667 105.978 159.826 106.372 159.693C106.727 159.991 106.827 159.979 107.173 160.486C107.955 161.635 108.649 162.527 109.636 163.554C113.93 168.018 115.249 174.329 113.625 180.219ZM114.943 161.238C113.004 158.642 110.261 155.67 107.795 154.03C106.546 153.199 104.792 151.707 103.264 151.268C102.901 151.163 102.526 151.157 102.17 151.047C101.895 150.963 101.745 150.68 101.432 150.63C101.212 150.594 101.188 151.085 100.955 151.04C100.467 150.945 100.158 150.461 99.8142 150.159C99.0749 151.433 98.6736 149.29 97.588 150.731C96.296 148.705 93.2609 149.148 91.1978 149.25C90.586 149.28 90.2985 149.498 89.7561 149.659C89.2513 149.809 89.2014 149.771 88.6501 149.766C87.2771 149.756 86.0582 149.929 84.7891 150.531C82.657 151.544 80.6999 153.122 78.6747 154.343C76.4113 155.707 74.3711 157.443 72.6396 159.438C66.3799 166.652 64.7062 177.182 69.6974 185.545C77.6254 198.828 98.0754 200.247 109.663 191.235C118.616 184.271 122.023 170.717 114.943 161.238Z" fill="#181A22"/>
<path fill-rule="evenodd" clip-rule="evenodd" d="M213.069 123.859C212.846 124.39 210.769 124.212 210.723 123.586C210.655 122.651 213.455 122.937 213.069 123.859ZM215.276 123.512C216.453 123.608 218.388 124.408 219.523 123.924C221.255 123.187 219.436 122.055 218.507 121.716C217.561 121.372 216.153 121.555 215.667 120.567C215.301 119.823 216.205 117.748 215.084 118.081C213.908 118.431 214.25 121.404 212.404 120.402C211.523 119.924 211.882 117.011 210.408 118.499C210.004 118.907 209.969 119.654 209.434 119.958C208.889 120.268 208.204 119.945 207.628 119.972C206.104 120.043 205.618 121.469 207.163 122.035C207.735 122.244 209.89 122.5 208.584 123.435C207.762 124.023 205.934 122.788 205.228 123.813C204.257 125.22 206.858 125.252 207.556 125.673C208.74 126.386 207.762 128.052 207.857 129.238C208.001 131.05 209.054 130.671 209.437 129.137C209.761 127.836 209.359 125.963 211.321 126.48C214.515 127.323 209.544 131.378 211.884 132.416C213.376 133.077 213.587 129.5 213.703 128.885C214.132 126.611 215.409 127.142 217.344 127.211C219.604 127.293 220.149 125.621 217.756 125.142C216.992 124.989 215.942 125.183 215.279 124.696C214.887 124.409 214.347 123.437 215.276 123.512Z" fill="#181A22"/>
<path fill-rule="evenodd" clip-rule="evenodd" d="M131.835 197.783C130.006 197.128 126.946 197.269 126.493 199.631C126.304 200.62 126.673 201.666 127.356 202.385C128.148 203.218 129.409 203.295 129.342 201.844C129.295 200.84 128.339 199.968 130.019 199.766C131.064 199.64 132.61 200.422 132.662 201.577C132.78 204.179 128.275 204.383 126.615 203.933C123.32 203.04 124.215 199.589 126.478 198.014C127.062 197.607 128.739 196.98 128.816 196.135C128.918 195.014 127.531 195.243 126.852 195.39C121.857 196.478 120.769 204.845 125.988 206.422C128.358 207.138 131.695 206.399 133.124 204.253C134.463 202.24 134.481 198.73 131.835 197.783Z" fill="#181A22"/>
<path fill-rule="evenodd" clip-rule="evenodd" d="M65.6102 138.551C64.0489 139.302 62.4876 140.054 60.9266 140.806C60.4105 139.701 59.5385 136.684 58.2295 136.299C56.1103 135.675 57.4597 138.964 57.8255 139.716C58.1259 140.333 58.8228 141.291 58.6536 142.027C58.4267 143.019 57.0274 143.37 56.2949 143.882C54.4823 145.148 54.4967 147.809 57.1217 146.681C58.6071 146.043 60.4463 144.274 61.5849 146.283C62.1106 147.21 63.3561 152.389 64.6569 149.002C65.4619 146.905 61.5876 144.726 63.4976 142.952C64.1125 142.382 64.8323 142.333 65.4465 142.005C66.9299 141.213 66.0935 139.748 65.6102 138.551Z" fill="#181A22"/>
<path fill-rule="evenodd" clip-rule="evenodd" d="M294.507 63.5128C293.576 63.1724 292.425 62.5076 291.39 62.7342C290.291 62.9748 289.848 64.0761 289.048 64.7382C286.875 66.5384 285.609 63.8553 284.415 62.3849C283.287 60.9965 281.911 60.6595 280.319 61.5126C279.685 61.8527 277.014 63.411 277.48 64.4094C277.815 65.1278 279.135 64.4828 279.585 64.326C280.562 63.9859 281.469 63.6882 282.469 64.1841C284.344 65.1138 284.83 67.6633 287.098 68.0608C289.444 68.472 289.521 66.24 291.194 65.3999C292.316 64.8369 293.098 65.8336 294.181 65.635C295.212 65.446 295.689 63.9448 294.507 63.5128Z" fill="#181A22"/>
<path fill-rule="evenodd" clip-rule="evenodd" d="M275.572 72.5078C276.401 72.6879 276.943 71.0791 277.462 70.671C278.323 69.9946 279.816 69.8582 280.693 70.5391C282.406 71.868 281.816 74.737 284.255 75.4849C286.434 76.1534 287.461 73.2827 289.296 72.568C290.363 72.1523 291.534 71.8803 291.117 70.389C290.83 69.3578 289.983 69.0929 289.062 69.4891C287.479 70.1692 286.942 72.9402 285.066 72.9897C283.125 73.041 282.914 70.2427 282.081 69.0239C280.811 67.1662 278.199 66.7174 276.715 68.4937C276.267 69.0297 273.992 72.1657 275.572 72.5078Z" fill="#181A22"/>
<path fill-rule="evenodd" clip-rule="evenodd" d="M237.203 40.7854C238.357 41.575 240.656 41.5476 241.719 40.5684C242.801 39.5721 241.357 39.4189 240.476 39.4494C239.798 39.4729 238.529 39.8089 238.915 38.6383C239.258 37.5995 241.143 38.1283 241.3 36.9881C239.882 36.7338 238.32 36.8254 237.271 37.94C236.512 38.7456 236.123 40.0461 237.203 40.7854Z" fill="#181A22"/>
</svg>
