<svg width="288" height="251" viewBox="0 0 288 251" fill="none" xmlns="http://www.w3.org/2000/svg">
<path fill-rule="evenodd" clip-rule="evenodd" d="M223.2 204.134C224.825 209.636 223.789 216.055 220.068 220.581C217.665 223.503 211.95 226.117 208.742 223.074C207.308 221.713 206.701 217.055 206.088 214.881C205.525 212.882 204.582 209.18 205.001 207.503C205.61 205.059 210.482 205.624 212.759 205.41C216.253 205.081 219.722 204.582 223.2 204.134ZM269.168 206.929C269.933 208.613 271.153 209.728 271.673 211.597C272.013 212.817 272.218 214.04 272.353 215.292C272.516 216.809 272.627 216.751 271.581 217.46C269.984 218.543 265.899 218.46 263.956 218.773C261.419 219.183 258.896 219.665 256.358 220.073C256.973 217.712 256.651 215.169 257.287 212.761C257.904 210.42 258.98 208.11 260.498 206.187C261.628 204.757 263.271 203.043 265.302 203.034C267.921 203.022 268.334 205.095 269.168 206.929ZM108.14 156.327C108.529 161.39 107.807 166.782 104.928 171.133C103.708 172.976 101.932 173.967 100.491 175.553C98.8223 177.389 97.9174 179.659 95.2819 180.445C93.5813 180.952 91.5858 180.602 89.8177 180.83C86.8826 181.209 86.016 180.798 83.5413 179.279C81.7639 178.187 79.7147 178.392 77.8404 177.195C75.5925 175.76 73.6356 173.715 71.5066 172.09C83.4544 166.237 95.7719 161.253 108.14 156.327ZM140.257 159.329C144.83 161.481 147.248 165.151 148.554 169.888C135.941 172.771 123.666 176.298 111.277 180.275C114.736 171.475 118.621 163.418 128.085 159.325C129.973 158.508 131.913 157.208 134.062 157.239C136.202 157.269 138.38 158.446 140.257 159.329ZM255.299 172.375C261.8 175.796 258.495 186.73 256.224 191.584C253.333 189.458 250.302 187.387 247.479 185.316C244.394 183.053 241.62 180.14 238.805 177.561C240.295 176.784 241.264 175.548 242.649 174.66C244.021 173.781 245.381 173.718 246.918 173.375C249.86 172.717 252.241 170.764 255.299 172.375ZM204.573 147.737C205.092 148.403 205.712 149.03 206.201 149.714C207.388 151.375 208.415 153.064 209.792 154.605C212.231 157.335 215.781 160.933 219.777 161.182L219.893 162.348C218.715 162.318 218.018 161.303 216.995 161.2C216.193 161.12 215.069 161.733 214.085 161.646C211.042 161.378 208.053 161.225 204.963 161.307C198.866 161.469 192.873 162.441 186.879 163.216C188.024 159.134 190.161 154.954 193.567 152.224C194.744 151.28 195.872 149.983 197.201 149.23C198.001 148.778 198.848 148.743 199.671 148.389C200.624 147.98 201.847 146.614 202.831 146.483C203.86 146.346 203.864 146.827 204.573 147.737ZM253.433 148.109C256.632 150.677 259.089 153.934 261.719 157.018C264.1 159.809 267.326 163.791 268.173 167.384C263.951 169.371 256.71 167.552 253.987 163.879C250.629 159.348 252.275 153.042 253.433 148.109ZM180.218 133.469C179.588 137.727 177.542 142.471 174.47 145.65C173.146 147.021 171.985 148.808 170.481 150.007C168.516 151.573 166.934 150.771 164.654 151.013C162.204 151.274 160.617 152.872 158.007 152.438C156.147 152.129 154.435 151.1 152.687 150.787C150.778 150.446 149.112 150.648 147.214 149.703C144.867 148.535 142.995 146.235 141.169 144.489C142.13 143.729 144.07 143.674 145.299 143.263C146.923 142.719 148.544 142.181 150.177 141.66C153.549 140.586 156.912 139.488 160.29 138.431C166.725 136.418 173.52 134.506 180.218 133.469Z" fill="#221EC4"/>
<path fill-rule="evenodd" clip-rule="evenodd" d="M281.173 28.3478L280.963 29.7594C283.018 30.1135 283.078 28.8727 281.173 28.3478ZM272.233 25.9141C271.131 25.5299 269.329 26.0931 270.196 27.4086C271.418 29.2664 271.975 26.8412 272.233 25.9141ZM183.401 77.3567C183.566 77.1912 181.614 73.461 181.362 72.8353C180.102 73.5542 180.016 73.3804 180.53 74.5827C180.973 75.6198 182.516 76.6726 183.401 77.3567ZM68.2831 78.3802C67.681 78.3275 66.4827 77.9689 65.9719 78.178C65.2579 78.4707 65.4497 79.1481 65.3632 80.1365C67.4515 80.0394 67.7436 80.316 68.2831 78.3802ZM65.5754 76.3319C66.5961 76.5152 67.6165 76.6984 68.637 76.8816C68.8551 75.7125 69.4323 73.7794 67.2801 74.4852C67.078 74.5515 65.8342 75.9517 65.5754 76.3319ZM185.814 78.7355C184.728 79.8141 189.767 82.0974 190.286 81.3661C191.42 79.7704 186.546 78.9746 185.814 78.7355ZM210.738 65.9864C211.348 65.9266 211.957 65.8665 212.566 65.8067C212.356 64.9177 211.714 61.6411 210.381 61.8168C209.056 61.9914 210.55 65.2932 210.738 65.9864ZM212.962 71.3361C212.979 70.5977 213.281 68.9603 212.992 68.2493C212.796 67.7658 211.988 66.2979 210.827 67.2518C210.579 67.4548 210.466 70.4113 210.542 70.5072C210.858 70.9093 212.511 71.1816 212.962 71.3361ZM206.662 80.8184C205.411 79.8622 202.691 78.4513 201.486 80.6137C199.807 83.6277 205.576 81.6132 206.662 80.8184ZM199.51 81.0697C197.868 81.3775 196.208 81.3375 194.546 81.2211C192.682 81.0905 192.241 80.5216 191.698 82.306C193.697 83.0303 197.952 83.5326 199.974 82.8435C199.82 82.2521 199.665 81.6607 199.51 81.0697ZM209.871 72.8807C209.296 74.0592 208.05 75.6028 207.714 76.832C207.467 77.7386 207.371 77.2856 207.577 77.989C207.651 78.2399 208.662 79.2906 208.839 79.5446C210.068 78.6147 211.549 77.665 212.178 76.2328C213.184 73.9396 211.89 73.7559 209.871 72.8807ZM181.928 68.0548C177.751 69.3541 172.621 70.6267 168.2 70.2399C168.142 70.6182 175.698 72.8204 176.602 72.6616C177.525 72.4992 177.598 71.2126 178.705 70.5258C179.924 69.7688 180.931 70.2195 182.279 70.1013C182.162 69.4192 182.045 68.7368 181.928 68.0548ZM195.677 85.558C191.833 85.312 188.398 84.3936 184.997 82.6443C183.044 81.6398 181.641 80.1827 180.335 78.5016C179.324 77.1995 179.531 77.3066 177.943 76.865C176.77 76.5391 175.328 76.6712 174.123 76.5199C170.091 76.0129 166.071 74.7907 162.236 73.5184C157.931 72.0909 154.224 70.0779 149.496 70.1955C141.377 70.3975 134.792 76.5415 126.324 73.9611C122.964 72.9374 119.484 71.5785 116.766 69.3835C113.232 66.529 111.086 64.8378 106.106 65.849C102.096 66.6628 99.0201 68.7875 95.5849 70.7459C91.6698 72.9778 87.3973 74.3148 83.0318 75.4934C81.3217 75.9551 79.7378 76.2237 77.9461 76.3137C76.8798 76.3673 71.8282 75.5985 71.2041 76.1413C70.6004 76.6664 70.3259 80.2888 70.3902 80.9497C70.4975 82.053 70.0105 82.1669 71.1895 82.6315C72.008 82.9542 74.5354 82.6279 75.55 82.7435C83.7125 83.6759 92.0749 83.955 100.107 85.3616C107.655 86.6832 115.231 87.7529 122.695 89.3029C132.404 91.3197 142.292 92.24 152.006 94.193C156.702 95.1368 161.437 96.4663 166.078 97.4717C170.304 98.3868 174.549 99.2363 178.799 100.066C178.643 99.4816 177.76 97.3542 179.17 97.5504C180.064 97.6745 181.563 100.76 182.034 101.454C184.204 104.65 186.514 107.076 189.465 109.619C192.439 112.183 195.433 114.72 198.452 117.236C200.918 119.291 206.216 122.357 206.08 125.945C204.577 126.231 201.595 123.57 200.47 122.849C198.194 121.39 196.013 119.8 193.891 118.14C191.894 121.061 196.626 124.447 197.163 127.209C195.947 127.214 193.914 123.865 193.176 122.978C191.214 124.806 189.013 126.419 187.6 128.715C203.428 128.04 206.023 147.67 217.449 154.324C219.98 155.799 223.152 156.408 226.045 155.76C229.06 155.086 231.958 154.134 234.61 152.431C240.533 148.627 244.874 141.315 247.192 135.035C248.472 131.567 249.68 128.208 250.259 124.558C250.901 120.517 250.298 116.41 249.776 112.383C248.846 105.208 245.032 97.9648 239.631 92.8326C237.21 90.5326 234.566 88.5194 232.349 86.0087C231.575 85.1323 229.81 81.7765 228.839 81.5663C227.051 81.1786 226.128 83.6888 224.89 81.6342C223.678 79.6232 225.99 78.8385 227.397 77.9015C228.916 76.8901 230.389 75.8266 231.873 74.7706C234.807 72.6827 237.712 70.6294 240.531 68.4064C254.273 57.5674 266.422 45.4832 278.729 33.1665C276.425 32.6212 273.148 31.0537 270.806 31.472C268.462 31.8905 266.38 33.5487 263.909 33.8235C261.503 34.0912 259.165 33.5715 256.933 32.8149C254.303 31.9228 252.522 30.775 250.314 33.0009C246.768 36.5772 244.816 41.5468 241.093 44.9307C237.331 48.3509 232.064 50.3482 227.165 51.3799C222.629 52.335 216.339 51.8835 213.015 55.4542C212.267 56.2578 211.6 56.8295 211.557 58.0301C211.482 60.1653 211.966 58.6352 212.653 59.9575C213.771 62.1101 214.208 64.7959 214.46 67.1751C214.97 71.9902 214.326 77.2643 210.468 80.5832C206.313 84.1575 201.173 85.6624 195.677 85.558ZM195.457 77.7592C198.271 79.1949 203.96 77.3239 206.209 75.5737C209.269 73.1916 209.511 69.0456 209.021 65.5798C207.598 65.9244 206.175 66.2686 204.751 66.6131C204.145 66.7598 203.538 66.9065 202.931 67.0536C202.986 67.5555 202.904 68.0243 202.684 68.4596C201.344 70.1774 200.694 69.3237 199.238 67.8339C196.122 64.6445 193.357 61.0492 192.087 56.8096C190.663 58.4723 189.056 59.5446 186.775 59.3136C185.775 59.2126 181.943 58.0196 182.932 56.2707C183.247 55.7144 186.363 56.4147 187.407 56.3622C189.588 56.2519 190.614 56.2937 191.411 54.2432C192.076 52.536 191.841 51.8344 189.792 51.5218C187.189 51.1241 187.115 52.6696 185.26 53.3941C180.552 55.2345 183.767 47.9062 183.095 45.842C185.409 45.1569 187.853 44.6814 189.899 43.3759C187.631 43.636 185.475 44.3937 183.279 44.9448C183.466 42.2422 188.828 41.667 190.834 40.818C188.667 40.5299 186.607 41.956 184.433 41.8663C182.401 41.7824 179.551 40.9288 177.591 40.2787C175.575 39.6104 173.994 37.7481 172.049 39.3691C170.774 40.4318 169.062 43.3272 168.654 44.868C169.923 44.6849 172.912 44.4383 173.264 45.8783C173.717 47.7279 169.983 46.6513 168.832 46.9542C167.085 47.4143 167.621 47.9219 166.987 49.6481C166.363 51.3476 165.243 52.7076 163.47 53.4126C165.44 54.4724 165.983 54.4534 165.586 56.4142C165.195 58.3422 165.453 60.5082 165.644 62.6541C166.816 62.1742 168.079 62.0194 169.338 61.8933C169.583 63.4499 167.137 64.1089 165.877 64.1997C166.538 66.2482 166.563 66.1839 168.826 66.1774C170.093 66.1738 171.364 66.1012 172.629 66.0398C175.203 65.9147 177.701 65.4555 180.24 65.0475C181.209 64.8915 182.582 64.3622 183.546 64.4685C185.315 64.6629 184.971 64.8538 184.679 66.3604C184.283 68.403 184.729 69.9491 185.242 72.1658C182.215 71.1343 184.646 74.2909 186.074 74.9404C188.887 76.2195 192.329 77.5888 195.457 77.7592ZM29.9434 201.206C32.0856 202.274 34.1094 203.281 36.0613 204.649C38.0031 206.01 40.0744 208.298 42.5328 208.737C45.473 209.263 46.1811 207.737 46.9087 205.484C47.7265 202.95 48.4748 201.8 50.799 200.41C54.9124 197.95 59.7301 196.329 64.2253 194.559C65.9446 193.882 66.074 194.012 65.5652 192.269C65.2582 191.218 64.8833 190.184 64.4805 189.163C63.7366 187.278 62.9214 185.281 61.676 183.637C54.5484 188.316 46.0471 193.741 37.2724 194.866C33.7095 195.323 30.1982 196.125 26.7036 196.428C24.9735 196.579 23.5558 197.017 22.0318 197.761C20.3251 198.593 17.5022 198.887 16.2732 200.256C20.887 200.225 25.3814 200.814 29.9434 201.206ZM204.753 207.339C203.324 207.928 205.254 211.303 205.666 212.708C206.285 214.819 206.87 216.94 207.495 219.05C208.817 223.517 210.063 228.002 211.317 232.487C219.585 228 228.431 225.433 237.612 223.286C246.76 221.147 256.103 219.625 265.45 218.162C270.558 217.361 275.915 216.268 280.644 214.188C283.585 212.894 283.01 211.7 282.962 208.835C282.917 206.146 282.494 203.405 282.082 200.742C281.303 195.711 280.48 190.226 278.448 185.499C276.468 180.893 273.819 176.464 271.272 172.126C268.249 166.978 265.675 161.435 261.73 156.865C257.62 152.102 253.209 147.782 248.751 143.349C246.082 148.41 242.274 154.547 237.352 157.733C231.936 161.237 223.417 163.039 217.259 160.106C211.057 157.152 207.39 151.092 203.528 145.812C199.806 140.723 196.572 135.218 189.975 133.403C182.998 131.482 175.652 134.096 168.85 135.734C161.095 137.601 153.506 140.28 145.968 142.811C132.881 147.205 119.897 151.227 107.14 156.464C91.4398 162.909 75.7182 169.303 60.5428 176.849C63.8261 181.543 66.3708 185.821 68.2252 191.22C69.6693 195.424 70.5515 199.876 70.8891 204.422C72.6556 202.664 74.005 200.574 75.7879 198.795C77.8044 196.783 80.1721 195.234 82.5445 193.657C86.8391 190.801 91.2408 188.215 95.9778 186.043C106.73 181.113 118.156 177.717 129.524 174.203C132.099 173.407 135.13 172.482 137.8 172.041C140.068 171.667 142.083 171.01 144.392 170.464C149.628 169.227 154.922 168.091 160.204 167.195C170.351 165.474 180.705 163.639 190.994 162.449C197.97 161.642 205.25 160.333 212.418 161.032C213.629 161.15 214.815 161.389 216.035 161.352C216.375 161.341 216.779 160.838 217.131 160.873C217.808 160.939 218.533 161.696 219.224 161.922C220.784 162.432 223.049 162.116 223.899 163.4C224.579 164.428 224.33 165.243 223.317 165.921C224.536 167.469 226.923 168.896 228.557 170.114C230.027 171.209 231.412 172.387 232.894 173.442C234.485 174.576 236.414 175.646 238.081 176.803C240.255 178.312 242.113 180.245 244.167 181.938C247.853 184.977 251.552 187.623 255.437 190.471C257.529 192.005 259.523 193.45 261.795 194.705C263.038 195.391 265.855 197.271 264.384 198.978C262.917 200.681 259.976 198.163 258.373 197.982C256.529 197.773 254.042 198.924 252.202 199.195C247.334 199.91 242.451 200.539 237.581 201.311C232.023 202.193 226.523 203.384 220.939 204.117C218.055 204.495 215.171 204.86 212.272 205.121C210.776 205.256 208.662 205.054 207.257 205.531C206.194 205.222 205.731 205.524 205.869 206.438C205.609 206.864 205.237 207.164 204.753 207.339ZM50.7295 80.1476C53.7705 80.1282 56.7873 80.3034 59.832 80.2771C61.0042 80.2668 62.0131 80.5036 62.4874 79.6944C63.0672 78.7051 62.8 76.1215 62.8991 74.989C59.3437 75.2737 56.081 75.362 52.5319 75.0512C48.7304 74.7186 45.0409 73.6344 41.225 73.3994C42.0382 73.7077 42.9689 75.3865 42.4387 76.2034C41.9105 77.0166 41.0483 76.2826 40.2124 75.9144C36.9842 74.4927 34.2956 72.3926 30.6696 73.3108C34.0081 75.0325 37.1759 77.7935 40.6623 78.8216C43.9501 79.7909 47.2664 80.1214 50.7295 80.1476ZM276.601 24.17C278.081 24.4464 280.969 25.9236 282.297 25.1794C283.919 24.2704 283.578 20.5845 283.637 19.1498C283.818 14.7405 284.154 8.6733 280.685 5.09914C280.056 9.33595 281.416 13.7663 281.319 18.0503C281.246 21.265 280.031 19.5095 279.602 17.2342C279.208 15.1526 279.251 13.0992 278.716 11.0283C277.732 12.7053 277.503 14.9812 276.809 16.8327C275.934 19.1675 274.696 21.2853 273.448 23.4496C274.503 23.6788 275.552 23.9208 276.601 24.17ZM65.1698 82.1072C65.1517 83.3421 64.9757 84.5023 66.5214 84.6157C68.5677 84.7656 67.8964 82.6808 67.7667 81.3652C67.0309 81.4649 65.3446 81.2598 65.1698 82.1072ZM275.746 26.1847C274.463 26.0262 274.268 25.7362 273.454 26.6329C272.938 27.2019 272.888 28.2342 273.336 28.5926C275.28 30.1477 275.587 27.0576 275.746 26.1847ZM276.945 29.0477C277.944 29.2439 278.921 29.7752 279.482 28.7854C280.305 27.3338 278.338 27.2123 277.261 26.7814C277.156 27.5366 277.051 28.2921 276.945 29.0477ZM214.199 165.63C203.159 165.369 192.282 167.099 181.445 169.003C171.859 170.687 162.344 172.09 152.969 174.204C134.075 178.463 115.15 183.229 97.6133 191.428C93.353 193.42 89.0982 195.41 85.1709 197.833C83.0603 199.135 80.9103 200.422 78.9117 201.891C77.8126 202.698 76.675 203.495 75.6446 204.38C74.7007 205.19 74.1648 206.309 73.317 207.102C72.9177 207.475 71.198 208.855 70.6877 209.01C69.5921 209.343 70.0261 209.37 68.9183 208.612C66.603 207.03 66.1388 204.921 65.4409 202.383C64.9498 200.597 65.3269 200.005 63.7132 200.066C62.892 200.097 61.6564 200.931 60.8955 201.247C58.4377 202.267 55.7818 203.08 53.4231 204.297C51.5162 205.281 49.9904 206.546 49.1736 208.494C48.209 210.794 47.6484 212.673 44.722 212.931C39.5019 213.391 36.5026 208.187 32.0392 206.436C27.2653 204.563 21.1726 204.932 16.1322 204.872C14.2965 204.85 12.2974 205.026 10.5464 205.274C8.07216 205.623 5.14498 206.967 2.57701 206.113C-0.378403 205.13 -0.333934 200.931 1.62429 199.104C3.67181 197.194 6.70992 196.932 9.32877 196.298C14.6228 195.017 19.438 192.096 24.8423 191.199C30.2179 190.306 35.9134 190.112 41.1538 188.486C43.8242 187.657 46.419 187.01 48.9564 185.844C52.1178 184.39 55.5226 183.445 58.6452 182.017C57.5707 180.129 57.2797 178.378 57.2143 176.263C57.1709 174.852 56.9413 174.85 57.9211 174.259C58.1152 174.36 58.3092 174.46 58.5035 174.561C59.1192 174.999 59.5578 174.799 59.82 173.962C64.1541 171.333 68.16 168.509 72.7846 166.226C80.5407 162.396 88.7519 159.302 96.5059 155.655C111.238 148.724 127.645 144.725 143.144 139.648C152.519 136.577 162.119 134.061 171.725 131.796C173.409 131.399 175.087 131.07 176.799 130.807C179.698 130.36 179.012 130.333 180.475 128.103C182.352 125.242 185.33 122.188 188.354 120.415C190.218 119.321 191.013 119.485 190.955 117.093C190.911 115.264 190.409 115.283 188.914 114.059C187.222 112.674 185.652 111.137 184.223 109.504C182.593 107.641 181.863 105.528 180.499 103.613C178.851 101.298 173.751 101.691 170.897 101.287C166.426 100.656 161.881 100.205 157.477 99.2302C148.584 97.262 139.645 96.5735 130.641 95.1976C121.59 93.8143 112.541 92.553 103.489 91.2999C100.24 90.8503 96.9488 90.4638 93.7172 89.9062C89.193 89.1253 84.4322 89.0462 79.8423 88.3158C77.4791 87.9397 74.5848 86.6052 72.2074 86.719C69.656 86.8415 71.9374 86.8125 70.2592 87.6898C69.5059 88.084 68.6346 88.4364 67.7666 88.4819C66.3993 88.5538 65.0212 87.9681 64.1847 86.9245C62.7904 85.1846 63.4626 83.8516 60.6212 83.6321C58.7506 83.4879 56.5676 84.2096 54.6668 84.3046C52.8044 84.3977 50.8679 84.6678 49.0047 84.613C45.2786 84.503 40.8382 84.1757 37.4547 82.583C33.869 80.8956 30.6689 78.6445 26.897 77.2097C25.004 76.4894 22.3111 76.1837 21.0421 74.4423C19.9828 72.9884 19.6551 70.0317 21.2795 68.8395C23.771 67.0109 28.6022 69.7782 31.3592 69.0869C32.7687 68.7336 31.605 68.3079 32.6711 67.8154C33.3317 67.5103 33.2326 67.4646 34.0162 67.3539C35.9482 67.0803 39.113 68.4336 41.0774 68.755C44.9536 69.3885 48.7962 70.3554 52.6691 70.9477C54.8804 71.286 57.1287 71.3709 59.345 71.7305C61.2753 72.0439 62.8616 72.8 64.262 71.2497C64.8528 70.5959 64.6724 69.9218 65.619 69.5809C66.468 69.2755 68.9067 69.7138 69.727 70.0283C70.6231 70.3717 70.8232 70.8672 71.544 71.2584C71.5623 71.9996 71.8736 72.2213 72.4788 71.9233C73.0423 71.881 73.6036 71.9109 74.1627 72.0131C79.0825 72.0337 83.9789 70.5071 88.4535 68.7046C95.8686 65.7177 105.075 57.2624 113.58 61.8617C115.673 62.9931 117.046 64.8803 119.083 66.1061C120.893 67.1946 123.208 68.1695 125.243 68.7835C129.309 70.0102 133.352 69.8568 137.38 68.5864C142.292 67.0371 146.248 65.4148 151.542 65.5928C156.447 65.7576 160.361 69.1432 165.165 69.2784C163.992 67.3935 163.774 65.2281 163.65 63.0896C163.569 61.6913 164.35 58.0304 163.504 56.8986C162.57 55.6482 155.275 55.1426 159.343 51.4724C160.675 50.2704 163.133 50.7058 164.51 49.3788C165.9 48.0393 165.927 45.9449 166.669 44.2729C167.507 42.3811 168.891 40.8184 170.308 39.3088C170.908 38.6693 171.314 38.2638 171.656 37.4952C172.053 36.6038 171.788 35.8503 172.422 34.9108C174.562 31.7396 178.296 32.8436 181.545 33.2661C183.515 33.5222 185.901 33.278 187.812 33.8154C189.349 34.2476 191.347 35.5573 192.597 36.5187C195.35 38.6364 195.99 42.544 196.202 45.746C196.327 47.6204 195.962 49.387 195.932 51.2549C195.9 53.21 195.051 54.0956 193.525 55.3924C193.496 55.0316 193.32 54.7896 192.995 54.6663C192.33 55.484 192.501 55.8032 193.507 55.6243C193.545 56.1132 193.72 56.5526 194.03 56.9429C194.862 57.8664 195.578 58.887 196.388 59.8288C198.16 61.8878 200.227 63.6746 201.59 66.0114C203.019 64.3482 204.839 64.0754 206.544 62.9283C208.203 61.8125 206.964 61.4802 207.579 59.8672C207.826 59.221 208.474 59.107 208.702 58.6066C208.918 58.132 208.655 57.8328 208.788 57.3115C209.452 54.7234 209.176 53.1198 211.243 51.0911C214.008 48.3775 217.415 47.6601 221.216 47.1448C225.008 46.6305 227.701 46.4473 231.072 44.9491C232.242 44.4296 233.348 44.1923 234.459 43.6024C235.961 42.805 237.359 41.9638 238.664 40.8875C241.697 38.3862 243.583 34.901 246.035 31.8954C247.998 29.4901 250.365 26.4106 253.908 27.0458C257.938 27.7685 261.489 30.2176 265.779 28.897C267.37 28.4075 267.199 28.7083 267.83 27.1656C268.04 26.6517 268.175 26.134 268.38 25.6289C269.144 23.7383 270.609 23.5016 271.518 21.9623C273.662 18.3284 274.837 13.7966 276.058 9.80847C276.626 7.95646 277.725 6.3501 278.395 4.57423C278.674 3.83164 278.547 0.524334 279.417 0.234254C282.222 -0.700537 284.492 6.6455 285.004 8.03488C286.341 11.6657 287.518 15.7632 286.991 19.6506C286.774 21.2524 286.601 23.1082 286.172 24.6766C285.782 26.1006 285.698 26.0069 285.921 27.2976C286.147 28.61 286.417 29.397 286.222 30.7729C286.168 31.1572 285.993 32.5768 285.828 32.7733C285.059 33.6879 284.955 33.0486 283.998 33.4141C282.451 34.0051 282.069 34.5132 280.974 35.8995C278.235 39.365 275.376 42.8411 272.417 46.1311C267.224 51.9027 261.765 57.0767 255.937 62.2095C250.217 67.2476 244.237 72.3589 237.744 76.4743C236.166 77.4745 233.572 78.352 232.303 79.6643C230.912 81.1016 233.02 81.725 234.446 82.7444C237.279 84.7693 240.192 86.8427 242.663 89.2036C247.93 94.2368 250.938 101.652 252.783 108.387C253.743 111.891 253.94 115.909 254.304 119.538C254.73 123.796 254.202 128.455 252.859 132.505C252.35 134.041 251.75 135.545 251.256 137.088C251.029 137.798 249.911 140.004 250.215 140.823C250.716 142.178 254.007 143.822 255.157 144.764C256.727 146.051 258.335 147.382 259.652 148.916C265.252 155.442 269.832 162.29 273.947 169.798C278.131 177.434 282.08 184.324 283.731 192.906C284.163 195.149 284.546 197.394 285 199.633C285.487 202.042 285.016 205.518 285.992 207.719C286.595 209.081 287.724 209.509 287.264 211.392C286.866 213.02 284.846 215.91 283.748 217.192C281.247 220.11 276.683 221.26 273.079 222.318C268.705 223.602 264.026 224.194 259.522 224.924C243.298 227.555 227.397 230.429 212.38 237.172C212.885 237.908 213.293 239.499 212.268 240.007C210.906 240.68 210.237 238.68 209.769 237.796C208.405 235.223 207.998 231.895 207.183 229.076C205.196 222.198 203.687 215.248 202.069 208.296C196.546 209.458 190.954 210.076 185.46 211.154C182.926 211.651 180.358 211.698 177.806 212.011C175.066 212.348 174.891 213.21 175.107 215.826C175.584 221.591 177.886 227.123 179.199 232.73C179.837 235.449 180.951 238.038 181.558 240.745C181.755 241.626 181.541 243.998 182.163 244.656C182.136 244.628 184.255 245.049 184.589 245.133C184.41 241.727 184.808 238.385 184.638 234.986C184.463 231.473 183.983 226.868 184.768 223.466C185.482 220.373 188.206 217.103 191.213 215.797C193.832 214.66 199.031 212.836 201.859 214.522C202.355 214.818 203.553 215.737 203.273 216.449C202.896 217.411 198.71 218.149 197.86 218.447C194.532 219.613 191.013 221.656 189.149 224.618C187.472 227.284 188.142 231.404 188.198 234.46C188.23 236.198 188.455 237.811 188.244 239.542C187.947 241.992 187.792 242.879 188.793 244.993C189.967 247.471 189.242 251.092 185.726 250.201C183.623 249.668 183.539 248.521 182.272 247.272C181.793 246.8 181.255 247.009 180.785 246.413C180.157 245.615 180.16 243.847 179.841 242.839C178.823 239.612 177.381 236.474 176.304 233.228C174.855 228.863 173.669 224.443 172.631 219.974C171.824 216.5 170.949 212.982 172.627 209.6C174.115 206.598 177.762 206.822 180.786 206.714C187.789 206.464 195.027 204.946 202.172 204.579C202.686 204.553 203.759 204.729 204.22 204.514C204.857 204.219 205.097 203.359 205.921 202.809C207.496 201.758 210.611 201.393 212.431 201.07C216.558 200.337 220.664 199.742 224.766 198.978C229.483 198.099 234.156 197.049 238.878 196.25C243.399 195.486 247.965 195.342 252.539 194.822C245.282 190.141 238.89 184.435 231.908 179.364C228.67 177.012 225.669 174.699 222.763 171.98C221.553 170.848 220.356 169.747 219.257 168.513C218.675 167.859 218.16 166.609 217.42 166.152C216.489 165.578 215.427 165.732 214.199 165.63Z" fill="#181A22"/>
<path fill-rule="evenodd" clip-rule="evenodd" d="M187.561 33.8494C185.16 33.6404 182.409 33.6251 180.079 33.0909C182.138 33.2688 185.677 33.1531 187.561 33.8494Z" fill="#221EC4"/>
<path fill-rule="evenodd" clip-rule="evenodd" d="M55.616 71.3611C54.5943 71.271 53.5727 71.1809 52.5517 71.0909C53.5945 70.9392 54.6136 71.0538 55.616 71.3611Z" fill="#221EC4"/>
<path fill-rule="evenodd" clip-rule="evenodd" d="M118.517 93.5899C119.2 93.6486 119.882 93.7073 120.561 93.7666C119.877 93.7082 119.197 93.6491 118.517 93.5899Z" fill="#221EC4"/>
<path fill-rule="evenodd" clip-rule="evenodd" d="M188.063 234.684C188.093 233.886 188.123 233.087 188.153 232.29C188.123 233.089 188.093 233.887 188.063 234.684Z" fill="#221EC4"/>
<path fill-rule="evenodd" clip-rule="evenodd" d="M184.317 240.875C184.304 241.447 184.293 242.018 184.281 242.588C184.293 242.016 184.305 241.446 184.317 240.875Z" fill="#221EC4"/>
<path fill-rule="evenodd" clip-rule="evenodd" d="M199.578 214.157C198.891 214.157 198.205 214.158 197.519 214.159C198.205 214.158 198.891 214.157 199.578 214.157Z" fill="#221EC4"/>
<path fill-rule="evenodd" clip-rule="evenodd" d="M101.925 91.0811C102.379 91.1386 102.832 91.1961 103.282 91.2537C102.827 91.196 102.376 91.1387 101.925 91.0811Z" fill="#221EC4"/>
<path fill-rule="evenodd" clip-rule="evenodd" d="M178.717 32.9766C178.149 32.9293 177.581 32.8817 177.014 32.8344C177.581 32.8817 178.149 32.9293 178.717 32.9766Z" fill="#221EC4"/>
<path fill-rule="evenodd" clip-rule="evenodd" d="M184.417 231.964C184.401 232.535 184.384 233.106 184.368 233.675C184.384 233.103 184.401 232.533 184.417 231.964Z" fill="#221EC4"/>
<path fill-rule="evenodd" clip-rule="evenodd" d="M99.1993 90.8606C99.6543 90.9066 100.109 90.9526 100.56 90.9975C100.103 90.9514 99.6514 90.906 99.1993 90.8606Z" fill="#221EC4"/>
<path fill-rule="evenodd" clip-rule="evenodd" d="M106.319 91.832C106.775 91.8743 107.23 91.9165 107.681 91.9583C107.224 91.916 106.772 91.874 106.319 91.832Z" fill="#221EC4"/>
<path fill-rule="evenodd" clip-rule="evenodd" d="M180.675 206.681C180.103 206.685 179.53 206.688 178.959 206.691C179.531 206.688 180.103 206.684 180.675 206.681Z" fill="#221EC4"/>
<path fill-rule="evenodd" clip-rule="evenodd" d="M160.841 100.039C161.183 100.067 161.524 100.095 161.863 100.124C161.52 100.096 161.18 100.068 160.841 100.039Z" fill="#221EC4"/>
<path fill-rule="evenodd" clip-rule="evenodd" d="M184.641 237.816C184.602 238.271 184.562 238.725 184.523 239.178C184.562 238.723 184.602 238.269 184.641 237.816Z" fill="#221EC4"/>
<path fill-rule="evenodd" clip-rule="evenodd" d="M214.104 165.77C214.446 165.799 214.787 165.827 215.125 165.856C214.783 165.829 214.443 165.8 214.104 165.77Z" fill="#221EC4"/>
<path fill-rule="evenodd" clip-rule="evenodd" d="M108.697 60.7395C108.124 60.744 107.552 60.7485 106.98 60.753C107.553 60.7485 108.125 60.744 108.697 60.7395Z" fill="#221EC4"/>
<path fill-rule="evenodd" clip-rule="evenodd" d="M41.7762 68.7583C41.3262 68.6736 40.8764 68.5893 40.426 68.5046C40.8761 68.5893 41.3262 68.6736 41.7762 68.7583Z" fill="#221EC4"/>
<path fill-rule="evenodd" clip-rule="evenodd" d="M49.5457 70.1521L48.2003 69.8433L49.5457 70.1521Z" fill="#221EC4"/>
<path fill-rule="evenodd" clip-rule="evenodd" d="M31.442 69.2303C30.9921 69.1432 30.5423 69.0565 30.0924 68.9695C30.5419 69.0565 30.9921 69.1432 31.442 69.2303Z" fill="#221EC4"/>
<path fill-rule="evenodd" clip-rule="evenodd" d="M209.309 165.678C209.536 165.708 209.763 165.738 209.987 165.766C209.759 165.737 209.534 165.707 209.309 165.678Z" fill="#221EC4"/>
<path fill-rule="evenodd" clip-rule="evenodd" d="M162.243 56.5625C162.47 56.5974 162.696 56.6324 162.92 56.6674C162.692 56.632 162.468 56.5973 162.243 56.5625Z" fill="#221EC4"/>
<path fill-rule="evenodd" clip-rule="evenodd" d="M238.88 196.313C238.42 196.34 237.96 196.367 237.501 196.394C237.961 196.367 238.42 196.34 238.88 196.313Z" fill="#221EC4"/>
<path fill-rule="evenodd" clip-rule="evenodd" d="M253.957 127.912C253.986 127.571 254.016 127.23 254.046 126.89C254.016 127.231 253.987 127.572 253.957 127.912Z" fill="#221EC4"/>
<path fill-rule="evenodd" clip-rule="evenodd" d="M172.729 101.421C172.957 101.44 173.185 101.459 173.41 101.479C173.181 101.459 172.955 101.44 172.729 101.421Z" fill="#221EC4"/>
<path fill-rule="evenodd" clip-rule="evenodd" d="M79.8493 88.4973C80.0779 88.5125 80.306 88.5276 80.5315 88.5432C80.3022 88.5283 80.0759 88.5126 79.8493 88.4973Z" fill="#221EC4"/>
<path fill-rule="evenodd" clip-rule="evenodd" d="M44.2746 79.4214C45.3292 79.5143 46.3118 79.5509 47.323 79.873C46.3322 79.7973 45.1599 79.9119 44.2746 79.4214Z" fill="#221EC4"/>
<path fill-rule="evenodd" clip-rule="evenodd" d="M55.2095 79.9258C55.9463 79.7127 57.1767 79.8028 57.9369 80.1253C57.0278 80.0585 56.1183 79.9923 55.2095 79.9258Z" fill="#221EC4"/>
<path fill-rule="evenodd" clip-rule="evenodd" d="M195.372 77.9043C196.167 77.9711 196.962 78.0382 197.757 78.105C196.94 78.2995 196.139 78.3049 195.372 77.9043Z" fill="#221EC4"/>
<path fill-rule="evenodd" clip-rule="evenodd" d="M275.734 26.0622C275.167 25.9903 274.6 25.9184 274.037 25.8462C274.605 25.9182 275.169 25.9902 275.734 26.0622Z" fill="#221EC4"/>
<path fill-rule="evenodd" clip-rule="evenodd" d="M27.8002 201.053C28.5154 200.719 29.1814 200.951 29.8435 201.228C29.1619 201.17 28.4814 201.112 27.8002 201.053Z" fill="#221EC4"/>
<path fill-rule="evenodd" clip-rule="evenodd" d="M70.4172 79.9456C70.4063 80.5172 70.3958 81.0888 70.3847 81.6582C70.3957 81.0863 70.4065 80.5157 70.4172 79.9456Z" fill="#221EC4"/>
<path fill-rule="evenodd" clip-rule="evenodd" d="M49.024 80.0385C49.5958 80.0367 50.1682 80.035 50.74 80.0332C50.1679 80.035 49.5958 80.0367 49.024 80.0385Z" fill="#221EC4"/>
<path fill-rule="evenodd" clip-rule="evenodd" d="M195.731 85.5752C195.274 85.5459 194.818 85.517 194.366 85.487C194.824 85.5161 195.277 85.5455 195.731 85.5752Z" fill="#221EC4"/>
<path fill-rule="evenodd" clip-rule="evenodd" d="M69.3354 194.104C69.3348 194.676 69.3335 195.248 69.3326 195.819C69.3333 195.247 69.3345 194.675 69.3354 194.104Z" fill="#221EC4"/>
<path fill-rule="evenodd" clip-rule="evenodd" d="M167.897 97.8269C168.459 97.931 169.023 98.0349 169.585 98.1389C169.022 98.0348 168.459 97.931 167.897 97.8269Z" fill="#221EC4"/>
<path fill-rule="evenodd" clip-rule="evenodd" d="M51.5224 75.0095C51.0657 74.9847 50.6091 74.9602 50.1563 74.9367C50.6144 74.962 51.0686 74.9856 51.5224 75.0095Z" fill="#221EC4"/>
<path fill-rule="evenodd" clip-rule="evenodd" d="M164.185 97.1172C164.748 97.2203 165.31 97.3234 165.873 97.4265C165.297 97.3998 164.687 97.5811 164.185 97.1172Z" fill="#221EC4"/>
<path fill-rule="evenodd" clip-rule="evenodd" d="M56.9699 75.4924C56.6269 75.4741 56.2844 75.4555 55.9454 75.4368C56.289 75.4552 56.6296 75.4736 56.9699 75.4924Z" fill="#221EC4"/>
<path fill-rule="evenodd" clip-rule="evenodd" d="M155.107 94.9895C155.669 95.0953 156.232 95.2015 156.795 95.3073C156.232 95.2011 155.669 95.0953 155.107 94.9895Z" fill="#221EC4"/>
<path fill-rule="evenodd" clip-rule="evenodd" d="M276.838 29.1252C277.4 29.2328 277.963 29.3403 278.525 29.4482C277.963 29.3403 277.4 29.2328 276.838 29.1252Z" fill="#221EC4"/>
<path fill-rule="evenodd" clip-rule="evenodd" d="M134.479 91.5449C135.046 91.601 135.613 91.6572 136.18 91.7129C135.613 91.6568 135.046 91.601 134.479 91.5449Z" fill="#221EC4"/>
<path fill-rule="evenodd" clip-rule="evenodd" d="M276.573 24.3037C277.136 24.4082 277.699 24.5123 278.262 24.6168C277.699 24.5123 277.136 24.4082 276.573 24.3037Z" fill="#221EC4"/>
<path fill-rule="evenodd" clip-rule="evenodd" d="M70.4306 82.4242C70.9993 82.4626 71.5681 82.5011 72.1361 82.5391C71.5463 82.8392 70.9796 82.769 70.4306 82.4242Z" fill="#221EC4"/>
<path fill-rule="evenodd" clip-rule="evenodd" d="M183.065 47.9423C183.107 47.4881 183.15 47.0335 183.192 46.581C183.149 47.0363 183.107 47.4895 183.065 47.9423Z" fill="#221EC4"/>
<path fill-rule="evenodd" clip-rule="evenodd" d="M182.916 49.6447C182.958 49.1902 183 48.7358 183.042 48.2833C183 48.7385 182.958 49.1916 182.916 49.6447Z" fill="#221EC4"/>
<path fill-rule="evenodd" clip-rule="evenodd" d="M184.75 132.653C184.407 132.631 184.064 132.609 183.726 132.587C184.07 132.609 184.41 132.631 184.75 132.653Z" fill="#221EC4"/>
<path fill-rule="evenodd" clip-rule="evenodd" d="M214.507 69.2209C214.455 69.6743 214.402 70.1277 214.35 70.5795C214.403 70.1255 214.455 69.673 214.507 69.2209Z" fill="#221EC4"/>
<path fill-rule="evenodd" clip-rule="evenodd" d="M221.83 155.893C222.403 155.887 222.975 155.881 223.547 155.874C222.975 155.88 222.402 155.887 221.83 155.893Z" fill="#221EC4"/>
<path fill-rule="evenodd" clip-rule="evenodd" d="M183.517 64.3904C183.995 64.1431 184.45 64.1688 184.879 64.5079C184.424 64.4688 183.97 64.4295 183.517 64.3904Z" fill="#221EC4"/>
<path fill-rule="evenodd" clip-rule="evenodd" d="M187.376 59.494C187.149 59.4584 186.923 59.4228 186.699 59.3875C186.927 59.4235 187.151 59.4586 187.376 59.494Z" fill="#221EC4"/>
<path fill-rule="evenodd" clip-rule="evenodd" d="M189.569 128.547C190.019 128.639 190.468 128.731 190.917 128.823C190.468 128.731 190.019 128.639 189.569 128.547Z" fill="#221EC4"/>
<path fill-rule="evenodd" clip-rule="evenodd" d="M174.051 164.742C174.509 164.732 174.967 164.721 175.426 164.711C174.967 164.721 174.509 164.732 174.051 164.742Z" fill="#221EC4"/>
<path fill-rule="evenodd" clip-rule="evenodd" d="M164.278 166.636C164.737 166.623 165.195 166.61 165.654 166.597C165.196 166.61 164.737 166.623 164.278 166.636Z" fill="#221EC4"/>
<path fill-rule="evenodd" clip-rule="evenodd" d="M160.102 167.315C160.561 167.292 161.021 167.269 161.48 167.246L160.102 167.315Z" fill="#221EC4"/>
<path fill-rule="evenodd" clip-rule="evenodd" d="M155.927 167.974L157.304 167.915C156.845 167.935 156.386 167.954 155.927 167.974Z" fill="#221EC4"/>
<path fill-rule="evenodd" clip-rule="evenodd" d="M243.993 200.615C243.65 200.599 243.307 200.582 242.968 200.567C243.313 200.583 243.653 200.599 243.993 200.615Z" fill="#221EC4"/>
<path fill-rule="evenodd" clip-rule="evenodd" d="M173.966 99.0488C174.415 99.1396 174.865 99.2308 175.314 99.3219C174.865 99.2308 174.415 99.1396 173.966 99.0488Z" fill="#221EC4"/>
<path fill-rule="evenodd" clip-rule="evenodd" d="M258.619 33.4409C258.391 33.4281 258.162 33.4153 257.936 33.4028C258.166 33.416 258.392 33.4283 258.619 33.4409Z" fill="#221EC4"/>
<path fill-rule="evenodd" clip-rule="evenodd" d="M55.2651 75.3694C55.0375 75.3433 54.8102 75.3176 54.5857 75.2917C54.8142 75.3176 55.0395 75.3435 55.2651 75.3694Z" fill="#221EC4"/>
<path fill-rule="evenodd" clip-rule="evenodd" d="M151.421 93.9861C151.87 94.0786 152.32 94.1711 152.769 94.2636C152.319 94.1711 151.87 94.0786 151.421 93.9861Z" fill="#221EC4"/>
<path fill-rule="evenodd" clip-rule="evenodd" d="M100.021 85.3857C100.472 85.4691 100.922 85.5527 101.372 85.636C100.922 85.5527 100.471 85.469 100.021 85.3857Z" fill="#221EC4"/>
<path fill-rule="evenodd" clip-rule="evenodd" d="M65.0874 82.2239C65.0858 82.5674 65.0846 82.9107 65.0828 83.2528C65.0844 82.909 65.0859 82.5663 65.0874 82.2239Z" fill="#221EC4"/>
<path fill-rule="evenodd" clip-rule="evenodd" d="M60.3196 80.3437C60.7782 80.33 61.2367 80.3166 61.6956 80.3025C61.237 80.3166 60.7782 80.33 60.3196 80.3437Z" fill="#221EC4"/>
<path fill-rule="evenodd" clip-rule="evenodd" d="M72.8257 82.4994C73.2981 82.3064 73.7618 82.2241 74.1886 82.608C73.7342 82.5717 73.2798 82.5357 72.8257 82.4994Z" fill="#221EC4"/>
<path fill-rule="evenodd" clip-rule="evenodd" d="M230.251 110.099C231.896 110.353 232.675 110.724 233.12 112.319C233.327 113.06 232.731 114.451 232.932 114.918C233.199 115.538 233.597 115.21 234.063 115.797C235.764 117.945 236.651 122.223 233.331 123.705C232.087 122.191 232.52 120.432 233.372 118.867C231.579 118.454 230.649 118.391 230.095 116.596C230.029 116.381 229.895 113.744 229.84 113.687C229.469 113.3 227.968 113.691 227.454 113.403C226.317 112.764 225.781 110.628 226.066 109.426C226.461 107.769 228.212 106.922 229.544 105.992C225.271 106.097 221.343 109.324 217.071 109.54C215.883 109.599 215.585 110.128 215.172 108.788C214.806 107.598 215.202 107.752 216.008 107.16C217.606 105.988 220.056 105.215 221.943 104.547C224.683 103.576 229.407 101.301 232.374 102.573C233.855 103.207 234.906 105.154 234.452 106.674C234.009 108.158 231.453 109.206 230.251 110.099Z" fill="#181A22"/>
<path fill-rule="evenodd" clip-rule="evenodd" d="M231.961 88.0103C233.184 89.9158 233.72 91.9286 232.398 93.9402C234.278 93.7862 236.372 93.4427 237.597 95.1445C239.368 97.6044 237.538 98.4102 235.473 98.5504C233.816 98.6631 230.525 99.7334 229.073 98.6157C226.684 96.7786 229.061 93.3008 229.981 91.5413C228.464 91.5892 224.634 92.0375 225.295 89.1973C225.771 87.1503 230.471 87.6684 231.961 88.0103Z" fill="#181A22"/>
<path fill-rule="evenodd" clip-rule="evenodd" d="M212.387 100.354L210.907 102.097C211.656 102.264 212.674 101.628 213.335 101.361C213.019 101.025 212.703 100.69 212.387 100.354ZM210.138 98.0064C208.379 97.7595 206.48 100.058 206.076 97.4895C205.839 95.9845 207.248 94.057 208.905 93.8255C211.795 93.4219 215.836 99.9753 216.558 102.235C217.224 104.316 216.514 104.029 214.986 104.8C213.662 105.468 211.941 107.017 210.223 106.548C208.652 106.118 208.167 103.602 208.174 102.291C208.185 100.269 209.401 99.6188 210.138 98.0064Z" fill="#181A22"/>
<path fill-rule="evenodd" clip-rule="evenodd" d="M219.092 97.9985C219.357 98.811 221.277 102.61 219.574 102.601C218.626 102.596 216.841 97.1135 216.586 96.4869C216.235 95.6262 215.498 94.4392 215.628 93.4642C215.852 91.778 215.758 92.3103 216.901 92.4938C219.128 92.852 220.969 96.2418 223.074 97.1012C222.202 93.8648 220.895 90.3173 221.79 87.013C224.297 89.3298 224.406 94.1026 225.092 97.2732C225.302 98.2382 225.799 100.215 224.743 100.869C223.548 101.609 219.898 98.512 219.092 97.9985Z" fill="#181A22"/>
<path fill-rule="evenodd" clip-rule="evenodd" d="M203.092 104.978C203.923 103.234 204.816 101.192 201.747 101.838C202.195 102.885 202.644 103.931 203.092 104.978ZM202.098 97.6814C204.73 97.4722 206.228 100.927 206.5 102.935C206.718 104.536 205.052 110.125 202.804 108.438C201.967 107.809 201.496 106.091 200.949 105.222C200.198 104.033 199.147 102.898 198.578 101.619C197.372 98.9095 199.534 97.6885 202.098 97.6814Z" fill="#181A22"/>
<path fill-rule="evenodd" clip-rule="evenodd" d="M202.215 97.7371C201.642 97.7446 201.069 97.7525 200.497 97.7601C201.07 97.7526 201.643 97.7447 202.215 97.7371Z" fill="#221EC4"/>
<path fill-rule="evenodd" clip-rule="evenodd" d="M232.214 88.1917C231.765 88.089 231.317 87.9863 230.868 87.8835C231.317 87.9863 231.765 88.089 232.214 88.1917Z" fill="#221EC4"/>
<path fill-rule="evenodd" clip-rule="evenodd" d="M235.821 94.0113C235.367 93.9702 234.914 93.9294 234.46 93.888C234.94 93.6405 235.393 93.6856 235.821 94.0113Z" fill="#221EC4"/>
<path fill-rule="evenodd" clip-rule="evenodd" d="M172.827 49.4483C175.044 51.0402 170.136 57.0022 168.191 52.1684C167.648 50.8194 167.817 49.1439 169.249 49.4937C169.894 49.6512 169.982 50.6232 170.877 50.6595C171.764 50.6959 172.2 49.9332 172.827 49.4483Z" fill="#181A22"/>
<path fill-rule="evenodd" clip-rule="evenodd" d="M185.709 55.0359C185.744 53.8435 188.034 51.4759 189.339 53.0409C190.648 54.611 186.7 54.9988 185.709 55.0359Z" fill="#181A22"/>
</svg>
