<svg width="327" height="203" viewBox="0 0 327 203" fill="none" xmlns="http://www.w3.org/2000/svg">
<path fill-rule="evenodd" clip-rule="evenodd" d="M241.356 163.466C239.812 165.252 237.532 166.577 235.783 168.209C233.946 169.924 231.952 171.422 230.123 173.116C222.052 163.252 210.995 157.203 201.417 149.017C196.876 145.136 193.531 139.872 191.082 134.47C189.827 131.7 188.9 128.85 188.174 125.899C187.848 124.57 187.528 123.246 187.314 121.899C187.056 120.267 186.989 120.128 185.888 118.855C185.414 118.307 184.497 116.706 183.569 116.883C182.788 117.031 181.359 119.408 180.866 119.996C178.492 122.82 176.191 125.73 173.692 128.445C169.869 132.599 166.389 136.687 162.839 141.09C155.578 150.098 147.746 158.578 139.842 167.054C139.256 167.682 137.889 169.526 137.047 169.774C136.023 170.075 134.358 168.819 133.327 168.117C130.838 166.422 128.876 164.324 126.748 162.224C122.595 158.125 119.783 152.372 117.892 146.897C116.76 143.621 116.023 140.224 114.855 136.958C114.368 135.597 113.264 133.925 113.824 132.739C113.991 132.386 115.053 131.447 115.428 131.375C115.871 131.29 116.61 131.897 116.763 131.855C118.233 131.453 117.418 129.915 118.292 129.087C118.788 128.617 121.308 128.686 122.061 128.428C124.813 127.484 127.281 125.683 129.883 124.608C140.774 120.109 151.797 115.732 161.199 108.384C163.637 106.479 165.257 105.048 168.167 103.816C171.107 102.572 174.062 101.461 177.062 100.375C179.709 99.4174 182.37 98.5192 185.105 97.8325C188.061 97.0898 192.255 96.1481 195.21 97.1048C201.011 98.983 202.884 103.763 205.194 108.806C208.32 115.628 212.099 122.084 216.197 128.363C224.078 140.445 233.664 151.286 241.356 163.466Z" fill="#221EC4"/>
<path fill-rule="evenodd" clip-rule="evenodd" d="M66.6426 56.6553C66.3233 56.4933 63.831 57.5078 63.4126 57.6629C61.7416 58.283 60.1676 59.3131 58.5933 60.1512C59.7998 61.6196 61.0067 63.0883 62.2129 64.557C63.3955 61.6562 64.9155 59.2626 66.6426 56.6553ZM67.4653 74.7039C67.0548 74.75 70.5206 83.0786 70.9253 84.0138C72.3981 87.415 73.9444 90.7831 75.4367 94.1757C76.8825 97.4635 78.7166 100.488 80.5643 103.559C82.1448 106.186 83.7704 110.262 86.1544 112.208C84.6491 105.53 84.8474 97.8514 80.5298 92.2442C76.0543 86.4313 71.6294 80.7551 67.4653 74.7039ZM241.356 163.762C234.668 153.172 226.296 143.803 219.322 133.401C215.417 127.577 211.616 121.678 208.329 115.479C205.938 110.969 204.452 104.535 200.759 101.087C199.132 99.5683 197.393 98.0814 195.209 97.4009C192.221 96.4699 188.107 97.3927 185.105 98.129C179.51 99.5006 174.045 101.631 168.747 103.868C163.372 106.137 158.786 110.212 153.93 113.487C148.721 117 143.082 119.559 137.245 121.799C132.163 123.749 127.642 126.55 122.588 128.513C121.58 128.904 119.525 128.847 118.68 129.357C117.769 129.906 118.128 131.529 117.022 132.127C116.524 132.397 116.358 131.418 115.975 131.434C115.507 131.454 115.08 132.003 114.628 132.351C112.791 133.769 113.917 134.714 114.644 136.664C117.015 143.019 118.289 149.484 121.619 155.483C124.356 160.415 128.273 164.833 132.885 168.098C133.587 168.595 135.874 170.52 136.697 170.392C137.439 170.277 138.947 168.306 139.459 167.771C141.781 165.342 143.904 162.729 146.226 160.297C149.812 156.537 153.265 152.677 156.746 148.866C160.787 144.442 164.363 139.43 168.002 134.703C169.677 132.529 171.832 130.758 173.692 128.741C176.195 126.03 178.492 123.116 180.866 120.292C181.584 119.438 182.787 117.252 183.903 117.277C184.685 117.296 186.064 119.137 186.473 119.714C187.993 121.859 187.986 125.732 188.742 128.409C190.587 134.937 193.914 141.314 198.477 146.351C203.014 151.361 208.826 154.924 214.192 158.95C220.005 163.313 225.512 167.778 230.123 173.413C231.952 171.719 233.946 170.22 235.783 168.506C237.532 166.873 239.812 165.548 241.356 163.762ZM155.268 193.724C156.568 193.738 158.77 194.538 159.933 194.056C156.483 190.238 153.314 186.963 148.949 184.165C144.419 181.262 139.905 178.385 135.505 175.288C126.639 169.048 120.117 161.647 116.413 151.254C115.46 148.578 114.821 145.771 114.122 143.02C113.746 141.538 112.997 134.607 111.726 134.008C110.973 133.653 105.306 137.636 104.408 138.133C102.309 139.294 100.202 140.194 98.0315 141.102C93.3663 143.056 88.5569 144.546 83.6097 145.789C77.6785 147.281 73.6385 144.813 69.9642 140.152C65.7956 134.863 62.3315 128.895 58.5201 123.341C56.7869 120.815 55.351 118.293 54.071 115.506C53.2332 113.683 49.9106 108.764 51.0587 106.822C54.3341 109.316 55.5127 114.274 57.7439 117.613C60.5248 121.774 63.6587 125.698 66.4539 129.856C68.8045 133.351 71.2025 137.588 74.6752 140.101C77.7298 142.312 80.6316 141.632 83.9191 140.639C87.9034 139.435 92.0333 138.841 95.938 137.348C100.164 135.732 104.162 133.44 108.284 131.571C110.206 130.7 112.508 130.205 114.319 129.118C115.88 128.182 115.647 127.688 115.762 125.695C115.896 123.37 116.05 121.043 116.153 118.715C116.222 117.152 115.376 115.031 115.95 113.864C111.269 114.676 106.695 115.763 102.047 116.724C99.5023 117.25 97.0485 117.901 94.4778 118.315C93.4979 118.472 92.1584 118.468 91.281 118.895C90.581 118.694 90.2242 118.822 90.2105 119.278C90.177 119.526 90.124 119.77 90.0512 120.01C88.616 120.663 87.7813 119.263 86.5365 117.92C85.0005 116.262 83.8503 114.395 82.7234 112.447C80.2037 108.092 77.2995 103.996 74.9677 99.518C72.5912 94.9533 70.6611 90.066 68.6462 85.33C66.7978 80.9851 65.6141 76.2861 63.5715 72.044C62.66 70.1505 61.5047 68.5847 60.1556 66.9851C59.0424 65.6651 57.3296 62.8176 55.6671 62.2112C55.2276 62.0509 54.0764 62.3203 53.5771 62.2847C52.5817 62.2136 51.6948 61.8482 50.6762 61.9282C48.471 62.1008 46.0668 63.4954 44.3045 64.7214C45.4433 65.7365 48.2922 66.9704 46.2459 68.799C44.26 70.5743 43.1632 67.3898 42.4054 65.9946C38.8371 68.9248 39.3528 72.9652 38.9406 77.1054C38.7253 79.2669 38.1589 81.3956 37.7936 83.5247C37.5304 85.0569 37.715 86.6418 37.6398 88.2062C37.448 92.1817 37.0484 95.9869 37.0672 99.9066C37.0884 104.096 37.3738 108.143 37.7091 112.302C38.2734 119.305 39.5665 126.31 40.6753 133.257C41.299 137.162 42.1528 140.956 42.9817 144.798C43.9223 149.158 45.6624 153.288 46.6382 157.637C47.6325 156.373 48.3804 156.367 49.9885 156.534C51.2255 156.663 52.0564 156.369 51.9839 158.086C51.9371 159.199 50.9548 160.05 49.8679 160.244C48.4504 160.497 47.9689 159.79 47.2384 158.717C47.0675 160.75 48.4347 162.875 48.9754 164.861C49.4871 166.742 49.8262 168.587 50.6861 170.388C51.5252 172.144 52.2437 173.877 53.0927 175.617C53.4837 176.418 53.8495 177.231 54.2449 178.029C54.4449 178.434 54.6804 178.991 54.9788 179.332C55.6788 180.13 55.5673 179.744 56.3866 180.198C58.1715 181.19 57.5012 180.943 57.5429 182.99C57.5836 185.01 58.6192 186.494 60.28 187.629C63.8036 190.038 67.279 190.708 71.2849 191.925C75.0173 193.059 78.9486 194.032 82.9008 194.01C87.7414 193.983 92.5176 193.348 97.3582 193.284C102.698 193.213 108.09 193.242 113.419 193.427C115.615 193.503 117.653 193.6 119.773 194.161C122.234 194.812 124.615 194.554 127.152 194.455C132.564 194.245 138.163 193.826 143.504 193.788C147.35 193.761 151.408 193.493 155.268 193.724ZM295.605 195.822C296.568 196.331 298.724 196.122 299.692 195.981C301.396 195.732 301.578 195.057 302.659 193.538C304.52 190.921 306.031 188.416 307.125 185.385C309.221 179.584 310.076 173.65 310.996 167.582C312.018 160.84 310.151 153.851 309.483 147.155C309.33 145.618 309.12 144.096 308.877 142.571C308.732 141.66 308.694 138.558 308.094 137.769C306.942 136.253 301.582 137.476 299.475 137.613C293.594 137.997 287.673 138.087 281.794 138.154C278.66 138.19 275.508 138.321 272.404 138.345C270.979 138.356 269.586 138.286 268.155 138.147C267.677 138.101 267.209 137.991 266.727 137.964C265.077 137.873 265.201 137.633 264.775 139.095C264.028 141.655 264.602 144.912 264.406 147.569C264.144 151.119 264.002 154.72 264.067 158.278C264.127 161.566 264.015 164.847 264.138 168.142C264.189 169.507 264.338 170.62 264.698 171.923C265.105 173.396 265.553 176.839 266.566 177.859C266.682 177.975 267.543 177.704 267.772 177.993C268.124 178.439 268.06 179.381 268.302 179.669C269.085 180.6 270.703 180.674 271.877 181.093C275.099 182.242 278.054 183.489 281.09 185.038C283.803 186.422 288.177 187.6 289.808 190.33C290.556 191.582 290.657 193.232 291.344 194.524C292.127 195.995 290.561 195.226 292.479 195.822C293.343 196.091 294.72 195.822 295.605 195.822ZM9.60523 179.184C9.36119 182.581 7.44747 185.817 6.78131 189.157C6.46959 190.721 5.94083 192.259 5.57442 193.814C5.22305 195.305 3.95362 197.072 4.08214 198.547C8.76749 196.878 13.5133 196.458 18.4103 196.008C23.0515 195.581 27.9546 195.412 32.5569 195.409C37.2467 195.407 42.2612 194.949 47.0901 194.878C52.1401 194.804 57.2664 194.673 62.2433 194.149C59.6409 192.222 56.3846 190.412 54.463 187.73C52.3739 184.815 51.2891 181.162 49.4509 178.086C45.7622 171.913 43.4171 164.253 41.4836 157.318C37.5799 143.317 33.2176 129.575 32.1662 115.052C30.1653 116.077 28.577 120.052 27.5752 122.032C26.2965 124.56 25.627 127.3 24.7957 129.986C23.084 135.519 21.8993 141.257 19.8034 146.738C15.7976 157.214 13.2228 168.503 9.60523 179.184ZM263.94 97.5848C264.807 103.847 266.624 110.189 266.694 116.527C266.709 117.921 266.473 119.469 266.763 120.844C267.074 122.311 268.083 123.609 268.666 125.004C269.591 127.218 271.933 131.756 269.674 133.632C269.628 131.852 267.999 129.591 267.178 128.034C265.941 125.688 264.316 123.544 262.975 121.256C260.168 116.468 257.023 111.782 253.406 107.561C249.883 103.449 245.822 99.8017 242.086 95.8864C240.963 94.71 231.958 83.3873 231.601 83.5455C234.394 94.3169 239.142 103.689 245.64 112.708C248.826 117.129 252.649 120.038 256.528 123.784C259.757 126.903 265.845 130.238 264.728 135.349C269.777 134.864 274.792 134.088 279.887 134.088C279.049 127.64 278.407 121.294 276.912 114.952C275.214 107.751 274.063 100.334 272.626 93.069C271.16 85.652 268.673 78.4715 267.126 71.0686C265.644 63.9797 264.371 56.9035 263.285 49.7356C262.387 53.7073 262.718 58.0697 262.4 62.122C262.075 66.2622 262.106 70.3262 262.214 74.4906C262.415 82.2258 263.239 89.8677 263.94 97.5848ZM285.817 60.7056C285.846 57.3946 286.487 54.1284 286.685 50.8253C286.746 49.8119 287.755 42.8977 286.814 42.5367C286.04 44.2245 285.859 46.3843 285.156 48.1552C284.454 49.9243 283.514 51.6097 282.84 53.3912C281.38 57.2504 280.876 61.6172 280.719 65.7201C280.363 75.0006 280.18 84.2602 280.803 93.5407C281.071 97.5185 281.276 101.503 281.202 105.489C281.122 109.874 280.451 113.681 281.266 118.031C282.073 122.338 282.581 126.628 282.85 130.998C283.038 134.065 283.114 133.848 286.041 133.632C288.153 133.477 290.287 133.643 292.402 133.546C291.413 121.592 291.252 109.612 289.672 97.7034C288.865 91.628 288.844 85.4647 287.842 79.4118C287.345 76.405 286.51 73.4587 286.03 70.4485C285.515 67.2165 285.768 63.9626 285.817 60.7056ZM71.8157 53.1823C77.4495 53.6704 83.4422 55.3548 89.2169 54.2426C88.265 53.857 85.774 53.3252 86.8951 51.8035C88.035 50.2562 89.9559 52.2188 91.0927 52.0161C91.7937 51.891 93.3427 48.9608 93.7748 48.3541C94.7554 46.9753 94.8736 46.735 96.637 46.3816C98.3453 46.0398 98.7325 46.41 98.9489 44.7116C99.1974 42.7585 98.5216 40.5628 98.5886 38.5657C98.7325 34.2663 100.12 30.4959 101.41 26.4507C95.9257 27.644 90.5626 29.059 84.9544 29.828C82.557 30.1568 78.8273 30.9153 76.6494 29.2856C76.083 28.8618 76.1736 28.2896 75.7101 27.7984C74.9329 26.9744 73.4912 26.1219 72.3889 25.8871C65.6052 24.443 64.9435 34.1135 68.343 37.7321C69.1944 38.6389 70.3791 39.0866 71.251 39.9175C72.4148 41.0256 72.5102 42.1929 72.6801 43.8844C72.9986 47.0563 72.5659 50.2405 71.2128 53.142L71.8157 53.1823ZM154.136 98.8361C156.138 99.2162 158.228 99.1294 160.236 99.4538C160.949 99.5689 163.088 99.9709 163.715 99.5539C164.673 98.9171 165.013 96.5816 165.466 95.494C166.263 93.581 167.39 91.9124 168.149 89.9645C171.253 82.0081 174.147 74.02 177.9 66.3354C176.462 65.9614 175.357 65.9467 173.907 65.7536C172.397 65.5523 171.027 64.6592 169.586 64.2753C168.217 63.9106 166.782 64.0036 165.425 63.5794C164.677 63.346 164.036 62.8268 163.299 62.6453C162.124 62.3565 160.753 62.1876 160.055 62.9587C159.339 63.7497 159.087 65.9184 158.698 66.94C157.66 69.6617 156.454 72.2884 155.585 75.0727C154.801 77.5839 154.056 80.0684 153.365 82.6025C152.636 85.2777 151.198 87.4827 150.323 90.0383C149.656 91.9835 149.028 93.972 148.928 96.0461C148.832 98.0698 148.537 98.1987 150.561 98.522C151.583 98.6851 153.175 99.2921 154.136 98.8361ZM285.895 193.554C286.417 193.797 286.908 193.764 287.37 193.456C282.848 191.546 278.449 188.898 273.732 187.587C269.307 186.358 265.005 184.89 260.742 183.376C257.278 182.147 254.164 181.189 251.032 179.025C249.131 177.711 247.442 176.234 246.135 174.314C244.681 172.177 244.357 169.135 242.782 167.21C240.656 169.544 238.159 171.312 235.644 173.168C234.773 173.81 232.686 175.209 232.388 176.202C232.013 177.456 233.019 178.655 233.517 179.923C234.791 183.171 235.414 186.418 236.105 189.795C236.383 191.149 236.981 193.184 238.093 193.751C239.105 194.266 242.037 193.892 243.297 193.796C249.87 193.298 256.326 192.788 262.939 193.241C270.421 193.754 278.432 194.109 285.895 193.554ZM299.023 133.359C300.218 133.363 301.385 133.214 302.575 133.214C301.888 130.006 303.494 125.855 304.063 122.653C304.7 119.072 305.185 115.368 305.61 111.757C306.506 104.153 306.911 96.6404 306.923 88.9801C306.934 81.5675 308.283 74.7938 310.174 67.668C312.203 60.0152 315.527 53.1331 318.275 45.7527C315.26 47.3461 313.592 51.0748 312.008 53.9254C310.006 57.5296 308.672 61.5205 307.854 65.5667C306.277 73.3723 304.547 81.2015 302.727 88.9941C300.832 97.108 299.717 105.296 297.546 113.344C296.487 117.269 295.048 122.097 294.968 126.144C294.935 127.818 294.43 131.324 295.189 132.778C295.898 134.139 297.467 133.498 299.023 133.359ZM118.708 123.292C118.645 124.125 118.585 124.918 118.437 125.741C120.092 125.725 122.188 124.008 123.607 123.237C125.336 122.298 127.066 121.263 128.757 120.319C132.021 118.497 135.727 117.296 139.213 115.799C143.216 114.079 146.896 112.001 150.725 109.93C152.063 109.207 161.675 105.04 161.513 103.902C159.403 103.832 157.293 103.762 155.182 103.692C153.373 103.632 150.571 104.04 148.839 103.481C147.89 103.175 146.824 102.046 146.466 101.163C146.112 100.288 146.908 96.2672 146.445 96.0108C144.083 98.4222 142.598 101.627 140.487 104.229C138.153 107.104 135.138 108.783 131.815 110.311C128.145 111.998 124.346 113.305 120.596 114.751C119.014 115.361 119.046 115.71 118.908 117.444C118.754 119.382 118.77 121.348 118.708 123.292ZM309.412 196.217C313.391 196.644 317.467 196.401 321.477 196.734C322.936 196.855 324.958 197.035 323.49 198.993C322.566 200.226 319.605 199.831 318.263 199.916C314.657 200.146 310.839 200.022 307.226 199.969C306.465 199.958 305.624 199.732 304.855 199.783C303.967 199.841 302.904 200.48 302.095 200.475C301.596 200.472 301.418 199.946 300.988 199.898C300.051 199.792 299.114 199.715 298.17 199.716C283.886 199.719 269.798 199.432 255.55 199.416C248.737 199.409 241.815 199.292 235.005 198.972C233.574 198.904 225.43 199.197 225.656 196.622C225.772 195.296 228.43 195.109 229.4 194.968C230.119 194.864 230.864 194.88 231.585 194.841C233.498 194.739 234.336 195.199 233.932 193.106C232.401 185.165 229.658 178.603 223.797 172.893C219.004 168.225 213.233 163.99 207.805 160.091C201.214 155.357 195.867 150.379 191.954 143.135C189.668 138.905 187.755 134.58 186.581 129.903C186.159 128.22 186.149 126.307 185.631 124.685C185.233 123.436 184.325 122.562 183.79 121.268C177.233 132.221 168.541 141.385 160.572 151.261C156.764 155.979 152.42 160.46 147.87 164.565C146.52 165.783 145.26 167.055 144 168.366C142.946 169.463 141.273 170.438 140.383 171.655C139.529 172.823 139.739 172.767 141.038 173.694C142.756 174.92 144.65 175.938 146.394 177.133C149.183 179.043 152.228 180.657 154.722 182.956C157.419 185.442 159.775 188.322 162.132 191.126C163.704 192.994 165.765 195.392 166.161 197.755C166.291 198.536 166.788 200.469 166.132 201.042C165.572 201.531 165.628 201.345 164.932 201.047C164.021 200.656 163.752 199.759 162.638 199.331C159.788 198.237 156.339 198.613 153.373 198.6C150.406 198.586 147.415 198.92 144.45 198.907C137.678 198.88 131.05 199.428 124.281 199.722C117.091 200.035 109.813 199.285 102.646 199.391C97.337 199.47 91.886 199.073 86.4299 199.368C83.6234 199.519 80.8671 199.168 78.1307 199.129C74.548 199.077 70.8686 199.565 67.2551 199.634C61.3242 199.749 55.4658 199.748 49.4987 199.89C36.6636 200.198 23.8978 200.515 11.0551 200.718C9.34205 200.745 7.46661 200.687 5.77369 200.88C3.97686 201.085 4.9045 201.467 3.67164 202.114C0.220173 203.924 1.01724 197.213 1.09996 195.893C1.54361 188.819 3.33941 181.881 5.49752 175.166C7.54488 168.796 9.20704 162.13 10.941 155.623C12.839 148.501 15.3119 141.67 17.5575 134.618C19.8585 127.392 21.7318 119.884 25.911 113.478C26.8629 112.02 27.8466 110.45 29.3778 109.53C31.0943 108.499 31.1682 109.101 31.1668 107.214C31.1658 105.437 31.2752 103.062 30.8558 101.366C30.4767 99.8338 30.5352 100.742 29.6817 99.6417C28.9872 98.7466 28.2605 98.1348 27.7622 97.0479C24.701 100.152 17.6939 98.5138 14.7363 96.2788C11.1163 93.5431 8.35904 88.9278 7.34869 84.5323C6.53726 81.0025 7.53292 74.2743 11.4397 72.5769C13.3441 71.7494 20.3394 71.1239 20.6193 68.4271C20.7635 67.035 18.3016 65.0775 17.7335 63.8806C16.6808 61.663 15.6697 58.7133 15.3772 56.2824C14.8057 51.5376 16.9597 46.2319 20.391 43.0269C26.6855 37.1473 37.7607 34.1299 45.8576 37.8603C44.1465 31.3241 43.1136 25.6855 43.9753 18.8864C44.7177 13.0291 48.1736 9.75191 52.929 6.83433C61.044 1.85504 72.0792 -0.110296 81.358 1.33756C83.4665 1.66671 85.49 2.37252 87.4423 2.93409C90.2785 3.74996 93.6739 3.47823 96.3519 4.80372C98.2937 5.76451 99.7682 7.67857 101.473 8.95655C103.464 10.4485 105.119 12.6753 106.502 14.7346C109.46 19.1383 108.304 27.3114 105.828 31.7318C105.297 32.68 104.642 33.4781 103.763 34.1251C102.848 34.7984 101.454 35.008 100.983 35.8813C99.7757 38.1183 100.94 42.9612 101.101 45.3791C101.289 48.1866 99.8693 50.2955 96.6858 50.5194C94.8442 50.6493 94.7855 49.5808 93.9036 51.7792C93.3321 53.2042 92.813 54.7566 91.9882 56.063C90.2878 58.7553 87.1733 58.4925 84.3364 58.4197C81.0524 58.3349 77.8176 57.8161 74.5319 57.4886C75.3998 60.2691 77.7752 62.4272 79.2586 64.9043C81.2643 68.2545 82.4715 71.0316 82.7976 74.935C83.0478 77.9339 82.5078 80.3022 80.4556 82.5341C79.6063 83.458 78.8533 83.5035 79.0642 84.5692C79.1927 85.2193 80.3169 86.2918 80.7147 86.8107C81.7671 88.1833 82.989 89.4432 83.9153 90.9092C87.4795 96.5495 88.5323 105.148 88.5412 111.714C88.5415 112.015 88.7022 112.655 88.5692 112.966C88.4708 113.196 87.7229 113.925 87.712 113.987C87.5657 114.832 88.3887 116.279 89.6804 116.422C91.037 116.572 93.5215 115.44 94.7834 115.068C96.8027 114.473 98.861 114.033 100.876 113.422C104.13 112.434 107.369 111.647 110.678 110.873C112.173 110.524 113.676 110.232 115.176 109.906C116.884 109.534 117.678 108.815 118.559 110.553C119.316 112.045 118.846 112.315 120.678 111.563C122.497 110.816 124.275 109.891 126.051 109.048C129.184 107.562 132.915 106.237 135.618 104.043C140.126 100.383 141.795 94.5538 146.11 90.6699C147.311 89.5885 148.028 89.5693 148.787 88.0712C149.6 86.4679 150.02 84.4116 150.447 82.6869C151.196 79.6668 151.729 76.6361 152.408 73.6187C153.254 69.8596 155.082 66.4553 156.416 62.8699C156.936 61.4729 157.205 59.6973 158.044 58.4419C158.266 58.109 158.691 57.9213 158.864 57.6458C159.46 56.7001 159.454 56.4403 159.609 55.3025C160.331 49.9858 163.505 52.7828 166.973 54.002C168.434 54.5157 175.372 57.8472 172.723 60.0627C175.881 60.9791 180.939 60.4811 180.897 65.0071C180.875 67.3262 179.488 69.807 178.744 71.9777C178.082 73.9051 177.443 75.84 176.772 77.7644C175.3 81.9797 173.515 86.069 172.079 90.2974C171.425 92.2244 170.884 94.1966 169.973 96.0153C169.17 97.6197 167.224 99.3881 166.903 101.143C175.319 97.552 183.105 92.3608 192.525 92.6917C196.65 92.8362 200.394 94.5702 202.672 98.197C205.528 102.743 207.407 107.833 210.198 112.421C220.353 129.11 232.465 144.272 243.613 160.271C244.47 161.5 245.571 162.663 245.868 164.182C246.062 165.173 245.686 166.165 245.918 167.117C246.4 169.096 248.837 171.567 250.489 172.704C253.656 174.884 258.805 177.959 262.757 177.687C260.277 171.726 260.31 165.195 260.425 158.836C260.535 152.796 261.188 146.805 261.962 140.827C262.138 139.475 262.291 138.221 262.679 136.91C263.125 135.406 263.738 135.549 262.402 134.197C260.345 132.116 257.899 130.403 255.826 128.295C251.343 123.738 246.748 120.166 243.219 114.723C239.864 109.547 236.323 104.22 233.839 98.5518C231.282 92.7163 230.259 86.4843 228.99 80.3042C228.475 77.7965 226.596 74.9968 226.974 72.378C227.451 69.0684 228.986 71.4784 229.61 73.2595C231.517 78.6964 235.981 83.5626 239.679 87.9352C243.674 92.6588 248.56 96.611 252.729 101.197C257.27 106.192 260.381 111.933 264.419 117.265C264.419 110.648 262.159 103.909 261.235 97.3633C260.422 91.6017 260.167 85.8219 259.653 80.0353C258.485 66.8904 259.494 53.3584 261.132 40.3075C261.911 34.1094 261.469 28.0572 261.493 21.8378C261.5 19.8585 260.681 15.2965 261.725 13.54C263.725 10.1757 264.892 17.5322 264.993 18.6291C265.597 25.1628 264.513 31.6238 265.067 38.1296C265.646 44.9235 266.902 51.5267 267.972 58.2419C269.13 65.513 271.016 72.62 272.821 79.7516C274.717 87.2393 276.311 94.8833 278.418 102.311C278.987 99.9764 278.189 97.108 278.032 94.7301C277.807 91.3272 277.368 87.9236 277.33 84.5118C277.269 79.0741 277.226 73.5356 277.534 68.1233C277.837 62.7885 277.746 57.1984 279.382 52.0588C280.158 49.6194 281.297 47.2395 282.411 44.9416C283.786 42.1081 284.272 39.3607 285.033 36.3471C285.685 33.7662 286.64 31.2533 287.074 28.6208C287.344 26.9836 288.098 22.1506 289.972 25.8123C291.061 27.9376 290.59 31.0882 290.621 33.3714C290.66 36.2986 290.212 39.1447 290.143 42.0596C290.009 47.7785 289.913 53.4906 289.487 59.2C289.039 65.19 289.43 70.5583 290.569 76.4604C291.817 82.921 292.182 89.3957 292.828 95.9353C293.161 99.3119 293.723 102.67 293.995 106.051C294.138 107.842 293.402 112.977 294.685 114.252C294.809 111.15 295.698 108.046 296.371 105.024C297.17 101.444 297.492 97.6798 298.08 94.0482C299.033 88.1646 300.881 82.5458 302.104 76.728C304.625 64.7354 306.719 49.3221 317.284 41.4724C318.666 40.4453 320.185 39.6872 321.679 38.8419C322.525 38.3634 323.782 37.1254 324.75 36.9094C325.806 36.6735 326.247 36.8567 326.675 38.0824C327.272 39.7911 326.18 40.5892 325.161 41.8302C321.632 46.1246 320.125 51.6295 317.946 56.6659C312.957 68.1985 310.75 80.3624 310.725 92.8284C310.712 99.3543 310.261 105.648 309.565 112.135C308.817 119.115 307.831 126.498 305.71 133.213C307.837 133.69 310.144 132.979 310.722 135.452C310.864 136.059 310.607 136.777 310.764 137.568C310.917 138.336 311.283 139.1 311.5 139.856C311.949 141.419 312.186 142.961 312.404 144.566C313.247 150.769 314.695 156.669 314.849 162.959C314.991 168.772 313.853 174.662 312.804 180.364C311.748 186.107 308.718 191.003 306.332 196.196C307.359 196.196 308.386 196.207 309.412 196.217Z" fill="#181A22"/>
<path fill-rule="evenodd" clip-rule="evenodd" d="M174.402 183.016C173.271 183.336 167.809 183.94 167.81 185.654C167.811 186.681 173.265 186.661 174.231 186.773C174.288 185.521 174.345 184.269 174.402 183.016ZM186.458 194.842C189.605 195.441 193.877 194.599 195.889 191.824C196.83 190.528 197.275 188.556 197.582 187.009C197.874 185.534 198.776 181.855 198.162 180.473C197.409 178.775 190.177 180.549 188.071 180.744C184.397 181.083 180.598 181.123 176.922 180.884C176.922 184.68 176.728 188.379 178.96 191.646C180.571 194.004 183.596 194.56 186.458 194.842ZM185.825 199.531C182.405 198.279 178.815 199.093 176.588 195.422C176.023 194.49 175.548 193.489 175.206 192.454C175.039 192.001 174.909 191.537 174.816 191.061C174.99 190.038 174.616 189.749 173.692 190.195C171.879 189.843 169.892 191.087 167.983 190.72C163.352 189.831 164.193 183.198 167.301 180.902C167.915 180.448 168.528 180.322 169.231 180.097C170.78 179.604 171.618 180.155 173.035 180.015C174.18 179.902 174.495 178.701 175.725 178.172C176.531 177.827 177.649 177.853 178.496 177.818C182.928 177.636 187.375 177.638 191.836 177.349C193.916 177.214 196.162 177.544 198.201 177.188C199.155 177.022 199.018 176.387 199.921 176.944C200.857 177.521 200.453 179.654 200.406 180.505C200.133 185.424 199.84 190.7 197.205 195.001C194.793 198.936 190.049 199.339 185.825 199.531Z" fill="#181A22"/>
<path fill-rule="evenodd" clip-rule="evenodd" d="M5.224 200.886C6.32424 200.874 7.42414 200.863 8.52063 200.852C7.41902 200.864 6.32151 200.875 5.224 200.886Z" fill="#221EC4"/>
<path fill-rule="evenodd" clip-rule="evenodd" d="M310.731 95.9971C310.729 94.9402 310.727 93.8834 310.725 92.8286C310.727 93.8861 310.729 94.9416 310.731 95.9971Z" fill="#221EC4"/>
<path fill-rule="evenodd" clip-rule="evenodd" d="M30.8591 100.337C30.8557 101.366 30.8523 102.396 30.8489 103.423C30.852 102.393 30.8554 101.365 30.8591 100.337Z" fill="#221EC4"/>
<path fill-rule="evenodd" clip-rule="evenodd" d="M122.313 199.719C123.189 199.721 124.064 199.722 124.935 199.724C124.059 199.723 123.186 199.721 122.313 199.719Z" fill="#221EC4"/>
<path fill-rule="evenodd" clip-rule="evenodd" d="M69.165 199.509C70.0404 199.512 70.9154 199.515 71.7866 199.518C70.9099 199.516 70.0376 199.512 69.165 199.509Z" fill="#221EC4"/>
<path fill-rule="evenodd" clip-rule="evenodd" d="M260.541 156.753C260.502 157.448 260.463 158.143 260.425 158.836C260.464 158.141 260.502 157.447 260.541 156.753Z" fill="#221EC4"/>
<path fill-rule="evenodd" clip-rule="evenodd" d="M309.413 196.218C308.736 196.211 308.06 196.204 307.383 196.196C308.063 195.913 308.739 195.926 309.413 196.218Z" fill="#221EC4"/>
<path fill-rule="evenodd" clip-rule="evenodd" d="M249.357 199.294C249.842 199.287 250.328 199.279 250.809 199.271C250.322 199.278 249.839 199.286 249.357 199.294Z" fill="#221EC4"/>
<path fill-rule="evenodd" clip-rule="evenodd" d="M310.468 104.572C310.48 104.046 310.492 103.521 310.504 102.998C310.492 103.524 310.48 104.048 310.468 104.572Z" fill="#221EC4"/>
<path fill-rule="evenodd" clip-rule="evenodd" d="M265.067 38.1299C265.027 37.5881 264.987 37.0467 264.947 36.5063C264.987 37.0484 265.027 37.5892 265.067 38.1299Z" fill="#221EC4"/>
<path fill-rule="evenodd" clip-rule="evenodd" d="M310.708 98.0659C310.714 97.5228 310.721 96.98 310.727 96.439C310.721 96.9824 310.714 97.5242 310.708 98.0659Z" fill="#221EC4"/>
<path fill-rule="evenodd" clip-rule="evenodd" d="M158.032 198.621C158.464 198.628 158.896 198.634 159.324 198.639C158.891 198.632 158.462 198.627 158.032 198.621Z" fill="#221EC4"/>
<path fill-rule="evenodd" clip-rule="evenodd" d="M269.221 199.506C269.643 199.515 270.065 199.523 270.483 199.532C270.059 199.524 269.64 199.515 269.221 199.506Z" fill="#221EC4"/>
<path fill-rule="evenodd" clip-rule="evenodd" d="M314.801 161.324C314.77 160.848 314.74 160.371 314.71 159.896C314.741 160.372 314.771 160.848 314.801 161.324Z" fill="#221EC4"/>
<path fill-rule="evenodd" clip-rule="evenodd" d="M307.226 199.97C307.569 199.968 307.913 199.966 308.252 199.965C307.907 199.967 307.566 199.969 307.226 199.97Z" fill="#221EC4"/>
<path fill-rule="evenodd" clip-rule="evenodd" d="M260.427 199.528C260.767 199.52 261.107 199.511 261.444 199.503C261.103 199.512 260.765 199.52 260.427 199.528Z" fill="#221EC4"/>
<path fill-rule="evenodd" clip-rule="evenodd" d="M183.971 199.269C184.346 199.266 184.72 199.264 185.091 199.262C184.716 199.264 184.344 199.266 183.971 199.269Z" fill="#221EC4"/>
<path fill-rule="evenodd" clip-rule="evenodd" d="M97.6306 199.267C97.9864 199.269 98.3426 199.272 98.6946 199.275C98.3375 199.273 97.984 199.27 97.6306 199.267Z" fill="#221EC4"/>
<path fill-rule="evenodd" clip-rule="evenodd" d="M76.6268 199.325C76.9898 199.304 77.3521 199.284 77.7117 199.264C77.3477 199.285 76.9874 199.304 76.6268 199.325Z" fill="#221EC4"/>
<path fill-rule="evenodd" clip-rule="evenodd" d="M177.185 61.0272C176.645 60.9807 176.105 60.9342 175.565 60.8874C176.106 60.9253 176.678 60.6054 177.185 61.0272Z" fill="#221EC4"/>
<path fill-rule="evenodd" clip-rule="evenodd" d="M314.852 196.423C314.319 196.369 313.787 196.315 313.254 196.261C313.787 196.315 314.319 196.369 314.852 196.423Z" fill="#221EC4"/>
<path fill-rule="evenodd" clip-rule="evenodd" d="M277.708 64.3062C277.673 64.7727 277.636 65.2396 277.601 65.7048C277.637 65.2376 277.673 64.7717 277.708 64.3062Z" fill="#221EC4"/>
<path fill-rule="evenodd" clip-rule="evenodd" d="M310.842 83.7582C310.878 83.316 310.914 82.8737 310.951 82.4331C310.914 82.8761 310.878 83.317 310.842 83.7582Z" fill="#221EC4"/>
<path fill-rule="evenodd" clip-rule="evenodd" d="M277.496 71.5435C277.458 72.0093 277.419 72.4748 277.381 72.939C277.42 72.4728 277.458 72.008 277.496 71.5435Z" fill="#221EC4"/>
<path fill-rule="evenodd" clip-rule="evenodd" d="M310.616 101.613C310.613 101.163 310.609 100.713 310.606 100.264C310.897 100.713 310.885 101.162 310.616 101.613Z" fill="#221EC4"/>
<path fill-rule="evenodd" clip-rule="evenodd" d="M260.548 166.258C260.544 166.709 260.541 167.161 260.536 167.61C260.238 167.155 260.297 166.705 260.548 166.258Z" fill="#221EC4"/>
<path fill-rule="evenodd" clip-rule="evenodd" d="M294.49 114.058C294.438 113.601 294.385 113.144 294.333 112.689C294.386 113.146 294.438 113.602 294.49 114.058Z" fill="#221EC4"/>
<path fill-rule="evenodd" clip-rule="evenodd" d="M13.4417 72.1436C13.0886 72.6101 12.6077 72.2905 12.188 72.3473C12.6063 72.2792 13.024 72.2116 13.4417 72.1436Z" fill="#221EC4"/>
<path fill-rule="evenodd" clip-rule="evenodd" d="M188.029 177.672C187.583 177.673 187.137 177.673 186.691 177.674C187.137 177.673 187.583 177.673 188.029 177.672Z" fill="#221EC4"/>
<path fill-rule="evenodd" clip-rule="evenodd" d="M259.292 74.0605C259.334 74.4399 259.376 74.8193 259.417 75.1973C259.376 74.8173 259.334 74.4389 259.292 74.0605Z" fill="#221EC4"/>
<path fill-rule="evenodd" clip-rule="evenodd" d="M38.8515 36.3803C38.4031 36.3892 37.9547 36.3981 37.5062 36.4069C37.9499 36.1458 38.3969 36.0703 38.8515 36.3803Z" fill="#221EC4"/>
<path fill-rule="evenodd" clip-rule="evenodd" d="M277.485 78.106C277.456 78.5038 277.427 78.9013 277.398 79.2975C277.427 78.8996 277.456 78.5028 277.485 78.106Z" fill="#221EC4"/>
<path fill-rule="evenodd" clip-rule="evenodd" d="M265.188 29.2695C265.222 28.9068 265.257 28.5442 265.291 28.1836C265.257 28.5469 265.222 28.9082 265.188 29.2695Z" fill="#221EC4"/>
<path fill-rule="evenodd" clip-rule="evenodd" d="M261.664 28.1333C261.629 28.5267 261.593 28.9205 261.559 29.3125C261.594 28.9184 261.629 28.5257 261.664 28.1333Z" fill="#221EC4"/>
<path fill-rule="evenodd" clip-rule="evenodd" d="M66.8758 1.85205C66.4195 1.90742 65.9632 1.96279 65.5072 2.01782C65.9635 1.96245 66.4195 1.90742 66.8758 1.85205Z" fill="#221EC4"/>
<path fill-rule="evenodd" clip-rule="evenodd" d="M33.9185 36.6934C33.4502 36.7412 32.982 36.7891 32.514 36.8369C32.9823 36.7891 33.4506 36.7412 33.9185 36.6934Z" fill="#221EC4"/>
<path fill-rule="evenodd" clip-rule="evenodd" d="M290.517 37.8465C290.546 37.4804 290.574 37.114 290.602 36.75C290.574 37.1164 290.545 37.4814 290.517 37.8465Z" fill="#221EC4"/>
<path fill-rule="evenodd" clip-rule="evenodd" d="M18.5493 98.2612C18.819 98.2653 19.0883 98.2691 19.3539 98.2732C19.0832 98.2691 18.8163 98.2653 18.5493 98.2612Z" fill="#221EC4"/>
<path fill-rule="evenodd" clip-rule="evenodd" d="M261.677 143.442C261.65 143.847 261.623 144.252 261.596 144.657C261.624 144.251 261.651 143.847 261.677 143.442Z" fill="#221EC4"/>
<path fill-rule="evenodd" clip-rule="evenodd" d="M289.187 64.5549C289.176 64.1643 289.166 63.7739 289.154 63.3843C289.166 63.7753 289.177 64.1649 289.187 64.5549Z" fill="#221EC4"/>
<path fill-rule="evenodd" clip-rule="evenodd" d="M78.3625 0.927629C77.9465 0.927629 77.5305 0.927971 77.1152 0.927971C77.5312 0.642233 77.9468 0.649411 78.3625 0.927629Z" fill="#221EC4"/>
<path fill-rule="evenodd" clip-rule="evenodd" d="M189.416 92.879C188.96 92.8907 188.505 92.9023 188.05 92.9139C188.497 92.5974 188.953 92.5895 189.416 92.879Z" fill="#221EC4"/>
<path fill-rule="evenodd" clip-rule="evenodd" d="M229.232 198.605C229.502 198.61 229.772 198.616 230.039 198.623C229.767 198.618 229.499 198.611 229.232 198.605Z" fill="#221EC4"/>
<path fill-rule="evenodd" clip-rule="evenodd" d="M239.403 199.08C239.672 199.07 239.942 199.06 240.208 199.051C239.937 199.061 239.67 199.07 239.403 199.08Z" fill="#221EC4"/>
<path fill-rule="evenodd" clip-rule="evenodd" d="M80.2292 199.267C80.5105 199.274 80.7918 199.281 81.0694 199.288C80.7871 199.281 80.5082 199.274 80.2292 199.267Z" fill="#221EC4"/>
<path fill-rule="evenodd" clip-rule="evenodd" d="M314.567 156.804C314.527 156.418 314.487 156.031 314.447 155.647C314.487 156.034 314.527 156.419 314.567 156.804Z" fill="#221EC4"/>
<path fill-rule="evenodd" clip-rule="evenodd" d="M277.83 91.6924C277.862 92.0605 277.894 92.4286 277.925 92.7943C277.893 92.4259 277.861 92.0591 277.83 91.6924Z" fill="#221EC4"/>
<path fill-rule="evenodd" clip-rule="evenodd" d="M291.967 85.3727C291.924 84.9824 291.88 84.5921 291.836 84.2031C291.88 84.5938 291.924 84.9831 291.967 85.3727Z" fill="#221EC4"/>
<path fill-rule="evenodd" clip-rule="evenodd" d="M82.5115 199.5C82.7952 199.496 83.0792 199.491 83.3598 199.487C83.0748 199.492 82.7931 199.496 82.5115 199.5Z" fill="#221EC4"/>
<path fill-rule="evenodd" clip-rule="evenodd" d="M185.825 199.531C186.101 199.518 186.377 199.506 186.65 199.494C186.373 199.506 186.099 199.519 185.825 199.531Z" fill="#221EC4"/>
<path fill-rule="evenodd" clip-rule="evenodd" d="M289.66 56.8708C289.647 56.4753 289.635 56.0798 289.623 55.6851C289.635 56.0809 289.648 56.4756 289.66 56.8708Z" fill="#221EC4"/>
<path fill-rule="evenodd" clip-rule="evenodd" d="M55.6108 199.759C55.8877 199.757 56.1642 199.754 56.4373 199.752C56.1591 199.755 55.8853 199.757 55.6108 199.759Z" fill="#221EC4"/>
<path fill-rule="evenodd" clip-rule="evenodd" d="M289.544 199.755C289.829 199.758 290.113 199.761 290.394 199.764C290.108 199.761 289.826 199.758 289.544 199.755Z" fill="#221EC4"/>
<path fill-rule="evenodd" clip-rule="evenodd" d="M295.688 199.721C295.963 199.74 296.237 199.76 296.509 199.779C296.233 199.759 295.961 199.74 295.688 199.721Z" fill="#221EC4"/>
<path fill-rule="evenodd" clip-rule="evenodd" d="M298.17 199.716C298.449 199.724 298.729 199.733 299.005 199.739C298.725 199.73 298.447 199.723 298.17 199.716Z" fill="#221EC4"/>
<path fill-rule="evenodd" clip-rule="evenodd" d="M310.91 86.9401C310.892 86.5512 310.874 86.1619 310.856 85.7739C310.874 86.1636 310.892 86.5518 310.91 86.9401Z" fill="#221EC4"/>
<path fill-rule="evenodd" clip-rule="evenodd" d="M123.15 194.617C124.001 194.573 124.852 194.529 125.703 194.484C124.852 194.529 124.001 194.573 123.15 194.617Z" fill="#221EC4"/>
<path fill-rule="evenodd" clip-rule="evenodd" d="M71.8156 53.1826C72.5542 53.2469 73.2928 53.3111 74.0307 53.3747C73.2921 53.3108 72.5538 53.2465 71.8156 53.1826Z" fill="#221EC4"/>
<path fill-rule="evenodd" clip-rule="evenodd" d="M280.362 85.2949C280.385 85.9997 280.409 86.7045 280.431 87.4072C280.408 86.7021 280.385 85.9987 280.362 85.2949Z" fill="#221EC4"/>
<path fill-rule="evenodd" clip-rule="evenodd" d="M295.605 195.822C296.377 195.869 297.147 195.916 297.918 195.962C297.143 195.998 296.355 196.219 295.605 195.822Z" fill="#221EC4"/>
<path fill-rule="evenodd" clip-rule="evenodd" d="M291.042 112.456C291.048 111.784 291.054 111.112 291.06 110.441C291.054 111.114 291.048 111.785 291.042 112.456Z" fill="#221EC4"/>
<path fill-rule="evenodd" clip-rule="evenodd" d="M289.069 133.58C289.745 133.588 290.422 133.598 291.098 133.607C290.422 133.597 289.745 133.588 289.069 133.58Z" fill="#221EC4"/>
<path fill-rule="evenodd" clip-rule="evenodd" d="M118.757 121.76C118.74 122.272 118.723 122.784 118.707 123.294C118.724 122.781 118.741 122.271 118.757 121.76Z" fill="#221EC4"/>
<path fill-rule="evenodd" clip-rule="evenodd" d="M300.329 100.064C300.301 100.574 300.274 101.084 300.247 101.591C300.275 101.081 300.302 100.573 300.329 100.064Z" fill="#221EC4"/>
<path fill-rule="evenodd" clip-rule="evenodd" d="M285.895 193.554C286.387 193.52 286.879 193.487 287.371 193.455C287 193.751 286.628 193.776 285.895 193.554Z" fill="#221EC4"/>
<path fill-rule="evenodd" clip-rule="evenodd" d="M282.601 126.904C282.635 127.453 282.669 128.003 282.702 128.551C282.668 128.001 282.635 127.452 282.601 126.904Z" fill="#221EC4"/>
<path fill-rule="evenodd" clip-rule="evenodd" d="M98.5725 40.1543C98.5776 39.6235 98.5828 39.0927 98.5882 38.564C98.5831 39.0955 98.578 39.6249 98.5725 40.1543Z" fill="#221EC4"/>
<path fill-rule="evenodd" clip-rule="evenodd" d="M283.197 133.69L285.031 133.65C284.426 133.943 283.815 133.953 283.197 133.69Z" fill="#221EC4"/>
<path fill-rule="evenodd" clip-rule="evenodd" d="M300.121 137.607C299.688 137.611 299.256 137.615 298.826 137.619C299.26 137.616 299.691 137.612 300.121 137.607Z" fill="#221EC4"/>
<path fill-rule="evenodd" clip-rule="evenodd" d="M141.708 193.765C142.307 193.773 142.905 193.781 143.504 193.788C142.901 194.091 142.301 194.134 141.708 193.765Z" fill="#221EC4"/>
<path fill-rule="evenodd" clip-rule="evenodd" d="M28.9043 195.529C29.512 195.475 30.1201 195.421 30.7278 195.366C30.1201 195.421 29.512 195.475 28.9043 195.529Z" fill="#221EC4"/>
<path fill-rule="evenodd" clip-rule="evenodd" d="M280.573 89.8218C280.603 90.3734 280.632 90.9251 280.662 91.475C280.632 90.9227 280.603 90.3724 280.573 89.8218Z" fill="#221EC4"/>
<path fill-rule="evenodd" clip-rule="evenodd" d="M86.5889 54.4777C87.1012 54.2251 87.6177 54.1827 88.1393 54.4503C87.6221 54.4596 87.1057 54.4688 86.5889 54.4777Z" fill="#221EC4"/>
<path fill-rule="evenodd" clip-rule="evenodd" d="M263.814 96.1919C263.856 96.6571 263.898 97.1226 263.941 97.5864C263.898 97.1206 263.856 96.6561 263.814 96.1919Z" fill="#221EC4"/>
<path fill-rule="evenodd" clip-rule="evenodd" d="M307.094 85.334C306.831 84.8787 306.84 84.4258 307.107 83.9771C307.103 84.4299 307.099 84.8821 307.094 85.334Z" fill="#221EC4"/>
<path fill-rule="evenodd" clip-rule="evenodd" d="M280.657 69.5288C280.657 69.9892 280.657 70.4499 280.657 70.909C280.657 70.4476 280.657 69.9882 280.657 69.5288Z" fill="#221EC4"/>
<path fill-rule="evenodd" clip-rule="evenodd" d="M299.023 133.359C299.55 133.197 300.078 132.969 300.603 133.365C300.076 133.363 299.55 133.361 299.023 133.359Z" fill="#221EC4"/>
<path fill-rule="evenodd" clip-rule="evenodd" d="M128.601 194.409C129.132 194.36 129.663 194.31 130.193 194.261C129.663 194.31 129.132 194.36 128.601 194.409Z" fill="#221EC4"/>
<path fill-rule="evenodd" clip-rule="evenodd" d="M55.8516 194.41C56.3376 194.197 56.8226 194.084 57.3015 194.427C56.8178 194.421 56.3349 194.416 55.8516 194.41Z" fill="#221EC4"/>
<path fill-rule="evenodd" clip-rule="evenodd" d="M155.268 193.725C155.788 193.498 156.306 193.373 156.819 193.741C156.302 193.735 155.785 193.73 155.268 193.725Z" fill="#221EC4"/>
<path fill-rule="evenodd" clip-rule="evenodd" d="M39.5735 126.484C39.6124 126.954 39.6518 127.423 39.6904 127.891C39.6511 127.421 39.6121 126.953 39.5735 126.484Z" fill="#221EC4"/>
<path fill-rule="evenodd" clip-rule="evenodd" d="M160.236 99.4541C160.747 99.2681 161.257 99.171 161.759 99.4817C161.251 99.4722 160.744 99.4633 160.236 99.4541Z" fill="#221EC4"/>
<path fill-rule="evenodd" clip-rule="evenodd" d="M280.565 113.423C280.593 113.882 280.622 114.34 280.65 114.798C280.621 114.339 280.593 113.881 280.565 113.423Z" fill="#221EC4"/>
<path fill-rule="evenodd" clip-rule="evenodd" d="M39.243 72.0342C39.2006 72.4037 39.1583 72.7735 39.1162 73.1409C39.1586 72.7708 39.2006 72.4026 39.243 72.0342Z" fill="#221EC4"/>
<path fill-rule="evenodd" clip-rule="evenodd" d="M9.60525 179.185C9.57893 179.544 9.55295 179.904 9.52698 180.262C9.55398 179.901 9.57961 179.543 9.60525 179.185Z" fill="#221EC4"/>
<path fill-rule="evenodd" clip-rule="evenodd" d="M291.269 115.85C291.241 115.478 291.212 115.106 291.183 114.736C291.212 115.109 291.241 115.48 291.269 115.85Z" fill="#221EC4"/>
<path fill-rule="evenodd" clip-rule="evenodd" d="M254.031 193.03C254.486 193.033 254.942 193.037 255.397 193.04C254.942 193.037 254.486 193.033 254.031 193.03Z" fill="#221EC4"/>
<path fill-rule="evenodd" clip-rule="evenodd" d="M118.584 124.924C118.67 125.195 118.755 125.466 118.84 125.737C118.271 125.874 118.186 125.603 118.584 124.924Z" fill="#221EC4"/>
<path fill-rule="evenodd" clip-rule="evenodd" d="M152.748 98.8417C153.21 98.8397 153.673 98.838 154.136 98.8359C153.674 99.0554 153.211 99.2061 152.748 98.8417Z" fill="#221EC4"/>
<path fill-rule="evenodd" clip-rule="evenodd" d="M39.8329 128.706C39.8486 129.116 39.8643 129.527 39.8794 129.935C39.8633 129.525 39.8479 129.116 39.8329 128.706Z" fill="#221EC4"/>
<path fill-rule="evenodd" clip-rule="evenodd" d="M44.7289 194.859C45.1756 194.859 45.622 194.858 46.0687 194.858C45.6217 194.858 45.1756 194.859 44.7289 194.859Z" fill="#221EC4"/>
<path fill-rule="evenodd" clip-rule="evenodd" d="M264.937 133.031C264.954 133.408 264.97 133.786 264.987 134.162C264.971 133.783 264.954 133.407 264.937 133.031Z" fill="#221EC4"/>
<path fill-rule="evenodd" clip-rule="evenodd" d="M35.2454 195.319C35.6846 195.028 36.1248 195.053 36.5657 195.314C36.1255 195.316 35.6853 195.318 35.2454 195.319Z" fill="#221EC4"/>
<path fill-rule="evenodd" clip-rule="evenodd" d="M46.8109 66.7578C46.8345 67.1434 46.8584 67.5293 46.883 67.9124C46.8595 67.5262 46.8352 67.142 46.8109 66.7578Z" fill="#221EC4"/>
<path fill-rule="evenodd" clip-rule="evenodd" d="M32.9602 195.359C33.4168 195.361 33.8735 195.363 34.3298 195.365C33.8718 195.676 33.4155 195.691 32.9602 195.359Z" fill="#221EC4"/>
<path fill-rule="evenodd" clip-rule="evenodd" d="M285.817 60.7055C285.821 60.3138 285.825 59.9224 285.828 59.5317C285.824 59.9238 285.821 60.3145 285.817 60.7055Z" fill="#221EC4"/>
<path fill-rule="evenodd" clip-rule="evenodd" d="M76.1765 53.856C76.6133 53.913 77.0501 53.9701 77.4866 54.0269C77.0498 53.9698 76.613 53.913 76.1765 53.856Z" fill="#221EC4"/>
<path fill-rule="evenodd" clip-rule="evenodd" d="M37.6302 87.6592C37.6361 88.0249 37.6419 88.391 37.6487 88.755C37.6429 88.3886 37.6367 88.0239 37.6302 87.6592Z" fill="#221EC4"/>
<path fill-rule="evenodd" clip-rule="evenodd" d="M288.758 87.6067C288.734 87.2341 288.71 86.8616 288.686 86.4907C288.71 86.864 288.734 87.2355 288.758 87.6067Z" fill="#221EC4"/>
<path fill-rule="evenodd" clip-rule="evenodd" d="M186.878 194.922C187.417 194.971 187.956 195.02 188.495 195.069C187.956 195.02 187.417 194.971 186.878 194.922Z" fill="#221EC4"/>
<path fill-rule="evenodd" clip-rule="evenodd" d="M185.077 180.969C184.785 180.974 184.495 180.978 184.206 180.984C184.498 180.98 184.788 180.975 185.077 180.969Z" fill="#221EC4"/>
<path fill-rule="evenodd" clip-rule="evenodd" d="M185.102 194.709C185.554 194.753 186.006 194.798 186.458 194.843C186.006 194.798 185.554 194.753 185.102 194.709Z" fill="#221EC4"/>
<path fill-rule="evenodd" clip-rule="evenodd" d="M103.747 164.266C104.335 167.589 99.1699 170.84 98.7604 166.115C98.6107 164.387 99.766 163.173 101.06 162.116C102.896 160.618 103.922 162.053 103.747 164.266Z" fill="#181A22"/>
<path fill-rule="evenodd" clip-rule="evenodd" d="M46.8131 123.715C48.0299 124.213 57.3265 127.243 52.4975 128.766C51.2192 129.17 49.287 129.23 48.1789 128.519C46.8459 127.664 45.5013 125.141 46.8131 123.715Z" fill="#181A22"/>
<path fill-rule="evenodd" clip-rule="evenodd" d="M49.1008 78.7061C52.2563 78.3397 55.1636 83.5223 51.2733 83.3542C48.4415 83.2315 44.6332 78.7061 49.1008 78.7061Z" fill="#181A22"/>
<path fill-rule="evenodd" clip-rule="evenodd" d="M60.3888 91.4136C63.0237 93.7125 58.1397 98.8576 56.2007 96.8663C55.2105 95.8491 56.1238 93.6578 56.941 92.8067C57.7798 91.9334 59.2721 91.7694 60.3888 91.4136Z" fill="#181A22"/>
<path fill-rule="evenodd" clip-rule="evenodd" d="M68.233 151.012C66.6775 151.259 59.8367 153.495 61.2634 149.435C61.8075 147.886 63.3251 148.346 64.7125 148.417C66.9485 148.531 68.233 148.424 68.233 151.012Z" fill="#181A22"/>
<path fill-rule="evenodd" clip-rule="evenodd" d="M63.727 161.471C66.0557 162.717 62.6517 169.688 60.7216 168.205C58.0436 166.147 61.7063 162.097 63.727 161.471Z" fill="#181A22"/>
<path fill-rule="evenodd" clip-rule="evenodd" d="M73.883 155.866C75.0153 155.403 80.3532 160.538 78.3212 161.966C77.2797 162.698 75.3065 161.443 74.6787 160.686C73.5015 159.267 73.3949 157.517 73.883 155.866Z" fill="#181A22"/>
<path fill-rule="evenodd" clip-rule="evenodd" d="M43.0864 113.898C44.2437 114.088 46.2419 114.149 46.3167 115.775C46.3823 117.204 44.5903 117.667 43.3287 117.78C42.0196 117.896 40.2867 117.526 40.2618 115.881C40.2355 114.105 43.0454 114.212 43.0864 113.898Z" fill="#181A22"/>
<path fill-rule="evenodd" clip-rule="evenodd" d="M71.6257 184.668C72.8582 185.416 78.6073 188.11 76.1429 190.056C75.2207 190.785 72.4252 189.28 71.7959 188.516C71.045 187.603 70.3112 185.465 71.6257 184.668Z" fill="#181A22"/>
<path fill-rule="evenodd" clip-rule="evenodd" d="M87.6074 165.119C87.4293 162.146 92.4462 160.962 91.4061 165.183C91.1129 166.373 90.8292 168.179 89.3577 168.248C87.6187 168.33 87.5558 166.273 87.6074 165.119Z" fill="#181A22"/>
<path fill-rule="evenodd" clip-rule="evenodd" d="M72.1097 113.409C72.1446 115.665 67.8222 117.654 67.7887 114.078C67.759 110.883 72.271 109.948 72.1097 113.409Z" fill="#181A22"/>
<path fill-rule="evenodd" clip-rule="evenodd" d="M69.2555 101.66C70.3205 102.003 71.7359 102.18 71.8296 103.533C71.929 104.965 70.5988 105.603 69.4018 105.522C68.4201 105.456 66.9675 104.73 66.7891 103.665C66.5276 102.101 68.0534 101.999 69.2555 101.66Z" fill="#181A22"/>
<path fill-rule="evenodd" clip-rule="evenodd" d="M49.451 142.961C49.4329 141.099 53.1633 138.862 53.8503 141.022C54.07 141.713 52.3118 144.812 51.727 145.044C50.1797 145.658 49.9637 144.227 49.451 142.961Z" fill="#181A22"/>
<path fill-rule="evenodd" clip-rule="evenodd" d="M80.0195 173.942C78.7589 175.07 74.9776 178.24 75.2603 173.985C75.4407 171.267 80.352 171.409 80.0195 173.942Z" fill="#181A22"/>
<path fill-rule="evenodd" clip-rule="evenodd" d="M141.626 186.102C142.039 184.313 147.955 187.417 145.981 189.676C145.318 190.435 143.586 189.749 142.92 189.299C141.601 188.409 141.573 187.588 141.626 186.102Z" fill="#181A22"/>
<path fill-rule="evenodd" clip-rule="evenodd" d="M108.665 147.808C108.896 147.011 109.152 145.601 109.913 145.092C111.289 144.171 112.488 145.56 112.488 147.024C112.489 149.755 109.38 150.616 108.665 147.808Z" fill="#181A22"/>
<path fill-rule="evenodd" clip-rule="evenodd" d="M94.0027 179.738C95.5388 180.09 98.9588 183.824 96.9753 185.347C95.0664 186.813 92.5275 180.853 94.0027 179.738Z" fill="#181A22"/>
<path fill-rule="evenodd" clip-rule="evenodd" d="M95.4652 151.476C97.4401 151.633 100.155 154.831 97.0849 155.34C94.6838 155.737 91.8913 152.259 95.4652 151.476Z" fill="#181A22"/>
<path fill-rule="evenodd" clip-rule="evenodd" d="M113.344 166.193C113.84 164.524 118.738 166.312 118.462 168.149C118.316 169.125 116.313 169.355 115.261 169.097C113.711 168.716 113.309 167.7 113.344 166.193Z" fill="#181A22"/>
<path fill-rule="evenodd" clip-rule="evenodd" d="M55.6091 73.0164C55.6446 70.8597 59.7889 69.9806 60.0924 72.1541C60.3669 74.1177 55.5571 76.2071 55.6091 73.0164Z" fill="#181A22"/>
<path fill-rule="evenodd" clip-rule="evenodd" d="M111.975 188.416C112.274 187.331 112.403 186.026 113.757 185.883C115.308 185.719 115.262 186.909 115.08 188.141C114.584 191.494 112.689 191.662 111.975 188.416Z" fill="#181A22"/>
<path fill-rule="evenodd" clip-rule="evenodd" d="M46.5293 98.6771C44.3688 99.1645 40.4119 95.0034 42.8304 94.1107C44.5346 93.4807 46.5293 97.4216 46.5293 98.6771Z" fill="#181A22"/>
<path fill-rule="evenodd" clip-rule="evenodd" d="M74.0857 130.999C72.9861 131.516 72.7329 131.831 71.8883 130.981C71.1527 130.241 71.1852 128.179 71.8165 127.409C74.2344 124.462 74.1776 129.806 74.0857 130.999Z" fill="#181A22"/>
<path fill-rule="evenodd" clip-rule="evenodd" d="M83.0565 125.02C84.2032 125.166 87.6106 128.398 85.8363 129.682C83.6622 131.256 82.432 126.326 83.0565 125.02Z" fill="#181A22"/>
<path fill-rule="evenodd" clip-rule="evenodd" d="M107.867 125.871C107.033 129.081 104.953 126.921 105.071 124.492C105.26 120.602 107.416 123.99 107.867 125.871Z" fill="#181A22"/>
<path fill-rule="evenodd" clip-rule="evenodd" d="M120.517 177.423C121.928 178.007 123.842 183.398 121.828 183.687C119.565 184.011 120.318 178.546 120.517 177.423Z" fill="#181A22"/>
<path fill-rule="evenodd" clip-rule="evenodd" d="M102.906 174.395C104.52 173.85 105.111 177.254 104.173 177.886C102.11 179.278 102.545 175.198 102.906 174.395Z" fill="#181A22"/>
<path fill-rule="evenodd" clip-rule="evenodd" d="M87.6073 165.12C87.5868 165.571 87.5666 166.023 87.5454 166.472C87.5656 166.02 87.5861 165.57 87.6073 165.12Z" fill="#221EC4"/>
<path fill-rule="evenodd" clip-rule="evenodd" d="M141.626 186.102C141.609 186.566 141.592 187.029 141.575 187.49C141.591 187.026 141.608 186.564 141.626 186.102Z" fill="#221EC4"/>
<path fill-rule="evenodd" clip-rule="evenodd" d="M113.344 166.192C113.335 166.585 113.326 166.979 113.316 167.369C113.324 166.975 113.335 166.584 113.344 166.192Z" fill="#221EC4"/>
<path fill-rule="evenodd" clip-rule="evenodd" d="M291.83 159.428C295.175 159.32 298.907 158.061 302.195 158.462C303.1 158.572 305.183 158.8 303.733 160.142C303.04 160.784 299.72 160.452 298.715 160.665C292.572 161.966 285.6 162.805 279.301 162.696C276.353 162.646 273.383 162.409 270.436 162.254C267.491 162.098 267.202 160.901 270.515 160.52C273.957 160.125 277.488 160.272 280.947 160.268C284.583 160.263 288.201 159.67 291.83 159.428Z" fill="#181A22"/>
<path fill-rule="evenodd" clip-rule="evenodd" d="M299.174 151.368C298.852 152.284 298.569 154.388 297.336 154.526C295.607 154.72 295.321 151.752 295.385 150.667C295.462 149.357 295.934 147.182 297.561 147.635C298.937 148.018 299.074 150.319 299.174 151.368Z" fill="#181A22"/>
<path fill-rule="evenodd" clip-rule="evenodd" d="M288.712 150.696C288.965 149.715 289.089 147.501 290.477 147.426C292.029 147.342 292.472 149.648 292.462 150.753C292.452 151.802 292.064 153.784 290.828 154.026C289.153 154.355 289.003 151.818 288.712 150.696Z" fill="#181A22"/>
<path fill-rule="evenodd" clip-rule="evenodd" d="M271.289 152.457C270.786 153.637 270.453 155.262 268.898 154.458C267.694 153.836 267.527 151.327 267.754 150.178C267.989 148.988 268.487 147.622 269.854 148.158C271.431 148.775 271.272 151.158 271.289 152.457Z" fill="#181A22"/>
<path fill-rule="evenodd" clip-rule="evenodd" d="M284.483 151.367C283 155.863 280.295 152.821 281.322 149.465C282.396 145.957 284.347 149.364 284.483 151.367Z" fill="#181A22"/>
<path fill-rule="evenodd" clip-rule="evenodd" d="M277.257 151.59C276.845 152.382 276.407 154.089 275.297 153.909C273.936 153.689 273.892 151.069 274.042 150.094C274.172 149.24 274.555 147.817 275.695 147.836C277.341 147.862 277.23 150.565 277.257 151.59Z" fill="#181A22"/>
<path fill-rule="evenodd" clip-rule="evenodd" d="M306.84 152.453C305.736 154.93 304.218 152.796 304.704 151.037C305.424 148.428 306.778 150.74 306.84 152.453Z" fill="#181A22"/>
<path fill-rule="evenodd" clip-rule="evenodd" d="M279.803 160.271C278.597 160.266 277.391 160.262 276.185 160.257C277.392 160.03 278.598 159.941 279.803 160.271Z" fill="#221EC4"/>
<path fill-rule="evenodd" clip-rule="evenodd" d="M303.763 158.452C302.717 158.459 301.672 158.465 300.626 158.472C301.67 158.159 302.716 158.152 303.763 158.452Z" fill="#221EC4"/>
<path fill-rule="evenodd" clip-rule="evenodd" d="M291.83 159.428C290.993 159.484 290.156 159.54 289.319 159.596C290.156 159.54 290.993 159.484 291.83 159.428Z" fill="#221EC4"/>
<path fill-rule="evenodd" clip-rule="evenodd" d="M271.289 152.457C271.281 151.856 271.273 151.255 271.266 150.656C271.575 151.253 271.554 151.853 271.289 152.457Z" fill="#221EC4"/>
<path fill-rule="evenodd" clip-rule="evenodd" d="M277.849 162.684C278.335 162.688 278.82 162.692 279.301 162.697C278.815 162.692 278.332 162.688 277.849 162.684Z" fill="#221EC4"/>
<path fill-rule="evenodd" clip-rule="evenodd" d="M273.729 160.323C273.046 160.379 272.362 160.435 271.679 160.491C272.363 160.435 273.046 160.379 273.729 160.323Z" fill="#221EC4"/>
<path fill-rule="evenodd" clip-rule="evenodd" d="M282.972 160.264C282.297 160.265 281.622 160.266 280.947 160.268C281.622 159.983 282.296 159.975 282.972 160.264Z" fill="#221EC4"/>
<path fill-rule="evenodd" clip-rule="evenodd" d="M277.257 151.59C277.24 150.964 277.224 150.338 277.208 149.712C277.225 150.339 277.241 150.965 277.257 151.59Z" fill="#221EC4"/>
<path fill-rule="evenodd" clip-rule="evenodd" d="M267.754 150.178C267.75 150.789 267.746 151.399 267.741 152.008C267.745 151.396 267.749 150.787 267.754 150.178Z" fill="#221EC4"/>
<path fill-rule="evenodd" clip-rule="evenodd" d="M295.665 159.201C295.068 159.255 294.472 159.308 293.875 159.362C294.472 159.308 295.069 159.255 295.665 159.201Z" fill="#221EC4"/>
<path fill-rule="evenodd" clip-rule="evenodd" d="M306.84 152.453C306.821 151.919 306.802 151.386 306.782 150.853C306.802 151.387 306.821 151.92 306.84 152.453Z" fill="#221EC4"/>
<path fill-rule="evenodd" clip-rule="evenodd" d="M281.455 162.702C281.87 162.694 282.286 162.686 282.697 162.679C282.28 162.687 281.868 162.694 281.455 162.702Z" fill="#221EC4"/>
<path fill-rule="evenodd" clip-rule="evenodd" d="M299.174 151.368C299.138 150.984 299.101 150.6 299.065 150.218C299.102 150.602 299.138 150.985 299.174 151.368Z" fill="#221EC4"/>
<path fill-rule="evenodd" clip-rule="evenodd" d="M284.483 151.368C284.456 150.974 284.429 150.58 284.403 150.187C284.43 150.581 284.456 150.975 284.483 151.368Z" fill="#221EC4"/>
<path fill-rule="evenodd" clip-rule="evenodd" d="M70.3008 35.6593C68.6674 35.2307 68.3611 32.9352 68.6236 31.5253C68.9213 30.8458 69.219 30.1666 69.5167 29.4871C69.4002 29.2359 69.284 28.9847 69.1678 28.7335C69.3171 27.3341 68.9353 26.7261 70.5435 27.2928C73.5308 28.3462 74.0083 35.5513 70.3008 35.6593Z" fill="#181A22"/>
<path fill-rule="evenodd" clip-rule="evenodd" d="M94.4799 31.2209C95.8256 31.115 98.2698 32.6821 96.9303 34.1983C96.1004 35.1376 93.3657 34.6932 92.25 34.8894C90.7704 35.1495 89.2272 35.5053 90.0277 33.2891C90.6563 31.5487 92.9012 31.1755 94.4799 31.2209Z" fill="#181A22"/>
<path fill-rule="evenodd" clip-rule="evenodd" d="M93.0641 41.6452C91.6973 40.5491 92.3074 35.5565 94.3876 36.4547C96.5276 37.3793 94.2047 40.9247 93.0641 41.6452Z" fill="#181A22"/>
<path fill-rule="evenodd" clip-rule="evenodd" d="M68.6237 31.5249C68.6237 32.0502 68.6233 32.5759 68.6223 33.0989C68.3372 32.5725 68.3461 32.0485 68.6237 31.5249Z" fill="#221EC4"/>
<path fill-rule="evenodd" clip-rule="evenodd" d="M70.3008 35.659C70.5793 35.6511 70.8583 35.6429 71.1334 35.6357C70.8535 35.6446 70.5773 35.6518 70.3008 35.659Z" fill="#221EC4"/>
<path fill-rule="evenodd" clip-rule="evenodd" d="M239.074 179.441C238.946 181.712 236.507 180.033 236.68 178.514C236.995 175.757 238.553 178.482 239.074 179.441Z" fill="#181A22"/>
</svg>
