<svg width="350" height="263" viewBox="0 0 350 263" fill="none" xmlns="http://www.w3.org/2000/svg">
<path fill-rule="evenodd" clip-rule="evenodd" d="M119.629 121.535C120.702 132.371 121.775 143.207 122.848 154.042C128.691 150.708 134.534 147.374 140.377 144.04V168.726V175.214C140.377 175.788 140.036 177.76 140.377 178.258C140.666 178.679 142.807 178.691 143.313 178.762C146.617 179.225 149.928 179.636 153.245 180.003C161.985 180.968 171.339 182.351 180.112 181.241C187.739 180.277 195.132 177.565 202.1 174.408C204.546 173.3 206.958 172.114 209.325 170.847C209.827 170.578 211.649 169.944 211.922 169.397C212.145 168.95 211.622 167.38 211.552 166.91C211.258 164.931 210.963 162.951 210.669 160.971L206.557 133.324L214.325 141.081C214.933 141.688 216.089 143.414 216.931 143.683C217.548 143.881 219.077 143.269 219.688 143.152C224.086 142.304 228.484 141.457 232.883 140.609C233.908 140.412 236.217 140.419 237.081 139.8C237.546 139.466 237.568 138.788 237.732 138.145C238.805 133.942 239.878 129.739 240.951 125.537C241.144 124.78 242.222 122.393 241.948 121.631C241.849 121.357 241.374 121.17 241.083 120.992C234.444 116.938 227.805 112.883 221.167 108.828C217.53 106.607 213.893 104.386 210.257 102.165C208.734 101.234 206.862 99.5576 205.136 99.0371C204.065 98.7138 202.506 98.956 201.397 98.9242C199.144 98.8599 196.891 98.7957 194.637 98.7314C194.285 98.7213 193.049 98.4699 192.752 98.6778C192.505 98.8507 192.607 99.0918 192.526 99.504C192.328 100.511 192.327 101.596 192.229 102.618C192.151 103.438 192.306 104.942 191.937 105.685C191.701 106.159 192 105.97 191.681 106.199C191.3 106.472 190.086 106.384 189.634 106.437C187.426 106.693 185.218 106.95 183.01 107.206C180.385 107.511 177.73 108.083 175.093 107.82C171.094 107.421 166.784 107.44 162.857 106.598C161.837 106.379 161.469 105.804 160.682 105.018C159.146 103.485 157.626 101.933 156.073 100.415C155.312 99.6712 155.637 99.7973 154.853 100.079C153.87 100.433 152.872 101.286 151.982 101.828C148.572 103.905 145.162 105.983 141.752 108.06L120.932 120.742C120.497 121.006 120.063 121.271 119.629 121.535Z" fill="#221EC4"/>
<path fill-rule="evenodd" clip-rule="evenodd" d="M318.765 122.882C314.473 139.176 305.841 156.942 288.451 162.136C284.223 163.398 280.11 164.352 275.719 163.871C275.301 163.825 274.951 163.884 274.554 163.891C273.841 163.905 274.457 164.161 273.658 163.914C273.035 163.722 272.452 163.241 271.803 163.028C270.077 162.464 268.238 162.355 266.484 161.899C262.175 160.777 257.734 159.393 253.559 157.847C251.592 157.12 249.785 156.106 247.936 155.131C246.056 154.14 244.064 153.525 242.163 152.616C240.661 151.897 238.087 150.961 237.031 149.613C235.904 148.176 237.462 145.117 237.908 143.589C239.423 138.39 241.226 133.267 242.365 127.965C246.296 132.521 251.751 135.342 257.399 137.161C260.463 138.149 263.616 138.862 266.803 139.309C269.697 139.714 272.819 140.205 275.72 139.63C277.91 139.195 280.659 138.188 282.223 136.517C282.781 135.92 283.45 134.826 283.138 133.96C282.741 132.859 281.584 133.377 280.958 132.556C280.413 131.841 280.498 130.168 280.324 129.297C280.017 127.756 279.595 126.257 279.079 124.773C278.079 121.892 276.832 119.004 276.533 115.939C276.273 113.279 276.879 110.764 278.206 108.456C278.833 107.365 280.407 104.397 281.944 104.52C283.632 104.656 281.356 111.768 281.282 113.219C280.987 118.97 281.758 125.098 284.709 130.139C285.839 132.069 287.473 134.316 289.886 134.555C292.441 134.808 294.503 132.798 295.719 130.763C298.687 125.8 297.191 118.99 295.688 113.788C293.844 107.405 289.031 103.006 285.988 97.2745C290.531 97.7313 292.964 100.617 295.296 104.279C297.863 108.31 299.861 113.15 300.846 117.841C301.344 120.21 301.001 122.59 301.004 124.983C301.005 125.778 301.005 128.711 302.301 128.596C303.686 128.472 304.161 125.164 304.365 124.155C304.832 121.841 305.337 119.526 305.743 117.199C306.461 113.084 306.78 108.869 307.639 104.782C307.784 104.091 308.073 102.174 309.108 102.692C309.905 103.09 309.777 106.055 309.806 106.744C309.878 108.442 309.979 110.14 309.992 111.84C310.013 114.359 309.51 116.967 309.757 119.471C309.918 121.107 310.796 122.915 311.884 120.709C312.964 118.52 313.184 115.791 313.786 113.438C314.418 110.967 315.071 108.46 316.413 106.266C316.785 105.657 317.185 104.69 318.013 104.977C318.614 105.185 319.057 106.61 319.243 107.113C320.082 109.385 319.939 111.912 319.887 114.291C319.822 117.206 319.509 120.056 318.765 122.882ZM235.076 127.111C234.847 127.037 233.872 126.944 233.631 126.923C233.348 126.898 233.669 126.376 232.984 126.525C233.116 126.853 233.351 127.072 233.689 127.181C232.658 127.53 231.898 126.669 231.193 126.558C230.519 126.452 230.491 126.558 229.825 127.27C229.104 126.391 229.239 126.939 228.647 126.94C228.431 126.94 228.422 127.266 228.071 127.227C227.764 127.193 227.732 126.728 227.551 126.673C226.567 126.375 225.555 127.873 224.44 126.574C224.169 127.926 221.073 126.233 219.881 126.47C218.632 126.719 219.171 127.166 218.162 126.401C217.2 125.672 217.468 126.156 216.349 126.753C216.375 126.739 215.718 127.183 215.779 127.19C215.005 127.1 215.049 126.299 214.068 126.342C213.03 126.387 212.587 127.2 211.637 126.199C211.43 126.949 211.387 126.626 210.9 126.815C210.633 126.879 210.398 126.808 210.198 126.604C210.137 126.81 210.003 126.937 209.796 126.983C209.266 127.031 208.27 127.105 207.789 126.849C207.066 126.466 207.647 126.319 207.146 125.888C206.921 127.076 206.429 126.824 205.391 126.935C204.599 127.019 204.424 126.776 203.668 126.658C202.923 126.542 201.96 126.831 201.233 126.954C200.933 127.005 200.531 127.214 200.226 127.141C199.95 127.075 199.832 126.861 199.668 126.805C199.468 126.738 199.511 126.563 199.166 126.479C198.928 126.421 198.502 126.644 198.265 126.682C196.57 126.957 194.943 126.96 193.326 126.294C194.123 127.693 191.466 126.937 190.992 126.358C190.4 127.286 189.684 126.631 188.49 126.703C187.341 126.773 185.613 127.125 185.147 125.694C185.056 125.984 184.403 126.829 184.144 126.958C183.391 127.331 183.301 126.779 182.6 126.554C181.647 126.248 181.846 126.829 181.255 126.947C180.257 127.147 179.718 126.444 178.836 126.071C178.799 126.651 178.779 127.009 178.277 127.37C177.833 125.751 176.246 127.503 176.518 125.339C175.914 125.732 175.065 126.034 174.893 126.829C175.903 126.551 175.001 127.211 174.958 127.233C174.825 127.303 174.374 126.67 174.269 126.581C174.241 126.879 174.213 127.178 174.184 127.476C173.782 127.275 173.404 126.915 173.078 126.735C172.783 126.572 173.205 126.234 172.708 126.211C172.446 126.198 172.173 126.766 171.898 126.814C171.477 126.888 171.679 126.284 171.503 126.305C171.235 126.336 170.799 126.728 170.596 126.72C169.931 126.695 170.381 126.386 169.874 126.244C168.968 125.991 169.026 126.583 168.375 126.797C166.884 127.286 167.034 125.035 165.518 126.536C165.155 126.896 164.921 127.451 164.424 127.42C163.395 127.355 163.756 126.135 163.965 125.538C164.182 125.644 160.205 127.687 160.237 127.607C160.262 127.117 160.887 126.739 160.328 126.304C159.871 127.285 159.39 127.302 158.336 127.485C157.824 127.573 157.723 127.692 157.175 127.479C156.826 127.344 156.591 126.787 156.244 126.756C156.291 126.76 155.653 127.245 155.556 127.289C154.981 127.548 154.617 127.254 154.058 127.361C153.581 127.452 153.394 127.857 152.92 127.746C152.287 127.598 152.659 126.842 151.788 127.053C151.49 127.125 151.311 127.699 150.842 127.817C150.111 128.002 149.215 127.657 148.443 127.837C147.83 127.98 147.375 128.041 146.839 128.071C146.406 128.095 146.584 127.758 145.786 128.156L145.448 127.304C145.049 127.663 144.65 128.021 144.251 128.38C144.175 128.059 144.127 127.733 144.107 127.403C143.511 127.999 142.761 128.101 141.961 128.154C141.095 128.212 140.449 128.401 139.606 128.56C139.339 128.61 138.653 128.69 138.433 128.597C138.466 128.61 138.023 128.426 138.157 128.461C138.099 128.344 138.046 128.225 137.997 128.104C137.922 127.768 137.68 127.753 137.271 128.06C137.06 128.027 136.65 127.75 136.439 127.818C135.895 127.994 135.969 128.416 135.427 128.355C135.075 128.314 134.896 127.795 134.53 127.759C133.97 127.706 133.484 128.333 132.979 128.469C134.514 128.053 130.988 128.376 132.085 128.405C131.366 128.386 130.62 128.35 129.955 128.672C129.589 128.422 130.034 127.917 129.663 127.71C129.327 127.521 129.301 128.018 129.262 128.03C129.474 127.969 129.368 128.393 129.156 128.468C128.494 128.702 127.965 128.106 127.931 127.515C127.369 128.361 127.211 128.021 126.384 128.073C125.569 128.124 124.866 128.552 124.051 128.544C122.438 128.529 121.343 127.968 120.805 126.528C122.524 126.737 124.253 125.632 125.934 125.892C126.486 125.978 126.831 126.393 127.315 126.319C127.911 126.229 128.328 125.578 129.092 125.508C130.778 125.354 132.44 125.504 134.138 125.246C136.166 124.937 138.282 124.754 140.33 124.904C141.912 125.02 143.193 124.415 144.797 124.299C146.871 124.148 148.963 124.121 151.041 124.012C153.176 123.9 155.473 123.56 157.603 123.669C158.267 123.703 158.839 123.768 159.499 123.728C159.778 123.711 160.042 123.522 160.335 123.55C160.716 123.587 160.88 123.977 161.275 123.964C161.947 123.941 162.666 123.387 163.465 123.372C164.778 123.347 166.086 123.35 167.403 123.275C168.562 123.209 169.804 122.939 170.959 122.954C171.773 122.964 171.974 123.657 172.448 123.729C173.301 123.857 177.617 121.402 177.99 123.606C180.236 122.068 183.249 123.37 185.75 123.081C188.963 122.71 192.234 123.041 195.469 122.909C198.76 122.774 202.146 122.899 205.424 123.209C206.782 123.338 208.094 123.458 209.456 123.38C210.062 123.345 210.764 123.19 211.371 123.33C211.518 123.364 212.644 124.15 212.504 124.173C213.119 123.621 212.703 123.54 213.785 123.512C214.619 123.49 215.408 123.67 216.237 123.719C217.725 123.807 219.225 123.601 220.71 123.646C221.95 123.684 223.162 123.867 224.409 123.876C225.752 123.886 227.339 123.924 228.311 125.007C228.209 124.667 228.106 124.327 228.003 123.987C229.503 124.104 230.985 124.639 232.502 124.389C232.118 124.756 231.729 125.057 231.582 125.595C232.4 125.492 232.953 124.921 233.814 124.916C234.537 124.912 234.688 125.275 235.451 124.806C235.545 125.38 235.639 125.954 235.733 126.528C236.79 126.279 236.096 125.491 236.174 124.781C237.033 125.039 237.76 124.742 237.422 125.978C237.16 126.931 235.971 127.401 235.076 127.111ZM233.59 137.726C233.222 138.761 230.033 138.169 229.279 138.06C228.305 137.919 227.19 137.695 226.293 137.584C226.186 137.441 226.057 137.319 225.906 137.219C225.793 137.376 225.651 137.487 225.478 137.553C225.066 137.643 225.065 138.068 224.523 137.974C224.498 138.604 224.935 138.246 225.27 138.474C224.427 139.04 224.812 138.389 224.339 138.399C224.222 138.233 224.058 138.168 223.849 138.203C223.582 138.272 223.336 138.387 223.111 138.546C222.9 138.769 222.72 138.78 222.569 138.581C222.425 138.436 222.249 138.346 222.041 138.312C221.21 138.448 220.978 138.816 220.042 138.756C218.704 138.67 217.257 139.022 215.941 138.837C215.125 138.722 213.761 137.44 213.391 138.69C212.827 137.763 211.928 137.133 211.388 136.186C213.904 136.041 216.419 135.868 218.937 135.777C221.142 135.697 223.553 135.945 225.614 135.842C227.544 135.744 229.587 135.531 231.558 135.355C233.646 135.168 234.338 135.626 233.59 137.726ZM167.957 137.878C168.87 138.131 169.74 137.558 170.626 137.739C170.919 137.799 171.525 138.332 171.659 138.343C171.902 138.362 172.62 137.839 172.927 137.768C174.873 137.326 177.231 137.373 179.176 137.645C180.207 137.789 180.365 137.317 181.265 137.088C182.2 136.85 183.53 137.033 184.515 136.967C186.832 136.812 189.148 136.923 191.449 136.753C193.811 136.579 196.162 136.485 198.526 136.363C200.136 136.281 204.005 135.362 205.34 136.557C206.44 137.543 205.022 139.254 203.922 139.645C203.099 139.936 202.704 139.322 202.093 139.38C201.397 139.447 201.64 140.269 201.019 139.507C200.634 140.265 198.215 139.942 197.522 139.992C196.011 140.101 194.733 140.404 193.705 138.995C193.774 139.401 193.844 139.808 193.914 140.214C192.55 139.485 191.087 139.719 189.903 139.973C189.317 140.098 187.518 140.968 186.883 140.593C186.446 140.335 187.216 139.894 186.479 139.674C186.092 139.559 185.425 140.2 184.953 140.168C183.647 140.078 184.018 139.2 182.734 140.318C182.3 139.942 182.155 139.303 182.212 138.755C181.28 139.55 181.358 140.875 179.692 140.632C179.071 140.542 178.957 139.908 178.633 139.792C177.943 139.543 177.865 139.99 177.267 140.345C177.042 140.478 176.767 140.693 176.501 140.72C175.956 140.775 175.869 140.524 175.794 140.532C175.431 140.572 174.974 140.757 174.543 140.625C174.157 140.507 174.044 139.825 173.363 139.984C172.711 140.137 172.705 140.58 172.824 141.242C172.181 141.176 171.792 140.818 171.311 140.43C170.826 141.562 169.804 140.624 169.239 141.58C168.502 140.701 168.03 140.943 167.116 140.084C167.161 140.442 167.206 140.8 167.251 141.159C166.538 141.021 166.221 140.519 165.613 141.184C165.022 140.084 163.232 141.651 162.313 140.589C161.903 141.934 159.192 141.612 158.047 141.636C157.032 141.656 156.281 141.573 155.29 141.809C154.413 142.017 153.199 142.233 152.375 142.138C151.837 142.076 151.248 141.977 150.577 142.05C149.61 142.155 148.775 142.655 147.773 142.418C146.265 142.062 145.34 140.081 147.02 139.21C148.17 138.615 150.241 138.835 151.507 138.725C153.604 138.543 155.954 138.161 158.053 138.335C159.691 138.47 161.184 138.08 162.855 137.915C164.113 137.79 166.175 137.567 166.996 138.813C167.311 138.449 167.278 137.691 167.957 137.878ZM145.001 154.946C144.776 153.825 154.363 153.207 155.314 153.134C157.312 152.98 159.315 152.87 161.318 152.819C162.964 152.777 164.5 153.092 166.147 152.839C167.685 152.603 169.541 152.119 170.879 153.208C171.076 151.719 176.847 152.445 177.945 152.449C182.724 152.466 187.297 152.477 191.92 152.181C194.562 152.012 197.368 151.784 200.01 151.917C201.202 151.976 202.161 152.294 203.347 152.018C204.12 151.838 204.953 151.464 205.692 151.993C206.557 152.612 206.927 154.714 206.331 155.592C205.897 156.231 205.513 156.16 204.819 156.05C203.753 155.88 202.961 155.633 201.873 156.067C202.05 155.996 201.145 156.198 201.22 156.192C199.988 156.284 198.299 157.145 197.238 156.153C197.663 156.228 198.281 155.469 197.745 155.406C197.343 155.359 197.087 155.791 196.773 155.935C195.699 156.43 195.149 156.275 194.507 155.238C193.213 156.358 193.074 156.048 192.505 154.669C192.068 155.006 191.974 155.803 191.63 156.064C191.579 156.103 191.79 156.587 191.542 156.567C191.311 156.548 191.236 156.17 191.058 156.141C190.945 156.121 190.886 155.79 190.778 155.77C190.66 155.748 190.539 155.959 190.406 155.953C190.05 155.937 189.034 156.693 189.398 155.631C188.86 156.317 188.628 155.88 188.433 155.256C187.811 155.729 187.189 156.202 186.567 156.674C186.278 155.87 185.78 156.089 185.154 156.37C185.342 155.812 185.224 155.283 184.751 155.672C184.476 155.896 184.292 156.61 184.012 156.913C182.876 155.763 182.463 156.079 180.894 156.228C180.295 156.285 179.551 156.396 179.016 156.034C178.545 155.716 178.279 154.549 177.475 155.492C177.654 155.282 177.373 156.893 177.323 157.149C176.969 156.91 176.667 156.615 176.419 156.267C175.956 157.183 174.741 156.361 173.745 156.548C172.177 156.843 170.56 157.339 169.176 156.173C169.078 156.549 167.943 157.029 167.942 157.044C168.009 156.377 168.43 156.611 167.57 156.485C167.412 156.461 167.233 156.746 167.083 156.777C166.571 156.883 165.972 156.782 165.456 156.768C163.308 156.706 161.341 157.182 159.22 157.354C158.505 157.412 157.657 157.527 156.986 157.257C156.294 156.979 156.313 156.664 155.613 156.843C155.835 156.786 155.176 157.478 155.212 157.452C155.118 157.52 154.725 157.183 154.586 157.208C154.545 157.356 154.505 157.503 154.464 157.65C154.295 157.63 154.126 157.609 153.958 157.588C153.497 157.65 153.08 157.183 152.647 157.168C152.727 157.17 151.478 157.635 151.534 157.664C150.662 157.229 150.913 157.355 149.806 157.62C148.761 157.87 147.72 157.812 146.647 157.968C143.526 158.421 145.385 156.857 145.001 154.946ZM142.244 170.55C141.658 169.717 143.219 169.43 143.718 169.356C144.538 169.235 145.626 169.476 146.173 169.345C147.005 169.147 147.809 168.675 148.746 168.547C149.928 168.385 151.12 168.359 152.307 168.258C152.703 168.223 153.193 168.087 153.577 168.11C154.151 168.145 154.389 168.448 154.851 168.45C155.639 168.454 156.612 167.956 157.42 167.865C158.454 167.748 159.499 167.693 160.538 167.641C162.728 167.533 164.895 167.578 167.084 167.575C168.083 167.574 170.741 166.538 171.239 167.699C171.931 166.819 173.706 166.939 174.696 166.914C176.439 166.869 178.164 166.701 179.906 166.62C181.397 166.55 183.063 166.87 184.528 166.646C185.335 166.523 185.602 166.264 186.518 166.381C187.198 166.467 188.234 166.108 188.818 166.267C188.788 166.259 189.546 166.729 189.31 166.744C189.57 166.727 189.555 166.909 189.842 166.828C190.22 166.721 190.047 166.247 190.829 166.078C192.049 165.815 193.676 166.12 194.944 166.052C196.174 165.987 197.402 165.958 198.633 165.964C199.2 165.967 199.901 165.831 200.452 165.942C200.722 165.996 201.297 166.348 201.525 166.313C202.174 166.212 202.505 165.761 203.382 165.789C204.376 165.82 205.271 165.807 206.26 165.731C207.217 165.658 207.37 165.521 207.845 166.318C208.315 167.108 208.445 168.137 207.579 168.673C208.142 168.637 208.833 169.389 208.171 169.806C207.761 170.064 206.94 169.482 206.45 169.524C205.846 169.576 205.372 169.896 204.715 169.915C204.024 169.936 203.322 170.11 202.641 170.124C201.931 170.138 201.395 169.82 200.721 169.955C200.129 170.075 200.066 170.56 199.353 170.134C198.999 169.921 198.939 169.136 198.455 169.129C197.807 169.119 198.065 169.956 197.693 170.344C197.593 169.147 196.669 171.128 196.301 169.674C195.962 170.157 194.708 170.832 194.101 170.444C193.547 170.091 193.731 169.291 193.5 168.715C193.116 169.751 192.086 170.825 192.179 168.94C191.678 169.556 190.326 169.458 190.665 170.537C190.257 170.529 190.161 169.947 189.817 169.903C189.521 169.865 189.286 170.092 189.241 170.089C189.403 170.102 188.755 170.318 188.745 170.32C189.184 170.231 187.481 170.079 187.771 170.082C187.376 170.079 186.892 170.402 186.43 170.401C186.009 170.4 185.591 170.234 185.175 170.187C184.098 170.064 184.322 170.3 183.646 170.639C183.395 170.764 183.332 170.976 182.977 170.95C182.714 170.93 182.616 170.588 182.586 170.585C182.217 170.547 182.49 170.424 181.916 170.481C181.851 170.594 181.785 170.707 181.719 170.82C181.512 171.085 181.244 171.151 180.914 171.019C180.066 171.201 177.253 171.989 177.529 170.529C177.098 170.74 176.667 170.951 176.235 171.161C176.051 169.984 173.709 171.545 173.186 171.624C172.515 171.724 172.453 171.467 171.818 171.33C171.704 171.305 171.474 171.683 171.206 171.629C170.51 171.489 170.386 171.419 170.267 170.663C169.77 171.591 169.358 171.176 168.458 171.329C168.258 171.363 168.131 171.755 167.845 171.687C167.639 171.638 167.633 171.262 167.491 171.213C167.363 171.169 167.383 170.872 167.194 170.83C166.978 170.781 166.242 171.385 166.031 171.478C165.554 171.688 164.771 172.036 164.306 171.931C163.731 171.803 163.987 171.377 163.174 171.424C161.892 171.5 161.357 172.591 160.559 170.871C160.199 171.56 160.245 171.747 159.667 171.974C159.24 172.142 158.158 171.967 157.595 171.946C155.192 171.857 152.83 172.676 150.448 172.462C149.4 172.367 148.517 172.158 147.46 172.329C146.35 172.509 145.264 172.774 144.137 172.881C143.564 172.935 142.367 173.1 142.086 172.367C141.839 171.723 142.761 171.283 142.244 170.55ZM146.957 196.984C143.84 199.068 141.259 201.915 138.398 204.326C135.529 206.743 133.252 209.429 130.672 212.106C128.287 214.58 126.095 216.921 123.212 218.79C121.387 219.973 119.759 221.43 117.884 222.546C116.48 223.381 114.353 224.48 115.038 221.924C115.74 219.305 117.036 216.658 118.162 214.212C119.762 210.735 121.375 207.29 123.106 203.879C123.756 202.598 124.12 201.322 125.152 200.301C126.275 199.19 127.061 197.739 128.291 196.689C133.463 192.274 141.257 195.685 146.957 196.984ZM156.732 198.481C155.319 199.222 153.737 199.405 152.238 199.895C150.962 200.313 149.775 201.055 148.402 201.11C149.652 200.172 150.725 198.897 152.134 198.184C153.719 197.383 155.158 197.966 156.732 198.481ZM218.779 204.656C213.579 202.902 208.738 200.316 203.674 198.236C202.8 197.876 195.962 195.625 196.101 194.553C200.893 193.675 205.827 192.169 210.63 193.811C214.999 195.305 218.553 198.889 221.935 201.888C222.818 202.671 228.275 206.235 227.787 207.37C227.449 208.157 224.819 207.942 224.198 207.781C223.396 207.572 222.934 207.085 222.305 206.55C221.253 205.656 220.089 205.098 218.779 204.656ZM209.18 175.344C209.97 174.617 210.443 173.515 211.197 172.844C212.167 171.982 213.731 172.402 214.79 172.85C217.97 174.193 220.687 176.452 223.847 177.854C227.349 179.407 230.381 181.483 233.539 183.623C236.426 185.579 239.548 187.198 242.495 189.064C245.498 190.966 248.859 192.203 251.904 194.037C255.002 195.905 258.088 197.78 261.065 199.838C266.374 203.507 271.901 207.275 275.829 212.492C277.847 215.174 279.737 218.215 281.218 221.227C282.565 223.964 284.025 227.764 282.28 230.612C280.605 233.346 277.748 235.5 275.331 237.541C274.415 238.313 273.544 239.252 272.357 239.587C270.914 239.994 269.23 239.882 267.745 240.002C259.808 240.646 252.413 240.038 244.591 238.618C237.048 237.25 229.475 236.483 221.874 235.532C217.587 234.995 213.3 234.37 209.071 233.476C207.262 233.094 205.423 232.654 203.654 232.133C202.109 231.679 200.81 230.678 199.221 230.281C192.479 228.598 184.765 227.954 178.091 225.122C183.997 222.668 190.274 221.185 196.328 219.145C202.699 216.998 208.922 215.197 215.637 214.587C219.093 214.273 222.186 213.391 225.51 212.467C228.678 211.587 231.985 211.317 235.239 210.923C236.686 210.747 240.815 211.01 241.295 209.118C242.009 206.302 237.952 205.977 236.222 206.23C233.768 206.587 231.745 207.2 229.867 205.187C227.949 203.131 226.086 201.026 224.134 198.997C220.514 195.233 216.783 190.881 211.667 189.192C205.424 187.133 198.186 189.088 191.957 190.259C185.379 191.496 178.811 192.681 172.355 194.479C169.682 195.224 166.234 196.864 163.46 196.601C160.725 196.341 157.628 195.893 154.986 195.105C153.791 194.748 152.808 194.087 151.738 193.47C150.347 192.669 148.823 192.155 147.346 191.532C144.361 190.272 141.45 189.111 138.23 188.616C135.517 188.199 132.637 187.951 130.008 188.902C127.43 189.835 125.145 191.734 123.346 193.763C121.391 195.968 119.776 198.438 118.174 200.901C117.405 202.083 116.467 203.114 115.67 204.27C115.001 205.24 114.611 206.319 113.903 207.262C112.32 209.372 111.245 212.072 110.285 214.527C109.219 217.253 108.034 220.496 108.289 223.462C108.385 224.583 108.486 226.068 108.919 227.108C109.471 228.43 110.258 228.396 111.391 228.895C113.339 229.752 113.885 232.12 116.403 231.658C118.764 231.226 120.811 229.28 122.534 227.729C124.779 225.708 126.928 223.577 129.077 221.454C131.281 219.275 133.454 216.858 135.208 214.295C135.898 213.286 136.436 212.146 137.252 211.227C138.291 210.057 139.458 209.916 140.869 209.45C153.207 205.373 165.605 201.441 178.329 198.749C181.377 198.104 184.45 197.272 187.445 196.414C190.621 195.504 192.265 196.466 194.887 198.198C200.363 201.819 206.835 204.37 212.933 206.732C214.853 207.476 217.91 207.523 219.411 208.99C210.514 210.346 202.036 212.955 193.455 215.554C189.224 216.835 184.944 217.946 180.698 219.171C176.449 220.396 172.363 221.984 168.173 223.366C164.003 224.741 159.596 225.302 155.385 226.57C151.087 227.865 146.807 228.756 142.395 229.542C137.941 230.337 133.517 231.255 129.047 231.966C127 232.292 124.954 232.63 122.93 233.078C120.95 233.517 119.037 234.567 117.046 234.811C108.158 235.898 99.4437 238.321 90.5899 239.691C83.979 240.714 72.478 242.14 68.1911 235.508C63.8803 228.838 69.169 221.057 73.8878 216.288C76.8204 213.324 80.1158 210.715 83.5732 208.395C87.2734 205.911 90.8334 203.229 94.5343 200.749C102.91 195.137 111.992 190.559 120.99 186.05C125.309 183.885 129.482 181.564 133.683 179.188C135.768 178.009 136.923 179.912 138.571 181.205C139.867 182.222 142.248 184.729 144.062 183.57C144.132 183.987 144.202 184.405 144.271 184.823C144.803 184.58 145.334 184.338 145.866 184.096C146.222 185.032 146.181 185.613 147.178 186.105C147.79 186.407 149.096 186.77 149.68 186.238C149.799 186.608 149.918 186.978 150.037 187.347C150.548 187.308 150.646 185.848 150.743 185.506C151.617 186.784 152.827 187.851 154.364 188.212C154.371 188.128 154.114 187.079 154.125 187.073C154.611 186.775 155.225 188.05 155.482 188.323C156.337 189.228 156.847 189.087 157.791 188.357C157.86 188.432 158.18 189.266 158.226 189.251C158.431 189.186 158.819 188.447 158.861 188.379C158.802 189.352 160.679 189.547 161.342 189.339C161.193 189.054 161.044 188.769 160.896 188.484C163.205 188.176 164.111 190.629 166.327 190.504C167.965 190.412 166.651 190.054 167.578 189.352C168.388 188.739 168.533 190.08 168.612 190.037C168.766 189.876 168.886 189.69 168.971 189.48C169.271 190.628 171.658 191.658 171.411 189.77C172.35 190.146 173.016 190.769 174.055 190.901C175.318 191.061 176.667 190.792 177.927 190.688C180.641 190.462 183.2 189.908 185.647 188.665C187.098 187.927 188.642 187.258 190.006 186.369C191.147 185.624 193.313 183.364 194.832 184.337C194.443 183.189 196.275 184.253 196.334 182.774C196.628 182.996 196.922 183.218 197.216 183.44C197.393 183.053 197.344 182.443 197.58 182.106C197.905 181.643 198.063 181.915 198.34 181.655C198.649 181.364 198.92 180.583 199.291 180.36C199.673 180.132 200.123 180.405 200.535 180.205C201.162 179.9 203.858 176.928 203.401 179.475C204.561 179.081 203.667 178.721 203.811 177.948C204.102 176.4 204.81 177.514 205.515 177.649C206.67 177.87 206.646 176.916 207.29 176.222C207.878 175.589 208.983 175.305 208.603 174.205C209.037 174.439 209.13 174.898 209.18 175.344ZM139.585 142.282C138.675 143.296 137.994 142.862 136.983 142.714C136.875 142.351 136.69 142.301 136.428 142.563C136.129 142.735 135.807 142.849 135.462 142.903C134.632 143.107 133.771 143.02 132.96 143.33C132.983 143.058 133.268 142.575 133.086 142.299C132.233 142.889 131.704 143.265 130.656 143.276C129.807 143.285 128.318 142.637 127.613 143.412C127.591 143.11 127.569 142.808 127.548 142.507C127.203 142.678 126.902 142.909 126.647 143.197C126.599 142.75 126.572 142.412 126.276 142.05C125.715 143.204 125.101 143.231 124.012 142.79C124.164 142.852 122.921 142.124 122.969 142.325C122.576 140.669 128.78 140.806 129.431 140.741C131.058 140.576 132.684 140.481 134.313 140.331C135.858 140.189 137.011 139.948 138.081 141.237C137.604 139.375 142.112 139.468 139.585 142.282ZM68.4521 113.409C68.623 116.224 69.2494 119.216 68.155 121.925C67.2751 124.102 65.5199 126.561 63.6293 127.983C59.7578 130.892 56.4763 127.332 55.9375 123.419C55.3758 119.338 56.4892 114.351 60.0034 111.834C62.1033 110.331 64.1366 110.435 66.5543 110.929C67.1221 111.046 68.0438 111.001 68.3685 111.565C68.4446 111.697 68.3763 113.406 68.4521 113.409ZM119.871 150.911C119.202 151.249 118.502 151.446 117.913 151.905C117.708 152.065 117.638 152.428 117.421 152.563C117.025 152.807 116.46 152.645 116.048 152.847C115.366 153.18 114.877 153.657 114.066 153.964C112.861 154.421 111.806 155.047 110.668 155.64C108.771 156.629 106.736 157.478 104.754 158.283C103.753 158.689 100.985 159.481 101.081 160.946C100.857 161.006 100.628 160.517 100.161 160.556C99.5191 160.609 98.6714 161.351 98.0053 161.534C96.7593 161.875 95.7947 161.905 95.7947 163.494C95.3981 163.224 95.2973 162.565 94.7696 162.477C94.1757 162.379 93.9258 163.02 93.4506 163.219C92.8911 163.454 92.1953 163.229 91.6411 163.479C91.3987 163.735 91.1295 163.959 90.8331 164.149C90.5317 164.184 90.2317 164.175 89.9331 164.122C88.7568 164.371 87.6742 164.813 86.495 165.043C85.3459 165.268 84.559 165.349 85.042 166.708C83.8128 166.949 83.5124 165.644 82.1255 166.121C80.4254 166.706 78.8365 167.127 77.0617 167.484C76.1568 167.666 75.2111 168.072 74.2993 168.167C73.649 168.235 73.0419 168.002 72.4015 168.075C71.6296 168.161 71.0093 168.519 70.2105 168.532C69.4529 168.545 68.6574 168.409 67.9133 168.276C68.0184 168.575 68.15 168.863 68.308 169.138C67.7935 169.03 67.5561 168.412 67.1199 168.32C66.6623 168.224 66.2522 168.696 65.871 168.592C65.7087 168.547 65.8167 168.047 65.5264 167.951C65.2618 167.864 65.1502 167.967 64.8878 167.926C64.8002 167.912 63.7026 167.853 63.5277 167.945C63.222 168.107 63.5313 168.411 63.4705 168.456C62.4383 169.22 62.4258 168.807 61.9656 168.009C61.2899 166.838 60.475 167.577 59.2469 167.372C57.8782 167.144 56.7999 167.748 55.4527 167.662C53.9996 167.569 52.292 166.482 51.0074 165.847C48.2332 164.476 45.5281 163.178 43.1983 161.102C38.644 157.042 34.9388 152.05 32.7542 146.335C30.407 140.195 29.9622 133.791 30.1506 127.277C30.264 123.359 30.5775 119.444 31.195 115.573C31.6201 112.909 31.7091 108.177 34.7118 106.964C35.2281 113.2 33.5991 119.554 34.6263 125.749C34.9356 127.615 35.69 130.102 37.1177 131.484C39.2314 133.53 39.7259 130.573 39.9172 128.939C40.273 125.905 40.934 122.888 41.4021 119.868C41.8697 116.85 42.2001 113.798 42.8505 110.811C43.0875 109.722 44.9996 101.748 46.403 102.125C46.1191 107.927 45.365 113.628 45.3354 119.451C45.3236 121.786 45.1144 124.253 45.4516 126.573C45.625 127.767 46.7122 131.27 48.5822 130.978C50.3127 130.708 48.4102 128.24 48.2486 127.289C47.8206 124.769 48.3662 121.635 48.7652 119.135C49.5204 114.403 51.2051 109.557 53.9589 105.603C56.4252 102.062 60.2226 98.6917 64.7974 99.316C66.752 99.5831 68.2769 100.068 69.2591 101.853C70.0296 103.254 73.0651 104.846 71.306 106.599C69.7046 108.196 67.1146 106.918 65.3344 106.537C63.1548 106.071 60.819 106.632 58.9963 107.909C55.8689 110.1 54.0865 114.017 53.5048 117.69C52.7207 122.644 54.8166 135.608 62.5363 132.703C67.6645 130.772 71.527 123.828 71.0965 118.512C70.9238 116.384 70.0918 112.344 73.0362 111.769C76.8082 111.033 77.3409 115.192 76.9591 117.894C76.4038 121.824 74.3265 125.479 71.9499 128.587C69.8787 131.295 67.4696 132.988 64.9772 135.225C64.2392 135.888 62.3571 137.376 62.6732 138.608C63.0197 139.958 65.9776 140.342 67.1621 140.564C73.0215 141.661 79.6292 140.652 85.4785 139.886C97.5008 138.312 109.365 134.434 119.223 127.305C119.621 131.716 120.123 136.112 120.308 140.539C120.398 142.688 120.421 144.868 120.667 147.005C120.818 148.32 121.365 150.156 119.871 150.911ZM86.5351 166.281C86.0631 166.527 86.5733 165.034 86.4421 165.528C87.1472 165.781 87.1783 166.032 86.5351 166.281ZM136.407 112.9C137.156 112.074 139.203 110.11 139.853 111.974C140.095 111.179 140.126 110.002 141.059 111.075C141.431 109.757 145.529 109.88 146.544 109.822C149.795 109.636 153.058 109.537 156.297 109.214C162.953 108.551 169.725 108.893 176.405 108.871C177.851 108.866 179.294 108.788 180.73 108.998C182.116 109.2 183.572 109.768 184.984 109.561C186.24 109.376 187.063 109.03 188.356 109.178C189.902 109.355 191.404 109.481 192.964 109.476C199.866 109.451 206.764 109.73 213.667 109.741C215.012 109.743 216.624 109.48 217.886 110.052C218.354 110.263 218.865 110.968 219.222 111.046C219.631 111.134 219.388 110.495 219.936 110.784C220.67 111.17 220.102 112.357 219.617 112.545C219.907 112.432 219.093 112.321 219.174 112.317C218.788 112.338 218.458 112.634 218.043 112.616C217.411 112.588 216.882 112.203 216.372 111.863C216.364 112.002 216.644 112.926 216.324 112.972C216.049 113.013 215.791 112.102 215.764 111.89C214.219 113.252 212.583 112.493 210.667 112.665C209.308 112.788 206.474 113.694 205.526 112.275C205.486 112.577 205.365 112.841 205.163 113.068C204.892 113.481 204.657 113.445 204.459 112.961C204.393 112.965 203.732 113.108 203.719 113.107C203.254 113.07 202.652 112.903 202.179 112.863C201.448 112.801 201.583 113.333 201 113.342C200.682 113.346 199.87 112.887 199.315 112.858C198.354 112.808 197.372 113.216 196.424 113.092C195.771 113.007 195.181 112.476 194.541 112.455C193.743 112.429 193.484 113.037 192.852 112.183C192.722 112.147 192.642 112.65 192.59 112.659C192.603 112.657 191.989 112.748 191.916 112.776C191.79 112.824 191.299 113.049 191.15 113.052C190.827 113.058 190.652 112.827 190.309 112.821C189.743 112.812 187.936 113.31 187.987 112.263C185.967 113.011 184.243 112.719 182.17 112.896C181.219 112.978 180.621 112.851 179.716 112.676C178.583 112.457 177.83 112.732 176.7 112.788C175.613 112.841 175.271 112.381 174.354 111.966C173.992 111.803 173.753 111.587 173.31 111.678C173.057 111.73 173.237 112.156 173.162 112.185C172.772 112.335 172.5 112.176 171.966 112.212C170.98 112.28 170.587 113.104 169.573 112.33C169.91 112.289 170.247 112.248 170.584 112.207C169.615 111.796 168.335 111.586 168.57 113.083C167.743 112.967 168.459 112.404 168.052 112.202C167.646 112.001 167.19 112.338 166.678 112.504C165.327 112.943 164.199 112.725 162.789 112.646C161.188 112.557 157.44 113.864 156.293 112.167C156.259 112.525 155.875 113.521 155.364 113.474C155.197 113.459 155.662 112.401 155.714 112.289C155.451 112.849 154.251 112.956 153.659 113.246C153.725 112.945 153.792 112.644 153.858 112.344C153.309 112.929 153.041 112.572 152.395 112.767C152.113 112.853 151.704 113.435 151.462 113.471C151.18 113.144 150.827 113.004 150.4 113.049C150.117 112.978 149.833 112.964 149.55 113.008C148.416 113.09 147.381 113.72 146.253 113.291C145.276 112.919 144.898 111.962 144.316 113.484C144.162 113.214 144.009 112.943 143.856 112.673C143.667 112.967 143.478 113.26 143.289 113.554C142.55 113.07 142.504 112.789 141.654 112.967C141.454 113.047 141.249 113.036 141.04 112.934C140.99 113.083 140.94 113.232 140.89 113.381C140.87 113.755 140.759 113.879 140.556 113.752C140.386 113.691 140.232 113.598 140.095 113.473C139.533 113.516 138.814 113.665 138.21 113.583C137.977 113.551 136.516 112.78 136.407 112.9ZM153.626 102.823C153.692 102.924 153.759 103.026 153.825 103.128C152.911 103.61 152.696 103.333 152.602 102.364C153.048 102.373 153.124 103.158 153.626 102.823ZM154.192 102.254C154.632 102.448 155.136 102.829 155.551 102.319C155.83 103.129 153.758 104.236 154.192 102.254ZM157.033 102.612C157.957 103.237 155.741 102.735 155.745 102.736C156.143 102.368 156.572 102.327 157.033 102.612ZM164.977 99.1317C165.293 100.73 166.167 100.684 167.577 99.9414C169.633 98.8578 169.98 97.0834 170.124 94.9645C170.261 92.9331 170.51 92.1466 172.605 92.5708C174.067 92.8668 175.304 92.618 176.778 92.5772C178.351 92.5339 178.905 92.7741 179.032 94.3929C179.159 96.0137 179.447 97.2444 180.623 98.478C181.819 99.732 183.414 100.481 184.968 101.182C185.767 101.543 186.517 101.931 187.401 102.009C187.744 102.039 189.527 101.814 189.564 102.378C189.592 102.802 187.123 103.999 186.861 104.141C185.716 104.764 184.574 105.323 183.323 105.7C180.445 106.568 177.393 106.62 174.412 106.567C169.606 106.483 162.964 104.45 160.09 100.186C161.719 99.8344 163.348 99.4828 164.977 99.1317ZM164.545 85.2922C163.785 84.6539 163.293 83.6899 162.661 82.9342C162.342 82.553 162.109 82.4316 161.806 82.2408C161.486 82.04 161.306 82.3242 161.04 81.8521C160.352 80.6318 162.476 78.9146 160.223 78.4449C159.461 78.2856 157.627 78.8895 157.405 77.7977C157.09 76.2538 160.037 76.1528 160.73 75.3692C162.109 73.8114 161.173 71.1703 162.013 69.3729C162.807 67.6704 164.859 67.3679 166.479 66.8564C168.735 66.144 171.019 65.7309 173.31 65.1607C174.912 64.7622 177.573 63.161 179.059 64.5757C176.766 65.0848 178.099 65.8838 179.627 66.3348C181.358 66.846 183.193 67.0454 184.986 67.1878C186.832 67.3342 188.714 67.3622 190.538 66.9942C192.225 66.6537 194.109 65.1875 195.878 65.563C194.896 67.2695 191.973 68.2016 190.196 68.6487C189.291 68.8764 188.711 68.8051 188.833 69.9338C188.95 71.0278 189.901 72.1246 190.116 73.264C190.4 74.7722 190.152 76.1579 189.615 77.5761C189.087 78.9715 188.964 79.1537 189.426 80.4871C190.145 82.5634 188.599 84.858 187.171 86.3657C181.394 92.462 170.338 90.1527 164.545 85.2922ZM179.225 48.8573C179.228 48.8959 179.248 48.9195 179.225 48.8573V48.8573ZM181.024 64.2421C180.784 64.4211 179.405 64.7962 179.462 64.2571C179.54 63.5347 180.783 63.7957 181.024 64.2421ZM184.168 49.6494C183.844 49.4082 182.938 49.5073 183.6 48.5927C183.816 48.9951 183.992 49.3223 184.168 49.6494ZM162.41 43.8679C162.823 42.7957 163.28 41.7984 163.466 40.6572C163.58 39.9542 163.352 39.1513 164.335 39.041C163.083 38.4947 163.07 36.3387 162.996 35.2211C162.894 33.6818 162.408 31.621 163.084 30.1884C163.779 28.7168 164.716 28.7411 164.998 30.4937C165.109 31.18 164.686 31.4019 164.606 31.8798C164.448 32.8252 164.762 32.6179 165.372 31.8977C165.623 32.6298 165.72 33.7298 166.745 33.6833C166.676 33.4853 166.284 33.0486 166.415 32.8026C166.616 32.425 167.601 33.002 167.725 33.0894C168.624 33.718 168.819 34.2918 168.178 35.0847C169.065 35.1803 168.321 35.9571 168.893 36.1597C169.767 36.4686 169.181 35.0049 169.086 34.7475C169.618 34.9551 169.797 35.1921 170.134 35.6124C170.331 35.9023 170.512 36.2034 170.674 36.5148C170.855 37.0833 171.227 37.2257 171.792 36.9422C172.924 37.2973 174.487 37.2418 175.501 37.8626C175.965 38.1461 176.132 38.7664 176.519 39.002C176.955 39.2672 177.538 39.147 178.006 39.3134C177.835 39.7022 177.974 39.9127 178.421 39.9456C178.769 39.9774 179.106 40.0558 179.432 40.1804C179.675 39.9968 179.941 39.8518 180.227 39.7462C180.419 40.0852 180.691 40.169 181.043 39.9982C182.086 40.1937 182.588 40.5885 183.251 41.1788C183.847 41.7086 183.362 41.7515 184.014 41.7047C184.277 41.6857 184.736 41.2411 185.336 41.3277C185.681 41.395 186.013 41.5013 186.334 41.6467C186.68 41.9431 187.048 41.9803 187.437 41.7587C188.069 42.0676 188.132 42.615 188.902 42.6898C189.754 42.7728 189.48 41.7104 190.066 43.2088C190.854 41.6202 191.142 44.151 191.956 44.3554C192.799 44.5673 192.89 43.884 193.612 44.6307C193.828 44.8544 193.816 45.2242 194.059 45.4616C194.456 45.8499 194.995 45.7723 195.34 46.3021C195.148 46.0064 195.386 47.3498 195.382 47.3055C195.435 47.8983 194.909 48.5623 195.988 48.5118C195.976 48.5741 195.458 49.3298 195.356 49.2442C195.332 49.1579 195.311 49.0706 195.294 48.9822C195.178 49.0319 195.127 49.7518 195.148 49.8789C195.24 49.8932 195.277 49.8252 195.261 49.6749C195.083 50.2301 195.351 50.5827 195.01 51.1096C194.792 51.4465 194.195 51.6995 193.878 51.9075C193.112 52.4094 192.363 52.9127 191.617 53.4468C189.876 54.6925 187.927 56.1946 185.734 56.4545C186.835 55.3734 193.17 51.2821 189.993 50.1076C189.404 49.89 188.331 49.6838 187.714 49.638C186.948 49.5811 186.155 50.0199 185.31 49.7461C184.289 49.416 184.674 48.457 184.051 48.113C182.727 47.3831 183.04 49.0996 182.623 49.5492C182.186 49.0899 182.279 48.8666 181.589 48.825C180.887 48.7828 180.72 49.4311 179.902 49.0273C178.774 48.4706 179.371 47.362 177.771 47.3359C177.798 47.0925 178.03 46.4123 177.725 46.2226C177.313 46.7563 177.632 47.3531 177.25 47.8668C177.059 48.1245 176.644 48.33 176.341 48.4134C175.632 48.6081 175.531 48.9811 175.646 47.9133C175.121 48.8601 173.509 48.4706 172.55 48.3754C170.992 48.2204 169.335 47.9255 167.841 47.4257C166.459 46.9632 165.721 46.1689 164.581 45.4462C164.151 45.1727 163.945 45.2772 163.327 45.1075C162.717 44.94 162.123 44.6153 162.41 43.8679ZM165.699 27.103C165.934 26.9613 166.103 29.0765 165.818 29.4717C165.296 28.6459 164.37 27.4345 165.699 27.103ZM166.45 26.2593C167.207 25.5745 166.681 27.3432 166.543 27.64C166.262 27.4603 165.982 27.2806 165.702 27.1009C166.059 26.8815 166.149 26.5324 166.45 26.2593ZM194.997 23.4088C201.988 24.8758 208.914 27.6178 214.521 32.1304C219.628 36.2406 223.232 42.0723 225.253 48.2756C227.351 54.7144 226.646 61.858 221.656 66.7858C219.027 69.3815 215.555 70.9476 212.246 72.4758C210.661 73.2078 209.028 73.8178 207.437 74.533C206.294 75.0467 204.898 75.8686 203.594 75.7261C204.259 75.026 205.225 75.0116 206.03 74.5835C207.003 74.0659 207.798 73.0725 208.637 72.363C209.47 71.6585 211.317 69.4402 212.596 69.9771C212.419 68.7955 213.765 68.2467 214.372 67.4674C215.014 66.643 215.06 65.679 216.242 65.4091C214.972 64.4154 215.361 62.541 215.637 61.1883C215.991 59.4582 216.154 57.8699 216.294 56.1094C216.545 52.9353 216.747 48.892 214.993 46.1016C214.424 45.1956 213.7 44.3629 213.192 43.4218C212.58 42.2878 212.715 41.2894 212.715 40.0462C211.596 40.7979 211.36 39.2651 210.888 38.518C210.533 37.9574 210.067 37.6442 209.953 36.939C209.869 36.4257 210.426 36.339 210.121 35.801C209.747 36.0838 209.597 36.522 209.408 36.9286C209.062 36.7904 209.47 36.3093 209.271 36.1529C209.266 36.1486 208.599 35.859 208.632 35.9009C208.203 35.3571 208.065 34.4547 207.855 33.8075C207.069 34.2055 207.216 34.1586 206.339 33.4935C206.185 33.3765 205.413 32.8388 205.341 32.663C205.001 31.8411 205.596 32.328 205.43 31.8179C204.952 30.3527 202.273 30.6298 202.061 28.4343C200.755 29.2638 200.256 28.0885 199.484 27.2527C198.693 26.3964 197.365 26.0671 197.436 24.7089C197.025 24.8496 196.614 24.99 196.203 25.1299C196.416 23.8767 194.555 23.9565 193.88 23.3207C194.255 23.3254 194.627 23.3547 194.997 23.4088ZM196.062 101.031C196.71 100.451 196.513 101.222 196.93 101.134C197.286 101.059 197.357 100.789 197.699 100.706C199.107 100.366 201.213 100.794 202.694 100.72C204.41 100.635 207.35 100.992 208.168 102.999C208.66 104.208 207.909 103.796 207.081 103.707C206.439 103.637 205.868 103.767 205.233 103.761C204.918 103.809 204.606 103.804 204.294 103.746C204.141 103.646 204.052 103.505 204.024 103.323C203.14 103.189 202.201 103.712 201.222 103.738C199.916 103.773 198.754 103.522 197.762 102.64C197.367 103.228 197.098 103.52 196.389 103.586C196.37 103.588 195.677 103.308 195.569 103.281C195.428 103.244 195.068 103.542 194.794 103.457C195.28 102.683 195.351 101.666 196.062 101.031ZM285.293 108.016C285.524 107.214 285.716 106.401 285.927 105.593C289.152 109.265 291.974 114.179 293.244 118.888C294.069 121.947 295.353 127.491 291.42 129.069C288.216 130.355 286.43 125.747 285.619 123.477C283.83 118.467 283.83 113.113 285.293 108.016ZM141.008 50.4892C141.049 50.481 138.92 51.7192 139.622 50.7166C139.903 50.3135 140.972 50.03 141.446 50.03L141.008 50.4892ZM138.96 51.014C138.713 51.2213 138.465 51.426 138.214 51.6279C137.973 51.2471 137.731 50.8662 137.49 50.4853C137.965 50.2848 139.983 50.1345 138.96 51.014ZM137.459 89.513C137.014 89.2112 136.66 89.3716 136.527 89.8781C136.527 89.3741 136.789 88.2032 137.192 88.0668C137.453 87.9784 136.326 86.6449 136.643 86.2959C137.448 86.7573 136.966 87.1994 137.202 87.7951C137.309 88.0639 137.629 88.3181 137.699 88.5247C137.817 88.8751 138.298 90.0804 137.459 89.513ZM135.277 86.5125C134.821 86.6292 135.619 87.3824 135.619 87.7153C135.618 87.9669 135.316 88.1602 135.191 88.5046C134.921 89.251 135.386 89.755 134.62 90.3245C134.62 88.6893 133.523 84.3565 135.631 83.5596C134.603 82.7495 135.448 81.8145 136.254 82.7839C137.029 83.716 136.535 86.1903 135.277 86.5125ZM134.178 80.0597C133.764 78.5899 132.516 78.0759 131.09 78.1628C131.144 77.4104 131.715 76.3254 132.126 77.6817C132.296 77.2808 132.413 76.7578 132.799 76.4922C133.45 78.5312 136.692 79.6577 134.673 81.8671C134.508 81.2647 134.348 80.6611 134.178 80.0597ZM130.41 78.2724C122.902 78.8169 112.361 80.3747 106.352 74.6197C102.435 70.8671 102.644 65.0232 105.81 60.8539C107.617 58.4748 110.083 56.7995 112.56 55.2037C113.516 54.5876 114.326 54.181 115.375 53.827C115.545 53.8087 115.705 53.8466 115.854 53.9408C115.913 53.6873 116.056 53.4998 116.283 53.3773C116.688 53.1604 117.266 53.0831 117.499 52.6328C117.25 53.4783 117.122 54.3489 117.03 55.2238C116.828 54.9882 116.626 54.7527 116.424 54.5171C116.255 56.1105 114.595 55.1461 113.604 55.3451C114.257 56.2486 114.724 56.5769 114.78 57.7711C114.294 56.8733 113.277 56.283 112.332 55.9937C112.845 57.5123 113.208 58.4136 112.691 60.0789C112.067 59.7224 112.024 58.8661 111.267 58.661C111.067 59.654 111.032 60.7558 110.776 61.7195C108.837 60.8349 109.026 63.2172 109.805 64.396C110.219 65.0232 110.422 65.7492 110.791 66.3513C111.698 67.8279 111.009 65.6196 112.017 65.7245C111.79 67.282 111.712 67.437 112.851 68.5775C113.964 69.6897 114.541 71.2329 115.731 72.2778C116.075 71.8375 115.533 71.3768 115.486 70.9555C116.593 71.1413 117.112 72.2513 118.176 71.268C118.64 72.1726 119.142 73.1688 120.254 73.3546C119.519 71.9578 121.665 72.905 122.215 73.1033C122.633 73.2536 123.381 73.3732 123.542 73.4312C124.449 73.7587 123.827 73.171 124.377 74.2445C125.185 74.0007 125.49 73.3302 126.457 73.8966C127.242 74.3573 127.244 75.1462 127.424 75.9545C127.611 75.4258 127.8 74.8974 128.007 74.3759C128.218 74.4647 129.103 75.4383 129.007 75.443C131.077 75.3413 131.004 76.6272 130.41 78.2724ZM119.868 51.9132C120.284 51.6215 120.792 52.0099 121.259 51.9054C121.905 51.7611 122.272 51.2073 122.995 51.1479C122.794 51.7901 122.416 51.73 122.097 52.2343C121.989 52.4062 122.045 52.8186 121.949 52.9174C121.139 53.7464 120.86 53.0699 120.033 52.4423C120.105 53.1991 120.251 53.4382 119.538 53.6412C118.892 53.8252 117.827 53.1475 117.502 52.6278C117.776 52.0786 119.37 52.2626 119.868 51.9132ZM125.02 50.7305C125.721 50.7975 124.877 52.8658 123.872 50.8594C124.25 50.7771 124.633 50.7341 125.02 50.7305ZM128.625 50.3307C129.731 50.1051 133.419 49.0541 133.829 50.7753C133.903 50.7323 134.177 49.7608 134.305 49.8793C134.815 50.3543 134.872 50.984 134.833 51.6437C134.216 50.3579 134.435 51.4873 134.017 51.3992C133.908 51.3759 133.741 51.58 133.464 51.4959C133.102 51.3852 132.842 50.6138 132.613 50.3525C132.232 50.8966 131.76 51.5972 130.996 51.5499C130.456 51.5166 129.585 50.1255 130.285 51.6483C129.874 51.5127 129.399 51.2055 128.941 51.2671C128.429 51.3362 128.162 51.842 127.682 51.9236C126.617 52.104 126.457 51.0795 125.766 50.5232C126.719 50.4678 127.684 50.5225 128.625 50.3307ZM135.314 50.3142C135.392 49.9612 136.36 49.8188 136.606 49.9308C137.207 50.2039 136.985 50.5644 136.875 51.1644C136.428 50.9532 135.982 50.7423 135.536 50.5311C136.202 51.6036 134.995 51.7593 135.314 50.3142ZM322.598 113.135C322.519 110.565 322.444 107.95 321.793 105.448C321.337 103.697 320.217 100.557 318.098 100.253C314.902 99.7943 313.133 106.11 312.238 108.277C312.059 105.725 312.215 103.008 311.251 100.586C310.479 98.6448 308.529 96.8063 306.85 98.9863C305.355 100.927 305.068 103.791 304.675 106.125C304.165 109.15 303.859 112.198 303.487 115.241C302.027 112.421 301.773 109.192 300.619 106.261C299.53 103.495 297.817 100.853 296.167 98.3925C294.82 96.3828 293.181 94.4934 291.07 93.2649C289.233 92.1956 286.02 91.039 284.268 92.8149C282.807 94.2966 283.036 96.2794 283.112 98.149C283.146 98.9817 283.277 99.5526 282.544 99.9722C282.185 100.178 281.622 100.072 281.227 100.182C280.59 100.36 280.101 100.661 279.562 101.062C275.783 103.87 274.041 108.932 273.503 113.444C272.82 119.162 275.049 124.063 276.967 129.295C277.272 130.128 278.243 131.897 278.109 132.828C277.962 133.848 276.682 133.874 275.818 133.895C273.21 133.96 270.483 133.765 267.888 133.522C261.708 132.944 255.533 129.969 250 127.313C248.991 126.828 247.562 126.551 246.738 125.788C245.964 125.07 245.76 123.92 245.091 123.097C243.45 121.078 242.404 119.355 239.988 118.135C237.527 116.893 235.016 115.745 232.615 114.384C229.646 112.701 226.903 110.569 224.058 108.684C218.771 105.182 213.519 101.344 207.913 98.366C205.308 96.9821 202.397 96.758 199.693 95.625C197.059 94.5217 193.826 94.5203 191.078 95.2169C189.739 95.5566 188.828 96.3613 187.597 96.8865C186.154 97.5022 184.977 96.8228 183.707 96.0878C181.767 94.9652 179.844 93.136 182.606 91.925C183.544 91.5141 184.718 91.3583 185.537 90.7122C186.409 90.0238 187.11 88.7538 187.819 87.8914C189.397 85.9745 190.339 83.7676 192.648 82.5755C195.201 81.2571 198.228 80.8985 200.95 80.0368C203.9 79.1036 206.788 77.9939 209.683 76.9042C214.898 74.9411 220.32 72.8216 224.068 68.5002C227.3 64.7719 228.709 59.9597 228.579 55.072C228.312 45.08 222.96 34.9394 215.28 28.6921C205.863 21.0315 193.883 18.477 181.988 18.6109C176.406 18.6739 169.744 19.4045 165.086 22.7963C161.062 25.7259 160.393 30.8499 160.991 35.4753C161.234 37.3525 162.064 39.8296 160.74 41.4838C160 42.4091 158.67 42.6382 157.672 43.2153C156.417 43.9402 155.312 44.635 153.891 45.0184C147.857 46.6479 141.502 46.0805 135.332 45.9903C125.055 45.8399 114.521 48.6224 106.854 55.8642C100.663 61.7116 98.8062 72.7382 106.357 78.4388C112.458 83.0441 122.027 82.5376 129.22 81.7343C131.451 81.4848 132.985 81.1225 132.99 83.8517C132.996 86.8329 132.502 89.9487 133.262 92.8754C134.46 97.4846 138.889 97.5945 142.805 96.6019C144.871 96.0782 146.869 95.2906 148.831 94.4659C151.709 93.2563 154.347 91.4775 157.189 90.2701C159.115 89.4518 160.558 92.0983 162.267 90.2637C162.583 89.9247 162.641 89.4192 163.117 89.2456C163.864 88.9739 165.116 89.9268 165.771 90.2282C166.751 90.6796 167.739 91.0115 168.131 92.0983C168.497 93.1149 168.337 94.7315 167.986 95.7345C167.223 97.9146 165.17 97.4836 163.295 97.3379C160.025 97.0834 156.777 96.5439 153.508 96.3173C150.576 96.114 147.83 96.9903 145.3 98.4365C139.987 101.474 135.641 106.305 131.034 110.278C128.663 112.323 126.371 114.532 123.793 116.312C122.672 117.086 121.458 117.798 120.484 118.76C119.517 119.715 119.411 120.582 119.08 121.852C118.491 124.114 115.567 125.219 113.739 126.412C111.154 128.099 108.413 129.29 105.515 130.325C99.3783 132.517 93.1928 134.048 86.7768 135.179C83.6354 135.733 80.5202 136.097 77.3481 136.397C74.614 136.654 71.7065 137.496 68.9756 136.824C69.7622 135.548 71.1558 134.782 72.2413 133.796C73.6408 132.525 74.831 131.018 75.89 129.457C77.9516 126.418 79.3975 123.157 79.7297 119.471C80.0289 116.153 79.6857 112.184 77.6838 109.382C76.9923 108.413 75.6244 108.15 75.0055 107.278C74.3901 106.411 74.6247 104.919 74.2879 103.908C73.4302 101.337 70.8848 98.1508 68.6448 96.6577C66.2146 95.0372 62.6596 94.4419 59.8522 95.2864C54.6514 96.8507 51.4568 102.409 49.077 106.901C47.777 104.165 49.9541 100.107 47.4145 97.8666C45.2724 95.9769 43.5723 99.6375 42.8558 101.204C39.4928 108.555 38.7291 116.353 37.32 124.219C36.7458 123.653 37.0401 122.2 37.0941 121.525C37.1945 120.268 37.1852 119.035 37.1877 117.773C37.1945 114.585 37.7873 111.381 37.5156 108.196C37.3586 106.354 36.7716 102.472 34.0961 103.083C31.8271 103.602 30.4059 106.793 29.693 108.744C28.6647 111.557 28.4273 114.343 28.4913 117.315C28.5621 120.599 27.9364 123.829 27.7848 127.108C27.4902 133.479 27.7812 139.794 29.609 145.941C32.6019 156.008 39.4835 164.373 48.668 169.424C53.7283 172.207 59.342 173.968 65.1138 174.347C68.2415 174.552 71.261 174.18 74.3619 173.857C77.4221 173.537 80.4984 173.39 83.5532 173.015C90.3565 172.181 96.9856 170.027 103.169 167.129C106.424 165.603 109.485 163.73 112.687 162.104C113.972 161.451 114.84 160.635 115.936 159.727C117.023 158.828 117.324 158.758 118.56 158.758C118.197 157.788 119.256 157.489 119.727 156.875C119.7 157.173 119.674 157.47 119.647 157.768C120.006 156.989 120.341 156.996 120.65 157.79C120.955 156.901 121.182 155.987 121.551 155.121C122.962 155.835 122.843 157.533 124.73 156.293C126.285 155.273 127.714 154.07 129.298 153.07C132.907 150.792 136.019 147.828 139.638 145.576C139.638 147.769 139.793 149.981 139.5 152.164C139.221 154.238 138.446 156.178 137.83 158.164C136.694 161.829 136.615 165.746 135.356 169.374C134.835 170.876 133.478 172.133 133.089 173.595C132.693 175.087 133.609 176.283 132.073 177.263C130.991 177.953 129.637 178.245 128.438 178.663C126.61 179.3 124.873 180.2 123.093 180.963C114.743 184.54 106.598 188.184 98.8624 192.995C91.5206 197.56 84.0666 202.275 77.3223 207.697C71.469 212.402 65.5521 218.486 64.1273 226.162C62.7447 233.608 66.4284 241.6 73.8252 244.052C77.6713 245.327 82.0193 245.169 86.0245 245.224C90.3343 245.283 94.9012 244.245 99.1384 243.493C103.613 242.7 108.011 241.457 112.499 240.749C116.805 240.068 120.755 238.549 124.99 237.612C129.501 236.614 134.128 236.073 138.664 235.175C140.706 234.771 142.707 234.175 144.754 233.801C146.996 233.392 149.263 233.238 151.483 232.696C155.788 231.643 159.911 229.947 164.236 228.968C166.18 228.528 168.095 227.938 170.04 227.527C171.831 227.148 173.226 226.141 175.021 226.968C176.471 227.636 177.627 228.781 179 229.579C180.779 230.613 182.656 231.54 184.511 232.43C188.24 234.22 192.107 235.456 196.005 236.799C200.1 238.21 204.121 239.819 208.363 240.751C212.712 241.706 217.149 241.972 221.528 242.728C230.497 244.275 239.389 244.969 248.493 245.026C253.094 245.055 257.695 244.509 262.286 244.574C266.35 244.631 269.883 245.547 273.6 243.386C279.538 239.934 286.425 234.734 286.28 227.18C286.147 220.339 282.043 213.803 278.194 208.407C273.52 201.855 266.855 197.241 260.323 192.72C253.362 187.904 245.542 184.575 238.225 180.37C234.483 178.22 231.032 175.907 226.969 174.378C225.03 173.649 223.138 172.804 221.221 172.018C219.678 171.387 217.451 171.038 216.131 169.989C215.307 169.335 215.228 168.344 215.011 167.372C214.529 165.22 213.772 163.179 213.039 161.103C211.622 157.095 210.681 153.013 210.072 148.81C209.491 144.803 208.203 140.636 208.87 136.564C213.259 140.808 217.768 144.889 222.258 149.021C223.941 150.57 225.592 152.151 227.284 153.69C228.553 154.846 230.141 156.562 231.912 156.905C234.172 157.343 233.346 154.843 234.899 154.455C235.847 154.219 238.708 156.629 239.458 157.105C244.212 160.123 249.476 162.036 254.705 164.09C260.188 166.244 265.826 168.157 271.726 168.7C277.176 169.201 282.749 168.557 288.008 167.073C298.481 164.116 306.187 157.101 311.843 148.007C318.288 137.644 322.978 125.505 322.598 113.135Z" fill="#181A22"/>
<path fill-rule="evenodd" clip-rule="evenodd" d="M162.532 90.5447C162.53 90.5478 162.514 90.5819 162.514 90.5819C162.534 90.5683 162.54 90.556 162.532 90.5447Z" fill="#181A22"/>
<path fill-rule="evenodd" clip-rule="evenodd" d="M163.037 90.6787C162.998 90.3485 162.913 90.0254 162.783 89.709C162.437 90.2587 162.126 90.4941 162.582 91.0762C162.733 90.9437 162.885 90.8112 163.037 90.6787Z" fill="#181A22"/>
<path fill-rule="evenodd" clip-rule="evenodd" d="M187.188 169.238C187.575 168.825 186.897 168.67 186.64 168.664C186.665 169.107 186.446 170.168 187.051 170.373C186.906 169.973 186.952 169.594 187.188 169.238Z" fill="#181A22"/>
<path fill-rule="evenodd" clip-rule="evenodd" d="M176.957 82.8878C176.291 84.1749 177.763 84.5742 178.615 83.9524C179.257 83.4849 179.636 82.2932 179.741 81.5285C180.082 79.0543 178.351 76.6994 177.488 74.5041C177.265 73.9367 176.959 71.9907 176.241 71.9371C175.415 71.8757 175.354 73.6681 175.344 74.1306C175.312 75.5252 175.681 76.9455 176.114 78.2619C176.58 79.6811 177.736 81.3846 176.957 82.8878Z" fill="#181A22"/>
<path fill-rule="evenodd" clip-rule="evenodd" d="M180.127 77.7256C182.689 80.0068 184.738 76.2074 184.559 73.9599C184.515 73.4031 184.139 71.3501 183.083 72.0973C182.552 72.4726 183.005 73.6924 182.752 74.2278C181.526 76.8243 180.346 72.797 179.521 72.4807C178.518 72.0955 178.417 73.4146 178.418 74.1197C178.42 75.5192 179.086 76.7987 180.127 77.7256Z" fill="#181A22"/>
<path fill-rule="evenodd" clip-rule="evenodd" d="M170.828 78.0799C171.431 77.1297 172.173 75.8552 172.255 74.7168C172.382 72.9473 171.351 73.095 170.502 74.3296C169.903 75.2017 169.453 76.681 168.13 76.3133C166.496 75.8599 166.995 73.6631 166.081 72.6191C163.771 75.7213 168.142 82.3082 170.828 78.0799Z" fill="#181A22"/>
<path fill-rule="evenodd" clip-rule="evenodd" d="M174.289 87.5736C175.245 87.78 177.735 87.7039 176.872 86.2412C175.784 84.3987 172.165 87.114 174.289 87.5736Z" fill="#181A22"/>
<path fill-rule="evenodd" clip-rule="evenodd" d="M207.755 32.6289C207.93 32.1082 207.689 32.0136 207.272 31.6035C206.878 31.9679 207.383 32.3513 207.755 32.6289Z" fill="#181A22"/>
<path fill-rule="evenodd" clip-rule="evenodd" d="M225.573 126.948C226.203 127.048 226.406 126.714 226.181 125.947C225.186 125.883 224.984 126.216 225.573 126.948Z" fill="#181A22"/>
<path fill-rule="evenodd" clip-rule="evenodd" d="M191.159 46.4888C191.854 46.8066 191.588 47.4587 191.576 48.0098C191.934 47.6206 192.657 46.9093 192.363 46.3503C191.909 45.4885 190.723 46.2899 191.159 46.4888Z" fill="#181A22"/>
<path fill-rule="evenodd" clip-rule="evenodd" d="M167.48 35.6418C167.375 35.435 167.269 35.2282 167.163 35.0215C166.731 35.3679 166.064 36.284 166.75 36.7305C167.032 36.3891 167.275 36.0262 167.48 35.6418Z" fill="#181A22"/>
<path fill-rule="evenodd" clip-rule="evenodd" d="M175.821 41.722C176.686 42.4003 176.271 40.3185 176.245 40.1484C176.117 40.3926 175.384 41.3794 175.821 41.722Z" fill="#181A22"/>
<path fill-rule="evenodd" clip-rule="evenodd" d="M175.342 40.6648C175.276 40.4928 175.209 40.3208 175.143 40.1484C174.793 40.473 174.363 41.1359 174.942 41.5156C175.101 41.2496 175.234 40.9662 175.342 40.6648Z" fill="#181A22"/>
<path fill-rule="evenodd" clip-rule="evenodd" d="M180.835 47.8138C180.905 47.879 180.976 47.9442 181.047 48.0098C181.332 47.4343 181.007 47.002 180.469 46.9844C180.507 47.3075 180.629 47.584 180.835 47.8138Z" fill="#181A22"/>
<path fill-rule="evenodd" clip-rule="evenodd" d="M157.659 112.553C158.002 112.319 158.314 112.053 158.594 111.754C157.578 111.133 158.187 112.478 156.964 111.652C156.701 112.016 157.131 112.831 157.659 112.553Z" fill="#181A22"/>
<path fill-rule="evenodd" clip-rule="evenodd" d="M200.328 169.006C200.714 168.413 200.784 168.43 200.256 167.98C199.817 168.713 199.862 168.525 200.328 169.006Z" fill="#181A22"/>
<path fill-rule="evenodd" clip-rule="evenodd" d="M119.629 74.6961C119.839 74.9153 120.049 75.1346 120.26 75.3535C120.358 75.0667 120.893 74.2562 120.529 73.9863C120.229 74.2229 119.929 74.4595 119.629 74.6961Z" fill="#181A22"/>
<path fill-rule="evenodd" clip-rule="evenodd" d="M127.105 76.865C126.77 76.8089 125.967 76.5641 125.781 76.8761C126.272 77.2785 127.38 76.9111 127.105 76.865Z" fill="#181A22"/>
</svg>
