<svg width="350" height="263" viewBox="0 0 350 263" fill="none" xmlns="http://www.w3.org/2000/svg">
<path fill-rule="evenodd" clip-rule="evenodd" d="M127.188 66.9697C126.947 70.9111 126.706 74.8522 126.465 78.7937C128.016 78.3469 137.885 75.4433 137.275 78.3874C136.838 80.4989 134.063 82.7831 132.65 84.2532C131.349 85.6068 130.009 86.9249 128.635 88.2046C131.16 87.2382 133.706 86.3229 136.27 85.4665C138.211 84.8187 140.165 84.1861 142.154 83.7006C142.892 83.5201 144.884 82.7842 145.582 83.2861C147.414 84.6045 137.473 94.3159 136.111 95.6848C138.037 94.7894 140.008 93.976 142.014 93.2781C143.461 92.7741 147.934 90.8483 149.215 92.4928C150.586 94.2523 147.189 98.2929 146.247 99.5741C144.897 101.41 143.434 103.171 141.899 104.855C148.279 110.585 155.776 115.685 163.754 118.855C169.604 121.179 175.351 121.771 181.524 120.495C187.866 119.185 193.948 116.671 199.729 113.798C203.124 112.11 206.475 110.284 209.667 108.233C208.351 106.632 207.074 104.998 205.832 103.339C204.061 100.97 201.883 98.3821 200.873 95.5623C199.884 92.8025 203.593 93.3413 205.373 93.4912C207.949 93.7082 210.518 94.1689 213.043 94.7198C211.258 93.478 209.505 92.1866 207.787 90.8532C205.549 89.1157 202.563 87.1508 201.097 84.651C199.809 82.4528 202.637 83.008 203.944 83.296C207.062 83.9829 210.096 85.1533 213.07 86.2948C215.247 87.1309 217.412 88.0064 219.555 88.9285C218.225 87.772 216.939 86.5601 215.703 85.3035C214.042 83.6146 211.802 81.5521 211.057 79.2263C209.541 74.49 219.742 78.0627 221.484 78.7937C221.162 73.8872 220.841 68.9807 220.52 64.0742C207.011 67.6687 193.502 71.2635 179.994 74.8583C178.534 75.2469 176.707 76.0929 175.184 76.138C173.805 76.1792 172.14 75.5584 170.795 75.3016L146.35 70.6309C139.963 69.4105 133.575 68.1901 127.188 66.9697Z" fill="#221EC4"/>
<path fill-rule="evenodd" clip-rule="evenodd" d="M272.376 235.73C270.918 236.564 269.21 237.209 267.59 237.641C266.638 237.895 265.066 238.68 264.23 237.961C263.829 237.615 263.737 236.831 263.5 236.377C263.125 235.658 262.592 235.037 262.093 234.401C260.884 232.86 259.625 231.374 258.308 229.925C257.684 229.238 256.544 227.634 255.445 227.74C254.074 227.871 254.107 229.768 254.451 230.738C255.544 233.823 258.854 236.513 261.017 238.838C260.467 239.684 257.447 239.583 256.609 239.385C255.329 239.083 255.199 238.172 254.615 237.129C253.249 234.692 250.476 233.329 248.198 231.896C247.367 231.373 245.601 229.926 244.518 230.29C243.492 230.635 243.536 231.946 243.863 232.802C244.357 234.096 245.761 234.993 246.8 235.811C248.185 236.9 249.451 238.086 250.605 239.42C248.942 239.556 247.284 239.791 245.625 239.927C243.618 240.093 241.946 238.992 240.099 238.368C238.382 237.788 236.672 237.297 234.984 236.629C233.089 235.878 231.104 235.617 229.192 234.959C221.69 232.375 214.34 229.125 207.11 225.85C203.665 224.289 200.291 222.727 196.702 221.505C194.086 220.615 189.976 218.84 189.35 215.724C189.02 214.078 190.223 212.308 190.4 210.663C190.608 208.728 190.445 206.598 189.855 204.742C189.335 203.106 188.474 201.592 187.796 200.021C187.005 198.191 187.713 198.221 189.249 198.013C191.087 197.763 193.232 196.729 194.96 196.055C196.95 195.278 198.923 194.193 200.746 193.077C202.395 192.068 203.83 190.767 205.142 189.355C206.477 187.917 207.342 186.215 208.633 184.742C213.397 190.602 217.926 196.55 222.988 202.156C225.378 204.803 227.976 206.991 230.92 209.002C232.15 209.843 233.37 210.803 234.709 211.467C236.384 212.298 238.257 212.814 239.979 213.573C246.58 216.482 252.88 219.661 259.039 223.414C262.018 225.23 264.519 227.311 267.142 229.589C267.959 230.298 274.648 234.43 272.376 235.73ZM194.937 187.728C193.87 188.211 192.853 188.839 191.715 189.149C192.037 187.186 193.87 184.224 196.218 184.55C197.116 184.674 197.793 185.371 197.399 186.332C197.04 187.205 195.697 187.384 194.937 187.728ZM120.68 134.478C119.471 135.146 118.344 135.535 117.635 134.102C118.16 133.996 120.546 133.678 120.68 134.478ZM118.667 130.426C117.732 130.143 118.48 129.845 118.801 129.503C119.052 129.237 119.881 128.303 120.171 128.149C121.453 127.47 122.444 129.997 123.057 130.817C121.606 130.688 120.08 130.855 118.667 130.426ZM128.66 139.176C126.888 139.476 127.085 137.259 127.138 136.137C127.512 136.593 130.041 138.942 128.66 139.176ZM134.53 135.347C132.371 135.712 130.944 131.98 131.331 130.348C131.672 128.91 133.345 128.108 134.678 127.896C135.969 127.69 137.767 127.971 138.151 129.46C138.49 130.776 135.97 135.104 134.53 135.347ZM185.654 191.676C184.102 192.154 182.581 192.214 181.021 192.682C179.251 193.213 177.614 193.166 175.84 193.527C175.118 193.674 173.172 194.726 172.468 194.491C171.771 194.258 170.762 192.095 170.361 191.532C173.499 190.228 176.176 188.544 178.244 185.795C179.889 183.61 181.652 180.336 180.618 177.515C179.451 174.335 175.429 173.644 172.747 174.973C171.478 175.601 170.221 176.382 169.175 177.339C167.979 178.434 167.508 179.628 166.733 180.978C165.95 182.344 165.4 181.584 164.617 180.425C163.948 179.434 164.035 178.433 163.199 177.455C162.773 176.957 162.112 176.475 161.889 175.831C161.748 175.423 162.046 174.698 161.778 174.376C161.401 173.925 160.944 174.456 160.628 174.052C160.399 173.759 160.474 173.091 160.237 172.724C160.032 172.516 159.804 172.338 159.552 172.19C159.245 172.039 159.19 171.85 159.384 171.622C159.14 171.171 159.375 171.019 158.854 170.471C158.041 169.616 157.3 168.797 156.721 167.789C156.457 167.327 156.483 166.642 156.154 166.242C155.704 165.694 154.953 165.776 154.565 165.097C154.22 164.492 154.451 163.433 153.881 162.884C153.581 162.798 153.281 162.714 152.98 162.631C152.754 162.411 152.623 162.145 152.585 161.831C152.269 161.344 152.206 160.772 151.807 160.258C151.042 159.274 150.015 158.365 149.34 157.328C148.63 156.238 149.006 156.054 150.239 155.664C151.35 155.312 152.366 154.985 153.396 154.386C158.16 151.613 162.676 144.26 155.115 142.013C152.309 141.179 150.004 138.937 146.892 139.819C145.544 140.201 144.264 141.014 143.258 141.979C142.563 142.647 141.919 144.431 141.065 144.773C139.531 145.388 140.179 143.852 139.744 143.147C139.536 142.81 138.699 142.422 138.388 142.116C138.024 141.757 137.672 141.303 137.42 140.859C136.95 140.034 136.663 139.574 135.986 138.903C135.731 138.649 134.457 137.339 135.606 137.51C135.141 136.092 135.82 135.879 136.758 134.843C137.86 133.626 138.998 131.936 139.005 130.231C139.017 126.959 135.139 125.492 132.704 127.435C132.208 127.83 129.277 131.646 129.877 129.213C130.2 127.9 133.194 124.474 134.582 125.361C133.027 123.093 129.453 128.598 128.619 129.725C127.909 128.417 127.859 127.394 126.684 126.382C125.727 127.916 126.232 126.239 126.021 125.898C125.566 125.162 125.816 126.004 125.569 125.743C125.261 125.417 124.777 125.16 124.449 124.729C123.889 125.49 124.113 124.671 123.941 124.387C123.539 123.722 123.694 123.337 123.006 122.759C122.505 122.339 121.518 121.687 120.843 121.627C120.066 121.558 119.85 121.856 119.058 121.636C118.05 121.355 116.782 120.925 117.27 122.611C117.624 123.836 119.064 124.532 119.38 125.784C119.697 127.043 118.452 128.313 117.847 129.346C117.071 130.672 116.436 130.563 115.03 130.862C114.131 131.053 112.932 131.461 113.703 132.552C114.253 133.331 115.543 133.166 116.269 133.628C117.288 134.275 117.274 135.87 118.574 136.147C120.006 136.452 120.827 134.858 122.034 134.473C122.893 134.199 125.553 134.23 126.229 134.874C127.15 135.753 126.354 137.431 126.586 138.522C126.93 140.14 128.025 140.239 129.41 140.291C131.114 140.355 131.713 141.991 132.63 143.29C134.778 146.331 136.644 149.572 138.843 152.572C139.817 153.901 141.241 155.083 142.038 156.524C143.023 158.305 141.656 159.332 140.476 160.61C138.935 162.28 137.785 164.18 136.448 166.006C135.26 167.628 133.784 167.224 131.886 167.224C132.309 166.352 132.818 165.808 133.859 165.914C132.77 164.585 131.9 166.105 131.194 166.947C130.173 168.165 128.842 168.458 127.53 169.259C127.066 169.542 124.538 171.378 125.306 172.005C125.393 172.076 129.578 169.324 130.054 169.071C130.054 170.087 129.832 171.143 129.974 172.154C130.079 172.895 130.6 173.667 130.489 174.438C130.278 175.892 128.399 177.038 127.592 178.171C126.985 179.024 127.131 179.696 126.822 180.612C126.541 181.447 126.689 181.194 125.986 181.452C124.556 181.977 122.149 181.694 120.854 180.947C120.05 180.483 119.433 179.751 118.78 179.105C118.288 178.618 117.051 177.786 116.914 177.105C116.68 175.932 119.008 173.753 119.469 172.543C120.771 169.128 118.539 166.474 115.066 166.28C116.136 165.455 117.463 166.077 118.591 166.392C116.662 163.719 113.368 165.918 111.732 167.735C110.614 164.909 110.075 161.928 109.392 158.98C108.927 156.974 107.156 153.392 107.946 151.326C108.327 150.327 109.405 149.77 110.151 149.077C110.998 148.29 111.724 147.349 112.343 146.375C113.802 144.08 114.645 141.183 112.636 138.921C113.246 138.821 113.857 138.721 114.468 138.62C113.474 137.687 111.908 138.142 110.619 137.865C109.801 137.69 107.449 137.803 106.903 137.34C106.246 136.784 106.667 134.224 106.691 133.466C106.744 131.696 106.892 129.993 107.088 128.233C107.273 126.57 107.236 124.774 107.58 123.141C107.859 121.815 108.75 121.411 109.778 120.63C112.237 118.762 114.24 116.49 113.4 113.271C113.698 113.224 113.995 113.177 114.293 113.13C113.331 112.434 112.086 112.687 111.016 112.319C111.999 109.554 114.172 104.693 117.699 104.431C117.821 105.668 117.738 107.138 118.572 108.161C119.521 109.326 121.188 109.443 122.474 108.827C123.641 108.267 124.737 107.081 125.275 105.909C125.639 105.116 125.573 103.775 126.212 103.146C127.069 102.303 132.975 102.812 132.794 104.235C132.688 105.072 131.108 106.478 130.667 107.22C129.859 108.577 129.212 110.045 128.916 111.604C128.465 113.971 128.726 117.096 131.13 118.341C133.864 119.757 137.196 117.957 139.438 116.402C140.669 115.548 141.862 114.605 142.986 113.616C143.586 113.089 144.188 112.547 144.716 111.948C145.105 111.506 145.417 110.793 145.897 110.462C147.03 109.68 148.142 111.007 149.101 111.677C150.664 112.769 152.219 113.806 153.896 114.714C157.3 116.558 160.412 119 163.421 121.425C166.448 123.865 169.57 126.374 172.022 129.413C170.536 130.327 170.802 130.564 170.141 132.194C169.672 133.35 169.026 134.335 168.951 135.62C168.822 137.837 170.246 139.727 172.407 140.218C173.615 140.493 174.767 140.273 175.886 139.779C176.756 139.395 177.623 138.45 178.532 138.215C180.222 137.779 181.574 140.971 182.522 142.096C186.729 147.09 191.175 151.887 195.137 157.085C195.575 157.66 196.879 158.785 196.984 159.547C197.137 160.642 195.415 161.685 194.7 162.312C194.325 162.642 190.348 166.383 191.684 166.978C192.064 167.147 193.179 164.852 193.457 164.655C194.5 163.92 193.711 165.361 193.649 166.089C193.494 167.899 194.737 168.886 196.485 168.656C198.35 168.412 200.01 166.939 201.164 165.549C202.611 167.224 204.871 169.756 205.289 171.994C205.557 173.423 204.32 176.922 206.629 177.214C206.981 177.258 208.257 176.312 208.495 176.849C208.693 177.298 207.314 178.064 207.115 178.213C206.266 178.847 205.752 179.527 205.066 180.295C204.261 181.197 203.16 181.956 202.254 182.821C201.299 183.731 199.411 186.204 198.152 185.009C197.518 184.409 197.685 183.624 196.671 183.271C195.747 182.951 194.578 183.357 193.719 183.713C192.753 184.114 189.571 185.575 189.218 186.779C188.731 188.438 191.361 186.443 191.829 186.151C191.296 187.505 191.001 189.465 189.643 190.254C188.515 190.91 186.892 191.296 185.654 191.676ZM167.618 181.439C168.521 178.536 173.846 173.361 177.212 174.98C173.289 175.802 170.177 178.486 167.618 181.439ZM169.609 189.75C168.297 189.019 168.367 186.894 167.909 185.651C167.646 184.938 167.12 184.417 167.275 183.625C167.456 182.697 168.639 181.666 169.269 180.997C171.252 178.89 174.741 176.012 177.932 176.495C181.994 177.11 179.24 182.563 177.857 184.44C176.678 186.041 172.136 191.158 169.609 189.75ZM160.134 186.2C155.742 185.907 151.364 185.514 147.031 184.708C145.495 184.422 144.208 184.465 145.087 182.698C145.378 182.116 147.127 178.462 147.522 178.567C147.757 178.629 147.703 181.14 147.772 181.428C148.082 182.72 148.953 183.925 150.421 183.843C152.824 183.709 154.372 180.603 155.637 178.935C156.651 180.298 157.384 181.812 158.403 183.151C158.89 183.792 160.585 185.281 160.134 186.2ZM134.382 168.958C133.645 170.649 132.163 172.258 131.132 173.79C130.55 172.556 130.14 169.724 131.522 168.812C132.045 168.467 134.848 167.889 134.382 168.958ZM149.616 173.994C149.819 173.343 150.044 172.697 150.294 172.063C150.724 173.416 150.944 173.456 149.616 173.994ZM153.376 175.379C153.909 176.283 154.798 177.172 154.659 178.306C154.553 179.166 153.776 180.048 153.221 180.647C152.302 181.638 150.267 183.541 148.936 182.225C147.824 181.125 148.211 178.101 148.728 176.864C149.467 175.096 152.105 173.226 153.376 175.379ZM150.768 173.527C151.073 173.406 150.431 171.433 151.027 171.237C151.547 172.422 152.037 172.743 150.768 173.527ZM142.375 146.982C142.177 146.255 141.723 146.285 141.886 145.385C141.993 144.795 142.462 144.166 142.817 143.698C143.525 142.766 144.458 141.999 145.468 141.417C147.6 140.19 150.527 139.68 152.435 141.601C150.651 141.883 145.182 143.644 145.147 146.085C147.131 145.703 148.691 143.71 150.681 143.081C152.314 142.566 154.086 142.602 155.711 143.147C160.159 144.636 158.309 148.481 155.799 150.978C154.308 152.46 152.521 153.567 150.568 154.331C149.664 154.684 149.109 154.723 148.22 154.546C148.054 154.512 147.859 154.204 147.66 154.137C147.164 153.973 147.308 154.53 146.899 154.28C146.543 154.062 145.783 152.655 145.54 152.252C145.155 151.612 144.975 150.988 144.501 150.403C144.027 149.818 143.796 149.033 143.358 148.504C143.147 148.249 142.57 148.259 142.415 148.01C142.183 147.637 142.479 147.365 142.375 146.982ZM135.544 175.653C136.555 173.896 138.284 172.405 139.622 170.87C139.705 173.393 137.895 175.121 135.544 175.653ZM136.91 176.464C138.998 175.729 140.148 173.972 140.361 171.841C140.631 169.142 142.326 167.725 143.346 165.3C143.737 164.371 144.193 161.313 145.71 162.188C146.23 162.489 146.538 163.618 146.81 164.128C147.466 165.362 148.211 166.558 148.907 167.77C149.473 168.756 150.322 169.748 150.072 170.936C149.855 171.971 149.153 173.075 148.743 174.051C147.773 176.357 146.499 178.482 145.435 180.737C145.005 181.647 144.497 183.801 143.186 183.79C142.148 183.781 142.264 182.647 141.581 182.258C140.719 181.767 139.738 182.701 139.029 183.088C139.845 181.711 141.271 180.931 142.875 181.19C140.955 179.279 139.658 181.858 138.01 182.432C136.45 182.977 133.68 180.41 132.366 179.682C132.869 178.831 133.323 177.789 134.188 177.229C135.008 176.697 136.014 176.779 136.91 176.464ZM119.937 193.934C120.165 192.833 120.811 192.183 121.221 191.183C121.696 192.395 120.584 193.11 119.937 193.934ZM153.106 200.689C152.993 204.396 152.691 208.092 152.581 211.8C152.531 213.51 152.228 215.141 152.027 216.831C151.857 218.261 151.944 219.665 151.044 220.886C149.626 222.811 146.868 223.364 144.727 224.078C143.154 224.601 141.564 225.076 140.011 225.658C138.614 226.182 137.488 226.975 136.16 227.597C134.971 228.154 133.688 228.484 132.505 229.077C131.282 229.691 130.315 230.439 129.058 230.985C127.553 231.639 126.314 232.803 124.976 233.726C123.798 234.539 122.552 235.167 121.538 236.19C120.588 237.149 119.385 237.569 118.309 238.422C117.17 239.323 115.978 239.908 114.72 240.615C112.144 242.063 108.667 244.536 105.566 243.129C106.453 241.997 108.268 240.908 108.406 239.347C108.586 237.314 106.816 238.063 105.792 238.712C104.239 239.695 103.381 240.882 102.199 242.193C100.818 243.725 99.0733 242.694 97.3831 242.263C98.5387 241.223 99.6851 240.173 100.839 239.131C101.813 238.251 103.302 237.3 103.896 236.084C104.319 235.214 104.299 234.022 103.276 233.57C102.132 233.066 100.838 234.13 99.99 234.764C97.7402 236.447 96.2584 238.582 94.7812 240.925C93.9954 242.17 93.6334 242.075 92.1878 241.826C90.656 241.562 89.1238 241.281 87.5792 241.096C89.6253 238.994 91.912 236.718 93.528 234.259C94.0515 233.462 94.7344 231.363 93.1393 231.169C92.482 231.09 91.1734 232.434 90.6663 232.796C88.4505 234.38 86.3203 236.378 84.8516 238.69C84.3668 239.453 84.2145 240.302 83.2758 240.366C82.0484 240.449 79.7677 239.277 78.5837 238.915C80.8467 236.063 83.0937 233.19 85.7375 230.674C88.1666 228.362 90.5896 226.683 93.4304 224.91C96.4752 223.009 99.3114 220.822 102.107 218.577C104.782 216.427 107.578 214.4 110.041 212C114.961 207.207 119.343 201.694 122.972 195.865C123.821 194.501 124.62 193.102 125.311 191.65C125.96 190.287 126.259 188.657 127.135 187.418C127.438 186.989 127.864 186.671 128.134 186.224C128.389 185.803 128.302 185.295 128.69 184.922C129.588 184.061 131.221 184.58 132.06 185.184C133.409 186.155 134.5 187.333 135.982 188.146C137.473 188.963 139.086 189.557 140.736 189.959C144.595 190.897 148.42 191.667 152.35 192.237C151.946 193.737 152.939 193.973 153.268 195.323C153.668 196.961 153.156 199.021 153.106 200.689ZM115.954 175.675C115.079 174.375 114.299 173.016 113.439 171.708C112.915 170.911 112.266 170.056 112.714 169.081C113.468 167.439 116.127 167.146 117.57 167.862C120.851 169.491 117.803 174.146 115.954 175.675ZM107.27 145.95C106.968 143.409 107.94 141.607 110.238 140.275C111.876 139.326 113.194 140.623 112.971 142.354C112.63 144.99 109.813 147.923 107.663 149.299C107.522 148.184 107.403 147.066 107.27 145.95ZM106.92 138.681C107.598 138.143 109.413 138.83 110.199 138.877C109.119 139.82 108.038 140.764 106.958 141.708C106.887 141.06 106.294 139.178 106.92 138.681ZM110.565 114.148C116.031 113.437 109.739 119.303 108.155 120.223C108.412 118.974 109.045 114.346 110.565 114.148ZM125.117 103.878C124.383 106.884 118.677 110.164 118.617 105.24C118.595 103.405 119.626 103.553 121.13 103.377C121.988 103.277 125.536 102.159 125.117 103.878ZM105.408 108.534C104.767 110.215 104.253 111.94 103.625 113.623C103.347 114.369 103.02 114.881 102.502 115.471C102.068 115.965 101.552 116.09 101.569 116.87C102.112 116.765 102.538 116.441 102.977 116.129C102.87 117.676 102.323 119.342 102.058 120.884C101.741 122.733 101.477 124.584 101.379 126.459C101.167 130.537 101.165 134.601 101.254 138.681C101.3 140.761 101.321 142.841 101.433 144.918C101.489 145.951 101.552 146.989 101.68 148.016C101.732 148.43 102.033 149.313 101.847 149.701C101.117 151.227 97.8825 147.037 96.4781 147.652C96.68 146.491 96.214 146.745 95.4357 146.174C95.0588 145.898 94.8135 145.427 94.4203 145.18C94.3014 145.052 94.1704 144.938 94.0277 144.838C93.8652 144.616 93.6937 144.64 93.5134 144.909C91.9312 143.963 91.5223 141.947 90.673 140.591C90.2361 139.894 89.8141 139.785 89.7396 138.821C89.675 137.981 89.8013 137.125 89.7673 136.281C89.7286 135.33 89.6728 134.28 89.4059 133.359C89.0961 132.289 88.6698 132.376 87.8397 131.806C88.0956 131.694 88.2642 131.507 88.3458 131.243C88.0807 131.29 87.275 131.618 87.0748 131.382C86.6812 130.918 87.61 130.857 87.8542 130.672C86.8125 130.209 87.0368 129.829 87.4127 128.981C87.5192 128.742 87.6207 128.383 87.7112 128.181C87.9089 127.739 88.0225 128.019 88.0878 127.47C88.1499 126.947 87.686 125.918 87.5494 125.361C87.3201 124.426 87.1934 123.618 87.3992 122.643C87.566 121.854 88.0147 121.14 88.0459 120.329C88.0548 120.101 87.7076 120.025 87.703 119.806C87.6963 119.484 87.9962 119.343 88.0743 119.046C88.2734 118.286 88.1836 117.482 88.5243 116.76C88.831 116.113 89.4503 115.274 89.8886 114.709C90.1924 114.317 90.9378 113.875 91.0194 113.358C91.0734 113.016 90.5399 113.055 90.5637 112.797C90.596 112.447 90.8892 112.334 90.9697 112.074C91.1915 111.361 91.2473 110.676 91.8205 110.13C92.5424 109.442 92.8561 109.73 92.8859 108.596C92.9005 108.043 92.4579 107.957 92.695 107.32C92.8238 106.973 93.2039 106.769 93.4471 106.523C94.169 105.795 94.6556 105.148 95.1695 104.248C95.6241 103.454 96.3492 102.991 96.8149 102.304C97.4215 101.41 96.5146 100.966 97.7455 100.714C97.5705 100.158 97.3845 99.709 97.8449 99.2387C98.1352 98.9421 98.872 99.1236 99.129 98.7805C99.4236 98.3866 98.9881 97.4531 99.4321 97.1974C99.793 96.99 100.334 97.63 100.901 97.3132C101.333 97.0717 101.986 95.7379 101.847 95.2477C102.964 95.8764 102.686 95.4434 103.22 94.6368C103.34 94.456 103.704 94.4158 103.807 94.2333C104.014 93.8685 103.967 93.4966 104.264 93.2C104.76 92.7062 105.571 92.833 106.116 92.4803C106.567 92.1891 106.543 91.8751 106.903 91.6001C107.21 91.3654 107.715 91.3202 108.014 91.0769C108.599 90.6003 108.605 90.0969 109.337 89.6863C110.204 89.2004 110.972 88.787 111.761 88.1426C112.275 87.7228 112.763 86.9783 113.364 86.7012C114.196 86.318 114.844 86.291 115.658 85.7443C116.246 85.349 116.803 84.6968 117.38 84.3636C117.816 84.1129 118.121 84.1669 118.67 84.0113C119.658 83.731 119.899 82.8 120.705 82.4211C121.258 82.1607 122.064 82.399 122.672 82.2623C124.563 81.8378 126.43 80.9221 128.328 80.4149C130.644 79.7961 132.977 79.2541 135.311 78.7071C133.166 81.614 130.434 84.2368 127.663 86.5456C126.754 87.3036 121.771 90.7587 124.457 92.2342C125.535 92.8263 127.878 90.9135 128.748 90.4461C130.501 89.5045 132.317 88.7507 134.153 87.9892C137.122 86.7577 140.988 84.5675 144.288 84.7437C142.279 87.2077 139.772 89.1859 137.475 91.3625C135.364 93.363 132.183 95.2392 133.179 98.5134C130.213 97.759 127.55 96.8674 124.467 97.0649C123.086 97.1534 121.704 96.9871 120.33 97.1807C118.835 97.392 117.427 97.8922 115.991 98.3312C114.854 98.6782 113.599 98.7056 112.553 99.2828C112.048 99.562 111.423 99.9605 110.969 100.307C110.364 100.769 110.226 101.074 109.751 101.683C108.056 103.854 106.415 105.889 105.408 108.534ZM96.1335 149.624C96.0408 149.249 95.9567 148.906 95.8506 148.477C96.7943 149.058 96.7943 149.058 96.1335 149.624ZM89.0013 137.657C88.8849 137.818 88.3962 137.869 88.2542 137.73C88.0775 137.558 88.5421 136.886 88.6166 136.743C88.8008 136.884 89.2246 137.347 89.0013 137.657ZM86.9808 133.301C87.1057 132.842 87.231 132.384 87.3559 131.925C87.5092 132.35 88.201 132.82 88.2162 133.226C88.2258 133.494 87.1174 133.361 86.9808 133.301ZM87.3818 133.931C88.4647 134.644 88.5779 135.485 88.6102 136.715C87.3144 136.286 87.5004 135.032 87.3818 133.931ZM106.213 85.3753C106.104 85.6711 105.64 86.5929 105.3 85.9482C105.191 85.7418 105.987 85.4601 106.213 85.3753ZM105.902 84.3704C106.17 84.1292 106.709 84.4294 107.012 84.2343C107.224 84.0976 107.154 83.9591 107.254 83.8781C107.274 83.8617 107.562 83.2778 107.68 83.1453C107.889 82.9123 108.344 82.767 108.598 82.5567C109.307 81.9689 109.708 81.196 110.154 80.4099C110.686 79.4711 110.856 79.3624 111.714 78.9326C112.306 78.6364 112.765 78.2737 113.247 77.7701C113.802 77.19 113.761 76.7748 114.217 76.1407C114.442 75.8278 114.766 75.7891 115.028 75.5369C115.343 75.235 115.503 74.8127 115.793 74.5079C115.919 74.3761 116.322 74.3765 116.398 74.2635C116.495 74.1207 116.57 73.5496 116.661 73.4444C116.835 73.6789 117.009 73.9133 117.182 74.1477C117.866 72.9443 118.366 71.9501 119.51 71.1491C120.712 70.308 121.749 69.0776 122.991 68.3246C123.27 68.1555 123.839 68.0841 124.053 67.8347C124.413 67.4128 124.101 67.0373 124.364 66.6789C124.662 66.2726 125.24 66.6015 125.62 66.4264C126.1 66.2047 126.237 65.5572 126.856 65.6286C124.823 68.0336 124.848 71.7757 124.74 74.7796C124.694 76.074 125.509 76.7265 124.305 77.6763C123.282 78.4844 121.838 78.2446 120.628 78.7763C119.108 79.4441 117.483 79.7993 115.932 80.3815C114.328 80.9832 113.038 82.0371 111.495 82.7343C110.134 83.3488 109.204 84.2226 107.959 84.9813C107.496 85.2634 106.779 85.6729 106.227 85.3358C105.882 85.1245 105.451 84.7775 105.902 84.3704ZM128.862 64.2046C128.951 63.8629 130.686 62.9649 131.113 62.6719C131.754 62.2314 132.702 61.1559 133.417 61.5832C133.665 60.5908 134.632 59.4865 135.486 59.2762C136.434 59.0425 138.059 58.2298 138.992 57.5204C139.264 57.3133 139.354 57.0103 139.674 56.8161C140.232 56.4776 140.786 56.6623 141.323 56.2008C141.406 56.1305 142.149 54.9026 142.179 54.9143C142.217 55.0461 142.251 55.1793 142.282 55.3132C142.846 55.0003 143.348 54.7513 143.7 54.352C143.78 54.2615 143.263 54.026 143.426 53.8466C143.626 53.6271 144.072 53.8725 144.274 53.664C143.646 56.7827 144.114 60.7968 147.277 62.3778C143.515 62.7845 139.84 61.6532 136.031 62.348C134.208 62.6808 132.354 63.2267 130.696 64.0653C129.68 64.5793 128.38 66.42 127.369 65.5263C127.77 64.991 128.383 64.6585 128.862 64.2046ZM147.119 55.2326C148.526 53.5116 150.66 52.8307 152.809 53.447C155.326 54.1687 154.264 55.927 153.884 57.8792C153.158 56.8146 151.585 55.7586 150.246 55.7267C148.347 55.6815 149.064 57.2636 150.205 57.8305C151.242 58.3456 153.019 58.4891 153.761 59.4257C154.484 60.3372 154.207 61.8276 154.323 62.9024C153.762 62.8189 153.2 62.7355 152.639 62.652C153.11 60.1436 151.036 60.0221 149.102 59.3149C147.147 58.6006 145.518 57.1912 147.119 55.2326ZM153.421 49.0556V51.3836C152.639 50.9375 151.856 50.4917 151.074 50.0456C151.856 49.7156 152.639 49.3856 153.421 49.0556ZM159.71 67.6571C162.323 68.3651 164.917 69.1142 167.429 70.091C168.341 70.4458 169.34 70.5712 170.234 70.9719C171.085 71.353 171.213 71.3132 170.91 72.0591C170.062 74.1488 168.053 73.7879 166.293 73.4682C163.538 72.9677 160.84 72.274 158.12 71.6212C155.461 70.9836 152.746 70.5655 150.127 69.7663C147.439 68.9465 144.82 68.17 142.056 67.6287C141.249 67.4707 134.867 66.8853 134.916 66.2182C138.935 65.6961 143.073 66.2104 147.11 66.2647C151.306 66.3212 155.641 66.5539 159.71 67.6571ZM156.164 59.5738C156.214 58.1371 156.234 56.6956 156.412 55.2674C157.608 56.7432 158.687 57.1851 160.195 55.8016C161.638 54.4774 161.96 53.7869 163.789 55.0319C165.376 56.1117 166.876 56.062 168.561 55.1168C169.588 54.5403 171.239 52.1846 172.319 52.6694C172.834 52.9007 173.211 53.8324 173.731 54.1751C174.383 54.6046 175.385 54.9026 176.145 55.0692C177.94 55.4624 179.009 54.308 180.136 53.0733C181.77 51.2827 181.722 52.3228 183.237 53.5642C184.926 54.9491 186.339 54.2725 187.868 53.0907C188.8 55.8211 189.149 58.8031 189.412 61.6656C189.501 62.6321 189.833 64.0046 188.965 64.688C188.353 65.17 187.054 65.1888 186.317 65.4552C183.683 66.4075 181.153 67.7584 178.95 69.4878C178.092 70.1617 177.344 70.9868 176.171 70.8333C175.053 70.687 173.967 69.7514 173.068 69.1337C172.093 68.4638 171.106 67.703 169.966 67.3296C169.298 67.1108 168.229 67.19 167.645 66.789C166.559 66.0435 167.837 64.0877 167.566 62.7749C167.362 61.7782 166.788 59.6999 165.415 60.2842C163.372 61.1534 164.561 64.5466 165.685 65.6059C163.387 65.1977 160.842 64.6017 158.626 63.8444C156.914 63.2594 156.103 61.3264 156.164 59.5738ZM194.707 66.572C199.425 65.2475 203.839 64.3541 208.749 64.1129C210.922 64.006 213.026 64.0735 215.175 64.0931C216.412 64.1044 217.355 63.1067 216.367 61.959C214.999 60.3698 210.826 60.9747 208.977 60.9033C204.022 60.7119 199.478 61.2752 194.785 62.9088C195.281 61.9945 196.474 61.8759 197.291 61.4031C198.293 60.8227 198.975 59.8669 199.403 58.8059C200.517 56.0467 199.396 53.4466 198.23 50.9261C200.52 51.542 202.888 52.8907 205.19 53.2331C205.672 53.3049 205.982 53.2587 206.409 53.4345C206.671 53.5422 206.754 53.9148 207.078 53.9961C207.235 54.0355 207.612 53.6811 207.79 53.7311C208.49 53.9293 207.936 53.9819 208.379 54.2689C208.731 54.4966 208.703 54.7896 209.348 54.682C209.634 54.6348 209.944 54.1922 210.095 54.1801C210.287 54.1645 210.243 53.9308 210.537 53.999C211.071 54.1233 211.024 54.812 211.202 55.1509C211.392 55.5118 211.122 55.9916 211.699 56.1891C212.13 56.3369 212.238 55.8815 212.605 55.9142C212.828 55.9341 213.29 56.2548 213.486 56.4502C214.12 57.0796 214.987 57.7747 215.839 58.1843C215.755 58.1001 216.241 57.8973 216.124 57.8497C216.046 57.8181 216.556 57.941 216.548 57.9392C217.04 58.0511 217.3 58.8062 217.548 59.0815C218.006 59.5863 218.716 60.1191 219.356 60.3418C220.464 60.7272 220.43 60.2665 220.835 61.5828C221.622 60.3446 221.924 62.4183 222.901 62.6467C223.407 62.765 223.348 62.5483 223.807 62.8129C224.123 62.9944 224.333 63.5503 224.571 63.8185C224.673 63.4317 224.775 63.0445 224.877 62.658C225.581 63.9908 227.099 66.1042 228.764 65.722C228.764 66.0857 228.614 66.5205 228.896 66.8309C229.093 67.048 229.411 66.8015 229.565 66.9276C229.699 67.0377 230.02 67.476 230.123 67.5481C230.326 67.6902 230.694 67.7939 230.87 67.9356C231.025 68.0603 231.102 68.656 231.274 68.8712C231.597 69.2758 232.156 69.3561 232.421 69.8413C232.481 69.3628 232.541 68.884 232.601 68.4055C233.126 68.8108 233.171 69.1255 233.3 69.7184C233.483 70.5627 233.24 70.3648 233.822 70.7211C234.394 71.0717 234.693 71.0323 235.217 71.6404C235.732 72.2364 235.736 72.6037 236.478 71.9828C236.617 72.442 236.661 73.0363 237.029 73.3883C237.308 73.6543 238.46 73.6657 238.57 74.2941C236.405 72.4673 237.83 75.2417 238.571 74.2987C238.728 75.3082 239.466 75.6342 240.31 76.3532C241.097 77.0231 241.226 76.9744 241.495 78.1C241.488 78.0752 241.89 78.3242 241.919 78.3739C241.152 78.4833 242.341 79.34 242.542 79.4967C242.688 79.6111 242.879 79.3379 243.123 79.523C243.401 79.7347 243.628 80.216 243.855 80.5062C244.469 81.2929 244.924 81.9689 245.571 82.6086C246.269 83.2991 246.608 84.1718 247.278 84.9789C248.021 85.875 248.423 86.9055 249.045 87.8783C249.636 88.8036 250.42 89.5464 251.105 90.3935C252.195 91.7419 252.566 94.7113 254.6 94.7895C254.48 94.9128 254.646 95.8331 254.666 96.0029C254.762 96.8386 254.698 97.6428 255.192 98.3997C255.306 97.5363 255.757 97.8691 256.15 98.3227C256.803 99.0775 256.229 98.8874 256.264 99.6522C256.306 100.579 256.411 99.8621 256.764 100.672C257.041 101.306 257.192 101.717 257.341 102.421C256.192 102.512 255.666 101.573 255.242 100.664C255.064 100.283 255.003 99.6582 254.689 99.3609C254.354 99.0444 253.895 99.0196 253.551 98.6665C252.892 97.9881 252.606 96.9303 251.829 96.27C250.951 95.524 250.757 95.1717 250.031 94.2798C249.228 93.2934 248.119 92.6007 247.277 91.6467C246.433 90.6908 246.502 91.2126 245.442 90.8667C244.315 90.4983 242.493 86.9552 241.073 88.3199C241.129 87.4272 239.792 86.5876 239.117 86.264C238.824 86.1244 238.484 86.2508 238.192 86.0413C237.875 85.8139 237.852 85.3756 237.533 85.1028C237.533 85.1032 237.042 85.2218 236.943 85.1717C236.74 85.0691 236.739 84.7061 236.56 84.5867C236.065 84.256 235.475 83.9093 234.95 83.6277C233.674 82.9432 232.546 82.1003 231.315 81.2762C230.26 80.5701 228.983 79.2949 227.763 78.9227C226.698 78.5977 226.029 78.7632 225.156 78.1121C224.681 77.7576 224.821 77.6386 224.058 77.4181C223.331 77.2081 222.923 77.3161 222.538 76.5453C221.864 75.1966 222.289 72.5642 222.159 71.0518C222.02 69.4466 221.856 67.8017 221.438 66.241C220.943 64.3964 220.289 63.432 218.31 63.8664C214.39 64.7281 210.517 65.548 206.579 66.3045C198.731 67.812 191.018 70.2721 183.343 72.4562C182.758 72.6228 179.497 73.3695 180.163 71.683C180.47 70.9051 182.534 70.6152 183.226 70.3709C187.019 69.0282 190.83 67.6603 194.707 66.572ZM193.389 63.1393C192.815 63.3578 192.243 63.5762 191.669 63.795V62.2013C192.243 62.5138 192.815 62.8264 193.389 63.1393ZM191.007 54.7122C191.505 55.1193 192.517 54.1396 192.941 53.9411C193.664 53.6022 194.585 53.3113 195.393 53.3809C196.884 53.5098 197.974 54.9772 197.701 56.4648C197.238 58.9817 193.652 60.172 191.675 61.1559C191.612 60.264 191.323 59.1916 191.948 58.4201C192.491 57.7502 193.544 57.7989 194.046 57.0864C195.307 55.2954 191.889 55.1331 191.125 56.5571C190.824 55.6471 190.523 54.7371 190.221 53.827C190.949 53.7066 190.629 54.4039 191.007 54.7122ZM194.534 49.7856C193.822 50.2456 193.111 50.7055 192.399 51.1655C192.047 49.5732 193.249 49.3636 194.534 49.7856ZM259.369 105.208C258.437 105.653 258.204 104.591 257.534 104.545C258.326 104.058 258.326 104.058 259.369 105.208ZM263.158 128.397C263.275 129.923 263.184 131.468 263.387 132.988C263.542 134.144 264.01 135.221 264.06 136.39C264.17 138.952 263.305 141.561 261.558 143.438C259.905 145.215 257.541 146.744 255.31 147.491C254.305 147.827 253.256 148.572 252.279 148.848C251.199 149.153 250.173 148.489 249.283 149.68C248.688 144.573 249.122 139.236 249.076 134.097C249.029 128.946 249.084 123.794 248.213 118.699C247.437 114.161 245.907 109.058 243.088 105.345C241.942 103.838 240.532 102.603 239.045 101.447C238.274 100.848 237.502 100.207 236.642 99.7332C235.32 99.0043 234.193 99.1052 232.755 98.8974C230.696 98.6001 228.782 98.349 226.716 98.9286C224.792 99.4686 222.673 100.083 220.95 101.021C219.234 101.956 217.241 102.341 215.459 103.178C214.247 103.747 211.729 105.649 210.384 105.307C209.083 104.975 207.156 102.766 206.324 101.776C205.262 100.511 204.383 99.0452 203.441 97.6844C203.11 97.2066 202.436 96.4682 202.35 95.8547C202.2 94.7898 202.627 95.1379 203.644 95.2569C206.26 95.5638 208.72 96.049 211.227 96.8724C212.474 97.2819 214.913 98.9393 216.161 97.9462C218.066 96.4298 215.172 93.8237 214.111 92.9481C212.305 91.4563 210.205 90.3484 208.28 89.0228C206.234 87.6141 203.529 86.1144 202.213 83.9452C206.057 85.0801 209.897 86.3798 213.629 87.8428C215.337 88.512 217.025 89.2192 218.628 90.1094C219.529 90.6091 221.349 91.961 222.434 91.3135C224.792 89.9058 219.376 85.8178 218.594 84.9824C217.38 83.6841 216.19 82.3983 214.856 81.2205C213.956 80.4259 212.541 79.8672 212.123 78.695C213.617 79.236 214.825 80.2955 216.225 81.0155C216.957 81.3927 217.625 81.6098 218.435 81.7252C219.297 81.8488 219.4 81.9863 220.08 82.3291C220.609 82.5965 221.153 82.9539 221.747 83.1357C222.17 83.2654 222.91 83.2877 223.28 83.5279C223.469 83.7978 223.664 84.0631 223.866 84.3239C224.092 84.3903 224.314 84.4667 224.533 84.5537C224.862 84.8464 225.056 85.2499 225.375 85.5518C227.693 87.7434 230.793 89.3119 233.391 91.148C235.85 92.8849 238.458 94.4563 240.819 96.352C243.536 98.534 246.356 100.879 248.667 103.495C249.973 104.974 251.046 106.651 252.144 108.286C252.938 109.47 254.093 110.452 254.78 111.673C256.277 114.334 257.519 117.211 259.13 119.83C260.773 122.498 262.912 125.149 263.158 128.397ZM241.073 143.84C241.521 141.993 244.047 139.836 245.661 139.022C244.847 141.034 242.68 142.407 241.073 143.84ZM245.238 150.283C243.861 153.14 237.808 153.467 238.629 149.239C239.031 147.168 240.74 145.897 242.206 144.542C242.884 143.916 244.544 141.675 245.593 142.036C245.544 143.647 245.449 145.265 245.453 146.876C245.455 147.951 245.726 149.272 245.238 150.283ZM243.488 117.36C244.047 118.614 244.604 119.659 243.567 120.781C243.1 121.288 241.576 122.396 240.887 122.15C238.674 121.361 242.893 117.924 243.488 117.36ZM230.104 106.197C230.637 106.168 231.155 106.247 231.681 106.215C232.206 106.182 232.261 106.089 232.747 106.156C232.799 106.23 232.85 106.305 232.902 106.379C232.968 106.88 233.231 106.934 233.69 106.543C234.328 106.685 234.744 106.78 235.354 107.125C233.706 108.313 231.701 109.694 229.681 110.093C226.488 110.723 227.37 106.348 230.104 106.197ZM181.155 132.916C180.824 133.582 179.872 131.918 179.636 131.608C180.076 131.606 181.49 132.244 181.155 132.916ZM206.81 115.384C209.291 113.936 212.237 112.665 214.902 111.587C215.37 113.845 213.085 116.759 211.678 118.303C210.54 119.552 209.168 120.848 207.625 121.567C205.957 122.344 204.134 122.002 204.215 119.822C204.245 119.024 204.426 117.742 204.75 117.014C205.169 116.075 205.96 115.88 206.81 115.384ZM173.276 74.3239C173.646 74.3022 177.656 73.7836 177.635 74.2827C177.572 75.7827 173.679 74.6049 173.276 74.3239ZM144.913 103.287C147.032 100.673 150.452 97.8517 150.502 94.1984C150.576 88.8228 144.61 91.505 141.61 91.7284C143.197 90.1701 151.166 83.6326 146.452 81.3107C145.097 80.6433 143.171 81.2954 141.812 81.6449C139.399 82.2655 137.156 83.34 134.786 84.0877C136.48 82.285 139.406 80.2362 139.31 77.5061C139.193 74.1829 136.465 74.9863 134.106 75.474C133.2 75.6616 129.15 77.2724 128.39 76.1788C128.111 75.7781 128.562 75.2691 128.657 74.9125C128.826 74.2813 128.774 74.0611 128.779 73.4164C128.791 72.1156 129.655 70.4455 128.95 69.2356C128.789 69.5106 128.651 69.7965 128.537 70.0938C128.304 69.3898 128.46 68.6432 128.228 67.9392C134.117 69.4452 140.107 70.2696 146.033 71.5551C149.033 72.2058 151.856 73.3265 154.897 73.8309C157.964 74.3392 160.978 75.1174 164.05 75.6023C166.854 76.0445 169.539 76.7808 172.316 77.3456C175.022 77.8961 177.797 76.6895 180.439 76.0786C186.355 74.7104 192.269 73.3087 198.193 71.981C205.029 70.4483 212.14 69.138 218.683 66.5819C218.81 69.9887 219.083 73.389 219.499 76.7723C216.609 75.4062 212.321 73.6249 209.399 76.0694C208.23 77.0472 207.87 78.7358 208.332 80.1719C208.835 81.7352 210.376 82.4612 211.392 83.638C208.298 82.8448 200.317 77.2529 198.897 82.9052C197.893 86.8973 202.788 89.476 205.181 91.723C202.804 91.2577 199.622 89.3578 198.226 92.4114C197.02 95.0513 198.473 97.9238 199.961 100.101C200.767 101.281 201.674 102.391 202.531 103.534C202.984 104.139 203.427 104.752 203.903 105.339C204.381 105.927 205.282 106.543 205.617 107.177C206.291 108.454 204.931 108.532 203.873 108.994C202.552 109.57 201.418 110.537 200.211 111.308C197.445 113.074 195.028 114.714 191.76 115.279C188.395 115.859 185.156 116.466 181.835 117.276C178.525 118.084 175.823 118.86 172.44 117.816C170.897 117.34 169.641 116.917 168.005 117.007C166.286 117.101 165.281 117.012 163.869 115.947C157.788 111.368 151.189 107.61 144.913 103.287ZM133.952 98.6896C136.302 97.5107 138.667 96.3257 141.095 95.3127C143.104 94.4737 146.155 93.4966 148.354 93.8642C147.734 95.4569 146.603 96.7637 145.389 97.9366C144.316 98.9738 142.975 100.539 141.676 101.263C140.497 101.92 139.125 100.879 137.962 100.443C136.684 99.9644 134.925 99.741 133.952 98.6896ZM134.543 104.638C135.713 104.151 138.23 105.784 139.295 106.208C141.388 107.043 143.493 107.915 145.337 109.232C143.085 111.835 140.534 114.214 137.503 115.886C135.509 116.986 132.148 118.248 130.267 116.251C127.903 113.741 130.745 108.627 132.418 106.476C132.473 106.844 132.529 107.212 132.584 107.58C133.118 106.725 133.526 105.06 134.543 104.638ZM177.532 126.916C176.071 127.224 175.575 126.946 174.611 125.826C173.959 125.068 173.318 124.282 172.583 123.601C171.833 122.906 169.98 121.231 172.34 122.195C174.492 123.074 176.335 123.514 178.702 123.17C181.409 122.776 183.933 121.632 186.601 121.052C185.138 122.332 183.686 123.625 182.22 124.902C180.672 126.251 179.5 126.501 177.532 126.916ZM177.866 137.212C174.665 139.621 168.219 139.36 170.389 134.059C170.718 133.254 171.18 132.497 171.713 131.811C171.891 131.582 172.207 131.107 172.461 130.953C173.169 130.524 172.973 130.472 173.653 131.188C174.241 131.806 178.831 136.853 177.866 137.212ZM176.917 128.001C177.21 127.906 178.446 127.189 178.728 127.586C179.013 127.987 176.59 129.375 176.917 128.001ZM200.224 164.745C199.504 166.468 193.743 168.961 194.816 165.489C195.292 163.951 195.74 162.787 197.533 162.67C198.568 162.603 200.858 163.228 200.224 164.745ZM210.558 141.404C211.507 140.023 214.638 138.156 215.976 140.215C216.62 141.207 215.057 141.715 214.111 141.46C213.603 141.323 213.188 141.02 212.636 140.997C211.927 140.968 211.233 141.524 210.558 141.404ZM213.073 142.775C212.428 143.427 208.538 146.7 207.908 146.196C209.178 144.38 210.637 142.352 213.073 142.775ZM206.72 175.894C205.37 175.97 206.044 173.935 206.175 173.121C206.502 173.688 208.221 175.809 206.72 175.894ZM210.152 172.246C209.715 171.468 208.538 170.311 208.804 169.311C209.008 168.546 210.845 167.518 211.615 167.957C212.636 168.54 211.155 172.375 210.152 172.246ZM242.199 164.093C241.622 166.084 241.023 165.57 239.211 165.956C237.394 166.343 236.137 167.886 234.537 168.714C235.093 167.539 235.438 166.107 236.368 165.154C236.583 164.933 237.902 164.499 237.151 163.989C236.494 163.543 235.55 164.99 235.268 165.384C233.882 167.324 232.913 169.694 232.112 171.927C231.719 173.023 231.403 174.14 231.217 175.292C231.051 176.318 231.23 177.392 231.061 178.391C230.788 180.001 228.602 180.009 227.287 180.424C226.097 180.8 224.912 181.207 223.676 181.41C222.605 181.585 221.493 181.266 220.455 181.477C219.331 181.705 218.826 182.372 217.548 182.221C216.507 182.099 215.532 181.619 214.476 181.571C213.488 181.527 212.503 181.869 211.52 181.591C210.529 181.31 210.577 181.201 210.802 180.227C210.943 180.49 211.085 180.753 211.226 181.015C211.621 180.705 211.894 179.761 212.136 179.317C212.512 178.63 212.818 178.393 212.679 177.537C212.473 176.273 211.334 175.374 211.076 174.172C210.806 172.918 211.733 171.893 212.281 170.845C213.031 169.412 213.021 168.349 212.393 166.867C212.866 166.992 213.34 167.117 213.814 167.243C213.164 165.834 210.963 166.405 209.859 166.822C209.305 167.032 208.426 167.856 207.829 167.835C207.008 167.806 206.581 166.728 206.228 166.134C205.208 164.416 204.044 162.719 202.837 161.124C202.505 160.685 202.07 160.403 202.185 159.903C202.283 159.479 203.234 158.877 203.543 158.616C204.7 157.637 206.173 157.095 207.26 156.065C208.903 154.508 210.797 153.393 212.477 151.867C214.227 150.278 216.03 148.818 217.854 147.315C219.701 145.794 221.301 144.001 223.134 142.465C223.609 143.326 224.53 146.408 225.582 146.647C226.81 146.925 226.773 145.473 226.712 144.599C226.625 143.354 225.934 142.144 225.857 140.955C225.774 139.684 226.997 139.116 227.92 138.38C229.346 137.244 232.502 134.657 230.805 132.528C229.344 130.694 224.593 134.21 223.283 135.268C222.17 136.166 221.31 136.979 220.057 137.688C219.175 138.186 217.697 140.102 216.653 139.925C215.41 139.715 214.924 138.358 213.405 138.403C211.919 138.446 210.658 139.516 209.737 140.59C207.654 143.018 206.939 146.267 205.041 148.797C204.106 150.045 202.892 151.075 201.878 152.256C200.763 153.552 200.526 155.045 199.428 156.313C196.283 152.123 192.857 148.157 189.541 144.105C187.885 142.082 186.263 140.035 184.643 137.983C184.035 137.214 183.35 136.493 182.794 135.685C182.033 134.579 182.17 133.69 181.87 132.457C181.738 131.91 181.117 131.255 181.283 130.733C181.507 130.03 183.077 129.479 183.643 129.192C185.954 128.019 188.051 126.552 190.207 125.118C194.199 122.464 198.237 119.975 202.482 117.707C202.409 118.684 201.773 119.697 202.2 120.677C202.399 120.113 202.713 117.601 203.466 117.493C203.322 117.514 203.441 120.714 203.557 121.171C203.905 122.535 204.913 123.467 206.355 123.458C209.102 123.44 211.564 120.452 213.088 118.472C214.121 117.132 215.112 115.574 215.476 113.896C215.803 112.39 215.443 111.343 217.009 110.578C220.221 109.009 223.459 107.731 226.895 106.899C226.74 108.379 226.311 110.202 227.657 111.267C229.142 112.442 231.086 111.395 232.484 110.617C233.869 109.847 236.005 107.732 237.632 108.346C239.233 108.951 240.346 110.958 241.242 112.29C242.032 113.465 242.891 114.312 241.976 115.621C240.952 117.089 240.285 118.521 239.464 120.115C239.148 120.727 238.848 121.127 239.07 121.755C239.143 121.958 239.966 123.171 240.189 123.345C241.614 124.454 243.539 122.345 244.556 121.544C244.915 124.993 244.995 128.426 245.14 131.886C245.246 134.42 246.227 136.915 244.148 138.767C242.069 140.619 240.334 142.52 239.067 145.027C238.39 146.366 237.783 147.741 237.051 149.053C236.562 149.929 235.53 151.214 236.161 152.246C236.828 151.613 237.026 150.652 237.581 149.939C237.914 151.419 238.248 153.06 239.813 153.687C241.614 154.408 243.403 153.16 244.998 152.466C244.426 156.421 243.311 160.264 242.199 164.093ZM240.359 168.64C239.123 171.281 238.007 174.465 235.725 176.41C235.224 176.837 233.095 178.504 232.285 178.224C231.598 177.987 231.976 176.598 232.096 176.002C232.704 172.98 233.755 171.078 236.206 169.15C237.221 168.352 238.523 167.332 239.831 167.135C241.239 166.923 240.833 167.625 240.359 168.64ZM275.213 231.327C272.009 226.971 267.481 223.585 263.202 220.312C261.264 218.829 259.128 217.718 257.17 216.235C254.956 214.558 252.707 212.941 250.227 211.677C245.525 209.282 240.396 207.612 235.958 204.778C233.795 203.397 231.427 202.062 229.393 200.51C228.499 199.829 227.71 198.957 226.902 198.177C226.152 197.452 224.541 196.399 224.243 195.338C225.491 195.133 226.201 193.922 227.316 193.798C227.683 193.757 229.983 194.366 229.669 193.25C230.503 193.229 230.6 193.217 231.299 193.034C231.589 192.958 231.932 193.077 232.225 192.973C232.673 192.815 232.978 192.358 233.43 192.183C233.752 192.059 234.946 192.198 235.127 192.043C235.622 191.62 235.096 191.658 234.801 191.13C235.762 191.106 236.422 191.591 237.385 191.075C237.678 190.918 237.926 190.555 238.211 190.368C238.715 190.035 238.897 190.551 239.242 189.86C239.565 190.814 239.556 190.55 240.335 190.269C241.11 189.99 241.671 189.788 242.554 189.718C244.664 189.551 246.782 189.807 248.882 189.657C249.651 189.602 250.307 189.428 251.071 189.528C251.743 189.617 251.54 190.084 252.099 189.454C252.229 189.308 251.809 188.907 252.01 188.697C252.099 188.604 252.388 188.669 252.498 188.622C253.48 188.193 253.484 188.792 253.659 189.572C254.235 189.437 254.822 189.315 255.323 188.977C255.07 188.752 254.647 188.503 254.891 188.091C255.721 188.405 256.265 188.26 255.849 189.172C256.685 189.448 256.841 189.088 257.592 189.009C258.036 188.963 258.656 189.238 259.025 188.884C259.429 188.497 258.792 188.076 259.534 187.743C259.686 187.821 259.799 187.938 259.873 188.094C260.273 188.215 260.201 188.372 259.656 188.567C261.116 189.323 260.773 188.478 261.385 187.583C261.527 187.377 262.161 186.737 262.449 187.046C262.887 187.515 261.993 187.664 262.185 188.131C262.517 188.939 263.676 187.903 264.032 187.493C264.301 187.184 264.411 186.591 264.701 186.36C265.104 186.038 265.684 186.535 266.189 186.446C268.494 186.042 270.671 182.942 268.934 180.867C268.468 180.31 268.073 180.421 267.517 180.069C266.967 179.721 266.658 179.119 266.217 178.622C265.21 177.488 263.977 176.638 262.568 176.095C259.302 174.835 255.782 173.916 252.352 173.239C250.763 172.926 249.072 172.447 247.445 172.451C246.487 172.452 245.044 173.198 244.148 172.841C242.406 172.146 244.963 168.594 245.385 167.446C246.625 164.075 247.56 160.48 248.173 156.941C248.293 156.248 248.247 155.351 248.496 154.691C248.783 153.933 248.844 154.04 249.457 153.978C250.564 153.866 251.775 154.447 252.929 154.246C254.207 154.024 255.588 154.127 256.878 153.732C257.471 153.55 258.021 153.353 258.411 152.852C258.535 152.695 258.398 152.559 258.475 152.449C258.499 152.414 258.941 151.938 258.955 151.911C258.951 151.665 258.972 151.421 259.019 151.179C259.466 151.55 259.246 152.328 259.999 152.347C260.134 151.516 260.135 151.349 260.68 150.882C260.639 150.918 261.09 150.534 261.033 150.575C261.06 150.427 261.114 150.289 261.195 150.161C261.45 150.038 261.719 149.973 262.002 149.965C262.591 149.36 262.346 149.037 262.346 148.222C262.822 148.468 263.297 148.715 263.772 148.962C263.887 146.547 265.358 145.225 266.335 143.268C266.751 142.434 267.175 141.782 267.274 140.776C267.332 140.196 267.182 139.684 267.422 139.137C267.64 138.64 268.128 138.373 268.332 137.832C268.733 136.769 268.434 135.411 268.456 134.306C268.486 132.774 268.639 131.247 268.689 129.716C268.788 126.71 268.485 123.62 268.035 120.649C267.82 119.228 267.46 117.849 267.178 116.443C266.945 115.287 266.389 114.203 266.191 113.128C266.108 112.681 266.236 112.28 266.101 111.786C265.923 111.136 265.627 110.498 265.406 109.86C264.89 108.37 264.381 106.882 263.801 105.415C262.678 102.572 261.363 99.8138 260.114 97.0255C258.912 94.3441 257.917 91.5795 256.36 89.0757C254.827 86.6096 253.176 84.185 251.486 81.8243C249.726 79.366 247.501 77.2536 245.794 74.7725C242.589 70.1141 238.119 66.2754 233.442 63.1056C223.791 56.5642 213.362 50.0331 201.79 47.7904C200.046 47.4526 198.28 47.2182 196.502 47.1745C195.4 47.1471 193.572 47.6803 192.528 47.307C191.359 46.8889 191.465 45.5754 191.173 44.5449C190.796 43.2204 189.947 42.3526 188.983 41.4163C187.968 40.4307 187.046 39.2794 185.78 38.6092C184.497 37.9304 182.984 37.6764 181.562 37.4711C180.293 37.2875 178.397 37.459 177.237 36.906C176.181 36.402 176.703 35.8773 177.692 36.3089C177.764 35.8727 177.823 35.591 178.102 35.254C178.242 35.0845 178.905 34.8469 178.921 34.6888C178.94 34.5038 178.384 33.9767 178.305 33.738C178.133 33.224 178.231 32.5122 178.434 32.0298C179.431 32.916 179.72 33.3085 180.833 32.4614C181.303 32.1037 181.447 31.946 181.991 31.7655C182.139 31.7165 182.47 31.8678 182.599 31.7829C183.091 31.459 182.638 31.5354 182.872 31.1525C182.813 31.2491 183.227 30.2314 183.207 30.4442C183.257 29.9021 183.418 30.0687 183.09 29.4027C182.449 28.0999 180.817 28.0466 181.649 26.5597C181.976 25.9747 182.264 26.0329 182.357 25.1847C182.406 24.7287 182.345 24.2058 182.342 23.7419C182.339 22.7932 182.517 22.1289 181.628 21.6459C180.774 21.1813 179.985 21.691 179.639 20.5387C179.275 19.3296 179.641 17.7795 178.332 16.9515C177.374 16.3466 175.992 16.8638 174.935 16.5679C173.875 16.2717 172.9 15.1873 171.824 16.0198C171.06 16.6116 170.655 18.0665 169.215 17.2797C168.565 16.9249 168.207 15.7336 167.797 15.0654C167.144 14.0005 166.621 13.6158 165.616 14.653C164.996 15.2927 163.69 16.8499 163.61 17.7355C163.523 18.713 164.376 19.1215 163.305 19.6997C162.24 20.2751 161.642 19.8532 160.778 21.0211C159.92 22.1797 160.584 22.8198 159.59 23.9284C158.348 25.314 157.688 25.9122 157.705 27.7791C157.717 29.0596 156.586 30.1657 157.246 31.3805C157.985 32.742 160.144 33.3082 161.453 33.8623C161.016 34.6697 160.417 35.1872 160.927 36.0183C161.389 36.771 162.695 36.9273 163.504 36.7906C164.049 36.6989 164.068 36.7813 164.497 36.3984C164.778 36.1476 164.393 35.8347 164.971 35.6958C165.586 35.5474 166.569 36.7536 166.969 37.0552C166.076 38.2142 163.623 38.4309 162.325 39.0184C161.535 39.3768 160.808 39.9067 160.002 40.2271C159.272 40.5177 158.383 40.4502 157.721 40.8999C156.577 41.6763 156.101 43.6001 155.4 44.7311C154.606 46.0112 153.837 46.6058 152.314 46.8715C150.415 47.2029 148.885 47.3361 147.113 48.1634C144.95 49.1736 142.818 50.2402 140.693 51.3293C137.266 53.0857 134.083 54.8887 130.901 57.0132C127.572 59.236 124.333 61.5562 121.121 63.8789C117.944 66.1759 115.276 69.0019 112.517 71.7799C110.286 74.0255 108.328 76.4494 106.105 78.6943C103.482 81.3452 101.552 84.6908 99.1194 87.5029C97.7884 89.0413 96.515 90.5541 95.6799 92.3663C95.003 93.8354 93.8261 95.2768 93.0403 96.818C92.0363 98.7887 91.0861 100.728 89.9589 102.633C89.4964 103.415 88.9467 104.086 88.4587 104.832C87.8333 105.788 87.8702 106.711 87.702 107.813C87.5263 107.544 87.351 107.275 87.1753 107.007C86.8569 107.702 86.4718 108.386 86.196 109.098C86.02 109.553 86.0477 110.198 85.8709 110.595C85.6491 111.094 85.379 111.028 85.1025 111.443C84.8069 111.888 84.7118 112.485 84.4001 112.962C83.0532 115.022 82.535 117.636 81.8429 119.987C80.9145 123.141 81.0611 126.765 81.1115 130.017C81.1651 133.452 81.3528 136.887 81.8692 140.285C82.337 143.363 83.3372 146.315 84.9031 149.014C86.2674 151.365 88.1488 152.736 90.5587 153.94C91.6654 154.493 92.6925 154.323 93.8542 154.411C95.1265 154.508 95.9943 154.853 97.3405 154.549C97.9865 154.403 98.2921 153.933 98.8053 153.776C99.1229 153.679 99.294 153.838 99.5989 153.801C100.035 153.748 100.942 153.534 101.415 153.585C102.887 153.746 102.64 155.971 102.785 157.107C103.008 158.858 103.171 160.627 103.472 162.366C104.104 166.024 105.469 169.441 106.275 173.035C102.537 173.491 99.3306 174.189 95.8272 175.604C92.3124 177.023 88.7589 177.504 85.0599 178.21C81.5995 178.87 78.271 180.103 75.5012 182.337C74.2029 183.384 72.8542 184.609 73.8076 186.333C74.4173 187.435 75.5161 187.716 76.4648 188.356C76.6565 188.114 76.1021 187.6 76.0006 187.457C76.7981 187.621 76.7736 187.993 77.3561 188.317C77.865 188.6 78.2817 188.591 78.8389 188.79C80.1993 189.279 80.8676 190.499 82.2124 190.841C82.6355 190.949 83.1888 191.206 83.6215 191.279C84.1411 191.367 84.53 191.14 85.0568 191.236C85.341 191.423 85.6484 191.557 85.9788 191.637C86.1953 191.537 86.4094 191.431 86.6202 191.319C87.3769 191.397 87.8443 191.873 88.459 192.264C88.5002 191.772 88.4409 191.26 88.9073 190.938C89.0894 191.418 88.7951 191.721 89.292 192.051C89.9216 192.469 90.7486 191.947 91.3122 191.683C91.4716 193.275 95.1585 193.181 96.3272 193.158C97.9457 193.127 99.5623 192.485 101.195 192.843C102.028 193.026 102.917 193.217 103.746 193.454C104.745 193.739 105.952 193.994 106.934 194.354C107.325 194.497 107.804 194.956 108.22 194.925C108.551 194.9 108.64 194.412 109.025 194.425C109.461 194.441 109.608 194.927 109.986 195.074C110.551 195.292 111.07 194.877 111.607 195.086C111.8 195.162 112.062 195.485 112.309 195.591C112.684 195.751 113.426 195.753 113.844 195.83C114.435 195.94 114.965 195.866 115.472 195.902C115.881 195.931 115.872 196.206 116.068 196.224C116.292 196.244 116.683 195.473 116.984 195.36C117.423 195.195 118.22 195.588 118.667 195.657C115.424 200.053 111.514 203.938 107.275 207.34C102.702 211.011 98.0202 214.676 93.117 217.895C88.6652 220.818 84.3558 223.346 80.9042 227.472C77.9938 230.951 73.3611 234.674 74.0752 239.717C74.7889 244.755 80.26 246.806 84.644 247.768C90.1577 248.977 95.8335 248.49 101.362 249.171C103.72 249.461 106.34 249.306 108.713 249.059C111.516 248.767 113.918 246.938 116.328 245.615C120.663 243.235 124.369 240.052 128.639 237.598C133.985 234.525 139.274 231.27 145.135 229.212C147.862 228.255 150.669 227.162 152.868 225.194C153.195 224.901 153.439 224.458 153.809 224.217C154.438 223.807 154.606 224.222 154.971 224.098C155.252 224.003 155.524 223.699 155.766 223.608C156.381 223.378 156.656 223.473 157.344 223.473C156.753 223.132 156.213 222.254 156.826 221.538C157.876 220.312 158.057 222.271 158.452 222.725C158.786 222.296 158.658 221.913 158.572 221.425C158.855 221.611 159.138 221.798 159.421 221.984C159.226 221.039 159.411 220.169 159.912 219.345C160.374 218.586 160.488 218.693 160.615 217.641C162.049 218.95 162.33 215.772 162.459 214.613C162.584 213.49 162.46 212.683 163.199 211.701C163.992 210.646 165.199 209.979 166.206 209.159C167.796 207.864 169.547 206.229 171.746 207.471C173.483 208.452 174.428 210.855 176.057 212.09C177.045 212.84 178.088 212.915 178.718 214.077C179.228 215.016 179.393 216.141 179.874 217.105C181.039 219.443 182.716 222.118 184.629 223.911C186.41 225.58 188.696 225.571 190.779 226.606C192.842 227.631 194.985 228.742 197.169 229.484C199.554 230.296 202.126 230.641 204.448 231.623C205.642 232.129 206.71 232.89 207.915 233.375C209.214 233.896 210.583 234.264 211.9 234.742C217.117 236.637 222.222 238.961 227.703 240.012C230.134 240.477 232.384 241.743 234.833 242.009C235.883 242.124 236.74 242.268 237.768 242.531C239.38 242.943 239.039 243.162 239.633 244.507C240.61 246.72 242.997 245.409 244.836 245.465C247.781 245.553 250.68 245.077 253.62 245.055C258.761 245.015 263.712 244.436 268.685 242.748C273.678 241.053 279.363 236.97 275.213 231.327Z" fill="#181A22"/>
<path fill-rule="evenodd" clip-rule="evenodd" d="M215.784 58.3997C215.854 58.4701 216.019 58.5128 215.784 58.3997V58.3997Z" fill="#181A22"/>
<path fill-rule="evenodd" clip-rule="evenodd" d="M125.222 152.666C126.338 151.535 131.089 151.764 131.448 153.788C131.849 156.047 127.604 159.46 126.05 160.417C124.051 161.648 121.61 161.879 121.965 158.787C122.233 156.452 123.632 154.278 125.222 152.666ZM129.145 150.337C129.29 150.963 128.222 150.75 127.928 150.602C127.79 150.317 129 149.709 129.145 150.337ZM120.952 154.481C121.9 154.566 122.986 153.045 123.701 152.528C124.017 153.016 121.933 155.701 121.704 156.313C121.131 157.844 120.813 159.778 121.593 161.304C123.874 165.766 129.712 159.395 131.172 157.17C132.194 155.613 132.901 153.683 131.458 152.158C130.945 151.615 130.096 151.464 129.618 150.947C128.99 150.269 129.485 149.392 128.222 149.54C127.35 149.642 126.304 150.429 125.456 150.713C124.435 151.056 123.517 151.411 122.626 152.046C122.425 152.19 119.782 154.375 120.952 154.481Z" fill="#181A22"/>
<path fill-rule="evenodd" clip-rule="evenodd" d="M187.927 155.978C187.331 159.043 184.294 162.188 181.098 162.31C177.915 162.431 176.884 159.097 177.446 156.439C177.926 154.172 179.885 150.234 182.68 150.668C184.877 151.008 188.437 153.351 187.927 155.978ZM185.9 150.855C183.882 149.293 181.094 148.571 178.755 149.81C177.988 150.216 174.927 152.008 175.858 153.221C177.114 152.247 178.199 150.897 179.831 150.573C179.556 151.838 177.989 152.976 177.436 154.208C176.791 155.648 176.438 157.295 176.543 158.877C176.732 161.692 178.617 163.88 181.536 163.493C184.209 163.138 186.546 161.09 187.821 158.787C189.523 155.712 188.564 152.916 185.9 150.855Z" fill="#181A22"/>
<path fill-rule="evenodd" clip-rule="evenodd" d="M167.16 162.946C165.723 165.073 163.532 167.074 160.999 167.732C157.72 168.582 158.641 165.872 159.621 163.927C160.487 162.208 161.974 159.25 164.237 159.266C165.006 159.271 166.437 159.642 167.11 160.053C168.437 160.863 167.916 161.826 167.16 162.946ZM164.099 158.27C164.615 157.696 166.898 155.233 167.204 157.153C167.86 156.393 167.342 155.762 166.503 155.682C165.49 155.585 164.383 156.712 163.653 157.273C162.149 158.425 160.991 159.605 159.994 161.221C158.896 163.003 156.094 167.029 158.546 168.797C161.196 170.707 165.054 167.179 166.713 165.359C167.775 164.195 169.18 162.485 168.777 160.778C168.281 158.682 165.842 158.462 164.099 158.27Z" fill="#181A22"/>
<path fill-rule="evenodd" clip-rule="evenodd" d="M152.79 123.984C151.307 125.676 148.295 128.142 145.812 127.851C143.548 127.586 144.432 125.045 145.233 123.815C146.437 121.967 148.05 120.231 150.38 120.13C151.385 120.087 152.689 120.107 153.468 120.869C154.532 121.909 153.574 123.09 152.79 123.984ZM152.633 119.283C150.895 118.682 150.213 118.454 148.524 119.408C147.169 120.174 145.966 121.257 145.036 122.487C143.643 124.328 142.239 128.469 145.814 128.987C149.736 129.555 159.066 121.507 152.633 119.283Z" fill="#181A22"/>
<path fill-rule="evenodd" clip-rule="evenodd" d="M157.978 129.848C156.85 131 155.442 131.94 153.834 132.261C154.514 130.744 156.033 127.428 157.833 126.966C158.663 126.753 159.609 127.032 159.54 127.978C159.491 128.661 158.423 129.393 157.978 129.848ZM159.431 125.836C158.497 125.368 158.791 125.048 157.704 125.415C156.848 125.705 155.768 126.207 155.054 126.785C154.665 127.101 153.454 128.22 153.602 128.789C153.871 129.824 154.774 128.238 155.012 127.934C155.419 128.265 153.337 131.244 153.213 131.734C152.752 133.56 154.184 133.753 155.589 133.156C157.483 132.351 163.092 127.67 159.431 125.836Z" fill="#181A22"/>
<path fill-rule="evenodd" clip-rule="evenodd" d="M187.2 174.963C187.34 173.752 187.538 172.473 188.649 171.793C189.65 171.18 190.686 171.269 190.835 172.526C190.972 173.693 189.829 175.765 188.904 176.401C187.617 177.288 187.369 176.183 187.2 174.963ZM188.854 177.717C191.498 176.17 193.164 169.075 188.291 171.064C185.521 172.193 186.54 179.071 188.854 177.717Z" fill="#181A22"/>
<path fill-rule="evenodd" clip-rule="evenodd" d="M166.275 148.297C166.692 147.442 167.169 147.159 168.014 146.785C167.451 147.317 166.875 147.808 166.275 148.297ZM166.885 146.191C166.286 146.792 164.914 147.708 165.106 148.74C165.282 149.682 166.001 149.628 166.654 149.334C168.022 148.719 168.784 146.026 170.215 145.774C168.627 144.767 168.257 144.814 166.885 146.191Z" fill="#181A22"/>
<path fill-rule="evenodd" clip-rule="evenodd" d="M167.095 92.7062C167.171 95.5742 167.238 98.4419 167.302 101.31C167.324 102.318 167.083 103.755 167.386 104.72C167.519 105.146 168.727 106.989 169.156 107.108C170.656 107.526 170.12 103.767 170.13 102.841C170.167 99.7179 170.121 96.5915 170.108 93.4683C170.101 91.8589 170.556 78.3639 168.467 78.4297C168.108 78.4413 167.221 79.9843 167.088 80.2934C166.668 81.2649 166.823 82.705 166.833 83.7404C166.861 86.7277 167.016 89.7192 167.095 92.7062Z" fill="#181A22"/>
<path fill-rule="evenodd" clip-rule="evenodd" d="M179.739 101.067C179.857 101.859 179.795 103.182 180.688 103.593C181.464 103.95 181.762 103.525 182.053 102.861C182.721 101.332 182.479 98.9952 182.467 97.4148C182.443 94.2826 182.09 91.1637 181.846 88.0433C181.739 86.6742 181.962 85.299 181.79 83.8664C181.715 83.2376 181.64 80.7085 180.475 80.8262C179.421 80.9326 179.516 83.5834 179.459 84.2663C178.981 89.9516 178.898 95.3913 179.739 101.067Z" fill="#181A22"/>
<path fill-rule="evenodd" clip-rule="evenodd" d="M229.478 166.353C229.031 168.636 221.744 176.588 219.909 172.141C218.821 169.502 221.18 166.63 223.02 165.103C224.159 164.157 225.582 163.23 227.134 163.516C228.452 163.759 229.761 164.903 229.478 166.353ZM225.715 162.258C225.2 162.379 220.898 165.4 220.859 165.36C220.485 164.985 223.198 160.941 223.478 160.587C225.778 157.672 227.305 159.88 228.743 162.17C228.437 160.802 227.594 158.816 226.186 158.237C224.408 157.506 223.02 159.31 222.165 160.606C220.956 162.438 220.289 164.428 219.617 166.496C219.297 167.482 218.932 168.376 218.389 169.265C217.853 170.142 216.916 171.109 217.055 172.219C217.816 171.796 218.221 170.968 218.7 170.285C219.235 170.502 219.051 172.208 219.16 172.643C219.433 173.734 220.179 174.588 221.332 174.776C223.482 175.126 225.802 173.137 227.239 171.786C228.754 170.363 230.384 168.412 230.371 166.221C230.357 163.933 228.106 161.691 225.715 162.258Z" fill="#181A22"/>
<path fill-rule="evenodd" clip-rule="evenodd" d="M231.542 125.568C230.323 127.434 228.183 129.672 225.918 130.106C224.256 130.424 223.16 129.192 223.828 127.529C224.392 126.124 226.313 125.236 227.573 124.618C228.572 124.127 233.23 122.985 231.542 125.568ZM230.645 122.515C228.147 122.421 226.132 124.227 224.269 125.668C224.69 124.012 225.641 122.211 226.981 121.133C228.805 119.666 230.534 120.577 232.454 121.311C231.98 119.816 229.854 119.278 228.5 119.489C226.787 119.757 225.556 121.218 224.69 122.633C223.657 124.32 223.303 126.308 222.088 127.891C221.531 128.615 218.084 131.326 218.864 132.434C220.152 131.067 221.44 129.7 222.727 128.333C223.061 129.949 223.429 131.788 225.491 131.631C227.138 131.505 229.017 130.105 230.221 129.035C231.777 127.653 234.838 122.673 230.645 122.515Z" fill="#181A22"/>
<path fill-rule="evenodd" clip-rule="evenodd" d="M195.649 138.453C194.591 138.939 192.262 139.601 191.67 138.139C190.848 136.108 193.493 132.547 194.752 131.194C195.526 130.361 196.051 129.93 197.131 130.469C197.993 130.9 199.26 132.122 199.59 133.062C200.3 135.079 197.305 137.692 195.649 138.453ZM198.077 128.701C198.939 128.895 199.045 129.989 197.967 129.569C197.16 129.254 196.972 128.451 198.077 128.701ZM199.159 130.242C198.837 129.26 199.492 127.721 197.907 127.65C197.009 127.61 195.364 128.523 194.58 128.894C193.493 129.408 192.471 130.193 191.903 131.299C191.378 132.323 191.753 132.593 192.554 131.743C192.652 131.81 190.742 136.736 190.725 137.23C190.651 139.486 192.247 140.972 194.49 140.572C196.552 140.204 198.409 138.518 199.544 136.817C200.118 135.956 200.589 134.97 200.632 133.915C200.698 132.297 199.619 131.647 199.159 130.242Z" fill="#181A22"/>
<path fill-rule="evenodd" clip-rule="evenodd" d="M209.047 129.414C208.177 127.74 210.192 124.921 211.996 125.745C215.753 127.462 210.188 131.611 209.047 129.414ZM212.422 127.228C212.018 127.244 209.47 128.229 209.845 128.896C210.36 129.812 212.22 127.596 212.422 127.228Z" fill="#181A22"/>
<path fill-rule="evenodd" clip-rule="evenodd" d="M89.1905 124.132C89.0897 123.419 87.4907 124.455 87.5 124.914C87.7644 124.385 89.4003 125.619 89.1905 124.132Z" fill="#181A22"/>
<path fill-rule="evenodd" clip-rule="evenodd" d="M176.643 70.2249C178.678 70.0753 176.085 59.8048 174.601 60.7131C172.993 61.6975 174.775 70.362 176.643 70.2249Z" fill="#181A22"/>
<path fill-rule="evenodd" clip-rule="evenodd" d="M180.444 65.4292C182.352 65.7023 182.049 61.3228 181.023 60.539C179.129 59.0922 178.129 65.0974 180.444 65.4292Z" fill="#181A22"/>
</svg>
