<svg width="350" height="251" viewBox="0 0 350 251" fill="none" xmlns="http://www.w3.org/2000/svg">
<path fill-rule="evenodd" clip-rule="evenodd" d="M148.836 105.344C145.057 108.084 145.659 113.475 146.796 117.393C148.472 123.161 151.808 128.501 155.615 133.103C162.367 141.268 173.831 150.437 184.398 143.268C193.808 136.884 199.743 124.002 201.792 113.152C202.425 109.799 203.269 104.803 200.294 102.281C195.895 98.5552 188.136 99.233 182.826 99.7128C179.329 100.028 175.955 101.101 172.499 100.597C164.47 99.4271 155.533 100.487 148.836 105.344Z" fill="#221EC4"/>
<path fill-rule="evenodd" clip-rule="evenodd" d="M311.632 148.072C303.977 157.786 290.962 159.32 279.402 159.225C272.461 159.168 265.506 158.645 258.701 157.23C255.032 156.467 251.388 155.457 247.843 154.243C245.502 153.44 242.016 153.04 241.019 150.53C238.391 143.909 240.325 135.605 241.407 128.885C241.958 125.467 242.371 122.028 242.907 118.607C243.249 116.418 243.413 113.996 244.33 111.948C245.404 109.55 246.761 110.029 249.032 110.691C252.161 111.605 255.373 111.985 258.59 112.476C266.442 113.675 273.292 116.093 280.427 119.521C287.482 122.91 294.326 126.255 300.62 130.967C303.808 133.355 306.556 135.947 309.115 138.99C311.093 141.342 314.044 145.012 311.632 148.072ZM278.168 191.216C278.107 192.261 266.109 189.104 264.53 188.75C254.171 186.426 243.606 183.779 233.826 179.579C224.697 175.66 216.653 171.176 209.47 164.212C206.121 160.966 203.11 157.548 200.228 153.908C198.783 152.083 196.81 152.295 195.199 150.751C193.75 149.362 192.639 148.277 193.092 146.2C196.713 147.154 203.398 153.152 207.15 150.123C209.29 148.397 206.323 146.594 204.953 145.593C202.378 143.712 200.177 141.392 198.13 138.956C201.644 139.637 204.915 140.954 207.974 142.786C209.333 143.6 213.99 146.552 215.074 143.738C215.741 142.006 212.584 139.829 211.599 138.87C209.181 136.517 206.571 133.77 205.287 130.606C208.461 129.87 211.453 132.323 213.614 134.322C216.013 136.54 218.954 138.869 220.966 141.426C222.004 142.744 222.23 144.301 223.04 145.724C223.953 147.324 225.412 148.695 226.806 149.879C229.493 152.161 232.636 153.84 235.862 155.23C243.234 158.404 251.135 160.651 258.992 162.227C262.847 163 266.606 163.356 270.519 163.487C273.56 163.59 274.905 164.499 276.066 167.301C279.208 174.884 278.637 183.226 278.168 191.216ZM187.938 133.438C186.181 135.084 183.896 136.116 182.059 137.698C180.441 139.09 178.576 140.575 176.772 141.7C174.845 142.901 173.406 142.059 171.671 140.972C169.634 139.697 167.293 139.18 165.196 138.039C157.944 134.091 149.072 124.417 150.426 115.535C151 111.771 152.945 108.066 156.479 106.358C159.688 104.807 164.353 103.947 167.786 105.243C169.722 105.975 171.108 107.589 172.349 109.177C173.796 111.027 174.35 110.735 175.823 108.951C178.46 105.758 182.808 102.957 187.106 103.024C189.243 103.058 191.365 103.508 193.289 104.395C193.55 104.516 193.695 104.88 193.957 105.003C194.278 105.154 194.806 104.839 195.029 104.981C195.593 105.337 196.155 106.452 196.48 107.018C197.784 109.287 200.132 113.737 197.766 115.648C197.765 115.649 197.871 118.233 197.839 118.527C197.672 120.069 197.139 121.342 196.453 122.752C194.391 126.988 191.348 130.249 187.938 133.438ZM191.444 169.276C189.778 169.794 187.985 164.574 189.582 163.74C191.105 162.946 192.952 168.808 191.444 169.276ZM165.287 163.034C164.71 165.006 164.467 167.244 163.056 168.849C161.765 167.316 161.637 164.488 162.89 162.913C163.605 162.014 165.918 160.88 165.287 163.034ZM218.581 128.484C218.571 128.534 220.584 129.497 219.602 130.55C218.26 131.989 218.445 129.189 218.581 128.484ZM226.9 112.413C226.877 114.407 222.657 113.925 222.687 111.92C222.724 109.452 226.925 110.299 226.9 112.413ZM221.863 95.7488C222.281 93.9233 229.621 91.3839 229.421 94.5654C229.321 96.1605 220.977 99.6298 221.863 95.7488ZM146.615 157.657C145.792 158.646 144.623 159.036 143.637 159.796C142.602 160.591 141.863 161.624 140.96 162.558C138.479 165.124 135.493 167.232 132.817 169.588C127.897 173.92 123.184 178.578 117.729 182.252C107.98 188.817 96.6754 192.407 85.453 195.552C84.5234 195.812 81.8453 196.863 80.9255 196.08C79.9334 195.236 80.4378 192.264 80.4836 191.14C80.6696 186.534 81.2065 181.873 81.1484 177.273C81.1243 175.383 80.5712 172.698 81.5569 170.969C82.6573 169.038 85.7296 168.473 87.6302 167.747C93.4067 165.538 98.9712 161.813 104.074 158.363C110.347 154.121 116.682 149.81 123.137 145.85C129.461 141.971 136.437 139.373 143.492 137.158C143.818 137.845 140.452 140.055 140.068 140.365C138.222 141.851 136.214 143.392 134.844 145.354C133.874 146.743 132.88 149.885 135.558 149.966C136.856 150.005 138.775 148.749 139.952 148.343C141.897 147.672 143.9 147.2 145.934 146.894C144.186 148.82 138.259 152.279 139.337 155.481C140.383 158.589 146.435 154.962 148.518 154.962C148.177 156.046 147.318 156.811 146.615 157.657ZM75.1204 166.33C71.2449 167.694 67.2725 168.469 63.2725 169.349C59.46 170.188 55.9359 170.82 52.0309 170.329C46.6392 169.651 40.6727 167.417 39.9891 161.289C39.1786 154.029 44.305 147.357 48.7071 142.148C54.0644 135.81 60.0801 130.144 66.5998 125.014C73.112 119.888 80.141 115.37 87.5052 111.555C93.1075 108.653 99.4348 106.891 105.358 104.713C106.485 104.299 109.603 102.843 110.657 104.049C111.509 105.025 110.349 106.651 109.961 107.556C109.203 109.323 109.099 111.1 108.904 112.997C108.03 121.465 106.979 129.931 106.495 138.436C106.36 140.807 106.123 143.286 106.262 145.658C106.338 146.971 107.021 148.645 106.566 149.927C105.691 152.393 101.684 154.025 99.5608 155.127C95.7591 157.098 91.7335 158.569 87.893 160.455C83.675 162.526 79.5682 164.765 75.1204 166.33ZM128.869 111.305C129.933 111.159 131.527 110.869 132.475 111.558C133.712 112.457 133.387 113.708 132.245 114.36C131.343 114.875 129.232 115.016 128.341 114.549C126.822 113.752 127.079 111.551 128.869 111.305ZM134.761 130.914C133.901 132.346 130.759 133.286 131.033 130.613C131.268 128.325 136.344 128.277 134.761 130.914ZM133.595 90.5704C134.976 91.1058 137.484 91.5642 137.894 93.3421C138.276 94.9972 136.708 94.8876 135.576 94.4322C134.646 94.0584 130.5 90.5419 133.595 90.5704ZM350.113 153.701C349.306 150.56 349.92 147.081 349.475 143.864C349.043 140.745 348.265 137.878 347.15 134.938C344.679 128.43 341.849 122.572 337.844 116.861C330.303 106.105 321.553 96.6306 310.987 88.7743C300.556 81.0186 289.005 74.7156 276.769 70.2982C263.794 65.6134 250.734 63.9829 237.051 63.0849C232.965 62.8171 228.883 62.4993 224.82 61.9829C221.851 61.6056 218.128 61.1409 215.192 62.0507C213.348 62.6226 212.317 64.2315 214.327 65.2872C215.751 66.0359 217.616 66.1253 219.19 66.3243C217.289 72.3639 214.197 78.4242 209.296 82.5828C204.511 86.6432 198.109 88.0349 192.07 89.0646C188.796 89.6227 185.129 90.0545 181.804 89.8138C179.702 89.662 178.061 88.6883 177.213 90.8543C176.624 92.3591 176.346 94.0102 175.57 91.7381C174.652 89.0518 174.202 89.069 171.346 88.3061C165.507 86.7458 158.814 85.3221 153.72 81.9481C148.435 78.4473 146.597 72.784 143.646 67.5107C142.916 66.2074 140.716 63.5692 141.84 62.0758C142.869 60.7101 146.213 60.8461 147.745 60.7037C149.361 60.5533 150.987 60.547 152.608 60.4841C153.548 60.4477 155.438 60.8329 155.06 59.4293C154.489 57.3139 148.38 57.5851 146.863 57.5507C144.041 57.4873 141.181 57.5527 138.374 57.8632C124.455 59.4028 110.412 62.2497 96.9427 66.0462C70.8109 73.4113 45.5019 86.9831 26.4311 106.535C8.12503 125.303 2.32535 156.535 13.5792 180.499C19.4277 192.953 32.12 198.069 44.4236 202.201C50.9133 204.38 57.7853 206.085 64.6839 205.674C67.9944 205.476 71.1357 204.584 74.3645 203.913C75.7725 203.62 77.3748 203.152 78.8212 203.27C79.9161 203.36 80.9678 204.365 81.9949 203.831C82.7237 203.452 83.0406 202.363 83.9314 201.9C85.0008 201.344 86.2975 201.143 87.4525 200.862C90.6632 200.082 93.7719 198.817 96.9102 197.78C100.155 196.707 103.218 195.326 106.331 193.929C107.904 193.223 111.542 190.355 112.567 192.452C113.034 193.409 112.835 195.255 112.949 196.258C113.148 198.014 113.382 199.765 113.638 201.513C114.202 205.361 114.877 209.193 115.569 213.021C116.818 219.926 118.427 226.537 121.118 233.033C123.267 238.22 125.153 244.099 129.143 248.225C130.884 250.026 133.261 250.837 135.759 250.271C138.6 249.627 140.015 247.045 141.74 244.958C145.535 240.365 151.801 236.845 157.587 235.578C164.672 234.027 171.573 236.296 178.336 238.225C185.49 240.265 192.772 242.209 199.794 244.661C206.337 246.947 213.401 250.323 220.497 250.029C226.685 249.773 232.465 244.735 236.928 240.896C241.41 237.039 247.015 231.393 253.459 231.847C256.66 232.072 259.576 233.617 262.693 234.244C266.115 234.934 269.757 235.031 273.236 235.288C277.556 235.607 287.221 234.481 288.819 229.283C289.056 228.511 289.057 226.923 288.039 226.615C287.102 226.331 286.624 227.427 285.737 227.376C283.932 227.275 282.521 224.127 281.53 222.908C277.528 217.988 272.038 214.318 267.547 209.873C262.477 204.855 258.147 198.774 254.326 192.777C256.054 192.328 257.918 193.074 259.589 193.428C261.621 193.859 263.6 194.379 265.602 194.93C267.808 195.538 270.046 195.955 272.285 196.419C273.956 196.763 276.173 196.868 277.681 197.706C278.998 198.438 279.732 199.224 281.367 199.436C283.029 199.652 284.735 199.47 286.405 199.459C290.92 199.428 295.427 199.344 299.921 198.867C315.803 197.179 332.637 190.46 342.187 177.126C344.784 173.498 346.877 169.48 348.199 165.217C349.231 161.888 351.011 157.197 350.113 153.701Z" fill="#181A22"/>
<path fill-rule="evenodd" clip-rule="evenodd" d="M201.157 0.0635196C205.331 0.122607 209.243 1.3605 213.131 2.76777C216.551 4.00517 220.197 5.15 222.963 7.61987C227.936 12.0628 229.232 19.4192 230.046 25.7131C231.061 33.5668 227.683 40.1561 224.839 47.2614C222.18 53.9068 217.298 59.2902 211.496 63.3924C208.456 65.5412 205.097 66.8382 201.582 67.9756C198.011 69.1308 194.553 70.6779 190.733 70.672C184.932 70.6636 177.505 67.9077 175.034 62.1909C173.909 59.5881 175.005 59.1208 177.256 60.5355C180.522 62.5878 183.67 64.8026 187.487 65.7131C194.889 67.4793 203.754 64.743 210.244 61.1328C216.732 57.5235 221.088 52.1017 223.999 45.3504C226.936 38.5396 228.077 31.8282 226.944 24.4855C225.984 18.2631 224.075 12.5793 218.469 9.20145C206.367 1.91051 190.061 2.49794 179.299 11.9732C177.823 13.2721 176.364 14.5361 174.843 15.7765C173.876 16.5648 172.738 17.5107 172.878 18.8741C172.998 20.0416 175.487 24.5431 172.49 23.1605C170.061 22.0393 168.741 19.8476 165.798 19.5763C162.665 19.2873 158.929 21.6941 157.992 24.7233C157.098 27.6137 158.692 31.5682 161.188 33.2261C162.734 34.2527 164.435 34.0942 166.191 34.0528C167.062 34.0321 169.487 33.749 170.064 34.6703C171.084 36.2996 167.485 38.0122 166.323 38.3726C163.497 39.2496 160.157 38.2175 158.532 35.694C156.88 33.1286 155.75 30.1594 155.522 27.1031C155.305 24.1748 155.969 21.2101 157.696 18.8057C159.534 16.2487 163.278 13.3819 166.635 14.2702C168.092 14.6558 169.263 16.1615 170.693 16.4476C171.595 16.6278 171.216 16.7568 171.963 16.0877C172.438 15.6632 172.887 14.8798 173.325 14.3766C175.844 11.4832 178.336 8.3954 181.419 6.07965C186.948 1.92725 194.297 -0.0339753 201.157 0.0635196ZM185.867 57.4271C186.521 55.8938 187.722 58.6291 188.077 59.0864C188.781 59.9912 190.434 60.6951 190.363 62.0296C190.245 64.2326 187.243 63.824 186.242 62.6747C185.102 61.3663 185.222 58.9413 185.867 57.4271ZM207.196 46.9963C208.815 49.5208 206.841 52.2458 205.561 54.4802C204.337 56.6166 203.199 59.0316 201.774 61.04C199.408 64.3747 194.26 60.7673 194.108 57.3401C193.991 54.7166 195.849 55.8587 197.041 56.8385C198.269 57.8477 198.85 58.099 200.137 56.9967C202.725 54.7783 203.888 51.0689 205.678 48.2602C206.033 47.7034 206.676 47.3685 207.196 46.9963ZM211.813 47.808C212.23 49.0288 211.354 52.2638 213.79 51.9404C215.136 51.7618 215.423 49.8302 216.13 48.9871C218.51 46.1531 217.78 51.5133 217.158 52.8549C215.788 55.8116 211.952 57.8489 210.05 54.0978C209.343 52.7024 209.346 50.9413 209.705 49.4413C209.901 48.6244 211.042 45.5535 211.813 47.808ZM190.094 42.0259C189.878 43.4504 188.539 46.2884 190.174 47.3074C191.612 48.2044 194.116 46.2565 195.224 45.4431C196.374 44.5979 198.982 42.1733 199.084 45.1906C199.137 46.7287 197.597 48.574 196.499 49.4601C194.155 51.3498 189.286 53.0447 187.559 49.488C186.619 47.5505 187.133 44.7922 187.755 42.8397C188.259 41.2574 190.614 38.5852 190.094 42.0259ZM220.829 34.2271C221.782 35.3347 224.043 37.8164 222.814 39.3939C221.377 41.2377 219.042 37.8548 218.122 36.9132C217.292 36.065 215.548 33.6496 216.292 32.3685C217.523 30.2485 219.991 33.2545 220.829 34.2271ZM205.84 29.4575C208.957 31.4887 204.859 32.9512 203.083 33.1331C200.934 33.3523 198.187 33.4977 196.213 32.4431C193.416 30.9481 194.348 28.6898 197.06 28.1492C199.84 27.5953 203.421 27.8809 205.84 29.4575ZM165.316 22.9913C167.608 23.4375 170.226 24.0181 171.007 26.5178C171.813 29.1012 170.655 29.9585 168.314 29.3769C166.147 28.8387 162.912 28.297 161.687 26.1804C160.223 23.6517 163.19 22.5781 165.316 22.9913Z" fill="#181A22"/>
<path fill-rule="evenodd" clip-rule="evenodd" d="M39.1854 78.5019C38.4161 80.9868 34.5226 82.6349 32.581 84.1453C25.7895 89.43 19.1531 94.9323 13.0133 100.964C9.82655 104.094 7.41443 107.881 4.6509 111.363C3.97663 112.212 2.78214 114.115 1.45968 113.937C0.00876665 113.741 -0.284566 111.242 -0.238302 110.15C-0.0798237 106.428 3.31909 102.833 5.74302 100.269C8.46964 97.3873 11.3848 94.5786 14.3619 91.9541C17.6397 89.065 21.1966 86.5816 24.8214 84.1502C28.3808 81.7628 31.7935 79.0046 35.4951 76.8421C37.2389 75.8236 40.1343 75.436 39.1854 78.5019ZM276.584 54.9033C279.418 54.9927 282.185 55.9228 284.858 56.7861C290.739 58.6857 296.34 61.3207 301.863 64.0748C311.546 68.9023 320.864 74.7432 329.406 81.3844C331.191 82.7723 333.022 83.8969 334.963 85.0319C336.206 85.7589 337.978 86.646 338.457 88.1277C339.673 91.8943 333.535 88.1139 332.664 87.5731L331.438 86.8131C313.265 75.547 295.112 64.6008 274.555 58.1399C273.46 57.7957 273.12 56.8187 273.694 55.8502C274.317 54.8006 275.53 54.8703 276.584 54.9033ZM38.3583 62.7864C38.2269 63.9332 36.9282 64.1941 36.0524 64.5622C32.7841 65.9353 29.4344 67.1064 26.175 68.5022C20.1257 71.0928 14.5702 74.8525 8.25608 76.8186C6.81313 77.2687 6.60022 75.8121 6.98652 74.8209C7.41679 73.7146 8.70906 72.9378 9.64369 72.298C12.3399 70.4505 15.3977 69.1223 18.3918 67.8391C21.3601 66.5658 24.4164 65.6028 27.4599 64.5355C30.2885 63.5433 33.5715 61.6969 36.6091 61.5605L36.7419 61.5541C37.7086 61.5052 38.5114 61.4399 38.3583 62.7864ZM281.743 45.3639C278.853 44.5507 281.584 42.7206 283.301 42.8492C285.217 42.9928 287.069 43.8977 288.887 44.4435C294.442 46.112 299.592 47.9367 304.782 50.5266C305.556 50.9133 308.966 52.7462 306.711 53.5579C305.147 54.1202 301.496 51.7075 300.154 51.1287C294.256 48.5849 287.918 47.1008 281.743 45.3639Z" fill="#181A22"/>
<path fill-rule="evenodd" clip-rule="evenodd" d="M166.532 51.2873C166.893 50.2271 171.361 38.6377 169.612 38.2882C167.76 37.9176 165.284 44.6417 164.746 45.8566C162.762 50.3434 161.587 55.1577 160.666 59.9705C160.024 63.3215 159.461 66.7545 159.685 70.1806C159.858 72.8135 160.945 73.2121 162.737 74.8255C162.737 66.8281 163.952 58.8567 166.532 51.2873Z" fill="#181A22"/>
</svg>
