<?xml version="1.0" encoding="UTF-8"?>
<svg xmlns="http://www.w3.org/2000/svg" width="101" height="50" viewBox="0 0 101 50" fill="none">
  <path d="M50.6547 20.9426C50.1105 21.7656 49.4727 22.5226 48.7541 23.1986C47.6838 24.207 46.4538 25.031 45.114 25.6371H47.9046C48.9188 24.9545 49.8428 24.1467 50.6547 23.2328C51.4666 24.1467 52.3906 24.9545 53.4048 25.6371H56.1944C54.8549 25.031 53.6252 24.207 52.5554 23.1986C51.8364 22.5229 51.1986 21.7658 50.6547 20.9426Z" fill="white"></path>
  <path d="M60.3553 8.64112C60.3588 8.64741 60.3628 8.65347 60.367 8.65926C61.4168 6.95827 61.9729 4.99888 61.9731 3.00005C59.877 2.9943 57.8129 3.515 55.9703 4.51437C55.8871 4.5599 55.8038 4.60685 55.7206 4.65523H55.7131C55.5039 4.77547 55.2998 4.90175 55.1005 5.03408L55.0909 5.04048L54.9042 5.16641L54.8903 5.17494C54.6972 5.30941 54.5072 5.44814 54.3226 5.59221L54.3012 5.60928C54.2447 5.65304 54.1945 5.69786 54.1337 5.74268L54.1198 5.75335C53.9996 5.85224 53.8811 5.95291 53.7644 6.05536L53.7474 6.07137C53.6961 6.11619 53.646 6.16208 53.5958 6.20797L53.5692 6.23251C53.5169 6.2816 53.4624 6.32963 53.4144 6.37872L53.4048 6.38725C53.2981 6.49397 53.1914 6.60069 53.0847 6.70741L53.0569 6.73622C53.0132 6.78211 52.9705 6.82693 52.9278 6.87388L52.915 6.88669L52.8968 6.90803C52.8477 6.96033 52.7997 7.01475 52.7528 7.06704L52.7442 7.07665C52.6966 7.13143 52.6485 7.18692 52.6002 7.24313L52.5906 7.2538L52.5564 7.29542L52.4593 7.41281L52.4337 7.44375L52.4059 7.47897L52.3131 7.59529L52.2875 7.62838L52.2629 7.65932L52.1274 7.83861L52.0922 7.88663L52.0239 7.98161L51.994 8.02216L51.9855 8.03497L51.9556 8.07659L51.8958 8.16303L51.8627 8.21105C51.851 8.23026 51.8382 8.2484 51.8254 8.26654L51.8115 8.28896C51.7944 8.3135 51.7774 8.33911 51.7614 8.36472C51.755 8.37433 51.7475 8.38393 51.7411 8.39461L51.6995 8.45864L51.6675 8.50879L51.6216 8.58243L51.6056 8.60804L51.5671 8.671C51.5597 8.68274 51.5522 8.69448 51.5458 8.70622L51.5084 8.76812C51.4978 8.78519 51.4882 8.80333 51.4775 8.82147C51.4668 8.83962 51.4444 8.87697 51.4284 8.90578C51.4209 8.91645 51.4156 8.92819 51.4092 8.93886C51.4042 8.94645 51.3995 8.95429 51.3953 8.96234L51.3654 9.01463L51.3142 9.10641L51.2865 9.1587L51.2662 9.19498C51.2665 9.19818 51.2665 9.2014 51.2662 9.20459L51.1968 9.33692C51.1968 9.34546 51.1883 9.35399 51.183 9.36253C51.1776 9.37107 51.1702 9.38708 51.1648 9.39988C51.1595 9.41269 51.1477 9.4319 51.1403 9.44897L51.0794 9.56956L51.0634 9.60264L51.0378 9.65707C51.0175 9.69762 50.9983 9.73924 50.9791 9.78086C50.9727 9.79474 50.9653 9.80968 50.9588 9.82462L50.9439 9.85663C50.9172 9.91533 50.8906 9.97509 50.8649 10.0349V10.0434L50.8585 10.0562C50.8565 10.0624 50.854 10.0685 50.8511 10.0743C50.8255 10.1352 50.7998 10.196 50.7753 10.2568L50.7678 10.2728L50.7518 10.3144C50.7326 10.3625 50.7134 10.4116 50.6953 10.4607C50.6889 10.4745 50.6835 10.4895 50.6782 10.5044C50.6752 10.5106 50.6727 10.517 50.6707 10.5236C50.6678 10.5174 50.6653 10.511 50.6632 10.5044C50.6579 10.4895 50.6515 10.4745 50.6462 10.4607C50.628 10.4116 50.6088 10.3625 50.5896 10.3144C50.5832 10.3006 50.5789 10.2867 50.5725 10.2728L50.5661 10.2568C50.5405 10.196 50.516 10.1352 50.4893 10.0743C50.4873 10.0681 50.4848 10.062 50.4818 10.0562L50.4765 10.0434V10.0349C50.4498 9.97509 50.4242 9.91533 50.3965 9.85663L50.3826 9.82462C50.3751 9.80968 50.3687 9.79474 50.3623 9.78086C50.3431 9.73924 50.3228 9.69762 50.3036 9.65707L50.278 9.60264C50.2727 9.59197 50.2673 9.58023 50.2609 9.56956C50.2417 9.52901 50.2214 9.48846 50.2012 9.44897L50.1766 9.39988L50.1574 9.36253C50.1574 9.35399 50.1489 9.34546 50.1435 9.33692C50.1211 9.2921 50.0976 9.24834 50.0742 9.20459C50.0728 9.20118 50.071 9.19795 50.0688 9.19498L50.0496 9.1587L50.0208 9.10641L49.9696 9.01463L49.9408 8.96234C49.9358 8.95475 49.9311 8.94692 49.9269 8.93886L49.9077 8.90578C49.8917 8.87697 49.8746 8.84922 49.8586 8.82147L49.8276 8.76812L49.7903 8.70622C49.7828 8.69448 49.7754 8.68274 49.769 8.671L49.7305 8.60804C49.7241 8.5995 49.7199 8.59097 49.7145 8.58243L49.6676 8.50879L49.6356 8.45864L49.5939 8.39461L49.5747 8.36472C49.5577 8.33911 49.5416 8.3135 49.5246 8.28896L49.5096 8.26654L49.4723 8.21105L49.4392 8.16303L49.3794 8.07659L49.3506 8.03497L49.341 8.02216L49.3122 7.98161C49.2898 7.94959 49.2663 7.91758 49.2428 7.88663L49.2076 7.83861C49.1635 7.77885 49.1187 7.71908 49.0732 7.65932C49.0646 7.64865 49.0561 7.63905 49.0486 7.62838C49.0411 7.6177 49.0305 7.60597 49.0219 7.59529C48.9921 7.55581 48.9611 7.51739 48.9302 7.47897L48.9024 7.44375L48.8768 7.41281L48.7797 7.29542L48.7455 7.2538L48.7349 7.24313C48.6879 7.18657 48.6399 7.13107 48.5919 7.07665L48.5833 7.06704L48.4393 6.90803L48.42 6.88669L48.4072 6.87388C48.3646 6.82693 48.3219 6.78211 48.2792 6.73622L48.2504 6.70741C48.1436 6.60069 48.0369 6.49397 47.9302 6.38725L47.9206 6.37872L47.7659 6.23251L47.7082 6.21224C47.6592 6.16635 47.6079 6.12046 47.5578 6.07564L47.5396 6.05963C47.4237 5.95718 47.3052 5.85651 47.1843 5.75762L47.1704 5.74695L47.0039 5.61355L46.9826 5.59648C46.7976 5.45419 46.608 5.3151 46.4138 5.17921L46.401 5.17068L46.2142 5.04475V5.03835C46.0146 4.90602 45.8097 4.78009 45.6016 4.6595H45.5942C45.5109 4.61148 45.4277 4.56452 45.3434 4.51863C43.5 3.51678 41.4343 2.99458 39.3363 3.00005C39.3355 4.99728 39.8897 6.95545 40.937 8.65606L40.9488 8.63792C39.8922 10.3413 39.3319 12.3058 39.331 14.3103C39.3301 16.3147 39.8885 18.2797 40.9434 19.9841L40.937 19.9745C39.8897 21.6751 39.3355 23.6333 39.3363 25.6305C41.4321 25.6364 43.4959 25.1157 45.3381 24.1162C45.4227 24.07 45.506 24.023 45.5878 23.9753H45.5963C45.8044 23.8547 46.0093 23.7288 46.2089 23.5965H46.2142L46.401 23.4706L46.4138 23.462C46.608 23.3276 46.7969 23.1888 46.9826 23.0448L47.0039 23.0277C47.0594 22.9839 47.116 22.9391 47.1704 22.8943L47.1843 22.8836C47.3045 22.784 47.423 22.6833 47.5396 22.5816L47.5578 22.5656C47.6079 22.5208 47.6592 22.4749 47.7082 22.429L47.736 22.4044L47.8907 22.2582L47.9003 22.2497C48.0106 22.1437 48.1173 22.037 48.2205 21.9296L48.2493 21.8997C48.292 21.8538 48.3347 21.809 48.3774 21.762L48.3902 21.7492L48.4094 21.7289L48.5534 21.5689L48.562 21.5592C48.61 21.5048 48.658 21.4525 48.705 21.3928L48.7157 21.3821L48.7498 21.3405L48.8469 21.2231L48.8725 21.1921L48.9003 21.1569C48.9312 21.1185 48.9622 21.0801 48.9921 21.0406C49.0006 21.0299 49.0102 21.0193 49.0187 21.0075L49.0422 20.9766C49.087 20.9179 49.1319 20.8581 49.1756 20.7984L49.2108 20.7503C49.2343 20.7194 49.2578 20.6874 49.2802 20.6554L49.309 20.6137L49.3175 20.602L49.3474 20.5604L49.4072 20.4739L49.4403 20.4259L49.4776 20.3704C49.4829 20.3629 49.4883 20.3555 49.4926 20.348C49.5096 20.3235 49.5267 20.2979 49.5427 20.2722L49.5619 20.2434L49.6035 20.1783L49.6356 20.1271C49.6516 20.1036 49.6665 20.0791 49.6814 20.0545C49.6878 20.046 49.6932 20.0375 49.6985 20.0289C49.7039 20.0204 49.7241 19.9873 49.7359 19.966L49.7583 19.9307C49.7711 19.9105 49.7828 19.8891 49.7946 19.8688L49.8266 19.8155L49.8757 19.7322L49.8949 19.6981C49.8949 19.6896 49.9045 19.6821 49.9088 19.6746L49.9376 19.6223L49.9888 19.5306L50.0176 19.4783L50.0368 19.442C50.039 19.439 50.0408 19.4358 50.0421 19.4324C50.0656 19.3886 50.0891 19.3449 50.1115 19.3011L50.1254 19.2744L50.1446 19.2371L50.1691 19.188L50.2289 19.0685C50.2353 19.0567 50.2406 19.045 50.246 19.0343L50.2716 18.9799C50.2908 18.9393 50.3111 18.8977 50.3292 18.8572L50.3506 18.8123C50.3506 18.8017 50.3602 18.791 50.3644 18.7814C50.3911 18.7216 50.4178 18.6629 50.4434 18.6032V18.5936L50.4487 18.5808C50.4517 18.5749 50.4542 18.5689 50.4562 18.5626C50.4829 18.5018 50.5074 18.441 50.533 18.3801C50.536 18.3747 50.5385 18.3689 50.5405 18.3631C50.5469 18.3492 50.5512 18.3353 50.5576 18.3214C50.5768 18.2734 50.596 18.2243 50.6142 18.1752L50.6312 18.1326C50.6331 18.1256 50.6356 18.1188 50.6387 18.1123C50.6387 18.1187 50.6387 18.1251 50.6462 18.1326C50.6536 18.14 50.6568 18.1614 50.6632 18.1752C50.6814 18.2243 50.7006 18.2734 50.7198 18.3214L50.7358 18.3631C50.7387 18.3686 50.7412 18.3743 50.7433 18.3801C50.7678 18.441 50.7934 18.5018 50.819 18.5626C50.822 18.5685 50.8245 18.5745 50.8265 18.5808L50.8319 18.5936C50.8323 18.5968 50.8323 18.6 50.8319 18.6032L50.9108 18.7814C50.9162 18.791 50.9204 18.8017 50.9258 18.8123L50.946 18.8572C50.9653 18.8977 50.9845 18.9393 51.0047 18.9799L51.0304 19.0343L51.0464 19.0685L51.1072 19.188C51.1147 19.2051 51.1232 19.2211 51.1317 19.2371C51.1403 19.2531 51.1435 19.2616 51.1499 19.2744C51.1551 19.283 51.1598 19.2919 51.1637 19.3011L51.2331 19.4324C51.2335 19.4356 51.2335 19.4388 51.2331 19.442L51.2523 19.4783L51.2811 19.5306L51.3324 19.6223L51.3622 19.6746L51.375 19.6981L51.3953 19.7322C51.4113 19.76 51.4273 19.7877 51.4444 19.8155C51.4615 19.8432 51.4647 19.8518 51.4754 19.8688L51.5127 19.9307C51.5191 19.9425 51.5266 19.9542 51.5341 19.966L51.5725 20.0289L51.5885 20.0545L51.6344 20.1271L51.6664 20.1783L51.708 20.2434L51.7283 20.2722C51.7443 20.2979 51.7614 20.3235 51.7784 20.348L51.7923 20.3704C51.8051 20.3886 51.8179 20.4067 51.8297 20.4259L51.8627 20.4739L51.9225 20.5604L51.9524 20.602L51.9609 20.6137L51.9908 20.6554L52.0591 20.7503L52.0943 20.7984L52.2288 20.9766C52.2373 20.9872 52.2448 20.9979 52.2533 21.0075L52.2789 21.0406L52.3718 21.1569L52.3995 21.1921L52.4251 21.2231L52.5223 21.3405L52.5564 21.3821L52.566 21.3928C52.614 21.4493 52.661 21.5048 52.7101 21.5592L52.7186 21.5689C52.7656 21.6222 52.8136 21.6756 52.8627 21.7289L52.8808 21.7492L52.8936 21.762C52.9363 21.809 52.979 21.8538 53.0228 21.8997C53.0326 21.9091 53.0418 21.9191 53.0505 21.9296C53.1572 22.0398 53.2639 22.1466 53.3707 22.2497L53.3803 22.2582C53.4304 22.3073 53.487 22.3554 53.535 22.4044L53.5617 22.429C53.6118 22.4749 53.662 22.5208 53.7132 22.5656L53.7303 22.5816C53.8463 22.684 53.9647 22.7847 54.0857 22.8836L54.0995 22.8943C54.155 22.9391 54.2063 22.9839 54.2671 23.0277L54.2884 23.0448C54.4731 23.1888 54.663 23.3276 54.8562 23.462L54.87 23.4706L55.0568 23.5965L55.0664 23.6029C55.2663 23.7352 55.4705 23.8615 55.679 23.9817H55.6864L55.9361 24.1226C57.7788 25.122 59.8428 25.6427 61.939 25.6369C61.9381 23.6392 61.3821 21.681 60.3329 19.9809L60.3265 19.9905C61.3815 18.2861 61.9399 16.3211 61.9389 14.3167C61.938 12.3122 61.3777 10.3477 60.3212 8.64432L60.3553 8.64112ZM59.4664 7.3968L59.4866 7.42241C59.1631 7.02625 58.8141 6.65159 58.4419 6.30081C57.9777 6.48297 57.5288 6.70172 57.0994 6.95499C57.8742 7.62024 58.5444 8.3984 59.0875 9.26328C60.0395 10.7775 60.5446 12.5298 60.5446 14.3185C60.5446 16.1071 60.0395 17.8594 59.0875 19.3737C58.29 20.6395 57.2262 21.7163 55.9703 22.5293C55.656 22.3248 55.3528 22.1035 55.0621 21.8666C55.0045 21.8196 54.9479 21.7716 54.8914 21.7236L54.8199 21.6628C54.7719 21.6211 54.7228 21.5785 54.6758 21.5347C54.6449 21.508 54.615 21.4803 54.5851 21.4525L54.4421 21.3191L54.4186 21.2967C54.3589 21.2391 54.3002 21.1815 54.2425 21.1228L54.2255 21.1057C53.7077 20.5811 53.2489 20.0014 52.8574 19.3769C52.0299 18.0571 51.5379 16.555 51.4241 15.0015C51.4241 14.9908 51.4241 14.9801 51.4241 14.9705C51.4177 14.8798 51.4135 14.7902 51.4103 14.7005V14.6301C51.4103 14.5234 51.4049 14.4273 51.4049 14.3249C51.4049 14.2513 51.4049 14.1765 51.4049 14.1029C51.4049 14.073 51.4049 14.0431 51.4049 14.0143C51.4049 13.9855 51.4049 13.9311 51.4103 13.8895L51.4167 13.7678C51.4167 13.7454 51.4167 13.723 51.4167 13.7017C51.5444 11.8396 52.2119 10.0552 53.3376 8.56642C54.2528 9.03988 55.0494 9.71361 55.6683 10.5375C56.4942 11.6278 56.9412 12.9581 56.9412 14.326C56.9412 15.6938 56.4942 17.0241 55.6683 18.1144C55.3215 18.5764 54.9174 18.9924 54.4656 19.3523C54.7438 19.7196 55.0503 20.0647 55.3823 20.3843C57.2093 18.9319 58.3704 16.7559 58.3704 14.327C58.3704 11.4275 56.7184 8.89298 54.2532 7.51205C54.3322 7.43202 54.4122 7.35411 54.4944 7.27621C55.3869 6.43539 56.4185 5.75583 57.5433 5.26779L57.6116 5.23791C57.7002 5.20056 57.7888 5.16321 57.8784 5.13119L57.9093 5.11945C57.9969 5.08424 58.0865 5.05115 58.1761 5.01914L58.2146 5.0042C58.3106 4.97005 58.4067 4.93803 58.5038 4.90602L58.5411 4.89428C58.7481 4.82669 58.957 4.76586 59.1675 4.71179C59.5839 4.60455 60.0062 4.52153 60.4321 4.46314C60.2727 5.48724 59.9465 6.47828 59.4664 7.3968ZM42.8675 6.30081C42.4952 6.65186 42.1459 7.0265 41.8217 7.42241L41.8431 7.3968C41.3616 6.47476 41.0357 5.47959 40.8783 4.4514C41.304 4.50978 41.7259 4.59281 42.1419 4.70005C42.3553 4.75483 42.5641 4.81566 42.7683 4.88254L42.8067 4.89428C42.9028 4.92629 42.9999 4.95831 43.0949 4.99246L43.1343 5.0074C43.224 5.03941 43.3126 5.0725 43.4011 5.10771L43.4321 5.11945C43.5207 5.15467 43.6103 5.19202 43.6978 5.22617L43.7661 5.25605C44.8908 5.74558 45.9221 6.42658 46.814 7.26874C46.8961 7.34664 46.9762 7.42455 47.0541 7.50458C44.59 8.8855 42.9369 11.42 42.9369 14.3195C42.9369 16.7495 44.098 18.9244 45.925 20.3768C46.2566 20.0572 46.5627 19.7122 46.8406 19.3449C46.3892 18.9849 45.9854 18.5689 45.639 18.1069C44.813 17.0167 44.366 15.6863 44.366 14.3185C44.366 12.9507 44.813 11.6203 45.639 10.53C46.2577 9.7063 47.0544 9.03289 47.9697 8.56002C49.0954 10.0488 49.7629 11.8332 49.8906 13.6953C49.8906 13.7166 49.8906 13.739 49.8906 13.7614L49.897 13.8831C49.897 13.9247 49.897 13.9663 49.897 14.0079V14.0965C49.897 14.1701 49.897 14.2448 49.897 14.3185C49.897 14.4252 49.897 14.5223 49.8917 14.6237C49.8917 14.6472 49.8917 14.6706 49.8917 14.6941C49.8917 14.7838 49.8831 14.8734 49.8767 14.9641C49.8767 14.9737 49.8767 14.9844 49.8767 14.9951C49.763 16.5486 49.271 18.0507 48.4435 19.3705C48.0517 19.9947 47.5929 20.5744 47.0754 21.0993L47.0583 21.1164L46.8812 21.2903L46.8588 21.3127L46.7158 21.4461L46.6251 21.5283C46.5767 21.5717 46.5287 21.6144 46.481 21.6564L46.4095 21.7172C46.3529 21.7652 46.2964 21.8132 46.2387 21.8602C45.9477 22.0971 45.6442 22.3184 45.3295 22.5229C44.0746 21.7098 43.0117 20.6334 42.2144 19.3683C41.2624 17.8541 40.7574 16.1018 40.7574 14.3131C40.7574 12.5245 41.2624 10.7722 42.2144 9.25795C42.7571 8.3931 43.427 7.61493 44.2015 6.94965C43.7746 6.69857 43.3286 6.48162 42.8675 6.30081ZM41.8431 21.2412C42.4735 22.0051 43.1978 22.6863 43.9987 23.2689C43.9208 23.3051 43.8429 23.3393 43.764 23.3756L43.6957 23.4055C43.6082 23.4428 43.5196 23.4802 43.4299 23.5122L43.399 23.5239C43.3104 23.5591 43.2218 23.5922 43.1322 23.6242L43.0927 23.6392C42.9977 23.6733 42.9006 23.7053 42.8046 23.7373L42.7662 23.7502C42.5602 23.8163 42.351 23.8771 42.1408 23.9316C41.7252 24.0405 41.3037 24.1253 40.8783 24.1856C41.0342 23.1579 41.3587 22.1631 41.8388 21.2412H41.8431ZM60.4332 24.1856C60.0072 24.1272 59.585 24.0442 59.1686 23.9369C58.9552 23.8825 58.7492 23.8217 58.5422 23.7555L58.5048 23.7427C58.4077 23.7107 58.3117 23.6787 58.2156 23.6445L58.1761 23.6296C58.0876 23.5975 57.999 23.5645 57.9104 23.5292L57.8795 23.5175C57.7898 23.4823 57.7013 23.4449 57.6127 23.4108L57.5444 23.3809C57.4665 23.3468 57.3886 23.3126 57.3107 23.2742C58.1116 22.6917 58.8359 22.0104 59.4664 21.2466C59.9476 22.1666 60.2743 23.1595 60.4332 24.1856Z" fill="white"></path>
  <path d="M50.6547 7.69581C51.1986 6.87262 51.8364 6.11552 52.5554 5.4398C53.6252 4.43103 54.8549 3.60666 56.1944 3.00024L53.4048 3.00024C52.3906 3.68283 51.4666 4.49066 50.6547 5.40458C49.8428 4.49066 48.9188 3.68283 47.9046 3.00024L45.114 3.00024C46.4538 3.60632 47.6838 4.43032 48.7541 5.43873C49.4728 6.11507 50.1106 6.87249 50.6547 7.69581Z" fill="white"></path>
  <path d="M22.9701 41.0689C22.2405 41.0841 21.5213 40.894 20.8944 40.5204C20.2929 40.1404 19.8097 39.5995 19.4996 38.9591C19.154 38.2222 18.9835 37.4154 19.0013 36.6017C19.0013 35.7046 19.1674 34.9241 19.4996 34.2603C19.8037 33.6159 20.2882 33.0736 20.8944 32.6991C21.5215 32.3259 22.2405 32.1358 22.9701 32.1505C23.5702 32.1374 24.1585 32.3182 24.6477 32.666C25.1397 33.0168 25.5294 33.4924 25.7767 34.0437V28.1156L24.6146 27.9491V27.6172H27.4373V40.403L28.5994 40.5695V40.9014H25.7767V39.1757C25.5265 39.73 25.1376 40.2103 24.6477 40.5705C24.1543 40.9079 23.5676 41.0822 22.9701 41.0689ZM23.1366 40.6538C23.6054 40.6579 24.0633 40.5125 24.4438 40.2386C24.8472 39.9451 25.1722 39.557 25.3904 39.1085C25.6348 38.63 25.7655 38.1016 25.7725 37.5643V35.6551C25.7668 35.1228 25.6359 34.5993 25.3904 34.1269C25.1783 33.6748 24.8521 33.2856 24.4438 32.9979C24.0663 32.713 23.6052 32.5611 23.1323 32.5657C21.5934 32.5657 20.824 33.6328 20.824 35.7672V37.4277C20.8268 39.5777 21.5977 40.6531 23.1366 40.6538ZM34.3686 41.0689C33.5918 41.0797 32.8253 40.8908 32.1424 40.5204C31.4824 40.1486 30.9369 39.6031 30.5651 38.9431C30.1859 38.2243 29.9863 37.4244 29.9835 36.6117C29.9807 35.799 30.1748 34.9977 30.5491 34.2763C30.9143 33.6263 31.4496 33.088 32.0976 32.7193C32.7594 32.341 33.5102 32.1461 34.2725 32.1548C34.9273 32.1423 35.5741 32.3001 36.1497 32.6126C36.6943 32.9143 37.1429 33.3633 37.4441 33.9082C37.7625 34.4821 37.9286 35.128 37.9265 35.7843H31.8148V37.4288C31.8148 38.4027 32.0307 39.1942 32.4626 39.8032C32.9051 40.4009 33.5418 40.6997 34.3728 40.6997C35.1014 40.7117 35.8138 40.4841 36.4004 40.0519C36.9642 39.6546 37.3509 39.0532 37.4783 38.3754H37.8593C37.7302 39.1535 37.3106 39.8538 36.6854 40.3347C36.0508 40.8249 35.2785 41.0696 34.3686 41.0689ZM36.0952 35.3723C36.0952 34.4097 35.9458 33.6958 35.647 33.2305C35.3482 32.7546 34.8833 32.5166 34.2522 32.5166C33.5109 32.5166 32.935 32.7766 32.5245 33.2967C32.114 33.8168 31.8817 34.5086 31.8276 35.3723H36.0952ZM39.3587 40.5705L40.5261 40.403V32.7983L39.3629 32.6329V32.2999H42.1867V33.5806C42.8839 32.6272 43.67 32.1509 44.5451 32.1516C44.9414 32.1443 45.33 32.2607 45.6571 32.4846C45.7868 32.5727 45.8961 32.6877 45.9776 32.8216C46.0592 32.9555 46.1112 33.1053 46.1301 33.261C46.149 33.4166 46.1344 33.5745 46.0872 33.7241C46.0401 33.8736 45.9615 34.0114 45.8567 34.128C45.7579 34.2234 45.6407 34.2976 45.5122 34.3463C45.3838 34.3949 45.2468 34.4168 45.1096 34.4108C44.943 34.4146 44.7779 34.379 44.6277 34.3068C44.4775 34.2347 44.3464 34.1281 44.2452 33.9957C44.3621 33.8557 44.427 33.6796 44.4288 33.4973C44.4323 33.4123 44.4161 33.3276 44.3815 33.2498C44.3468 33.1721 44.2947 33.1034 44.2292 33.0491C44.1629 32.9864 44.0845 32.9378 43.9989 32.9062C43.9132 32.8746 43.822 32.8608 43.7309 32.8655C43.4982 32.8655 43.2602 32.9765 43.0169 33.1985C42.7002 33.4949 42.4213 33.8293 42.1867 34.1942V40.403L43.5153 40.5695V40.9014H39.3629L39.3587 40.5705ZM47.0423 40.5705L48.2044 40.403V32.7983L47.0423 32.6329V32.2999H49.865V33.8281C50.2319 33.337 50.6885 32.9199 51.2107 32.5988C51.7078 32.3032 52.2758 32.1483 52.8541 32.1505C53.53 32.1505 54.0782 32.2999 54.4986 32.5988C54.9298 32.8833 55.2008 33.3209 55.3118 33.9114C55.6772 33.3992 56.1399 32.9641 56.6735 32.6308C57.1746 32.3117 57.7571 32.1442 58.3511 32.1484C59.138 32.1484 59.747 32.348 60.1781 32.7471C60.6207 33.1348 60.8419 33.7271 60.8419 34.5239V40.403L62.0083 40.5705V40.9024H58.1847V40.5705L59.1814 40.4041V34.5591C59.1814 33.9722 59.0747 33.5236 58.8612 33.2134C58.6478 32.9033 58.3049 32.7485 57.8325 32.7492C57.3514 32.7582 56.8858 32.9209 56.5039 33.2134C56.0597 33.5477 55.6726 33.9517 55.3577 34.4097V40.403L56.3544 40.5695V40.9014H52.6887V40.5695L53.6844 40.403V34.5591C53.6844 33.9722 53.5794 33.5236 53.3696 33.2134C53.1597 32.9033 52.8164 32.7485 52.3397 32.7492C51.8605 32.7593 51.397 32.9219 51.0164 33.2134C50.5725 33.548 50.1855 33.9519 49.8703 34.4097V40.403L50.867 40.5695V40.9014H47.0423V40.5705ZM67.7391 41.0689C66.9623 41.0797 66.1958 40.8908 65.5129 40.5204C64.8529 40.1486 64.3074 39.6031 63.9356 38.9431C63.5564 38.2243 63.3568 37.4244 63.354 36.6117C63.3512 35.799 63.5453 34.9977 63.9196 34.2763C64.2836 33.6269 64.8174 33.0886 65.4638 32.7193C66.1257 32.341 66.8765 32.1461 67.6387 32.1548C68.2935 32.1423 68.9404 32.3001 69.5159 32.6126C70.0605 32.9143 70.5092 33.3633 70.8104 33.9082C71.1293 34.483 71.2954 35.1301 71.2927 35.7875H65.181V37.432C65.181 38.406 65.397 39.1974 65.8288 39.8064C66.2713 40.4041 66.9081 40.7029 67.7391 40.7029C68.4676 40.7149 69.18 40.4873 69.7667 40.0551C70.3312 39.6571 70.7179 39.0543 70.8445 38.3754H71.2266C71.0956 39.1542 70.6742 39.8543 70.0473 40.3347C69.4156 40.8249 68.6461 41.0696 67.7391 41.0689ZM69.4657 35.3723C69.4657 34.4097 69.3163 33.6958 69.0175 33.2305C68.7187 32.7546 68.2538 32.5166 67.6227 32.5166C66.8814 32.5166 66.3055 32.7766 65.895 33.2967C65.4845 33.8168 65.2522 34.5086 65.1981 35.3723H69.4657ZM80.6839 40.4211L81.751 40.5705V40.9024H77.6958V40.5705L78.6925 40.4041L76.4034 37.2655L73.9607 40.1896L75.3053 40.5716V40.9035H72.3354V40.5716L73.4474 40.1565L76.1377 36.8813L73.1496 32.7802L72.1369 32.6308V32.2978H76.1921V32.6308L75.1463 32.8133L77.2219 35.653L79.447 33.0288L78.1354 32.6468V32.3149H81.1908V32.6468L79.9785 33.079L77.4823 36.0372L80.6839 40.4211Z" fill="white"></path>
  <path d="M33.0303 47.9927L32.661 47.1261H30.8297L30.4669 47.9959H29.9653L31.5106 44.4155H32.0068L33.5468 47.9959L33.0303 47.9927ZM31.0186 46.6779H32.4785L31.7443 44.9395L31.0186 46.6779Z" fill="white"></path>
  <path d="M35.4976 44.4124H37.8902V44.8574H35.9693V45.9619H37.6896V46.4069H35.9693V47.553H37.951V47.9981H35.4965L35.4976 44.4124Z" fill="white"></path>
  <path d="M42.2816 45.1039C42.1184 44.9996 41.9408 44.9198 41.7544 44.867C41.5941 44.8149 41.4268 44.7872 41.2582 44.7848C41.0808 44.776 40.9047 44.819 40.7513 44.9086C40.6934 44.9416 40.6454 44.9897 40.6125 45.0478C40.5797 45.1058 40.5631 45.1717 40.5645 45.2383C40.5605 45.3541 40.6014 45.4669 40.6787 45.5532C40.7582 45.6349 40.8533 45.6998 40.9583 45.7442C41.065 45.789 41.2219 45.8424 41.4183 45.9043C41.6206 45.9631 41.8191 46.0344 42.0127 46.1177C42.166 46.1868 42.2995 46.2932 42.4011 46.4272C42.514 46.5814 42.5706 46.7698 42.5612 46.9608C42.5653 47.1553 42.5053 47.3458 42.3905 47.5029C42.2708 47.6652 42.1076 47.7902 41.9198 47.8636C41.6994 47.9502 41.464 47.9923 41.2273 47.9874C40.9606 47.9874 40.6966 47.9348 40.4504 47.8326C40.2098 47.7367 39.9891 47.5971 39.7994 47.4207L40.0213 46.9938C40.1889 47.159 40.3853 47.2921 40.6008 47.3866C40.8002 47.472 41.0146 47.5174 41.2315 47.52C41.431 47.531 41.6293 47.4827 41.8014 47.3812C41.8572 47.3442 41.9045 47.2958 41.9401 47.2392C41.9758 47.1826 41.9991 47.119 42.0083 47.0528C42.0176 46.9865 42.0127 46.919 41.994 46.8547C41.9752 46.7905 41.943 46.731 41.8996 46.6801C41.8188 46.5937 41.7196 46.5266 41.6093 46.4837C41.4571 46.4223 41.3018 46.3688 41.144 46.3237C40.943 46.2649 40.7459 46.1936 40.5539 46.1102C40.4025 46.0409 40.2697 45.9367 40.1665 45.8061C40.0631 45.6519 40.0079 45.4704 40.0079 45.2848C40.0079 45.0991 40.0631 44.9176 40.1665 44.7634C40.281 44.6097 40.4368 44.4916 40.6158 44.423C40.8304 44.3401 41.0591 44.2999 41.2892 44.3046C41.5064 44.3042 41.7223 44.3373 41.9295 44.4027C42.127 44.4589 42.3151 44.5442 42.4876 44.6557L42.2816 45.1039Z" fill="white"></path>
  <path d="M44.1075 44.4124H46.768V44.8627H45.6688V47.9927H45.2014V44.8627H44.1075V44.4124Z" fill="white"></path>
  <path d="M48.4147 44.4124H48.8949V46.0078H50.8969V44.4124H51.3814V47.9927H50.8969V46.4528H48.8949V47.9927H48.4147V44.4124Z" fill="white"></path>
  <path d="M53.4261 44.4124H55.8188V44.8574H53.8978V45.9619H55.6192V46.4069H53.8978V47.553H55.8806V47.9981H53.4261V44.4124Z" fill="white"></path>
  <path d="M57.5166 44.4124H60.2795V44.8627H59.1376V47.9927H58.6531V44.8627H57.5166V44.4124Z" fill="white"></path>
  <path d="M61.8162 44.4124H62.2217V47.9927H61.8162V44.4124Z" fill="white"></path>
  <path d="M66.7498 45.2053C66.6175 45.0626 66.4573 44.9485 66.2791 44.8702C66.1067 44.7883 65.9183 44.7457 65.7274 44.7453C65.4855 44.7433 65.2477 44.8079 65.0402 44.9321C64.8319 45.056 64.6597 45.2324 64.5408 45.4436C64.422 45.6548 64.3605 45.8935 64.3625 46.1358C64.3606 46.38 64.4232 46.6204 64.5439 46.8327C64.6617 47.0422 64.8329 47.2168 65.0402 47.3385C65.2477 47.4627 65.4855 47.5273 65.7274 47.5253C65.9163 47.5261 66.1033 47.4883 66.277 47.4143C66.4536 47.337 66.6148 47.2285 66.753 47.0942L67.0464 47.4196C66.8677 47.5998 66.6567 47.7446 66.4243 47.8465C66.0133 48.0272 65.55 48.0491 65.1238 47.9079C64.6976 47.7668 64.3389 47.4727 64.1171 47.0824C63.9551 46.7973 63.8715 46.4744 63.8748 46.1465C63.8697 45.8238 63.9512 45.5056 64.111 45.2252C64.2707 44.9448 64.5028 44.7123 64.783 44.5522C65.0681 44.3903 65.391 44.3067 65.7189 44.3099C65.9637 44.3098 66.2062 44.3587 66.4317 44.454C66.6579 44.5434 66.8629 44.679 67.0336 44.852L66.7498 45.2053Z" fill="white"></path>
  <path d="M70.9726 45.1038C70.8088 44.9998 70.6309 44.92 70.4443 44.8669C70.284 44.8149 70.1167 44.7872 69.9481 44.7848C69.7707 44.7759 69.5945 44.8189 69.4412 44.9086C69.3832 44.9416 69.3353 44.9897 69.3024 45.0477C69.2695 45.1058 69.253 45.1716 69.2544 45.2383C69.2504 45.3541 69.2913 45.4669 69.3686 45.5531C69.4481 45.6348 69.5432 45.6998 69.6482 45.7442C69.7549 45.789 69.9118 45.8423 70.1082 45.9042C70.3105 45.9631 70.509 46.0344 70.7026 46.1177C70.8559 46.1868 70.9894 46.2932 71.091 46.4271C71.2039 46.5814 71.2604 46.7698 71.2511 46.9607C71.2552 47.1553 71.1952 47.3458 71.0804 47.5029C70.9607 47.6651 70.7975 47.7902 70.6097 47.8636C70.3893 47.9502 70.1539 47.9923 69.9171 47.9874C69.6508 47.9875 69.3872 47.9349 69.1413 47.8326C68.9003 47.7369 68.6792 47.5973 68.4893 47.4207L68.7112 46.9938C68.8788 47.159 69.0752 47.2921 69.2907 47.3865C69.4905 47.4721 69.7052 47.5175 69.9225 47.5199C70.1216 47.5308 70.3195 47.4826 70.4913 47.3812C70.5471 47.3442 70.5943 47.2958 70.63 47.2392C70.6657 47.1826 70.6889 47.119 70.6982 47.0527C70.7075 46.9865 70.7026 46.919 70.6839 46.8547C70.6651 46.7905 70.6329 46.7309 70.5895 46.6801C70.5086 46.5937 70.4094 46.5266 70.2992 46.4837C70.147 46.4222 69.9917 46.3688 69.8339 46.3236C69.6329 46.2649 69.4358 46.1936 69.2437 46.1102C69.0924 46.0409 68.9596 45.9367 68.8564 45.806C68.7536 45.6516 68.6988 45.4702 68.6988 45.2847C68.6988 45.0992 68.7536 44.9179 68.8564 44.7634C68.9711 44.6099 69.1268 44.4919 69.3056 44.423C69.5203 44.3403 69.749 44.3001 69.979 44.3045C70.1962 44.3041 70.4122 44.3372 70.6193 44.4027C70.817 44.4587 71.0051 44.544 71.1775 44.6556L70.9726 45.1038Z" fill="white"></path>
</svg>
