<?xml version="1.0" encoding="UTF-8"?>
<svg xmlns="http://www.w3.org/2000/svg" width="101" height="50" viewBox="0 0 101 50" fill="none">
  <path d="M88.8108 36.0696C88.1195 36.0696 87.4282 36.0696 86.7561 36.0696C86.5641 36.0696 86.4873 36.012 86.4297 35.82C85.7 33.0741 84.9511 30.3473 84.2214 27.6014C83.8566 26.2188 83.4725 24.817 83.1077 23.4344C83.0885 23.3768 83.0693 23.3192 83.0117 23.2616C83.0117 27.5053 83.0117 31.7683 83.0117 36.0312C82.2436 36.0312 81.4947 36.0312 80.7266 36.0312C80.7266 28.8687 80.7266 21.687 80.7266 14.4861C80.9378 14.4861 81.1298 14.4861 81.341 14.4861C81.8211 14.4861 82.3204 14.4861 82.8004 14.4861C82.9733 14.4861 83.0309 14.5437 83.0693 14.6973C84.1638 18.7682 85.2583 22.8584 86.3721 26.9293C86.3913 27.0253 86.4297 27.1405 86.5065 27.2173C86.5065 22.9736 86.5065 18.749 86.5065 14.4861C87.2938 14.4861 88.0619 14.4861 88.8108 14.4861C88.8108 21.687 88.8108 28.8687 88.8108 36.0696Z" fill="white"></path>
  <path d="M88.8108 36.0696C88.1195 36.0696 87.4282 36.0696 86.7561 36.0696C86.5641 36.0696 86.4873 36.012 86.4297 35.82C85.7 33.0741 84.9511 30.3473 84.2214 27.6014C83.8566 26.2188 83.4725 24.817 83.1077 23.4344C83.0885 23.3768 83.0693 23.3192 83.0117 23.2616C83.0117 27.5053 83.0117 31.7683 83.0117 36.0312C82.2436 36.0312 81.4947 36.0312 80.7266 36.0312C80.7266 28.8687 80.7266 21.687 80.7266 14.4861C80.9378 14.4861 81.1298 14.4861 81.341 14.4861C81.8211 14.4861 82.3204 14.4861 82.8004 14.4861C82.9733 14.4861 83.0309 14.5437 83.0693 14.6973C84.1638 18.7682 85.2583 22.8584 86.3721 26.9293C86.3913 27.0253 86.4297 27.1405 86.5065 27.2173C86.5065 22.9736 86.5065 18.749 86.5065 14.4861C87.2938 14.4861 88.0619 14.4861 88.8108 14.4861C88.8108 21.687 88.8108 28.8687 88.8108 36.0696Z" fill="url(#paint0_linear_415_90)"></path>
  <path d="M12 15.9452C12.4417 15.5035 12.8641 15.081 13.325 14.6586C13.4018 14.5818 13.5362 14.5242 13.6514 14.5242C15.2836 14.5242 16.8966 14.5242 18.5288 14.5242C18.6248 14.5242 18.7593 14.5818 18.8361 14.6586C19.2393 15.0426 19.6426 15.4459 20.0458 15.8683C20.1034 15.9259 20.161 16.022 20.161 16.118C20.161 17.3853 20.161 18.6527 20.161 19.9393C20.161 19.9777 20.161 19.9969 20.1418 20.0353C19.3545 20.0353 18.5864 20.0353 17.7799 20.0353C17.7799 18.8639 17.7799 17.7118 17.7799 16.5212C16.647 16.5212 15.5333 16.5212 14.4195 16.5212C14.4195 22.378 14.4195 28.2347 14.4195 34.0915C14.4771 34.0915 14.5347 34.1107 14.6115 34.1107C15.7061 34.1107 16.7814 34.1107 17.876 34.1107C18.0296 34.1107 18.1064 34.0915 18.1064 33.8994C18.1064 31.768 18.1064 29.6365 18.1064 27.5242C18.1064 27.4858 18.1064 27.4282 18.0872 27.3514C17.6263 27.3514 17.1847 27.3514 16.7238 27.3514C16.6278 26.6793 16.5318 26.0072 16.4358 25.3352C17.7223 25.3352 19.0089 25.3352 20.3147 25.3352C20.3147 25.4312 20.3147 25.508 20.3147 25.604C20.3147 28.542 20.3147 31.4799 20.3147 34.4179C20.3147 34.5715 20.2763 34.6867 20.161 34.802C19.7578 35.186 19.3737 35.5893 18.9705 35.9925C18.8937 36.0693 18.7785 36.1077 18.6825 36.1077C17.0118 36.1077 15.322 36.1077 13.6514 36.1077C13.5554 36.1077 13.4402 36.0501 13.3634 35.9733C12.9217 35.5509 12.4801 35.1092 12.0384 34.6675C12 28.3883 12 22.1667 12 15.9452Z" fill="white"></path>
  <path d="M12 15.9452C12.4417 15.5035 12.8641 15.081 13.325 14.6586C13.4018 14.5818 13.5362 14.5242 13.6514 14.5242C15.2836 14.5242 16.8966 14.5242 18.5288 14.5242C18.6248 14.5242 18.7593 14.5818 18.8361 14.6586C19.2393 15.0426 19.6426 15.4459 20.0458 15.8683C20.1034 15.9259 20.161 16.022 20.161 16.118C20.161 17.3853 20.161 18.6527 20.161 19.9393C20.161 19.9777 20.161 19.9969 20.1418 20.0353C19.3545 20.0353 18.5864 20.0353 17.7799 20.0353C17.7799 18.8639 17.7799 17.7118 17.7799 16.5212C16.647 16.5212 15.5333 16.5212 14.4195 16.5212C14.4195 22.378 14.4195 28.2347 14.4195 34.0915C14.4771 34.0915 14.5347 34.1107 14.6115 34.1107C15.7061 34.1107 16.7814 34.1107 17.876 34.1107C18.0296 34.1107 18.1064 34.0915 18.1064 33.8994C18.1064 31.768 18.1064 29.6365 18.1064 27.5242C18.1064 27.4858 18.1064 27.4282 18.0872 27.3514C17.6263 27.3514 17.1847 27.3514 16.7238 27.3514C16.6278 26.6793 16.5318 26.0072 16.4358 25.3352C17.7223 25.3352 19.0089 25.3352 20.3147 25.3352C20.3147 25.4312 20.3147 25.508 20.3147 25.604C20.3147 28.542 20.3147 31.4799 20.3147 34.4179C20.3147 34.5715 20.2763 34.6867 20.161 34.802C19.7578 35.186 19.3737 35.5893 18.9705 35.9925C18.8937 36.0693 18.7785 36.1077 18.6825 36.1077C17.0118 36.1077 15.322 36.1077 13.6514 36.1077C13.5554 36.1077 13.4402 36.0501 13.3634 35.9733C12.9217 35.5509 12.4801 35.1092 12.0384 34.6675C12 28.3883 12 22.1667 12 15.9452Z" fill="url(#paint1_linear_415_90)"></path>
  <path d="M51.7492 5C51.7492 6.95865 51.7492 8.9365 51.7492 10.8952C51.7492 10.9336 51.73 10.972 51.73 11.0296C51.4804 11.0296 51.25 11.0296 50.9811 11.0296C50.9811 9.99264 50.9811 8.95571 50.9811 7.89957C50.6547 7.89957 50.3475 7.89957 50.0018 7.89957C50.0018 8.9365 50.0018 9.97344 50.0018 11.0296C49.733 11.0296 49.5026 11.0296 49.2337 11.0296C49.2337 10.9336 49.2145 10.8375 49.2145 10.7415C49.2145 8.9173 49.2145 7.11227 49.2145 5.28804C49.2145 5.19202 49.1953 5.09601 49.1953 5C49.4641 5 49.733 5 50.021 5C50.021 5.72969 50.021 6.45939 50.021 7.20828C50.3475 7.20828 50.6547 7.20828 50.9811 7.20828C50.9811 6.45939 50.9811 5.72969 50.9811 5C51.2308 5 51.4996 5 51.7492 5Z" fill="white"></path>
  <path d="M51.7492 5C51.7492 6.95865 51.7492 8.9365 51.7492 10.8952C51.7492 10.9336 51.73 10.972 51.73 11.0296C51.4804 11.0296 51.25 11.0296 50.9811 11.0296C50.9811 9.99264 50.9811 8.95571 50.9811 7.89957C50.6547 7.89957 50.3475 7.89957 50.0018 7.89957C50.0018 8.9365 50.0018 9.97344 50.0018 11.0296C49.733 11.0296 49.5026 11.0296 49.2337 11.0296C49.2337 10.9336 49.2145 10.8375 49.2145 10.7415C49.2145 8.9173 49.2145 7.11227 49.2145 5.28804C49.2145 5.19202 49.1953 5.09601 49.1953 5C49.4641 5 49.733 5 50.021 5C50.021 5.72969 50.021 6.45939 50.021 7.20828C50.3475 7.20828 50.6547 7.20828 50.9811 7.20828C50.9811 6.45939 50.9811 5.72969 50.9811 5C51.2308 5 51.4996 5 51.7492 5Z" fill="url(#paint2_linear_415_90)"></path>
  <path d="M54.7263 5C54.7263 5.21123 54.7263 5.42245 54.7263 5.65288C54.3998 5.65288 54.0926 5.65288 53.8046 5.65288C53.4973 5.65288 53.4397 5.71049 53.4397 6.01773C53.4397 6.44018 53.4397 6.88184 53.4397 7.3427C53.8238 7.3427 54.1886 7.3427 54.5727 7.3427C54.5727 7.57313 54.5727 7.78436 54.5727 8.01479C54.2078 8.01479 53.843 8.01479 53.4589 8.01479C53.4589 8.1108 53.4397 8.16841 53.4397 8.24522C53.4397 8.84049 53.4397 9.43577 53.4397 10.0118C53.4397 10.3191 53.4973 10.3767 53.8046 10.3767C54.0926 10.3767 54.3998 10.3767 54.7071 10.3767C54.7071 10.5879 54.7071 10.7991 54.7071 11.0296C54.5919 11.0296 54.4767 11.0296 54.3614 11.0296C53.939 11.0296 53.5357 11.0296 53.1133 11.0296C52.6908 11.0296 52.6716 11.0296 52.6716 10.6071C52.6716 9.03252 52.6716 7.45791 52.6716 5.88331C52.6716 5.69129 52.6524 5.49926 52.6716 5.30724C52.6716 5.19202 52.7292 5.09601 52.7676 5C53.4205 5 54.0734 5 54.7263 5Z" fill="white"></path>
  <path d="M54.7263 5C54.7263 5.21123 54.7263 5.42245 54.7263 5.65288C54.3998 5.65288 54.0926 5.65288 53.8046 5.65288C53.4973 5.65288 53.4397 5.71049 53.4397 6.01773C53.4397 6.44018 53.4397 6.88184 53.4397 7.3427C53.8238 7.3427 54.1886 7.3427 54.5727 7.3427C54.5727 7.57313 54.5727 7.78436 54.5727 8.01479C54.2078 8.01479 53.843 8.01479 53.4589 8.01479C53.4589 8.1108 53.4397 8.16841 53.4397 8.24522C53.4397 8.84049 53.4397 9.43577 53.4397 10.0118C53.4397 10.3191 53.4973 10.3767 53.8046 10.3767C54.0926 10.3767 54.3998 10.3767 54.7071 10.3767C54.7071 10.5879 54.7071 10.7991 54.7071 11.0296C54.5919 11.0296 54.4767 11.0296 54.3614 11.0296C53.939 11.0296 53.5357 11.0296 53.1133 11.0296C52.6908 11.0296 52.6716 11.0296 52.6716 10.6071C52.6716 9.03252 52.6716 7.45791 52.6716 5.88331C52.6716 5.69129 52.6524 5.49926 52.6716 5.30724C52.6716 5.19202 52.7292 5.09601 52.7676 5C53.4205 5 54.0734 5 54.7263 5Z" fill="url(#paint3_linear_415_90)"></path>
  <path d="M48.5813 5C48.5813 5.21123 48.5813 5.42245 48.5813 5.65288C48.3893 5.65288 48.2164 5.65288 48.0436 5.65288C47.8324 5.63368 47.7556 5.72969 47.7556 5.94092C47.7556 7.53472 47.7556 9.12853 47.7556 10.7223C47.7556 10.8183 47.7556 10.9144 47.7556 11.0296C47.4867 11.0296 47.2563 11.0296 46.9683 11.0296C46.9683 10.9336 46.9683 10.8375 46.9683 10.7415C46.9683 9.24374 46.9683 7.74595 46.9683 6.24816C46.9683 5.65288 46.9683 5.65288 46.3922 5.65288C46.2962 5.65288 46.2194 5.65288 46.085 5.65288C46.085 5.42245 46.085 5.21123 46.085 5C46.9107 5 47.7556 5 48.5813 5Z" fill="white"></path>
  <path d="M48.5813 5C48.5813 5.21123 48.5813 5.42245 48.5813 5.65288C48.3893 5.65288 48.2164 5.65288 48.0436 5.65288C47.8324 5.63368 47.7556 5.72969 47.7556 5.94092C47.7556 7.53472 47.7556 9.12853 47.7556 10.7223C47.7556 10.8183 47.7556 10.9144 47.7556 11.0296C47.4867 11.0296 47.2563 11.0296 46.9683 11.0296C46.9683 10.9336 46.9683 10.8375 46.9683 10.7415C46.9683 9.24374 46.9683 7.74595 46.9683 6.24816C46.9683 5.65288 46.9683 5.65288 46.3922 5.65288C46.2962 5.65288 46.2194 5.65288 46.085 5.65288C46.085 5.42245 46.085 5.21123 46.085 5C46.9107 5 47.7556 5 48.5813 5Z" fill="url(#paint4_linear_415_90)"></path>
  <path d="M42.5109 36.0504C41.666 36.0504 40.8595 36.0504 40.0338 36.0504C39.4962 33.1701 38.9393 30.3089 38.3824 27.3901C38.3056 27.4477 38.248 27.4861 38.2096 27.5438C37.6911 28.0622 37.1727 28.5615 36.6734 29.08C36.5774 29.176 36.5198 29.3296 36.5198 29.4448C36.5198 31.5379 36.5198 33.6309 36.5198 35.724C36.5198 35.82 36.5198 35.916 36.5198 36.0312C35.7133 36.0312 34.9452 36.0312 34.1387 36.0312C34.1387 28.8495 34.1387 21.687 34.1387 14.5053C34.2155 14.5053 34.2923 14.4861 34.3691 14.4861C36.347 14.4861 38.344 14.4861 40.3219 14.4861C40.4563 14.4861 40.6099 14.5437 40.6867 14.6397C41.1092 15.0238 41.5124 15.427 41.8965 15.8303C41.9541 15.8879 42.0117 16.0031 42.0117 16.0991C42.0117 18.5954 42.0117 21.0917 42.0117 23.5881C42.0117 23.6841 41.9541 23.8185 41.8773 23.8953C41.4164 24.3754 40.9555 24.8362 40.4947 25.2971C40.4371 25.3547 40.4179 25.4699 40.4179 25.5467C40.9747 28.3695 41.5316 31.1922 42.0885 34.015C42.2421 34.7063 42.3765 35.3592 42.5109 36.0504ZM36.539 26.4876C36.5966 26.43 36.635 26.4108 36.6542 26.3916C37.6143 25.4315 38.5744 24.4714 39.5346 23.5112C39.6114 23.4344 39.6498 23.3 39.6498 23.1848C39.6498 21.0533 39.6498 18.9219 39.6498 16.7712C39.6498 16.6944 39.6498 16.6176 39.6306 16.5407C38.5744 16.5407 37.5567 16.5407 36.5198 16.5407C36.539 19.8436 36.539 23.1464 36.539 26.4876Z" fill="white"></path>
  <path d="M42.5109 36.0504C41.666 36.0504 40.8595 36.0504 40.0338 36.0504C39.4962 33.1701 38.9393 30.3089 38.3824 27.3901C38.3056 27.4477 38.248 27.4861 38.2096 27.5438C37.6911 28.0622 37.1727 28.5615 36.6734 29.08C36.5774 29.176 36.5198 29.3296 36.5198 29.4448C36.5198 31.5379 36.5198 33.6309 36.5198 35.724C36.5198 35.82 36.5198 35.916 36.5198 36.0312C35.7133 36.0312 34.9452 36.0312 34.1387 36.0312C34.1387 28.8495 34.1387 21.687 34.1387 14.5053C34.2155 14.5053 34.2923 14.4861 34.3691 14.4861C36.347 14.4861 38.344 14.4861 40.3219 14.4861C40.4563 14.4861 40.6099 14.5437 40.6867 14.6397C41.1092 15.0238 41.5124 15.427 41.8965 15.8303C41.9541 15.8879 42.0117 16.0031 42.0117 16.0991C42.0117 18.5954 42.0117 21.0917 42.0117 23.5881C42.0117 23.6841 41.9541 23.8185 41.8773 23.8953C41.4164 24.3754 40.9555 24.8362 40.4947 25.2971C40.4371 25.3547 40.4179 25.4699 40.4179 25.5467C40.9747 28.3695 41.5316 31.1922 42.0885 34.015C42.2421 34.7063 42.3765 35.3592 42.5109 36.0504ZM36.539 26.4876C36.5966 26.43 36.635 26.4108 36.6542 26.3916C37.6143 25.4315 38.5744 24.4714 39.5346 23.5112C39.6114 23.4344 39.6498 23.3 39.6498 23.1848C39.6498 21.0533 39.6498 18.9219 39.6498 16.7712C39.6498 16.6944 39.6498 16.6176 39.6306 16.5407C38.5744 16.5407 37.5567 16.5407 36.5198 16.5407C36.539 19.8436 36.539 23.1464 36.539 26.4876Z" fill="url(#paint5_linear_415_90)"></path>
  <path d="M44.8545 14.5051C44.9505 14.5051 45.0273 14.5051 45.1041 14.5051C47.082 14.5051 49.0598 14.5051 51.0377 14.5051C51.1721 14.5051 51.3257 14.5627 51.4217 14.6395C51.8442 15.0236 52.2474 15.4268 52.6315 15.8301C52.6891 15.8877 52.7467 16.0029 52.7467 16.0989C52.7467 18.6145 52.7467 21.13 52.7467 23.6263C52.7467 23.7031 52.6891 23.8183 52.6315 23.8759C52.1706 24.356 51.7098 24.8168 51.2489 25.2777C51.1529 25.3737 51.1337 25.4505 51.1529 25.5849C51.6138 27.9084 52.0746 30.2319 52.5355 32.5362C52.7659 33.6884 52.9963 34.8597 53.2268 36.0311C52.4011 36.0311 51.5946 36.0311 50.7496 36.0311C50.212 33.1507 49.6551 30.2703 49.0982 27.3516C48.7142 27.7356 48.3685 28.0813 48.0229 28.4461C47.7733 28.7149 47.4084 28.9262 47.274 29.2526C47.1396 29.5599 47.2356 29.9823 47.2356 30.3472C47.2356 32.1522 47.2356 33.938 47.2356 35.743C47.2356 35.8391 47.2356 35.9351 47.2356 36.0503C46.4291 36.0503 45.661 36.0503 44.8545 36.0503C44.8545 28.8686 44.8545 21.706 44.8545 14.5051ZM47.2548 26.4683C47.3124 26.4299 47.3316 26.4299 47.3508 26.4107C48.3301 25.4313 49.3095 24.4712 50.2696 23.4919C50.3272 23.4343 50.3656 23.2999 50.3656 23.1846C50.3656 21.034 50.3656 18.9025 50.3656 16.7518C50.3656 16.675 50.3656 16.5982 50.3656 16.5214C49.3095 16.5214 48.2917 16.5214 47.2548 16.5214C47.2548 19.8434 47.2548 23.127 47.2548 26.4683Z" fill="white"></path>
  <path d="M44.8545 14.5051C44.9505 14.5051 45.0273 14.5051 45.1041 14.5051C47.082 14.5051 49.0598 14.5051 51.0377 14.5051C51.1721 14.5051 51.3257 14.5627 51.4217 14.6395C51.8442 15.0236 52.2474 15.4268 52.6315 15.8301C52.6891 15.8877 52.7467 16.0029 52.7467 16.0989C52.7467 18.6145 52.7467 21.13 52.7467 23.6263C52.7467 23.7031 52.6891 23.8183 52.6315 23.8759C52.1706 24.356 51.7098 24.8168 51.2489 25.2777C51.1529 25.3737 51.1337 25.4505 51.1529 25.5849C51.6138 27.9084 52.0746 30.2319 52.5355 32.5362C52.7659 33.6884 52.9963 34.8597 53.2268 36.0311C52.4011 36.0311 51.5946 36.0311 50.7496 36.0311C50.212 33.1507 49.6551 30.2703 49.0982 27.3516C48.7142 27.7356 48.3685 28.0813 48.0229 28.4461C47.7733 28.7149 47.4084 28.9262 47.274 29.2526C47.1396 29.5599 47.2356 29.9823 47.2356 30.3472C47.2356 32.1522 47.2356 33.938 47.2356 35.743C47.2356 35.8391 47.2356 35.9351 47.2356 36.0503C46.4291 36.0503 45.661 36.0503 44.8545 36.0503C44.8545 28.8686 44.8545 21.706 44.8545 14.5051ZM47.2548 26.4683C47.3124 26.4299 47.3316 26.4299 47.3508 26.4107C48.3301 25.4313 49.3095 24.4712 50.2696 23.4919C50.3272 23.4343 50.3656 23.2999 50.3656 23.1846C50.3656 21.034 50.3656 18.9025 50.3656 16.7518C50.3656 16.675 50.3656 16.5982 50.3656 16.5214C49.3095 16.5214 48.2917 16.5214 47.2548 16.5214C47.2548 19.8434 47.2548 23.127 47.2548 26.4683Z" fill="url(#paint6_linear_415_90)"></path>
  <path d="M78.383 25.3161C78.383 28.3309 78.383 31.3649 78.383 34.3797C78.383 34.5525 78.3446 34.6677 78.2102 34.7829C77.807 35.167 77.4229 35.551 77.0197 35.9351C76.9429 36.0119 76.8084 36.0695 76.7124 36.0695C75.0802 36.0695 73.4288 36.0695 71.7966 36.0695C71.7006 36.0695 71.5854 36.0119 71.5086 35.9543C71.1053 35.5702 70.7213 35.167 70.3372 34.7829C70.222 34.6677 70.1836 34.5525 70.1836 34.3797C70.1836 29.9055 70.1836 25.4121 70.1836 20.938C70.1836 19.3441 70.1836 17.7503 70.1836 16.1565C70.1836 16.0413 70.2412 15.8877 70.3372 15.8109C70.7213 15.4076 71.1245 15.0044 71.5278 14.6203C71.6046 14.5435 71.7198 14.5051 71.8158 14.5051C73.448 14.5051 75.0994 14.5051 76.7316 14.5051C76.8276 14.5051 76.9621 14.5627 77.0389 14.6395C77.4421 15.0236 77.8454 15.4076 78.2294 15.8109C78.3062 15.8877 78.3638 16.0413 78.3638 16.1565C78.383 19.2097 78.383 22.2629 78.383 25.3161ZM72.6223 16.5022C72.6223 16.5982 72.6031 16.675 72.6031 16.7518C72.6031 22.4549 72.6031 28.1389 72.6031 33.842C72.6031 34.0532 72.6799 34.1108 72.8719 34.1108C73.8321 34.0916 74.773 34.1108 75.7331 34.1108C75.8099 34.1108 75.8867 34.1108 75.9827 34.0916C75.9827 28.2349 75.9827 22.3781 75.9827 16.5214C74.8498 16.5022 73.7553 16.5022 72.6223 16.5022Z" fill="white"></path>
  <path d="M78.383 25.3161C78.383 28.3309 78.383 31.3649 78.383 34.3797C78.383 34.5525 78.3446 34.6677 78.2102 34.7829C77.807 35.167 77.4229 35.551 77.0197 35.9351C76.9429 36.0119 76.8084 36.0695 76.7124 36.0695C75.0802 36.0695 73.4288 36.0695 71.7966 36.0695C71.7006 36.0695 71.5854 36.0119 71.5086 35.9543C71.1053 35.5702 70.7213 35.167 70.3372 34.7829C70.222 34.6677 70.1836 34.5525 70.1836 34.3797C70.1836 29.9055 70.1836 25.4121 70.1836 20.938C70.1836 19.3441 70.1836 17.7503 70.1836 16.1565C70.1836 16.0413 70.2412 15.8877 70.3372 15.8109C70.7213 15.4076 71.1245 15.0044 71.5278 14.6203C71.6046 14.5435 71.7198 14.5051 71.8158 14.5051C73.448 14.5051 75.0994 14.5051 76.7316 14.5051C76.8276 14.5051 76.9621 14.5627 77.0389 14.6395C77.4421 15.0236 77.8454 15.4076 78.2294 15.8109C78.3062 15.8877 78.3638 16.0413 78.3638 16.1565C78.383 19.2097 78.383 22.2629 78.383 25.3161ZM72.6223 16.5022C72.6223 16.5982 72.6031 16.675 72.6031 16.7518C72.6031 22.4549 72.6031 28.1389 72.6031 33.842C72.6031 34.0532 72.6799 34.1108 72.8719 34.1108C73.8321 34.0916 74.773 34.1108 75.7331 34.1108C75.8099 34.1108 75.8867 34.1108 75.9827 34.0916C75.9827 28.2349 75.9827 22.3781 75.9827 16.5214C74.8498 16.5022 73.7553 16.5022 72.6223 16.5022Z" fill="url(#paint7_linear_415_90)"></path>
  <path d="M28.7066 14.5242C29.7436 21.7059 30.7805 28.8684 31.8366 36.0501C31.0301 36.0501 30.2428 36.0501 29.4363 36.0501C29.0715 33.1122 28.7258 30.1934 28.361 27.2362C28.3034 27.2938 28.2458 27.313 28.2074 27.3514C27.4393 28.1003 26.6712 28.8492 25.9223 29.6173C25.8071 29.7325 25.7495 29.9053 25.7303 30.059C25.4806 32.056 25.2502 34.0339 25.0006 36.0501C24.1941 36.0501 23.4068 36.0501 22.5811 36.0501C23.5988 28.8684 24.6165 21.7059 25.6342 14.5242C26.652 14.5242 27.6697 14.5242 28.7066 14.5242ZM26.1335 26.6217C26.2295 26.5449 26.2679 26.5065 26.2871 26.4873C26.8248 25.9688 27.3433 25.4312 27.9001 24.9127C28.0154 24.7975 28.0346 24.7015 28.0154 24.5479C27.8041 22.9156 27.6121 21.2642 27.4201 19.632C27.3625 19.1136 27.2857 18.5951 27.2281 18.0766C27.2088 18.0766 27.2088 18.0766 27.1896 18.0766C26.8248 20.8994 26.4792 23.7221 26.1335 26.6217Z" fill="white"></path>
  <path d="M28.7066 14.5242C29.7436 21.7059 30.7805 28.8684 31.8366 36.0501C31.0301 36.0501 30.2428 36.0501 29.4363 36.0501C29.0715 33.1122 28.7258 30.1934 28.361 27.2362C28.3034 27.2938 28.2458 27.313 28.2074 27.3514C27.4393 28.1003 26.6712 28.8492 25.9223 29.6173C25.8071 29.7325 25.7495 29.9053 25.7303 30.059C25.4806 32.056 25.2502 34.0339 25.0006 36.0501C24.1941 36.0501 23.4068 36.0501 22.5811 36.0501C23.5988 28.8684 24.6165 21.7059 25.6342 14.5242C26.652 14.5242 27.6697 14.5242 28.7066 14.5242ZM26.1335 26.6217C26.2295 26.5449 26.2679 26.5065 26.2871 26.4873C26.8248 25.9688 27.3433 25.4312 27.9001 24.9127C28.0154 24.7975 28.0346 24.7015 28.0154 24.5479C27.8041 22.9156 27.6121 21.2642 27.4201 19.632C27.3625 19.1136 27.2857 18.5951 27.2281 18.0766C27.2088 18.0766 27.2088 18.0766 27.1896 18.0766C26.8248 20.8994 26.4792 23.7221 26.1335 26.6217Z" fill="url(#paint8_linear_415_90)"></path>
  <path d="M60.2566 30.9042C61.0631 30.9042 61.8504 30.9042 62.6569 30.9042C62.6569 31.9603 62.6569 32.9973 62.6569 34.0726C62.8297 34.0726 62.9833 34.0726 63.1369 34.0726C63.8474 34.0726 64.5387 34.0726 65.2492 34.0726C65.422 34.0726 65.4989 34.0342 65.4989 33.8422C65.4989 32.5556 65.4989 31.269 65.4989 29.9825C65.4989 29.8865 65.4604 29.752 65.4028 29.6752C63.8282 26.9485 62.2536 24.2025 60.679 21.4758C60.4294 21.0341 60.295 20.5541 60.295 20.0548C60.295 18.749 60.295 17.4241 60.295 16.1183C60.295 16.0223 60.3526 15.8879 60.4294 15.8111C60.8135 15.4078 61.2167 15.0045 61.62 14.6205C61.6968 14.5437 61.8312 14.4861 61.9272 14.4861C63.3674 14.4861 64.8076 14.4861 66.2477 14.4861C66.3438 14.4861 66.4782 14.5245 66.5358 14.6013C66.9582 14.9853 67.3615 15.3886 67.7455 15.7919C67.8223 15.8687 67.88 15.9839 67.88 16.0799C67.88 17.2128 67.88 18.3266 67.88 19.4595C67.88 19.5171 67.8608 19.5747 67.8608 19.6323C67.0735 19.6323 66.3054 19.6323 65.4989 19.6323C65.4989 19.5171 65.4989 19.4403 65.4989 19.3443C65.4989 18.461 65.4989 17.5777 65.4989 16.7136C65.4989 16.5215 65.4412 16.4639 65.2492 16.4639C64.4043 16.4831 63.5594 16.4639 62.6761 16.4639C62.6761 16.5599 62.6569 16.6368 62.6569 16.7136C62.6569 17.8465 62.6569 18.9603 62.6569 20.0932C62.6569 20.2084 62.6953 20.3428 62.7529 20.458C64.2891 23.1272 65.8253 25.7771 67.3807 28.4463C67.6879 28.9839 67.8608 29.56 67.8608 30.1937C67.8608 31.5763 67.8608 32.9781 67.8608 34.3606C67.8608 34.5335 67.8031 34.6295 67.6879 34.7447C67.2847 35.1095 66.9198 35.5128 66.5166 35.8776C66.4398 35.9544 66.3054 36.012 66.1901 36.012C64.75 36.012 63.329 36.012 61.8888 36.012C61.7928 36.012 61.6584 35.9544 61.5816 35.8776C61.1783 35.4936 60.775 35.0903 60.3718 34.6871C60.3142 34.6295 60.2566 34.5335 60.2566 34.4758C60.2374 33.3237 60.2566 32.1331 60.2566 30.9042Z" fill="white"></path>
  <path d="M60.2566 30.9042C61.0631 30.9042 61.8504 30.9042 62.6569 30.9042C62.6569 31.9603 62.6569 32.9973 62.6569 34.0726C62.8297 34.0726 62.9833 34.0726 63.1369 34.0726C63.8474 34.0726 64.5387 34.0726 65.2492 34.0726C65.422 34.0726 65.4989 34.0342 65.4989 33.8422C65.4989 32.5556 65.4989 31.269 65.4989 29.9825C65.4989 29.8865 65.4604 29.752 65.4028 29.6752C63.8282 26.9485 62.2536 24.2025 60.679 21.4758C60.4294 21.0341 60.295 20.5541 60.295 20.0548C60.295 18.749 60.295 17.4241 60.295 16.1183C60.295 16.0223 60.3526 15.8879 60.4294 15.8111C60.8135 15.4078 61.2167 15.0045 61.62 14.6205C61.6968 14.5437 61.8312 14.4861 61.9272 14.4861C63.3674 14.4861 64.8076 14.4861 66.2477 14.4861C66.3438 14.4861 66.4782 14.5245 66.5358 14.6013C66.9582 14.9853 67.3615 15.3886 67.7455 15.7919C67.8223 15.8687 67.88 15.9839 67.88 16.0799C67.88 17.2128 67.88 18.3266 67.88 19.4595C67.88 19.5171 67.8608 19.5747 67.8608 19.6323C67.0735 19.6323 66.3054 19.6323 65.4989 19.6323C65.4989 19.5171 65.4989 19.4403 65.4989 19.3443C65.4989 18.461 65.4989 17.5777 65.4989 16.7136C65.4989 16.5215 65.4412 16.4639 65.2492 16.4639C64.4043 16.4831 63.5594 16.4639 62.6761 16.4639C62.6761 16.5599 62.6569 16.6368 62.6569 16.7136C62.6569 17.8465 62.6569 18.9603 62.6569 20.0932C62.6569 20.2084 62.6953 20.3428 62.7529 20.458C64.2891 23.1272 65.8253 25.7771 67.3807 28.4463C67.6879 28.9839 67.8608 29.56 67.8608 30.1937C67.8608 31.5763 67.8608 32.9781 67.8608 34.3606C67.8608 34.5335 67.8031 34.6295 67.6879 34.7447C67.2847 35.1095 66.9198 35.5128 66.5166 35.8776C66.4398 35.9544 66.3054 36.012 66.1901 36.012C64.75 36.012 63.329 36.012 61.8888 36.012C61.7928 36.012 61.6584 35.9544 61.5816 35.8776C61.1783 35.4936 60.775 35.0903 60.3718 34.6871C60.3142 34.6295 60.2566 34.5335 60.2566 34.4758C60.2374 33.3237 60.2566 32.1331 60.2566 30.9042Z" fill="url(#paint9_linear_415_90)"></path>
  <path d="M55.5693 14.5051C56.3566 14.5051 57.1247 14.5051 57.9312 14.5051C57.9312 21.6868 57.9312 28.8494 57.9312 36.0311C57.1439 36.0311 56.3758 36.0311 55.5693 36.0311C55.5693 28.8686 55.5693 21.706 55.5693 14.5051Z" fill="white"></path>
  <path d="M55.5693 14.5051C56.3566 14.5051 57.1247 14.5051 57.9312 14.5051C57.9312 21.6868 57.9312 28.8494 57.9312 36.0311C57.1439 36.0311 56.3758 36.0311 55.5693 36.0311C55.5693 28.8686 55.5693 21.706 55.5693 14.5051Z" fill="url(#paint10_linear_415_90)"></path>
  <path d="M64.2314 42.0032C64.3658 42.08 64.6155 42.2144 64.8459 42.3296C64.9611 42.3872 65.0763 42.4448 65.1916 42.4448C70.7987 42.4448 76.3866 42.4448 81.9937 42.4448C82.0705 42.4448 82.1473 42.4064 82.2049 42.3488C82.397 42.1568 82.6658 42.1376 82.8386 42.3104C83.0114 42.4832 83.0114 42.7713 82.8386 42.9249C82.6466 43.0977 82.397 43.0785 82.2049 42.8673C82.1473 42.8097 82.0705 42.7713 81.9937 42.7713C76.4058 42.7713 70.8179 42.7713 65.2492 42.7713C65.1339 42.7713 65.0187 42.8289 64.9035 42.8865C64.6923 42.9825 64.5003 43.1169 64.289 43.1937C64.0586 43.2705 63.8282 43.1937 63.6746 42.9825C63.5209 42.7905 63.5017 42.5792 63.5977 42.3488C63.6938 42.1376 63.8666 42.0224 64.2314 42.0032Z" fill="white"></path>
  <path d="M64.2314 42.0032C64.3658 42.08 64.6155 42.2144 64.8459 42.3296C64.9611 42.3872 65.0763 42.4448 65.1916 42.4448C70.7987 42.4448 76.3866 42.4448 81.9937 42.4448C82.0705 42.4448 82.1473 42.4064 82.2049 42.3488C82.397 42.1568 82.6658 42.1376 82.8386 42.3104C83.0114 42.4832 83.0114 42.7713 82.8386 42.9249C82.6466 43.0977 82.397 43.0785 82.2049 42.8673C82.1473 42.8097 82.0705 42.7713 81.9937 42.7713C76.4058 42.7713 70.8179 42.7713 65.2492 42.7713C65.1339 42.7713 65.0187 42.8289 64.9035 42.8865C64.6923 42.9825 64.5003 43.1169 64.289 43.1937C64.0586 43.2705 63.8282 43.1937 63.6746 42.9825C63.5209 42.7905 63.5017 42.5792 63.5977 42.3488C63.6938 42.1376 63.8666 42.0224 64.2314 42.0032Z" fill="url(#paint11_linear_415_90)"></path>
  <path d="M44.2014 44.8832C44.0286 44.8832 43.8942 44.8832 43.7598 44.8832C43.7598 43.3854 43.7598 41.9068 43.7598 40.3898C43.8558 40.3898 43.9326 40.3898 44.0094 40.3706C44.1822 40.3514 44.2398 40.4282 44.2782 40.5818C44.4703 41.4075 44.6815 42.2332 44.8735 43.0397C44.8927 43.1165 44.9119 43.1933 44.9311 43.2701C44.9503 43.2894 44.9887 43.3278 45.0079 43.3278C45.0271 43.3278 45.0655 43.2893 45.0847 43.2509C45.1039 43.1933 45.0847 43.1165 45.0847 43.0589C45.0847 42.2524 45.0847 41.4651 45.0847 40.6586C45.0847 40.5626 45.0847 40.4666 45.0847 40.3706C45.2384 40.3706 45.3728 40.3706 45.5264 40.3706C45.5264 41.8684 45.5264 43.347 45.5264 44.8447C45.1231 44.9216 45.1039 44.9216 45.0079 44.5183C44.7967 43.6734 44.5855 42.8285 44.3742 41.9836C44.355 41.926 44.2974 41.8684 44.2398 41.8108C44.2206 41.8684 44.1822 41.926 44.1822 42.0028C44.1822 42.8669 44.1822 43.7118 44.1822 44.5759C44.2014 44.6911 44.2014 44.7871 44.2014 44.8832Z" fill="white"></path>
  <path d="M44.2014 44.8832C44.0286 44.8832 43.8942 44.8832 43.7598 44.8832C43.7598 43.3854 43.7598 41.9068 43.7598 40.3898C43.8558 40.3898 43.9326 40.3898 44.0094 40.3706C44.1822 40.3514 44.2398 40.4282 44.2782 40.5818C44.4703 41.4075 44.6815 42.2332 44.8735 43.0397C44.8927 43.1165 44.9119 43.1933 44.9311 43.2701C44.9503 43.2894 44.9887 43.3278 45.0079 43.3278C45.0271 43.3278 45.0655 43.2893 45.0847 43.2509C45.1039 43.1933 45.0847 43.1165 45.0847 43.0589C45.0847 42.2524 45.0847 41.4651 45.0847 40.6586C45.0847 40.5626 45.0847 40.4666 45.0847 40.3706C45.2384 40.3706 45.3728 40.3706 45.5264 40.3706C45.5264 41.8684 45.5264 43.347 45.5264 44.8447C45.1231 44.9216 45.1039 44.9216 45.0079 44.5183C44.7967 43.6734 44.5855 42.8285 44.3742 41.9836C44.355 41.926 44.2974 41.8684 44.2398 41.8108C44.2206 41.8684 44.1822 41.926 44.1822 42.0028C44.1822 42.8669 44.1822 43.7118 44.1822 44.5759C44.2014 44.6911 44.2014 44.7871 44.2014 44.8832Z" fill="url(#paint12_linear_415_90)"></path>
  <path d="M54.0907 42.6363C54.0907 42.1179 54.0907 41.5994 54.0907 41.0809C54.0907 40.5625 54.2636 40.3896 54.782 40.3896C54.9741 40.3896 55.1469 40.3896 55.3389 40.3896C55.7614 40.3896 55.9726 40.5817 55.9726 41.0041C55.9726 41.6186 55.9726 42.2331 55.9726 42.8476C55.9726 43.3084 55.9726 43.7693 55.9726 44.2301C55.9726 44.691 55.7806 44.883 55.3197 44.883C55.1085 44.883 54.8972 44.883 54.7052 44.883C54.3212 44.883 54.1099 44.691 54.1099 44.3069C54.0715 43.7501 54.0907 43.1932 54.0907 42.6363ZM55.4925 42.6555C55.4925 42.1371 55.4925 41.6186 55.4925 41.1001C55.4925 40.8697 55.3965 40.7737 55.1661 40.7545C55.0893 40.7545 55.0317 40.7545 54.9548 40.7545C54.6092 40.7545 54.5324 40.8313 54.5324 41.1769C54.5324 42.0987 54.5324 43.0204 54.5324 43.9229C54.5324 44.499 54.5516 44.5374 55.1469 44.5182C55.4157 44.5182 55.4925 44.4414 55.4925 44.1533C55.4925 43.6733 55.4925 43.1548 55.4925 42.6555Z" fill="white"></path>
  <path d="M54.0907 42.6363C54.0907 42.1179 54.0907 41.5994 54.0907 41.0809C54.0907 40.5625 54.2636 40.3896 54.782 40.3896C54.9741 40.3896 55.1469 40.3896 55.3389 40.3896C55.7614 40.3896 55.9726 40.5817 55.9726 41.0041C55.9726 41.6186 55.9726 42.2331 55.9726 42.8476C55.9726 43.3084 55.9726 43.7693 55.9726 44.2301C55.9726 44.691 55.7806 44.883 55.3197 44.883C55.1085 44.883 54.8972 44.883 54.7052 44.883C54.3212 44.883 54.1099 44.691 54.1099 44.3069C54.0715 43.7501 54.0907 43.1932 54.0907 42.6363ZM55.4925 42.6555C55.4925 42.1371 55.4925 41.6186 55.4925 41.1001C55.4925 40.8697 55.3965 40.7737 55.1661 40.7545C55.0893 40.7545 55.0317 40.7545 54.9548 40.7545C54.6092 40.7545 54.5324 40.8313 54.5324 41.1769C54.5324 42.0987 54.5324 43.0204 54.5324 43.9229C54.5324 44.499 54.5516 44.5374 55.1469 44.5182C55.4157 44.5182 55.4925 44.4414 55.4925 44.1533C55.4925 43.6733 55.4925 43.1548 55.4925 42.6555Z" fill="url(#paint13_linear_415_90)"></path>
  <path d="M59.0653 42.2331C59.2382 42.1179 59.3918 41.9643 59.5646 41.9258C59.987 41.849 60.2751 42.0987 60.2943 42.5403C60.3135 43.1164 60.3135 43.6925 60.2943 44.2685C60.2751 44.6718 60.0447 44.883 59.6414 44.9022C58.8541 44.9406 58.5853 44.787 58.6045 43.9037C58.6237 43.0012 58.6045 42.0987 58.6045 41.1962C58.6045 40.5817 58.8157 40.3896 59.4302 40.3896C59.5646 40.3896 59.699 40.3896 59.8334 40.4281C60.1407 40.5049 60.2943 40.7161 60.2751 41.0425C60.0831 41.0425 59.891 41.1385 59.7374 40.8697C59.699 40.7929 59.4494 40.7545 59.315 40.7929C59.1997 40.8313 59.0653 40.9849 59.0653 41.1001C59.0461 41.4842 59.0653 41.8874 59.0653 42.2331ZM59.0461 43.3852C59.0461 43.6541 59.0461 43.9037 59.0461 44.1725C59.0653 44.4222 59.1805 44.5374 59.4302 44.5374C59.6798 44.5374 59.8334 44.4222 59.8334 44.1917C59.8526 43.6733 59.8526 43.1548 59.8334 42.6363C59.8334 42.3867 59.6606 42.2715 59.411 42.2907C59.1805 42.2907 59.0461 42.4251 59.0461 42.6747C59.0461 42.9052 59.0461 43.1356 59.0461 43.3852Z" fill="white"></path>
  <path d="M59.0653 42.2331C59.2382 42.1179 59.3918 41.9643 59.5646 41.9258C59.987 41.849 60.2751 42.0987 60.2943 42.5403C60.3135 43.1164 60.3135 43.6925 60.2943 44.2685C60.2751 44.6718 60.0447 44.883 59.6414 44.9022C58.8541 44.9406 58.5853 44.787 58.6045 43.9037C58.6237 43.0012 58.6045 42.0987 58.6045 41.1962C58.6045 40.5817 58.8157 40.3896 59.4302 40.3896C59.5646 40.3896 59.699 40.3896 59.8334 40.4281C60.1407 40.5049 60.2943 40.7161 60.2751 41.0425C60.0831 41.0425 59.891 41.1385 59.7374 40.8697C59.699 40.7929 59.4494 40.7545 59.315 40.7929C59.1997 40.8313 59.0653 40.9849 59.0653 41.1001C59.0461 41.4842 59.0653 41.8874 59.0653 42.2331ZM59.0461 43.3852C59.0461 43.6541 59.0461 43.9037 59.0461 44.1725C59.0653 44.4222 59.1805 44.5374 59.4302 44.5374C59.6798 44.5374 59.8334 44.4222 59.8334 44.1917C59.8526 43.6733 59.8526 43.1548 59.8334 42.6363C59.8334 42.3867 59.6606 42.2715 59.411 42.2907C59.1805 42.2907 59.0461 42.4251 59.0461 42.6747C59.0461 42.9052 59.0461 43.1356 59.0461 43.3852Z" fill="url(#paint14_linear_415_90)"></path>
  <path d="M40.0926 43.9613C40.227 43.9613 40.3614 43.9613 40.4958 43.9613C40.515 44.0381 40.515 44.1341 40.5342 44.2109C40.5726 44.3838 40.6494 44.499 40.8414 44.5182C41.0335 44.5374 41.1679 44.4606 41.2447 44.2877C41.3407 44.0189 41.3599 43.7501 41.2063 43.5004C41.0719 43.2508 40.8799 43.0012 40.7262 42.7516C40.5726 42.5211 40.419 42.3099 40.2654 42.0795C40.0349 41.7338 40.0349 41.3498 40.0926 40.9657C40.1502 40.5817 40.419 40.3896 40.803 40.3896H40.8222C41.6095 40.3896 41.8016 40.6009 41.744 41.4266C41.6095 41.4266 41.4751 41.4266 41.3023 41.4266C41.3023 41.3306 41.3023 41.2154 41.3023 41.1193C41.2831 40.9273 41.1871 40.8121 40.9951 40.7737C40.803 40.7353 40.6686 40.8313 40.5918 41.0041C40.4766 41.2538 40.4958 41.5034 40.6302 41.7146C40.8222 42.0219 41.0143 42.3291 41.2255 42.6171C41.5519 43.078 41.84 43.5196 41.7632 44.1341C41.7056 44.6718 41.4751 44.9214 40.9375 44.9214C40.8991 44.9214 40.8799 44.9214 40.8414 44.9214C40.227 44.9022 39.9965 44.6334 40.0926 43.9613Z" fill="white"></path>
  <path d="M40.0926 43.9613C40.227 43.9613 40.3614 43.9613 40.4958 43.9613C40.515 44.0381 40.515 44.1341 40.5342 44.2109C40.5726 44.3838 40.6494 44.499 40.8414 44.5182C41.0335 44.5374 41.1679 44.4606 41.2447 44.2877C41.3407 44.0189 41.3599 43.7501 41.2063 43.5004C41.0719 43.2508 40.8799 43.0012 40.7262 42.7516C40.5726 42.5211 40.419 42.3099 40.2654 42.0795C40.0349 41.7338 40.0349 41.3498 40.0926 40.9657C40.1502 40.5817 40.419 40.3896 40.803 40.3896H40.8222C41.6095 40.3896 41.8016 40.6009 41.744 41.4266C41.6095 41.4266 41.4751 41.4266 41.3023 41.4266C41.3023 41.3306 41.3023 41.2154 41.3023 41.1193C41.2831 40.9273 41.1871 40.8121 40.9951 40.7737C40.803 40.7353 40.6686 40.8313 40.5918 41.0041C40.4766 41.2538 40.4958 41.5034 40.6302 41.7146C40.8222 42.0219 41.0143 42.3291 41.2255 42.6171C41.5519 43.078 41.84 43.5196 41.7632 44.1341C41.7056 44.6718 41.4751 44.9214 40.9375 44.9214C40.8991 44.9214 40.8799 44.9214 40.8414 44.9214C40.227 44.9022 39.9965 44.6334 40.0926 43.9613Z" fill="url(#paint15_linear_415_90)"></path>
  <path d="M50.2716 40.3898C50.2716 40.5243 50.2716 40.6203 50.2716 40.7547C50.0411 40.7547 49.8299 40.7547 49.6187 40.7547C49.4075 40.7547 49.2922 40.8507 49.2922 41.0811C49.2922 41.4076 49.2922 41.7532 49.2922 42.0797C49.2922 42.1181 49.2922 42.1373 49.3114 42.2141C49.4459 42.2141 49.5995 42.2141 49.7339 42.2141C49.8683 42.2141 50.0219 42.2141 50.1756 42.2141C50.1756 42.3485 50.1756 42.4445 50.1756 42.5789C49.8875 42.5789 49.6187 42.5789 49.2922 42.5789C49.2922 42.8093 49.2922 43.0206 49.2922 43.2318C49.2922 43.539 49.2922 43.8463 49.2922 44.1727C49.2922 44.48 49.3499 44.5376 49.6763 44.5568C49.8683 44.5568 50.0603 44.5568 50.2716 44.5568C50.2716 44.672 50.2716 44.7872 50.2716 44.9024C49.8107 44.9024 49.3499 44.9024 48.8698 44.9024C48.8698 44.8064 48.8506 44.7104 48.8506 44.6144C48.8506 43.3086 48.8506 42.0028 48.8506 40.6971C48.8506 40.4666 48.9082 40.3706 49.1578 40.3898C49.5035 40.409 49.8875 40.3898 50.2716 40.3898Z" fill="white"></path>
  <path d="M50.2716 40.3898C50.2716 40.5243 50.2716 40.6203 50.2716 40.7547C50.0411 40.7547 49.8299 40.7547 49.6187 40.7547C49.4075 40.7547 49.2922 40.8507 49.2922 41.0811C49.2922 41.4076 49.2922 41.7532 49.2922 42.0797C49.2922 42.1181 49.2922 42.1373 49.3114 42.2141C49.4459 42.2141 49.5995 42.2141 49.7339 42.2141C49.8683 42.2141 50.0219 42.2141 50.1756 42.2141C50.1756 42.3485 50.1756 42.4445 50.1756 42.5789C49.8875 42.5789 49.6187 42.5789 49.2922 42.5789C49.2922 42.8093 49.2922 43.0206 49.2922 43.2318C49.2922 43.539 49.2922 43.8463 49.2922 44.1727C49.2922 44.48 49.3499 44.5376 49.6763 44.5568C49.8683 44.5568 50.0603 44.5568 50.2716 44.5568C50.2716 44.672 50.2716 44.7872 50.2716 44.9024C49.8107 44.9024 49.3499 44.9024 48.8698 44.9024C48.8698 44.8064 48.8506 44.7104 48.8506 44.6144C48.8506 43.3086 48.8506 42.0028 48.8506 40.6971C48.8506 40.4666 48.9082 40.3706 49.1578 40.3898C49.5035 40.409 49.8875 40.3898 50.2716 40.3898Z" fill="url(#paint16_linear_415_90)"></path>
  <path d="M48.0821 41.3311C47.9477 41.3311 47.8132 41.3311 47.6596 41.3311C47.6596 41.2543 47.6404 41.1775 47.6404 41.1007C47.602 40.8895 47.506 40.7743 47.2756 40.7551C47.0643 40.7551 46.9107 40.8703 46.8723 41.0815C46.8723 41.1199 46.8723 41.1775 46.8723 41.2159C46.8723 42.1568 46.8723 43.0978 46.8723 44.0387C46.8723 44.2307 46.9107 44.4035 47.122 44.4803C47.3908 44.5763 47.602 44.4419 47.6404 44.1539C47.6404 44.0963 47.6596 44.0195 47.6596 43.9427C47.794 43.9427 47.9285 43.9427 48.0821 43.9427C48.2165 44.5379 47.9669 44.8644 47.3524 44.8644C47.2948 44.8644 47.218 44.8644 47.1604 44.8644C46.6611 44.8644 46.4307 44.6532 46.4307 44.1539C46.4307 43.1362 46.4307 42.0992 46.4307 41.0815C46.4307 40.563 46.6611 40.3518 47.1796 40.3518C47.218 40.3518 47.2756 40.3518 47.314 40.3518C47.9477 40.3902 48.1781 40.659 48.0821 41.3311Z" fill="white"></path>
  <path d="M48.0821 41.3311C47.9477 41.3311 47.8132 41.3311 47.6596 41.3311C47.6596 41.2543 47.6404 41.1775 47.6404 41.1007C47.602 40.8895 47.506 40.7743 47.2756 40.7551C47.0643 40.7551 46.9107 40.8703 46.8723 41.0815C46.8723 41.1199 46.8723 41.1775 46.8723 41.2159C46.8723 42.1568 46.8723 43.0978 46.8723 44.0387C46.8723 44.2307 46.9107 44.4035 47.122 44.4803C47.3908 44.5763 47.602 44.4419 47.6404 44.1539C47.6404 44.0963 47.6596 44.0195 47.6596 43.9427C47.794 43.9427 47.9285 43.9427 48.0821 43.9427C48.2165 44.5379 47.9669 44.8644 47.3524 44.8644C47.2948 44.8644 47.218 44.8644 47.1604 44.8644C46.6611 44.8644 46.4307 44.6532 46.4307 44.1539C46.4307 43.1362 46.4307 42.0992 46.4307 41.0815C46.4307 40.563 46.6611 40.3518 47.1796 40.3518C47.218 40.3518 47.2756 40.3518 47.314 40.3518C47.9477 40.3902 48.1781 40.659 48.0821 41.3311Z" fill="url(#paint17_linear_415_90)"></path>
  <path d="M52.2105 41.3306C52.0569 41.3306 51.9224 41.3306 51.788 41.3306C51.6728 40.7161 51.9224 40.3896 52.5369 40.3896C52.6137 40.3896 52.6713 40.3896 52.7482 40.3896C53.1898 40.3896 53.4202 40.6201 53.4586 41.0617C53.497 41.657 53.4394 42.2139 53.017 42.6939C52.825 42.9244 52.6713 43.1932 52.4985 43.4428C52.3257 43.6925 52.2681 43.9613 52.2681 44.2493C52.2681 44.4414 52.3641 44.5374 52.5753 44.5374C52.8634 44.5374 53.1514 44.5374 53.4586 44.5374C53.4586 44.6526 53.4586 44.7486 53.4586 44.883C53.3818 44.883 53.305 44.9022 53.2282 44.9022C52.825 44.9022 52.4217 44.9022 52.0377 44.9022C51.9224 44.9022 51.8072 44.883 51.8072 44.7294C51.8072 44.1533 51.788 43.5773 52.2105 43.0972C52.4217 42.8476 52.5753 42.5595 52.7866 42.2907C53.0938 41.9066 53.0362 41.465 52.9978 41.0233C52.9786 40.8121 52.7866 40.7353 52.5753 40.7545C52.3833 40.7737 52.2681 40.8889 52.2297 41.0617C52.2105 41.1577 52.2297 41.2346 52.2105 41.3306Z" fill="white"></path>
  <path d="M52.2105 41.3306C52.0569 41.3306 51.9224 41.3306 51.788 41.3306C51.6728 40.7161 51.9224 40.3896 52.5369 40.3896C52.6137 40.3896 52.6713 40.3896 52.7482 40.3896C53.1898 40.3896 53.4202 40.6201 53.4586 41.0617C53.497 41.657 53.4394 42.2139 53.017 42.6939C52.825 42.9244 52.6713 43.1932 52.4985 43.4428C52.3257 43.6925 52.2681 43.9613 52.2681 44.2493C52.2681 44.4414 52.3641 44.5374 52.5753 44.5374C52.8634 44.5374 53.1514 44.5374 53.4586 44.5374C53.4586 44.6526 53.4586 44.7486 53.4586 44.883C53.3818 44.883 53.305 44.9022 53.2282 44.9022C52.825 44.9022 52.4217 44.9022 52.0377 44.9022C51.9224 44.9022 51.8072 44.883 51.8072 44.7294C51.8072 44.1533 51.788 43.5773 52.2105 43.0972C52.4217 42.8476 52.5753 42.5595 52.7866 42.2907C53.0938 41.9066 53.0362 41.465 52.9978 41.0233C52.9786 40.8121 52.7866 40.7353 52.5753 40.7545C52.3833 40.7737 52.2681 40.8889 52.2297 41.0617C52.2105 41.1577 52.2297 41.2346 52.2105 41.3306Z" fill="url(#paint18_linear_415_90)"></path>
  <path d="M56.5696 40.9471C56.5312 40.5247 56.8384 40.3518 57.5681 40.4094C57.5681 41.7728 57.5681 43.1362 57.5681 44.5188C57.7217 44.538 57.837 44.538 57.9714 44.5572C57.9714 44.6724 57.9714 44.7684 57.9714 44.8836C57.5489 44.8836 57.1073 44.8836 56.6464 44.8836C56.6464 44.7876 56.6464 44.6724 56.6464 44.5572C56.7808 44.5572 56.9344 44.538 57.1073 44.5188C57.1073 44.4228 57.1073 44.346 57.1073 44.2691C57.1073 43.2514 57.1073 42.2337 57.1073 41.216C57.1073 40.7743 57.0497 40.7359 56.6464 40.9279C56.6464 40.9279 56.6272 40.9279 56.5696 40.9471Z" fill="white"></path>
  <path d="M56.5696 40.9471C56.5312 40.5247 56.8384 40.3518 57.5681 40.4094C57.5681 41.7728 57.5681 43.1362 57.5681 44.5188C57.7217 44.538 57.837 44.538 57.9714 44.5572C57.9714 44.6724 57.9714 44.7684 57.9714 44.8836C57.5489 44.8836 57.1073 44.8836 56.6464 44.8836C56.6464 44.7876 56.6464 44.6724 56.6464 44.5572C56.7808 44.5572 56.9344 44.538 57.1073 44.5188C57.1073 44.4228 57.1073 44.346 57.1073 44.2691C57.1073 43.2514 57.1073 42.2337 57.1073 41.216C57.1073 40.7743 57.0497 40.7359 56.6464 40.9279C56.6464 40.9279 56.6272 40.9279 56.5696 40.9471Z" fill="url(#paint19_linear_415_90)"></path>
  <path d="M42.898 44.883C42.7444 44.883 42.61 44.883 42.4756 44.883C42.4756 43.3852 42.4756 41.8874 42.4756 40.3896C42.6292 40.3896 42.7636 40.3896 42.898 40.3896C42.898 41.8874 42.898 43.3852 42.898 44.883Z" fill="white"></path>
  <path d="M42.898 44.883C42.7444 44.883 42.61 44.883 42.4756 44.883C42.4756 43.3852 42.4756 41.8874 42.4756 40.3896C42.6292 40.3896 42.7636 40.3896 42.898 40.3896C42.898 41.8874 42.898 43.3852 42.898 44.883Z" fill="url(#paint20_linear_415_90)"></path>
  <path d="M83.415 43.52C83.6839 42.9248 83.6647 42.3103 83.4342 41.6958C84.2407 42.0222 84.9896 42.3295 85.7961 42.6559C85.3545 42.7711 84.9704 42.8479 84.5864 42.9824C84.2023 43.136 83.8567 43.3472 83.4726 43.52C83.4534 43.5392 83.4342 43.5392 83.415 43.52Z" fill="white"></path>
  <path d="M83.415 43.52C83.6839 42.9248 83.6647 42.3103 83.4342 41.6958C84.2407 42.0222 84.9896 42.3295 85.7961 42.6559C85.3545 42.7711 84.9704 42.8479 84.5864 42.9824C84.2023 43.136 83.8567 43.3472 83.4726 43.52C83.4534 43.5392 83.4342 43.5392 83.415 43.52Z" fill="url(#paint21_linear_415_90)"></path>
  <path d="M35.7918 43.2709C35.5422 43.1557 35.2925 43.0213 35.0429 42.9061C34.9277 42.8485 34.7933 42.7909 34.6781 42.7909C31.4136 42.7909 28.13 42.7909 24.8656 42.7909C22.5613 42.7909 20.257 42.7909 17.9527 42.7909C17.8759 42.7909 17.7799 42.8293 17.7223 42.8869C17.5303 43.0789 17.2614 43.0981 17.0886 42.9253C16.9158 42.7525 16.9158 42.4836 17.0886 42.3108C17.2614 42.138 17.5303 42.1572 17.7223 42.33C17.7799 42.3876 17.8759 42.426 17.9527 42.426C23.5214 42.426 29.1093 42.426 34.6781 42.426C34.8317 42.426 34.9853 42.3492 35.1389 42.2724C35.3309 42.1956 35.4846 42.0804 35.6766 42.0036C35.907 41.9267 36.1182 42.0036 36.2719 42.1956C36.4255 42.3876 36.4639 42.618 36.3487 42.8485C36.2527 43.0981 36.0798 43.2133 35.7918 43.2709Z" fill="white"></path>
  <path d="M35.7918 43.2709C35.5422 43.1557 35.2925 43.0213 35.0429 42.9061C34.9277 42.8485 34.7933 42.7909 34.6781 42.7909C31.4136 42.7909 28.13 42.7909 24.8656 42.7909C22.5613 42.7909 20.257 42.7909 17.9527 42.7909C17.8759 42.7909 17.7799 42.8293 17.7223 42.8869C17.5303 43.0789 17.2614 43.0981 17.0886 42.9253C16.9158 42.7525 16.9158 42.4836 17.0886 42.3108C17.2614 42.138 17.5303 42.1572 17.7223 42.33C17.7799 42.3876 17.8759 42.426 17.9527 42.426C23.5214 42.426 29.1093 42.426 34.6781 42.426C34.8317 42.426 34.9853 42.3492 35.1389 42.2724C35.3309 42.1956 35.4846 42.0804 35.6766 42.0036C35.907 41.9267 36.1182 42.0036 36.2719 42.1956C36.4255 42.3876 36.4639 42.618 36.3487 42.8485C36.2527 43.0981 36.0798 43.2133 35.7918 43.2709Z" fill="url(#paint22_linear_415_90)"></path>
  <path d="M16.4931 43.559C15.7826 43.079 14.9953 42.8869 14.208 42.6565C14.9569 42.3493 15.7058 42.042 16.5123 41.7156C16.3011 42.3109 16.2627 42.9253 16.4931 43.559Z" fill="white"></path>
  <path d="M16.4931 43.559C15.7826 43.079 14.9953 42.8869 14.208 42.6565C14.9569 42.3493 15.7058 42.042 16.5123 41.7156C16.3011 42.3109 16.2627 42.9253 16.4931 43.559Z" fill="url(#paint23_linear_415_90)"></path>
  <defs>
    <linearGradient id="paint0_linear_415_90" x1="80.5857" y1="14.0792" x2="91.0234" y2="16.1608" gradientUnits="userSpaceOnUse">
      <stop stop-color="white"></stop>
      <stop offset="1" stop-color="white" stop-opacity="0.5"></stop>
    </linearGradient>
    <linearGradient id="paint1_linear_415_90" x1="11.8551" y1="14.1173" x2="22.5667" y2="16.3144" gradientUnits="userSpaceOnUse">
      <stop stop-color="white"></stop>
      <stop offset="1" stop-color="white" stop-opacity="0.5"></stop>
    </linearGradient>
    <linearGradient id="paint2_linear_415_90" x1="49.1508" y1="4.88635" x2="52.4134" y2="5.62215" gradientUnits="userSpaceOnUse">
      <stop stop-color="white"></stop>
      <stop offset="1" stop-color="white" stop-opacity="0.5"></stop>
    </linearGradient>
    <linearGradient id="paint3_linear_415_90" x1="52.6271" y1="4.88635" x2="55.3079" y2="5.37476" gradientUnits="userSpaceOnUse">
      <stop stop-color="white"></stop>
      <stop offset="1" stop-color="white" stop-opacity="0.5"></stop>
    </linearGradient>
    <linearGradient id="paint4_linear_415_90" x1="46.0415" y1="4.88635" x2="49.2374" y2="5.59085" gradientUnits="userSpaceOnUse">
      <stop stop-color="white"></stop>
      <stop offset="1" stop-color="white" stop-opacity="0.5"></stop>
    </linearGradient>
    <linearGradient id="paint5_linear_415_90" x1="33.9928" y1="14.0796" x2="44.7717" y2="16.3078" gradientUnits="userSpaceOnUse">
      <stop stop-color="white"></stop>
      <stop offset="1" stop-color="white" stop-opacity="0.5"></stop>
    </linearGradient>
    <linearGradient id="paint6_linear_415_90" x1="44.7086" y1="14.099" x2="55.4868" y2="16.329" gradientUnits="userSpaceOnUse">
      <stop stop-color="white"></stop>
      <stop offset="1" stop-color="white" stop-opacity="0.5"></stop>
    </linearGradient>
    <linearGradient id="paint7_linear_415_90" x1="70.0408" y1="14.0987" x2="80.6149" y2="16.2394" gradientUnits="userSpaceOnUse">
      <stop stop-color="white"></stop>
      <stop offset="1" stop-color="white" stop-opacity="0.5"></stop>
    </linearGradient>
    <linearGradient id="paint8_linear_415_90" x1="22.4198" y1="14.1184" x2="34.2263" y2="16.8213" gradientUnits="userSpaceOnUse">
      <stop stop-color="white"></stop>
      <stop offset="1" stop-color="white" stop-opacity="0.5"></stop>
    </linearGradient>
    <linearGradient id="paint9_linear_415_90" x1="60.1151" y1="14.0803" x2="70.0081" y2="15.9479" gradientUnits="userSpaceOnUse">
      <stop stop-color="white"></stop>
      <stop offset="1" stop-color="white" stop-opacity="0.5"></stop>
    </linearGradient>
    <linearGradient id="paint10_linear_415_90" x1="55.5282" y1="14.0994" x2="58.6882" y2="14.284" gradientUnits="userSpaceOnUse">
      <stop stop-color="white"></stop>
      <stop offset="1" stop-color="white" stop-opacity="0.5"></stop>
    </linearGradient>
    <linearGradient id="paint11_linear_415_90" x1="63.2006" y1="41.9802" x2="63.5582" y2="45.0132" gradientUnits="userSpaceOnUse">
      <stop stop-color="white"></stop>
      <stop offset="1" stop-color="white" stop-opacity="0.5"></stop>
    </linearGradient>
    <linearGradient id="paint12_linear_415_90" x1="43.729" y1="40.2825" x2="46.002" y2="40.7559" gradientUnits="userSpaceOnUse">
      <stop stop-color="white"></stop>
      <stop offset="1" stop-color="white" stop-opacity="0.5"></stop>
    </linearGradient>
    <linearGradient id="paint13_linear_415_90" x1="54.0531" y1="40.305" x2="56.4653" y2="40.8442" gradientUnits="userSpaceOnUse">
      <stop stop-color="white"></stop>
      <stop offset="1" stop-color="white" stop-opacity="0.5"></stop>
    </linearGradient>
    <linearGradient id="paint14_linear_415_90" x1="58.5738" y1="40.3045" x2="60.7741" y2="40.7466" gradientUnits="userSpaceOnUse">
      <stop stop-color="white"></stop>
      <stop offset="1" stop-color="white" stop-opacity="0.5"></stop>
    </linearGradient>
    <linearGradient id="paint15_linear_415_90" x1="40.0307" y1="40.3042" x2="42.2434" y2="40.7501" gradientUnits="userSpaceOnUse">
      <stop stop-color="white"></stop>
      <stop offset="1" stop-color="white" stop-opacity="0.5"></stop>
    </linearGradient>
    <linearGradient id="paint16_linear_415_90" x1="48.8258" y1="40.3023" x2="50.6814" y2="40.6133" gradientUnits="userSpaceOnUse">
      <stop stop-color="white"></stop>
      <stop offset="1" stop-color="white" stop-opacity="0.5"></stop>
    </linearGradient>
    <linearGradient id="paint17_linear_415_90" x1="46.4013" y1="40.2667" x2="48.5795" y2="40.7003" gradientUnits="userSpaceOnUse">
      <stop stop-color="white"></stop>
      <stop offset="1" stop-color="white" stop-opacity="0.5"></stop>
    </linearGradient>
    <linearGradient id="paint18_linear_415_90" x1="51.731" y1="40.3046" x2="53.9343" y2="40.7486" gradientUnits="userSpaceOnUse">
      <stop stop-color="white"></stop>
      <stop offset="1" stop-color="white" stop-opacity="0.5"></stop>
    </linearGradient>
    <linearGradient id="paint19_linear_415_90" x1="56.5419" y1="40.3141" x2="58.377" y2="40.6202" gradientUnits="userSpaceOnUse">
      <stop stop-color="white"></stop>
      <stop offset="1" stop-color="white" stop-opacity="0.5"></stop>
    </linearGradient>
    <linearGradient id="paint20_linear_415_90" x1="42.4682" y1="40.305" x2="43.0339" y2="40.3333" gradientUnits="userSpaceOnUse">
      <stop stop-color="white"></stop>
      <stop offset="1" stop-color="white" stop-opacity="0.5"></stop>
    </linearGradient>
    <linearGradient id="paint21_linear_415_90" x1="83.3736" y1="41.6611" x2="85.5401" y2="43.155" gradientUnits="userSpaceOnUse">
      <stop stop-color="white"></stop>
      <stop offset="1" stop-color="white" stop-opacity="0.5"></stop>
    </linearGradient>
    <linearGradient id="paint22_linear_415_90" x1="16.62" y1="41.9497" x2="17.023" y2="45.1689" gradientUnits="userSpaceOnUse">
      <stop stop-color="white"></stop>
      <stop offset="1" stop-color="white" stop-opacity="0.5"></stop>
    </linearGradient>
    <linearGradient id="paint23_linear_415_90" x1="14.1679" y1="41.6808" x2="16.3117" y2="43.1076" gradientUnits="userSpaceOnUse">
      <stop stop-color="white"></stop>
      <stop offset="1" stop-color="white" stop-opacity="0.5"></stop>
    </linearGradient>
  </defs>
</svg>
