<?xml version="1.0" encoding="UTF-8"?>
<svg xmlns="http://www.w3.org/2000/svg" width="288" height="50" viewBox="0 0 288 50" fill="none">
  <path d="M64.4715 21.47H59.2305V2.07617H64.4715V21.47Z" fill="white"></path>
  <path d="M64.4715 21.47H59.2305V2.07617H64.4715V21.47Z" fill="url(#paint0_linear_772_804)"></path>
  <path d="M100.054 21.47H94.8128V8.15372L86.3466 21.47H82.5615L74.0953 8.15372V21.47H68.8711V2.07617H75.9263L84.4541 15.7493L92.9819 2.07617H100.054V21.47Z" fill="white"></path>
  <path d="M100.054 21.47H94.8128V8.15372L86.3466 21.47H82.5615L74.0953 8.15372V21.47H68.8711V2.07617H75.9263L84.4541 15.7493L92.9819 2.07617H100.054V21.47Z" fill="url(#paint1_linear_772_804)"></path>
  <path d="M135.975 21.47H130.74V8.15372L122.268 21.47H118.483L110.017 8.15372V21.47H104.781V2.07617H111.853L120.387 15.7493L128.903 2.07617H135.975V21.47Z" fill="white"></path>
  <path d="M135.975 21.47H130.74V8.15372L122.268 21.47H118.483L110.017 8.15372V21.47H104.781V2.07617H111.853L120.387 15.7493L128.903 2.07617H135.975V21.47Z" fill="url(#paint2_linear_772_804)"></path>
  <path d="M145.903 21.47H140.668V2.07617H145.903V21.47Z" fill="white"></path>
  <path d="M145.903 21.47H140.668V2.07617H145.903V21.47Z" fill="url(#paint3_linear_772_804)"></path>
  <path d="M162.448 11.0739H175.366V21.4713H171.496L171.261 18.4245C169.341 20.4219 166.289 21.7482 161.95 21.7482C154.441 21.7482 149.844 18.2061 149.844 11.7823C149.844 5.35854 154.441 1.81641 162.823 1.81641C170.97 1.81641 175.046 4.83121 175.366 9.65171H170.041C169.749 8.18159 168.361 5.99772 162.823 5.99772C156.014 5.98174 155.102 9.55051 155.102 11.8835C155.102 14.2165 156.059 17.8918 162.84 17.8918C167.879 17.8918 169.94 15.7612 170.057 14.3177H162.448V11.0739Z" fill="white"></path>
  <path d="M162.448 11.0739H175.366V21.4713H171.496L171.261 18.4245C169.341 20.4219 166.289 21.7482 161.95 21.7482C154.441 21.7482 149.844 18.2061 149.844 11.7823C149.844 5.35854 154.441 1.81641 162.823 1.81641C170.97 1.81641 175.046 4.83121 175.366 9.65171H170.041C169.749 8.18159 168.361 5.99772 162.823 5.99772C156.014 5.98174 155.102 9.55051 155.102 11.8835C155.102 14.2165 156.059 17.8918 162.84 17.8918C167.879 17.8918 169.94 15.7612 170.057 14.3177H162.448V11.0739Z" fill="url(#paint4_linear_772_804)"></path>
  <path d="M199.547 15.6961L203.304 21.47H197.145L193.858 16.2926H185.409V21.47H180.168V2.07617H196.176C200.801 2.07617 203.971 4.87259 203.971 9.19239C203.971 12.3457 202.285 14.6734 199.547 15.6961ZM185.476 12.0953H194.788C196.356 12.0953 198.803 12.0953 198.803 9.19239C198.803 6.28944 196.356 6.25748 194.788 6.25748H185.476V12.0953Z" fill="white"></path>
  <path d="M199.547 15.6961L203.304 21.47H197.145L193.858 16.2926H185.409V21.47H180.168V2.07617H196.176C200.801 2.07617 203.971 4.87259 203.971 9.19239C203.971 12.3457 202.285 14.6734 199.547 15.6961ZM185.476 12.0953H194.788C196.356 12.0953 198.803 12.0953 198.803 9.19239C198.803 6.28944 196.356 6.25748 194.788 6.25748H185.476V12.0953Z" fill="url(#paint5_linear_772_804)"></path>
  <path d="M224.727 17.3313H212.531L210.348 21.47H204.586L215.09 2.07617H222.162L232.7 21.47H226.905L224.727 17.3313ZM222.773 13.6027L218.64 5.75679L214.48 13.6187L222.773 13.6027Z" fill="white"></path>
  <path d="M224.727 17.3313H212.531L210.348 21.47H204.586L215.09 2.07617H222.162L232.7 21.47H226.905L224.727 17.3313ZM222.773 13.6027L218.64 5.75679L214.48 13.6187L222.773 13.6027Z" fill="url(#paint6_linear_772_804)"></path>
  <path d="M260.699 2.07617V21.47H253.565L239.685 6.91797V21.47H234.449V2.07617H241.549L255.458 16.6389V2.07617H260.699Z" fill="white"></path>
  <path d="M260.699 2.07617V21.47H253.565L239.685 6.91797V21.47H234.449V2.07617H241.549L255.458 16.6389V2.07617H260.699Z" fill="url(#paint7_linear_772_804)"></path>
  <path d="M287.806 6.25748H277.912V21.47H272.688V6.25748H262.777V2.07617H287.806V6.25748Z" fill="white"></path>
  <path d="M287.806 6.25748H277.912V21.47H272.688V6.25748H262.777V2.07617H287.806V6.25748Z" fill="url(#paint8_linear_772_804)"></path>
  <path d="M64.4715 48.8798H59.2305V29.502H64.4715V48.8798Z" fill="white"></path>
  <path d="M64.4715 48.8798H59.2305V29.502H64.4715V48.8798Z" fill="url(#paint9_linear_772_804)"></path>
  <path d="M95.104 29.502V48.8798H87.976L74.0953 34.3438V48.8798H68.8711V29.502H75.9711L89.8686 44.0646V29.502H95.104Z" fill="white"></path>
  <path d="M95.104 29.502V48.8798H87.976L74.0953 34.3438V48.8798H68.8711V29.502H75.9711L89.8686 44.0646V29.502H95.104Z" fill="url(#paint10_linear_772_804)"></path>
  <path d="M124.06 29.502L113.583 48.8798H106.422L95.9453 29.502H101.825L110 45.1992L118.18 29.502H124.06Z" fill="white"></path>
  <path d="M124.06 29.502L113.583 48.8798H106.422L95.9453 29.502H101.825L110 45.1992L118.18 29.502H124.06Z" fill="url(#paint11_linear_772_804)"></path>
  <path d="M130.827 33.4595V37.3905H147.121V40.9912H130.827V44.9062H147.121V48.8638H125.586V29.502H147.121V33.4595H130.827Z" fill="white"></path>
  <path d="M130.827 33.4595V37.3905H147.121V40.9912H130.827V44.9062H147.121V48.8638H125.586V29.502H147.121V33.4595H130.827Z" fill="url(#paint12_linear_772_804)"></path>
  <path d="M156.122 42.2119C156.122 44.2573 157.869 45.2001 164.521 45.2001C170.025 45.2001 171.682 44.6195 171.682 43.0695C171.682 41.4715 170.517 41.1839 163.91 40.8803C155.035 40.4968 151.513 39.1651 151.513 34.8187C151.513 30.5575 156.082 29.1992 163.709 29.1992C171.335 29.1992 176.027 31.0262 176.027 35.8148H170.781C170.781 33.6841 168.541 33.1515 163.098 33.1515C157.947 33.1515 156.726 33.6256 156.726 35.0637C156.726 36.5019 157.947 36.8321 163.882 37.1943C171.917 37.6098 176.889 38.0253 176.889 42.9256C176.889 48.103 171.738 49.1523 164.201 49.1523C155.853 49.1523 150.875 47.7941 150.875 42.2279L156.122 42.2119Z" fill="white"></path>
  <path d="M156.122 42.2119C156.122 44.2573 157.869 45.2001 164.521 45.2001C170.025 45.2001 171.682 44.6195 171.682 43.0695C171.682 41.4715 170.517 41.1839 163.91 40.8803C155.035 40.4968 151.513 39.1651 151.513 34.8187C151.513 30.5575 156.082 29.1992 163.709 29.1992C171.335 29.1992 176.027 31.0262 176.027 35.8148H170.781C170.781 33.6841 168.541 33.1515 163.098 33.1515C157.947 33.1515 156.726 33.6256 156.726 35.0637C156.726 36.5019 157.947 36.8321 163.882 37.1943C171.917 37.6098 176.889 38.0253 176.889 42.9256C176.889 48.103 171.738 49.1523 164.201 49.1523C155.853 49.1523 150.875 47.7941 150.875 42.2279L156.122 42.2119Z" fill="url(#paint13_linear_772_804)"></path>
  <path d="M202.31 33.6833H192.416V48.8798H187.175V33.6833H177.281V29.502H202.31V33.6833Z" fill="white"></path>
  <path d="M202.31 33.6833H192.416V48.8798H187.175V33.6833H177.281V29.502H202.31V33.6833Z" fill="url(#paint14_linear_772_804)"></path>
  <path d="M21.675 25.1659L7.09436 11.3223L0 18.0763L7.45272 25.1659L0 32.2501L7.09436 39.0042L21.675 25.1659Z" fill="white"></path>
  <path d="M21.675 25.1659L7.09436 11.3223L0 18.0763L7.45272 25.1659L0 32.2501L7.09436 39.0042L21.675 25.1659Z" fill="url(#paint15_linear_772_804)"></path>
  <path d="M10.7344 7.8662L28.921 25.1667L10.7344 42.4619L18.831 50.1641L45.1423 25.1667L18.831 0.164062L10.7344 7.8662Z" fill="white"></path>
  <path d="M10.7344 7.8662L28.921 25.1667L10.7344 42.4619L18.831 50.1641L45.1423 25.1667L18.831 0.164062L10.7344 7.8662Z" fill="url(#paint16_linear_772_804)"></path>
  <defs>
    <linearGradient id="paint0_linear_772_804" x1="61.851" y1="2.07617" x2="61.851" y2="21.47" gradientUnits="userSpaceOnUse">
      <stop stop-color="white"></stop>
      <stop offset="1" stop-color="white" stop-opacity="0"></stop>
    </linearGradient>
    <linearGradient id="paint1_linear_772_804" x1="84.4625" y1="2.07617" x2="84.4625" y2="21.47" gradientUnits="userSpaceOnUse">
      <stop stop-color="white"></stop>
      <stop offset="1" stop-color="white" stop-opacity="0"></stop>
    </linearGradient>
    <linearGradient id="paint2_linear_772_804" x1="120.378" y1="2.07617" x2="120.378" y2="21.47" gradientUnits="userSpaceOnUse">
      <stop stop-color="white"></stop>
      <stop offset="1" stop-color="white" stop-opacity="0"></stop>
    </linearGradient>
    <linearGradient id="paint3_linear_772_804" x1="143.286" y1="2.07617" x2="143.286" y2="21.47" gradientUnits="userSpaceOnUse">
      <stop stop-color="white"></stop>
      <stop offset="1" stop-color="white" stop-opacity="0"></stop>
    </linearGradient>
    <linearGradient id="paint4_linear_772_804" x1="162.605" y1="1.81641" x2="162.605" y2="21.7482" gradientUnits="userSpaceOnUse">
      <stop stop-color="white"></stop>
      <stop offset="1" stop-color="white" stop-opacity="0"></stop>
    </linearGradient>
    <linearGradient id="paint5_linear_772_804" x1="192.069" y1="2.07617" x2="192.069" y2="21.47" gradientUnits="userSpaceOnUse">
      <stop stop-color="white"></stop>
      <stop offset="1" stop-color="white" stop-opacity="0"></stop>
    </linearGradient>
    <linearGradient id="paint6_linear_772_804" x1="218.643" y1="2.07617" x2="218.643" y2="21.47" gradientUnits="userSpaceOnUse">
      <stop stop-color="white"></stop>
      <stop offset="1" stop-color="white" stop-opacity="0"></stop>
    </linearGradient>
    <linearGradient id="paint7_linear_772_804" x1="247.574" y1="2.07617" x2="247.574" y2="21.47" gradientUnits="userSpaceOnUse">
      <stop stop-color="white"></stop>
      <stop offset="1" stop-color="white" stop-opacity="0"></stop>
    </linearGradient>
    <linearGradient id="paint8_linear_772_804" x1="275.292" y1="2.07617" x2="275.292" y2="21.47" gradientUnits="userSpaceOnUse">
      <stop stop-color="white"></stop>
      <stop offset="1" stop-color="white" stop-opacity="0"></stop>
    </linearGradient>
    <linearGradient id="paint9_linear_772_804" x1="61.851" y1="29.502" x2="61.851" y2="48.8798" gradientUnits="userSpaceOnUse">
      <stop stop-color="white"></stop>
      <stop offset="1" stop-color="white" stop-opacity="0"></stop>
    </linearGradient>
    <linearGradient id="paint10_linear_772_804" x1="81.9876" y1="29.502" x2="81.9876" y2="48.8798" gradientUnits="userSpaceOnUse">
      <stop stop-color="white"></stop>
      <stop offset="1" stop-color="white" stop-opacity="0"></stop>
    </linearGradient>
    <linearGradient id="paint11_linear_772_804" x1="110.002" y1="29.502" x2="110.002" y2="48.8798" gradientUnits="userSpaceOnUse">
      <stop stop-color="white"></stop>
      <stop offset="1" stop-color="white" stop-opacity="0"></stop>
    </linearGradient>
    <linearGradient id="paint12_linear_772_804" x1="136.354" y1="29.502" x2="136.354" y2="48.8638" gradientUnits="userSpaceOnUse">
      <stop stop-color="white"></stop>
      <stop offset="1" stop-color="white" stop-opacity="0"></stop>
    </linearGradient>
    <linearGradient id="paint13_linear_772_804" x1="163.882" y1="29.1992" x2="163.882" y2="49.1523" gradientUnits="userSpaceOnUse">
      <stop stop-color="white"></stop>
      <stop offset="1" stop-color="white" stop-opacity="0"></stop>
    </linearGradient>
    <linearGradient id="paint14_linear_772_804" x1="189.796" y1="29.502" x2="189.796" y2="48.8798" gradientUnits="userSpaceOnUse">
      <stop stop-color="white"></stop>
      <stop offset="1" stop-color="white" stop-opacity="0"></stop>
    </linearGradient>
    <linearGradient id="paint15_linear_772_804" x1="10.8375" y1="11.3223" x2="10.8375" y2="39.0042" gradientUnits="userSpaceOnUse">
      <stop stop-color="white"></stop>
      <stop offset="1" stop-color="white" stop-opacity="0"></stop>
    </linearGradient>
    <linearGradient id="paint16_linear_772_804" x1="27.9383" y1="0.164062" x2="27.9383" y2="50.1641" gradientUnits="userSpaceOnUse">
      <stop stop-color="white"></stop>
      <stop offset="1" stop-color="white" stop-opacity="0"></stop>
    </linearGradient>
  </defs>
</svg>
