<svg width="102" height="102" viewBox="0 0 102 102" fill="none" xmlns="http://www.w3.org/2000/svg">
<g filter="url(#filter0_b_1685_1800)">
<rect x="1" y="1" width="100" height="100" rx="30" fill="url(#paint0_linear_1685_1800)"/>
<rect x="0.5" y="0.5" width="101" height="101" rx="30.5" stroke="url(#paint1_radial_1685_1800)"/>
</g>
<g opacity="0.25" filter="url(#filter1_f_1685_1800)">
<rect x="16.0625" y="51" width="68.1223" height="42.5764" rx="21.2882" fill="url(#paint2_linear_1685_1800)"/>
</g>
<rect x="14" y="13.9998" width="73.7991" height="73.7991" rx="30" fill="url(#paint3_linear_1685_1800)"/>
<g clip-path="url(#clip0_1685_1800)">
<path d="M43.2485 72.9999C47.2497 72.9999 50.4971 69.7146 50.4971 65.6666V58.3333H43.2485C39.2474 58.3333 36 61.6186 36 65.6666C36 69.7146 39.2474 72.9999 43.2485 72.9999Z" fill="#0ACF83"/>
<path d="M36 51.0001C36 46.9521 39.2474 43.6667 43.2485 43.6667H50.4971V58.3334H43.2485C39.2474 58.3334 36 55.0481 36 51.0001Z" fill="#A259FF"/>
<path d="M36 36.3333C36 32.2853 39.2474 29 43.2485 29H50.4971V43.6667H43.2485C39.2474 43.6667 36 40.3813 36 36.3333Z" fill="#F24E1E"/>
<path d="M50.5 29H57.7485C61.7497 29 64.9971 32.2853 64.9971 36.3333C64.9971 40.3813 61.7497 43.6667 57.7485 43.6667H50.5V29Z" fill="#FF7262"/>
<path d="M64.9971 51.0001C64.9971 55.0481 61.7497 58.3334 57.7485 58.3334C53.7474 58.3334 50.5 55.0481 50.5 51.0001C50.5 46.9521 53.7474 43.6667 57.7485 43.6667C61.7497 43.6667 64.9971 46.9521 64.9971 51.0001Z" fill="#1ABCFE"/>
</g>
<defs>
<filter id="filter0_b_1685_1800" x="-42" y="-42" width="186" height="186" filterUnits="userSpaceOnUse" color-interpolation-filters="sRGB">
<feFlood flood-opacity="0" result="BackgroundImageFix"/>
<feGaussianBlur in="BackgroundImageFix" stdDeviation="21"/>
<feComposite in2="SourceAlpha" operator="in" result="effect1_backgroundBlur_1685_1800"/>
<feBlend mode="normal" in="SourceGraphic" in2="effect1_backgroundBlur_1685_1800" result="shape"/>
</filter>
<filter id="filter1_f_1685_1800" x="10.6025" y="45.54" width="79.045" height="53.4964" filterUnits="userSpaceOnUse" color-interpolation-filters="sRGB">
<feFlood flood-opacity="0" result="BackgroundImageFix"/>
<feBlend mode="normal" in="SourceGraphic" in2="BackgroundImageFix" result="shape"/>
<feGaussianBlur stdDeviation="2.73" result="effect1_foregroundBlur_1685_1800"/>
</filter>
<linearGradient id="paint0_linear_1685_1800" x1="109.753" y1="116.797" x2="-24.0373" y2="60.4736" gradientUnits="userSpaceOnUse">
<stop stop-color="white" stop-opacity="0.47"/>
<stop offset="1" stop-color="white" stop-opacity="0"/>
</linearGradient>
<radialGradient id="paint1_radial_1685_1800" cx="0" cy="0" r="1" gradientUnits="userSpaceOnUse" gradientTransform="translate(1 1) rotate(47.959) scale(163.589 275.776)">
<stop stop-color="white" stop-opacity="0.7"/>
<stop offset="1" stop-color="white" stop-opacity="0"/>
</radialGradient>
<linearGradient id="paint2_linear_1685_1800" x1="17.4471" y1="51" x2="47.4695" y2="111.139" gradientUnits="userSpaceOnUse">
<stop stop-color="#13110F"/>
<stop offset="1" stop-color="#2A2823"/>
</linearGradient>
<linearGradient id="paint3_linear_1685_1800" x1="56" y1="89.9998" x2="21.5" y2="13.9998" gradientUnits="userSpaceOnUse">
<stop offset="0.0729167" stop-color="#100F0D"/>
<stop offset="0.973958" stop-color="#35322D"/>
</linearGradient>
<clipPath id="clip0_1685_1800">
<rect width="29" height="44" fill="white" transform="translate(36 29)"/>
</clipPath>
</defs>
</svg>
