<svg width="102" height="102" viewBox="0 0 102 102" fill="none" xmlns="http://www.w3.org/2000/svg">
<g filter="url(#filter0_b_1685_1751)">
<rect x="1" y="1" width="100" height="100" rx="30" fill="url(#paint0_linear_1685_1751)"/>
<rect x="0.5" y="0.5" width="101" height="101" rx="30.5" stroke="url(#paint1_radial_1685_1751)"/>
</g>
<g opacity="0.3" filter="url(#filter1_f_1685_1751)">
<rect x="16.0625" y="51" width="68.1223" height="42.5764" rx="21.2882" fill="url(#paint2_linear_1685_1751)"/>
</g>
<rect x="14" y="13.9998" width="73.7991" height="73.7991" rx="30" fill="#F83738"/>
<path fill-rule="evenodd" clip-rule="evenodd" d="M50.4664 70C50.13 70 49.7937 69.8677 49.5247 69.603C45.8251 65.8979 42.0583 63.3837 38.7623 61.2004C32.7085 57.2306 28 54.0548 28 46.7108C28 40.293 33.3139 35 39.9058 35C45.1525 35 48.1121 37.448 50.4664 41.3516C52.8879 37.448 55.8475 35 61.0942 35C67.6188 35 73 40.293 73 46.7108C73 54.0548 68.2915 57.2306 62.2377 61.2004C58.9417 63.3837 55.1749 65.8979 51.4753 69.603C51.2063 69.8677 50.87 70 50.4664 70Z" fill="white"/>
<path fill-rule="evenodd" clip-rule="evenodd" d="M31.6905 48.431C31.6905 41.9471 36.8968 36.6541 43.3553 36.6541C44.4097 36.6541 45.3983 36.7864 46.255 36.9849C44.5415 35.7278 42.4327 35 39.6648 35C33.2063 35 28 40.293 28 46.7108C28 54.0548 32.6132 57.2306 38.5444 61.2004C41.7736 63.3837 45.4642 65.8979 49.0888 69.603C49.3524 69.8677 49.6819 70 50.0115 70C50.4069 70 50.7364 69.8677 51 69.603V69.5369C47.9685 66.758 44.937 64.707 42.1691 62.8544C36.3037 58.8847 31.6905 55.7089 31.6905 48.431Z" fill="#E6E6E6"/>
<defs>
<filter id="filter0_b_1685_1751" x="-42" y="-42" width="186" height="186" filterUnits="userSpaceOnUse" color-interpolation-filters="sRGB">
<feFlood flood-opacity="0" result="BackgroundImageFix"/>
<feGaussianBlur in="BackgroundImageFix" stdDeviation="21"/>
<feComposite in2="SourceAlpha" operator="in" result="effect1_backgroundBlur_1685_1751"/>
<feBlend mode="normal" in="SourceGraphic" in2="effect1_backgroundBlur_1685_1751" result="shape"/>
</filter>
<filter id="filter1_f_1685_1751" x="8.0625" y="43" width="84.125" height="58.5764" filterUnits="userSpaceOnUse" color-interpolation-filters="sRGB">
<feFlood flood-opacity="0" result="BackgroundImageFix"/>
<feBlend mode="normal" in="SourceGraphic" in2="BackgroundImageFix" result="shape"/>
<feGaussianBlur stdDeviation="4" result="effect1_foregroundBlur_1685_1751"/>
</filter>
<linearGradient id="paint0_linear_1685_1751" x1="109.753" y1="116.797" x2="-24.0373" y2="60.4736" gradientUnits="userSpaceOnUse">
<stop stop-color="white" stop-opacity="0.47"/>
<stop offset="1" stop-color="white" stop-opacity="0"/>
</linearGradient>
<radialGradient id="paint1_radial_1685_1751" cx="0" cy="0" r="1" gradientUnits="userSpaceOnUse" gradientTransform="translate(1 1) rotate(47.959) scale(163.589 275.776)">
<stop stop-color="white" stop-opacity="0.7"/>
<stop offset="1" stop-color="white" stop-opacity="0"/>
</radialGradient>
<linearGradient id="paint2_linear_1685_1751" x1="50.1236" y1="51.3145" x2="50.1236" y2="91.0388" gradientUnits="userSpaceOnUse">
<stop stop-color="#FF0000"/>
<stop offset="1" stop-color="#CC0000"/>
</linearGradient>
</defs>
</svg>
