<svg width="146" height="81" viewBox="0 0 146 81" fill="none" xmlns="http://www.w3.org/2000/svg">
<path d="M13.0312 19.7251H31.9472L30.2103 25.2629H25.3054V45.4652H19.1683V25.2629H13.043L13.0312 19.7251Z" fill="#FFFEFE"/>
<path d="M62.9375 19.7266H82.2876L80.551 25.2644H75.2234V45.4667H69.0981V25.2644H62.9494L62.9375 19.7266Z" fill="#FFFEFE"/>
<path d="M33.1016 27.9141H39.1683V45.4662H33.1485L33.1016 27.9141Z" fill="#FFFEFE"/>
<path d="M41.5781 19.6548H47.6333V31.6456L53.6412 25.7036H60.8698L53.2776 33.1666L61.785 45.4663H55.1081L49.4285 36.9219L47.6333 38.6807V45.4663H41.5781V19.6548Z" fill="#FFFEFE"/>
<path d="M103.617 19.6548H109.742V31.6456L115.739 25.7036H122.967L115.375 33.1666L123.824 45.4663H117.147L111.479 36.9219L109.742 38.6807V45.4663H103.676L103.617 19.6548Z" fill="#FFFEFE"/>
<path d="M36.1446 25.906C37.8295 25.906 39.1955 24.5228 39.1955 22.8164C39.1955 21.1098 37.8295 19.7266 36.1446 19.7266C34.4597 19.7266 33.0938 21.1098 33.0938 22.8164C33.0938 24.5228 34.4597 25.906 36.1446 25.906Z" fill="#FFFEFE"/>
<path d="M90.9905 40.0711C88.2039 40.0711 85.9448 37.7831 85.9448 34.9609C85.9448 32.1388 88.2039 29.8511 90.9905 29.8511C93.7772 29.8511 96.0362 32.1388 96.0362 34.9609C96.0298 37.7805 93.7746 40.0646 90.9905 40.0711ZM90.9905 24.4556C85.2617 24.4556 80.6172 29.159 80.6172 34.9609C80.6172 40.7629 85.2617 45.4663 90.9905 45.4663C96.7194 45.4663 101.364 40.7629 101.364 34.9609C101.364 32.1749 100.271 29.5026 98.3255 27.5328C96.3802 25.5626 93.7418 24.4556 90.9905 24.4556Z" fill="#FFFEFE"/>
<path d="M129.019 34.4768C130.489 34.4768 131.68 33.2702 131.68 31.7818C131.68 30.2935 130.489 29.0869 129.019 29.0869C127.55 29.0869 126.359 30.2935 126.359 31.7818C126.359 33.2702 127.55 34.4768 129.019 34.4768Z" fill="#FE2C55"/>
<path d="M129.019 42.2922C130.489 42.2922 131.68 41.0856 131.68 39.5973C131.68 38.1089 130.489 36.9023 129.019 36.9023C127.55 36.9023 126.359 38.1089 126.359 39.5973C126.359 41.0856 127.55 42.2922 129.019 42.2922Z" fill="#25F4EE"/>
<path d="M23.086 63.8896H21.9196V57.0829C21.9196 56.5451 21.9522 55.8869 22.0174 55.1088H21.9895C21.8777 55.5664 21.7776 55.8941 21.6891 56.0921L18.2668 63.8896H17.6941L14.2788 56.1488C14.1811 55.9224 14.081 55.5755 13.9785 55.1088H13.9506C13.9878 55.5143 14.0065 56.1771 14.0065 57.0969V63.8896H12.875V53.7432H14.4255L17.4986 60.8189C17.736 61.3612 17.8897 61.767 17.9595 62.0357H18.0015C18.2017 61.4791 18.3623 61.0642 18.4834 60.7906L21.6193 53.7432H23.086V63.8896Z" fill="#FFFEFE"/>
<path d="M30.8301 63.8901H29.6846V62.758H29.6567C29.1584 63.6259 28.4251 64.0601 27.4564 64.0601C26.744 64.0601 26.1853 63.8689 25.7802 63.4869C25.38 63.1048 25.1797 62.5977 25.1797 61.9655C25.1797 60.6116 25.9667 59.8241 27.5403 59.6023L29.6846 59.2981C29.6846 58.0669 29.1934 57.451 28.211 57.451C27.3494 57.451 26.572 57.7484 25.8783 58.3428V57.154C26.5814 56.7013 27.3915 56.4746 28.3087 56.4746C29.9894 56.4746 30.8301 57.3758 30.8301 59.1776V63.8901ZM29.6846 60.225L27.9596 60.4654C27.4288 60.5409 27.0282 60.6754 26.7582 60.8689C26.4881 61.0575 26.3531 61.3949 26.3531 61.8805C26.3531 62.2346 26.4766 62.5244 26.7231 62.7511C26.9745 62.9726 27.3076 63.0836 27.722 63.0836C28.29 63.0836 28.7581 62.883 29.1259 62.4821C29.4982 62.0763 29.6846 61.5646 29.6846 60.9467V60.225Z" fill="#FFFEFE"/>
<path d="M36.8705 57.8202C36.6702 57.6645 36.3815 57.5867 36.0044 57.5867C35.5154 57.5867 35.1055 57.8202 34.775 58.2873C34.4491 58.754 34.2861 59.391 34.2861 60.1975V63.8912H33.1406V56.6454H34.2861V58.1384H34.314C34.477 57.629 34.7262 57.233 35.0615 56.9499C35.3968 56.662 35.7717 56.5181 36.186 56.5181C36.4837 56.5181 36.712 56.5513 36.8705 56.6171V57.8202Z" fill="#FFFEFE"/>
<path d="M44.1865 63.8894H42.5801L39.4231 60.408H39.3951V63.8894H38.25V53.1626H39.3951V59.9625H39.4231L42.4264 56.644H43.9281L40.6107 60.1393L44.1865 63.8894Z" fill="#FFFEFE"/>
<path d="M51.2527 60.5575H46.2029C46.2215 61.364 46.4356 61.9867 46.8455 62.4254C47.2554 62.8641 47.8186 63.0836 48.5356 63.0836C49.3412 63.0836 50.0816 62.8146 50.7567 62.2769V63.3667C50.1282 63.8288 49.2968 64.0601 48.2633 64.0601C47.2528 64.0601 46.4591 63.7321 45.8817 63.0765C45.3043 62.416 45.0156 61.489 45.0156 60.2957C45.0156 59.1681 45.33 58.2506 45.9585 57.5432C46.5919 56.8309 47.3763 56.4746 48.3121 56.4746C49.248 56.4746 49.9723 56.7814 50.4844 57.3947C50.9965 58.008 51.2527 58.8594 51.2527 59.9488V60.5575ZM50.0793 59.5739C50.0745 58.904 49.9141 58.3829 49.5974 58.0103C49.2853 57.6377 48.85 57.451 48.2912 57.451C47.7511 57.451 47.2924 57.6471 46.9153 58.0386C46.5382 58.4301 46.3054 58.9418 46.217 59.5739H50.0793Z" fill="#FFFEFE"/>
<path d="M56.4498 63.8198C56.1798 63.9706 55.8236 64.0462 55.3812 64.0462C54.1287 64.0462 53.5025 63.3384 53.5025 61.9233V57.6355H52.2734V56.645H53.5025V54.8759L54.6479 54.501V56.645H56.4498V57.6355H54.6479V61.7181C54.6479 62.204 54.7296 62.5509 54.8922 62.7584C55.0552 62.9658 55.3253 63.0697 55.7027 63.0697C55.9914 63.0697 56.2402 62.9896 56.4498 62.829V63.8198Z" fill="#FFFEFE"/>
<path d="M58.7169 54.8058C58.5122 54.8058 58.3376 54.7352 58.1932 54.5935C58.0489 54.4521 57.9766 54.2727 57.9766 54.0557C57.9766 53.8388 58.0489 53.6597 58.1932 53.518C58.3376 53.3718 58.5122 53.2988 58.7169 53.2988C58.9265 53.2988 59.1034 53.3718 59.2477 53.518C59.3969 53.6597 59.4715 53.8388 59.4715 54.0557C59.4715 54.2632 59.3969 54.4404 59.2477 54.5866C59.1034 54.7325 58.9265 54.8058 58.7169 54.8058ZM59.2757 63.8911H58.1302V56.6457H59.2757V63.8911Z" fill="#FFFEFE"/>
<path d="M67.6631 63.8901H66.5176V59.758C66.5176 58.22 65.9634 57.451 64.8552 57.451C64.2827 57.451 63.8079 57.6706 63.4307 58.1093C63.0581 58.5431 62.872 59.0929 62.872 59.758V63.8901H61.7266V56.6446H62.872V57.8474H62.8997C63.4397 56.9322 64.2222 56.4746 65.2465 56.4746C66.0287 56.4746 66.6269 56.7319 67.0413 57.2459C67.4557 57.7556 67.6631 58.4936 67.6631 59.4606V63.8901Z" fill="#FFFEFE"/>
<path d="M76.0852 63.31C76.0852 65.9703 74.8282 67.3008 72.3139 67.3008C71.4291 67.3008 70.656 67.1308 69.995 66.7914V65.6309C70.8003 66.0836 71.5687 66.31 72.2997 66.31C74.0598 66.31 74.9397 65.3619 74.9397 63.4657V62.6733H74.9118C74.3672 63.5976 73.5477 64.0601 72.4534 64.0601C71.5642 64.0601 70.8469 63.7393 70.3023 63.0977C69.7622 62.4515 69.4922 61.5858 69.4922 60.5009C69.4922 59.2697 69.7831 58.291 70.365 57.5644C70.9517 56.8381 71.7525 56.4746 72.7678 56.4746C73.7316 56.4746 74.4463 56.8664 74.9118 57.6494H74.9397V56.6446H76.0852V63.31ZM74.9397 60.6142V59.5456C74.9397 58.9701 74.7465 58.4773 74.3601 58.0669C73.9782 57.6566 73.5011 57.451 72.9282 57.451C72.2206 57.451 71.6664 57.7129 71.2661 58.2366C70.8656 58.7555 70.6653 59.4844 70.6653 60.423C70.6653 61.2298 70.8562 61.876 71.2382 62.3619C71.6246 62.843 72.1345 63.0836 72.7678 63.0836C73.4101 63.0836 73.9319 62.8524 74.3321 62.3902C74.7372 61.9278 74.9397 61.336 74.9397 60.6142Z" fill="#FFFEFE"/>
<path d="M83.939 60.0555V63.8906H82.7656V53.7441H85.5175C86.5884 53.7441 87.4172 54.0083 88.0039 54.5366C88.5951 55.0648 88.8909 55.81 88.8909 56.7725C88.8909 57.7349 88.5626 58.5224 87.9062 59.1357C87.2542 59.749 86.3717 60.0555 85.2591 60.0555H83.939ZM83.939 54.8196V58.98H85.1681C85.9782 58.98 86.5955 58.7938 87.0189 58.4212C87.4474 58.0437 87.6615 57.5131 87.6615 56.8291C87.6615 55.4896 86.8793 54.8196 85.315 54.8196H83.939Z" fill="#FFFEFE"/>
<path d="M95.4079 63.8901H94.2625V62.758H94.2348C93.7365 63.6259 93.0032 64.0601 92.0346 64.0601C91.3222 64.0601 90.7634 63.8689 90.3583 63.4869C89.9581 63.1048 89.7578 62.5977 89.7578 61.9655C89.7578 60.6116 90.5445 59.8241 92.1185 59.6023L94.2625 59.2981C94.2625 58.0669 93.7712 57.451 92.7888 57.451C91.9275 57.451 91.1498 57.7484 90.4561 58.3428V57.154C91.1592 56.7013 91.9693 56.4746 92.8868 56.4746C94.5675 56.4746 95.4079 57.3758 95.4079 59.1776V63.8901ZM94.2625 60.225L92.5374 60.4654C92.0066 60.5409 91.6063 60.6754 91.3363 60.8689C91.0663 61.0575 90.9312 61.3949 90.9312 61.8805C90.9312 62.2346 91.0544 62.5244 91.3013 62.7511C91.5527 62.9726 91.8857 63.0836 92.3001 63.0836C92.8682 63.0836 93.3359 62.883 93.7037 62.4821C94.0763 62.0763 94.2625 61.5646 94.2625 60.9467V60.225Z" fill="#FFFEFE"/>
<path d="M101.433 57.8202C101.232 57.6645 100.944 57.5867 100.567 57.5867C100.078 57.5867 99.668 57.8202 99.3372 58.2873C99.0116 58.754 98.8486 59.391 98.8486 60.1975V63.8912H97.7031V56.6454H98.8486V58.1384H98.8762C99.0392 57.629 99.2884 57.233 99.6237 56.9499C99.959 56.662 100.334 56.5181 100.748 56.5181C101.046 56.5181 101.274 56.5513 101.433 56.6171V57.8202Z" fill="#FFFEFE"/>
<path d="M106.138 63.8198C105.868 63.9706 105.511 64.0462 105.069 64.0462C103.817 64.0462 103.19 63.3384 103.19 61.9233V57.6355H101.961V56.645H103.19V54.8759L104.336 54.501V56.645H106.138V57.6355H104.336V61.7181C104.336 62.204 104.417 62.5509 104.58 62.7584C104.743 62.9658 105.013 63.0697 105.39 63.0697C105.679 63.0697 105.928 62.9896 106.138 62.829V63.8198Z" fill="#FFFEFE"/>
<path d="M113.749 63.8901H112.604V59.758C112.604 58.22 112.05 57.451 110.942 57.451C110.369 57.451 109.894 57.6706 109.517 58.1093C109.144 58.5431 108.958 59.0929 108.958 59.758V63.8901H107.812V56.6446H108.958V57.8474H108.986C109.526 56.9322 110.308 56.4746 111.332 56.4746C112.115 56.4746 112.713 56.7319 113.127 57.2459C113.542 57.7556 113.749 58.4936 113.749 59.4606V63.8901Z" fill="#FFFEFE"/>
<path d="M121.807 60.5575H116.758C116.776 61.364 116.99 61.9867 117.4 62.4254C117.81 62.8641 118.373 63.0836 119.09 63.0836C119.896 63.0836 120.636 62.8146 121.311 62.2769V63.3667C120.683 63.8288 119.852 64.0601 118.818 64.0601C117.808 64.0601 117.014 63.7321 116.436 63.0765C115.859 62.416 115.57 61.489 115.57 60.2957C115.57 59.1681 115.884 58.2506 116.513 57.5432C117.146 56.8309 117.931 56.4746 118.867 56.4746C119.803 56.4746 120.527 56.7814 121.039 57.3947C121.551 58.008 121.807 58.8594 121.807 59.9488V60.5575ZM120.634 59.5739C120.629 58.904 120.468 58.3829 120.152 58.0103C119.84 57.6377 119.405 57.451 118.846 57.451C118.306 57.451 117.847 57.6471 117.47 58.0386C117.093 58.4301 116.86 58.9418 116.771 59.5739H120.634Z" fill="#FFFEFE"/>
<path d="M127.417 57.8202C127.217 57.6645 126.928 57.5867 126.551 57.5867C126.062 57.5867 125.652 57.8202 125.322 58.2873C124.996 58.754 124.833 59.391 124.833 60.1975V63.8912H123.688V56.6454H124.833V58.1384H124.861C125.024 57.629 125.273 57.233 125.608 56.9499C125.943 56.662 126.318 56.5181 126.733 56.5181C127.031 56.5181 127.259 56.5513 127.417 56.6171V57.8202Z" fill="#FFFEFE"/>
<path d="M128.359 63.6282V62.3831C128.983 62.8501 129.67 63.0836 130.419 63.0836C131.425 63.0836 131.928 62.7439 131.928 62.0645C131.928 61.8711 131.884 61.7086 131.795 61.5763C131.712 61.4395 131.595 61.3194 131.446 61.2155C131.302 61.1119 131.13 61.0197 130.929 60.9396C130.734 60.8546 130.522 60.7673 130.294 60.6777C129.977 60.5504 129.698 60.423 129.456 60.2957C129.218 60.1635 129.018 60.0172 128.855 59.857C128.697 59.6918 128.576 59.5055 128.492 59.2981C128.413 59.0903 128.373 58.8476 128.373 58.5692C128.373 58.2295 128.45 57.9301 128.604 57.6706C128.757 57.4064 128.962 57.1869 129.218 57.0127C129.474 56.8332 129.766 56.6987 130.091 56.6091C130.422 56.5196 130.762 56.4746 131.111 56.4746C131.73 56.4746 132.284 56.5834 132.773 56.8003V57.9748C132.247 57.6256 131.642 57.451 130.957 57.451C130.743 57.451 130.55 57.4771 130.378 57.5289C130.205 57.5761 130.056 57.6445 129.931 57.7341C129.81 57.824 129.714 57.9324 129.644 58.0598C129.579 58.1822 129.547 58.319 129.547 58.4701C129.547 58.6587 129.579 58.8167 129.644 58.944C129.714 59.0717 129.814 59.1847 129.945 59.2837C130.075 59.3828 130.233 59.4726 130.419 59.5528C130.606 59.6329 130.818 59.7202 131.055 59.8146C131.372 59.9371 131.656 60.0644 131.907 60.1967C132.159 60.324 132.373 60.4703 132.55 60.6354C132.727 60.7956 132.862 60.9819 132.955 61.1943C133.053 61.4066 133.102 61.659 133.102 61.9515C133.102 62.3098 133.023 62.6212 132.864 62.8853C132.71 63.1494 132.503 63.369 132.243 63.5435C131.982 63.7181 131.681 63.8477 131.341 63.9327C131.002 64.0174 130.645 64.0601 130.273 64.0601C129.537 64.0601 128.899 63.9161 128.359 63.6282Z" fill="#FFFEFE"/>
</svg>
