<svg width="146" height="80" viewBox="0 0 146 80" fill="none" xmlns="http://www.w3.org/2000/svg">
<path d="M17.2395 57.1909V68.149H13.7578V41.0811H22.9791C25.3213 41.0811 27.3049 41.8623 28.9508 43.4247C30.6178 44.9871 31.4407 46.8874 31.4407 49.1254C31.4407 51.4269 30.6178 53.3271 28.9508 54.8684C27.3471 56.4097 25.3424 57.1698 22.9791 57.1698H17.2395V57.1909ZM17.2395 44.417V53.8761H23.0635C24.4562 53.8761 25.5956 53.4116 26.503 52.4825C27.4315 51.5535 27.8957 50.4345 27.8957 49.1466C27.8957 47.8797 27.4315 46.7818 26.503 45.8528C25.5956 44.9027 24.4562 44.417 23.0635 44.417H17.2395Z" fill="#FFFEFE"/>
<path d="M40.7435 49.0195C43.3179 49.0195 45.3436 49.7163 46.8207 51.0887C48.2978 52.4611 49.0574 54.3402 49.0574 56.7472V68.1698H45.7234V65.5939H45.5757C44.1408 67.7053 42.2206 68.761 39.8362 68.761C37.7893 68.761 36.0801 68.1487 34.7086 66.9452C33.337 65.7417 32.6406 64.2215 32.6406 62.4057C32.6406 60.4844 33.3581 58.9642 34.8141 57.824C36.2701 56.6839 38.1903 56.1138 40.6169 56.1138C42.6848 56.1138 44.3729 56.4938 45.7234 57.2539V56.4516C45.7234 55.2481 45.2381 54.2135 44.2885 53.369C43.339 52.5244 42.1995 52.1022 40.9334 52.1022C38.9921 52.1022 37.4517 52.9256 36.3334 54.5514L33.2737 52.63C34.9618 50.2441 37.4517 49.0195 40.7435 49.0195ZM36.2489 62.4902C36.2489 63.3981 36.6288 64.1582 37.4095 64.7494C38.1692 65.3617 39.0765 65.6573 40.1105 65.6573C41.5665 65.6573 42.8748 65.1083 44.0142 64.0315C45.1537 62.9547 45.7234 61.6667 45.7234 60.2099C44.6473 59.3442 43.128 58.9219 41.1867 58.9219C39.7729 58.9219 38.5912 59.2598 37.6627 59.9354C36.7343 60.6322 36.2489 61.4767 36.2489 62.4902Z" fill="#FFFEFE"/>
<path d="M53.0078 49.6331H56.3207V52.6524H56.4684C57.5024 50.2877 59.6336 49.1053 62.8621 49.1053L63.5796 49.1897V52.8213L62.0392 52.6735C60.4355 52.6735 59.1061 53.1803 58.051 54.1726C56.996 55.165 56.4895 56.4318 56.4895 57.9731V68.1922H53.0078V49.6331ZM74.7 68.4667C73.1807 68.4667 71.9357 68.0022 70.9439 67.0732C69.9522 66.1442 69.4457 64.8351 69.4035 63.1882V52.8213H66.1539V49.6542H69.4035V43.9746H72.8852V49.6542H77.422V52.8213H72.8852V62.0481C72.8852 63.2938 73.1174 64.1172 73.6027 64.5606C74.088 65.004 74.6156 65.2152 75.2275 65.2152C75.5018 65.2152 75.7761 65.1941 76.0504 65.1307C76.3248 65.0674 76.5569 64.9829 76.789 64.8773L77.8863 67.9811C76.9578 68.2978 75.9027 68.4667 74.7 68.4667Z" fill="#FFFEFE"/>
<path d="M80.9297 49.6327H84.2637V52.2086H84.4114C84.9389 51.3007 85.7619 50.5406 86.8592 49.9494C87.9564 49.3371 89.0959 49.0415 90.2776 49.0415C92.5354 49.0415 94.2868 49.696 95.5107 50.984C96.7346 52.2719 97.3465 54.1299 97.3465 56.5158V68.1707H93.8648V56.7481C93.7804 53.7288 92.2611 52.2086 89.2858 52.2086C87.8931 52.2086 86.7325 52.7787 85.8041 53.8977C84.8756 55.0167 84.4114 56.368 84.4114 57.9304V68.1707H80.9297V49.6327Z" fill="#FFFEFE"/>
<path d="M109.728 68.761C107.006 68.761 104.77 67.832 102.997 65.9529C101.225 64.0948 100.359 61.7301 100.359 58.8797C100.359 56.0505 101.225 53.7068 102.934 51.8277C104.643 49.9485 106.837 49.0195 109.517 49.0195C112.261 49.0195 114.455 49.9063 116.08 51.6799C117.705 53.4534 118.528 55.9449 118.528 59.1542L118.485 59.5342H103.925C103.968 61.35 104.58 62.8069 105.74 63.9259C106.901 65.045 108.293 65.5939 109.897 65.5939C112.113 65.5939 113.843 64.4749 115.109 62.2579L118.211 63.7781C117.388 65.3406 116.228 66.5652 114.75 67.4519C113.252 68.3176 111.585 68.761 109.728 68.761ZM104.158 56.6628H114.772C114.666 55.3748 114.139 54.3191 113.21 53.4746C112.261 52.63 110.994 52.2077 109.412 52.2077C108.104 52.2077 106.964 52.6089 106.036 53.4112C105.086 54.2135 104.474 55.3115 104.158 56.6628Z" fill="#FFFEFE"/>
<path d="M125.13 68.1703H121.648V49.6323H124.982V52.6516H125.13C125.489 51.6593 126.206 50.8358 127.304 50.1391C128.401 49.4423 129.477 49.1045 130.532 49.1045C131.545 49.1045 132.389 49.2523 133.106 49.5479L132.051 52.905C131.629 52.7361 130.933 52.6305 130.005 52.6305C128.696 52.6305 127.557 53.1584 126.586 54.214C125.615 55.2697 125.13 56.5155 125.13 57.9301V68.1703Z" fill="#FFFEFE"/>
<path d="M21.6531 25.2671V27.6318H27.3083C27.1184 29.1309 26.5064 30.2922 25.4514 31.1156C24.4174 31.9391 23.1513 32.3402 21.6531 32.3402C19.9017 32.3402 18.4457 31.7279 17.243 30.5033C16.0402 29.2998 15.4494 27.8007 15.4494 26.0483C15.4494 24.2958 16.0402 22.8179 17.243 21.5933C18.4457 20.3687 19.9017 19.7564 21.6531 19.7564C23.2779 19.7564 24.6917 20.3264 25.9156 21.4455L27.5826 19.7775C25.9156 18.1939 23.9321 17.3916 21.6531 17.3916C20.1127 17.3916 18.6568 17.7928 17.2641 18.574C15.8925 19.3552 14.8163 20.4109 14.0356 21.7622C13.2548 23.0923 12.875 24.507 12.875 26.0483C12.875 27.5896 13.2548 29.0253 14.0356 30.3555C14.8163 31.6857 15.8925 32.7414 17.2641 33.5226C18.6357 34.3038 20.0916 34.705 21.6531 34.705C23.9954 34.705 25.9156 33.966 27.456 32.5091C28.9753 31.0523 29.7349 29.152 29.7349 26.745C29.7349 26.175 29.6927 25.6894 29.6083 25.2671H21.6531Z" fill="#4B7ABD"/>
<path d="M36.1465 23.5566C34.5639 23.5566 33.2346 24.0845 32.1584 25.1613C31.0822 26.217 30.5547 27.5472 30.5547 29.1307C30.5547 30.6931 31.1033 32.0233 32.1795 33.1001C33.2557 34.1769 34.5639 34.7048 36.1465 34.7048C37.7291 34.7048 39.0374 34.1769 40.1136 33.1001C41.1897 32.0233 41.7384 30.6931 41.7384 29.1307C41.7384 27.5472 41.1897 26.217 40.1136 25.1613C39.0374 24.0845 37.7291 23.5566 36.1465 23.5566ZM38.3622 31.5377C37.7502 32.1922 37.0117 32.5089 36.1465 32.5089C35.2603 32.5089 34.5217 32.1922 33.9098 31.5377C33.2979 30.8832 33.0024 30.0808 33.0024 29.1307C33.0024 28.1384 33.2979 27.336 33.9098 26.7237C34.5217 26.0692 35.2603 25.7525 36.1465 25.7525C37.0328 25.7525 37.7713 26.0692 38.3833 26.7237C38.9952 27.336 39.2906 28.1384 39.2906 29.1307C39.2906 30.0597 38.9741 30.862 38.3622 31.5377Z" fill="#E5291F"/>
<path d="M69.7212 17.9829H67.2734V34.3462H69.7212V17.9829Z" fill="#009E3C"/>
<path d="M48.3262 23.5566C46.7436 23.5566 45.4142 24.0845 44.3381 25.1613C43.2619 26.217 42.7344 27.5472 42.7344 29.1307C42.7344 30.6931 43.283 32.0233 44.3592 33.1001C45.4353 34.1769 46.7436 34.7048 48.3262 34.7048C49.9088 34.7048 51.2171 34.1769 52.2933 33.1001C53.3694 32.0233 53.9181 30.6931 53.9181 29.1307C53.9181 27.5472 53.3694 26.217 52.2933 25.1613C51.2382 24.0845 49.9088 23.5566 48.3262 23.5566ZM50.5419 31.5377C49.9299 32.1922 49.1914 32.5089 48.3262 32.5089C47.44 32.5089 46.7014 32.1922 46.0895 31.5377C45.4775 30.8832 45.1821 30.0808 45.1821 29.1307C45.1821 28.1384 45.4775 27.336 46.0895 26.7237C46.7014 26.0692 47.44 25.7525 48.3262 25.7525C49.2125 25.7525 49.951 26.0692 50.563 26.7237C51.1749 27.336 51.4703 28.1384 51.4703 29.1307C51.4703 30.0597 51.1749 30.862 50.5419 31.5377Z" fill="#FBB700"/>
<path d="M76.4371 32.4878C75.2132 32.4878 74.3059 31.9177 73.7362 30.7987L81.1849 27.7161L80.9317 27.0827C80.7418 26.5548 80.4886 26.0903 80.1721 25.6469C79.8555 25.2035 79.4968 24.8446 79.0959 24.5279C78.695 24.2112 78.2307 23.9789 77.7454 23.81C77.2601 23.6411 76.7325 23.5566 76.1839 23.5566C74.6857 23.5566 73.4407 24.0845 72.4279 25.1402C71.4361 26.217 70.9297 27.5472 70.9297 29.1307C70.9297 30.7142 71.4572 32.0233 72.5123 33.1001C73.5674 34.1769 74.8756 34.7048 76.4582 34.7048C78.4206 34.7048 79.961 33.8813 81.1005 32.2344L79.2014 30.9676C78.484 31.9811 77.5766 32.4878 76.4371 32.4878ZM74.1793 26.6393C74.7912 26.027 75.4876 25.7103 76.2472 25.7103C76.7325 25.7103 77.1546 25.8158 77.5344 26.027C77.9142 26.2381 78.1674 26.5337 78.3151 26.8715L73.3352 28.9407C73.3141 28.0117 73.5885 27.2305 74.1793 26.6393Z" fill="#E5291F"/>
<path d="M63.2624 24.8024H63.178C62.4816 23.9789 61.4899 23.5566 60.2449 23.5566C58.81 23.5566 57.565 24.1056 56.4888 25.2035C55.4338 26.3014 54.9062 27.6105 54.9062 29.1518C54.9062 30.672 55.4338 31.9811 56.4888 33.079C57.565 34.1558 58.8311 34.7048 60.2449 34.7048C61.4899 34.7048 62.4816 34.2825 63.178 33.4379H63.2624V34.008C63.2624 36.3517 62.2706 37.5129 60.2871 37.5129C59.654 37.5129 59.0843 37.3229 58.599 36.964C58.1136 36.605 57.7338 36.1194 57.4806 35.5282L55.3494 36.415C55.5604 36.9006 55.8347 37.344 56.1512 37.7452C56.4678 38.1463 56.8476 38.4842 57.2696 38.7797C57.6916 39.0753 58.1559 39.2865 58.6623 39.4554C59.1687 39.6243 59.6963 39.6876 60.266 39.6876C61.933 39.6876 63.2202 39.1809 64.1486 38.1886C65.0771 37.1751 65.5413 35.7605 65.5413 33.9024V23.8945H63.2202V24.8024H63.2624ZM62.5871 31.5588C62.0174 32.1922 61.3 32.5089 60.477 32.5089C59.6118 32.5089 58.8733 32.1922 58.2614 31.5377C57.6705 30.8832 57.3751 30.1019 57.3751 29.1518C57.3751 28.2017 57.6705 27.3994 58.2825 26.7448C58.8944 26.0903 59.6329 25.7525 60.477 25.7525C61.3211 25.7525 62.0174 26.0692 62.5871 26.7237C63.1569 27.3783 63.4523 28.2017 63.4523 29.1518C63.4312 30.0808 63.1569 30.8832 62.5871 31.5588Z" fill="#4B7ABD"/>
</svg>
