<svg width="190" height="180" viewBox="0 0 190 180" fill="none" xmlns="http://www.w3.org/2000/svg">
<g opacity="0.1" filter="url(#filter0_f)">
<ellipse cx="95" cy="140" rx="75" ry="20" fill="#6B799A"/>
</g>
<path d="M52.7756 3.22706L133.392 49.7655C136.545 51.5669 139.097 55.9205 139.097 59.5235V145.845C139.097 149.448 136.545 150.949 133.392 149.147L52.7756 102.609C49.623 100.808 47.0709 96.454 47.0709 92.851V6.52978C47.0709 2.77668 49.623 1.42557 52.7756 3.22706Z" fill="#F0F0F4"/>
<path d="M139.097 145.844V59.5233C139.097 55.9203 136.545 51.5667 133.392 49.7652L52.7756 3.22681C49.6229 1.42532 47.221 2.92656 47.0708 6.37941C47.0708 0.674704 52.0249 -0.976659 55.778 0.52458C56.0783 0.674704 56.6788 0.974952 56.6788 0.974952L137.445 47.5134C140.448 49.1647 143 53.6684 143 57.1213V143.443C143 147.196 138.797 152.15 133.392 148.997C136.545 150.799 139.097 149.447 139.097 145.844Z" fill="#6B799A"/>
<path d="M133.692 69.5819V81.8921C133.692 82.3425 133.992 82.943 134.443 83.0931C134.893 83.3933 135.193 83.0931 135.193 82.6427V70.3326C135.193 69.8822 134.893 69.2817 134.443 69.1316C134.143 68.8313 133.692 68.9814 133.692 69.5819Z" fill="#6B799A"/>
<path d="M49.7731 21.0917V33.4019C49.7731 33.8522 50.0733 34.4527 50.5237 34.6029C50.974 34.9031 51.2743 34.6029 51.2743 34.1525V21.8423C51.2743 21.392 50.974 20.7915 50.5237 20.6413C50.0733 20.3411 49.7731 20.4912 49.7731 21.0917Z" fill="#6B799A"/>
<path d="M53.8264 12.9854V93.9021L129.939 137.888V56.8215L53.8264 12.9854Z" fill="#221EC4"/>
<path opacity="0.1" d="M83.2507 111.016L129.939 80.0907V56.8215L121.532 52.0176L56.0783 95.2533L83.2507 111.016Z" fill="white"/>
<path opacity="0.1" d="M53.8264 55.9204V63.7268L94.9603 36.7045L88.6551 33.1016L53.8264 55.9204Z" fill="white"/>
<path opacity="0.1" d="M110.723 45.7123L104.418 42.1094L53.8264 75.587V83.3934L110.723 45.7123Z" fill="white"/>
<path d="M88.2797 116.871C87.379 117.321 87.379 118.972 88.2797 120.474C89.1805 121.975 90.5316 122.726 91.4324 122.275C92.3331 121.825 92.3331 120.173 91.4324 118.672C90.5316 117.171 89.0304 116.27 88.2797 116.871Z" fill="#6B799A"/>
<path d="M78.5894 50.1735L75.6425 48.3676C75.2517 48.1281 74.8769 47.7164 74.6006 47.2229C74.3243 46.7295 74.169 46.1948 74.169 45.7365C74.169 45.2782 74.3243 44.9338 74.6006 44.779C74.8769 44.6243 75.2517 44.6719 75.6425 44.9113L79.3261 47.1687C79.5215 47.2884 79.7089 47.4943 79.8471 47.741C79.9853 47.9877 80.0629 48.2551 80.0629 48.4842C80.0629 48.7134 80.1405 48.9807 80.2787 49.2274C80.4168 49.4741 80.6042 49.68 80.7996 49.7997C80.995 49.9195 81.1824 49.9433 81.3206 49.8659C81.4587 49.7885 81.5363 49.6163 81.5363 49.3872C81.5363 48.6997 81.3035 47.8976 80.889 47.1575C80.4745 46.4174 79.9123 45.7998 79.3261 45.4406L77.8527 44.5376V42.8095C77.8527 42.5803 77.7751 42.313 77.6369 42.0663C77.4987 41.8196 77.3113 41.6137 77.1159 41.494C76.9206 41.3742 76.7332 41.3504 76.595 41.4278C76.4568 41.5052 76.3792 41.6774 76.3792 41.9066V43.6347L75.6425 43.1832C74.8609 42.7043 74.1113 42.6091 73.5587 42.9186C73.006 43.2281 72.6956 43.9169 72.6956 44.8336C72.6956 45.7502 73.006 46.8196 73.5587 47.8064C74.1113 48.7933 74.8609 49.6167 75.6425 50.0957L78.5894 51.9016C78.9802 52.141 79.355 52.5528 79.6313 53.0462C79.9076 53.5396 80.0629 54.0743 80.0629 54.5326C80.0629 54.991 79.9076 55.3354 79.6313 55.4901C79.355 55.6449 78.9802 55.5973 78.5894 55.3578L74.9058 53.1005C74.7104 52.9807 74.523 52.7749 74.3848 52.5281C74.2466 52.2814 74.169 52.0141 74.169 51.7849C74.169 51.5558 74.0914 51.2884 73.9532 51.0417C73.8151 50.795 73.6277 50.5891 73.4323 50.4694C73.2369 50.3497 73.0495 50.3259 72.9113 50.4032C72.7732 50.4806 72.6956 50.6528 72.6956 50.882C72.6956 51.5695 72.9284 52.3715 73.3429 53.1116C73.7574 53.8518 74.3196 54.4694 74.9058 54.8286L76.3792 55.7315V57.4596C76.3792 57.6888 76.4568 57.9561 76.595 58.2029C76.7332 58.4496 76.9206 58.6554 77.1159 58.7752C77.3113 58.8949 77.4987 58.9187 77.6369 58.8413C77.7751 58.764 77.8527 58.5917 77.8527 58.3626V56.6345L78.5894 57.0859C79.371 57.5649 80.1205 57.6601 80.6732 57.3506C81.2259 57.0411 81.5363 56.3522 81.5363 55.4356C81.5363 54.5189 81.2259 53.4496 80.6732 52.4627C80.1205 51.4759 79.371 50.6524 78.5894 50.1735Z" fill="#FFDB1D"/>
<path d="M89.2557 66.2787V47.3631C89.2557 45.7117 88.0547 43.61 86.5535 42.7093L70.19 33.2515C68.3885 32.2006 67.0374 33.1013 67.0374 35.0529V53.9686C67.0374 55.6199 68.2384 57.7216 69.7396 58.6224L86.1031 68.0802C87.9046 69.1311 89.2557 68.2303 89.2557 66.2787ZM86.1031 43.61C87.3041 44.3606 88.2049 46.012 88.2049 47.3631V65.6782C88.2049 67.0293 87.3041 67.6298 86.1031 66.8792L70.3401 57.7217C69.1391 56.971 68.2384 55.3197 68.2384 53.9686V35.6534C68.2384 34.3023 69.1391 33.7018 70.3401 34.4525L86.1031 43.61Z" fill="white"/>
<path fill-rule="evenodd" clip-rule="evenodd" d="M75.8634 89.2477C75.9423 89.2932 76.0062 89.2563 76.0062 89.1652C76.0062 89.0742 75.9423 88.9635 75.8634 88.918C75.7846 88.8725 75.7207 88.9094 75.7207 89.0004C75.7207 89.0914 75.7846 89.2021 75.8634 89.2477ZM74.7072 88.4152C74.7072 87.6779 75.2248 87.379 75.8634 87.7477C76.502 88.1164 77.0197 89.013 77.0197 89.7504C77.0197 90.4878 76.502 90.7867 75.8634 90.418C75.2248 90.0493 74.7072 89.1526 74.7072 88.4152Z" fill="white"/>
<path fill-rule="evenodd" clip-rule="evenodd" d="M81.4379 92.4664C81.5167 92.5119 81.5807 92.475 81.5807 92.384C81.5807 92.293 81.5167 92.1823 81.4379 92.1367C81.3591 92.0912 81.2951 92.1281 81.2951 92.2192C81.2951 92.3102 81.3591 92.4209 81.4379 92.4664ZM80.2816 91.634C80.2816 90.8966 80.7993 90.5977 81.4379 90.9664C82.0765 91.3351 82.5942 92.2318 82.5942 92.9692C82.5942 93.7065 82.0765 94.0054 81.4379 93.6367C80.7993 93.268 80.2816 92.3714 80.2816 91.634Z" fill="white"/>
<path fill-rule="evenodd" clip-rule="evenodd" d="M71.1598 74.6641C71.1598 74.2498 71.4506 74.082 71.8093 74.2891L73.8364 75.4594C74.146 75.6381 74.4125 76.0443 74.4733 76.4299L74.8759 78.9854L82.9582 83.6517C83.1517 83.7634 83.3352 83.9691 83.4586 84.2125C83.582 84.456 83.6325 84.7119 83.5962 84.9105L82.7844 89.357C82.7084 89.7552 82.5001 90.032 82.1961 90.1391C81.8939 90.2455 81.5162 90.1775 81.1284 89.9469L76.2135 87.1093C75.8257 86.8921 75.448 86.524 75.1458 86.0686C74.8419 85.6107 74.6337 85.0937 74.5576 84.608C74.5575 84.6077 74.5576 84.6082 74.5576 84.608L73.7117 79.2398C73.7078 79.2187 73.7045 79.1976 73.7018 79.1767L73.304 76.652L71.8093 75.7891C71.4506 75.582 71.1598 75.0783 71.1598 74.6641ZM75.1359 80.6355L75.8316 85.0505C75.8482 85.1569 75.8938 85.2702 75.9604 85.3704C76.0269 85.4707 76.1102 85.5517 76.1956 85.5991L76.208 85.6061L81.1338 88.45L81.1463 88.4573C81.2317 88.5085 81.3149 88.5238 81.3815 88.5003C81.4476 88.4771 81.493 88.4172 81.5099 88.331L82.1731 84.6984L75.1359 80.6355Z" fill="white"/>
<path d="M89.2557 99.9066V80.991C89.2557 79.3397 88.0547 77.2379 86.5535 76.3372L70.19 66.8794C68.3885 65.8285 67.0374 66.7293 67.0374 68.6809V87.5965C67.0374 89.2479 68.2384 91.3496 69.7396 92.2503L86.1031 101.708C87.9046 102.759 89.2557 101.858 89.2557 99.9066ZM86.1031 77.3881C87.3041 78.1387 88.2049 79.79 88.2049 81.1412V99.4563C88.2049 100.807 87.3041 101.408 86.1031 100.657L70.3401 91.4997C69.1391 90.7491 68.2384 89.0977 68.2384 87.7466V69.4315C68.2384 68.0804 69.1391 67.4799 70.3401 68.2305L86.1031 77.3881Z" fill="white"/>
<path fill-rule="evenodd" clip-rule="evenodd" d="M100.43 70.2556L112.032 77.1581V76.1581L100.859 69.5113V56.5113L100 56V69.5L100.43 70.2556ZM101.719 68.5226V60.5226L102.149 60.2782L103.867 61.3008L104.297 62.0565V70.0565L103.867 70.3008L102.149 69.2782L101.719 68.5226ZM103.438 69.0452V62.0452L102.578 61.5339V68.5339L103.438 69.0452ZM108.594 62.6129V72.6129L109.024 73.3686L110.743 74.3912L111.172 74.1468V64.1468L110.743 63.3912L109.024 62.3686L108.594 62.6129ZM110.313 64.1355V73.1355L109.453 72.6242V63.6242L110.313 64.1355ZM105.156 70.5678V64.5678L105.586 64.3234L107.305 65.346L107.735 66.1016V72.1016L107.305 72.346L105.586 71.3234L105.156 70.5678ZM106.875 71.0903V66.0903L106.016 65.5791V70.5791L106.875 71.0903Z" fill="#E02222"/>
<path d="M116.578 82.0414V63.1258C116.578 61.4744 115.377 59.3727 113.876 58.472L97.5125 49.0142C95.711 47.9633 94.3599 48.864 94.3599 50.8156V69.7312C94.3599 71.3826 95.5609 73.4843 97.0621 74.3851L113.426 83.8429C115.227 84.8938 116.578 83.993 116.578 82.0414ZM113.426 59.3727C114.627 60.1233 115.527 61.7747 115.527 63.1258V81.4409C115.527 82.792 114.627 83.3925 113.426 82.6419L97.6626 73.4843C96.4616 72.7337 95.5609 71.0824 95.5609 69.7312V51.4161C95.5609 50.065 96.4616 49.4645 97.6626 50.2151L113.426 59.3727Z" fill="white"/>
<path d="M110.565 108.321L108.537 104.815C109.191 104.23 109.546 103.246 109.545 102.022C109.545 100.932 109.265 99.7046 108.741 98.4956C108.216 97.2866 107.471 96.1499 106.599 95.2293C105.727 94.3088 104.767 93.6456 103.841 93.3237C102.916 93.0019 102.065 93.0358 101.398 93.4211C100.73 93.8065 100.276 94.526 100.092 95.4886C99.9076 96.4513 100.002 97.6139 100.363 98.8294C100.725 100.045 101.336 101.259 102.121 102.317C102.906 103.376 103.829 104.232 104.772 104.777C105.832 105.39 106.862 105.575 107.696 105.301L109.718 108.81C109.773 108.907 109.839 108.996 109.912 109.073C109.985 109.15 110.063 109.213 110.142 109.259C110.22 109.304 110.298 109.331 110.371 109.338C110.444 109.345 110.51 109.332 110.565 109.299C110.621 109.268 110.665 109.217 110.696 109.151C110.726 109.084 110.742 109.003 110.742 108.912C110.742 108.821 110.726 108.722 110.696 108.621C110.665 108.519 110.621 108.417 110.565 108.321ZM101.193 97.1997C101.193 96.3822 101.403 95.7043 101.796 95.2517C102.19 94.7991 102.749 94.5921 103.403 94.6569C104.057 94.7217 104.776 95.0553 105.471 95.6157C106.165 96.176 106.803 96.9379 107.303 97.8049C107.804 98.672 108.145 99.6052 108.283 100.487C108.421 101.368 108.35 102.158 108.079 102.757C107.808 103.356 107.35 103.737 106.761 103.851C106.172 103.965 105.48 103.808 104.772 103.399C103.823 102.851 102.913 101.89 102.242 100.727C101.57 99.5648 101.193 98.2958 101.193 97.1997Z" fill="#6460FF"/>
<path d="M116.578 115.669V96.7537C116.578 95.1024 115.377 93.0006 113.876 92.0999L97.5125 82.6421C95.711 81.5912 94.3599 82.492 94.3599 84.4436V103.359C94.3599 105.011 95.5609 107.112 97.0621 108.013L113.426 117.471C115.227 118.522 116.578 117.771 116.578 115.669ZM113.426 93.1508C114.627 93.9014 115.527 95.5527 115.527 96.9039V115.219C115.527 116.57 114.627 117.171 113.426 116.42L97.6626 107.262C96.4616 106.512 95.5609 104.86 95.5609 103.509V85.1942C95.5609 83.8431 96.4616 83.2426 97.6626 83.9932L113.426 93.1508Z" fill="white"/>
<defs>
<filter id="filter0_f" x="0" y="100" width="190" height="80" filterUnits="userSpaceOnUse" color-interpolation-filters="sRGB">
<feFlood flood-opacity="0" result="BackgroundImageFix"/>
<feBlend mode="normal" in="SourceGraphic" in2="BackgroundImageFix" result="shape"/>
<feGaussianBlur stdDeviation="10" result="effect1_foregroundBlur"/>
</filter>
</defs>
</svg>
