<svg width="190" height="180" viewBox="0 0 190 180" fill="none" xmlns="http://www.w3.org/2000/svg">
<g opacity="0.1" filter="url(#filter0_f)">
<ellipse cx="95" cy="140" rx="75" ry="20" fill="#6B799A"/>
</g>
<path d="M151.704 114.008L128.994 100.745L140.158 112.577L162.963 125.84L151.704 114.008Z" fill="#6B799A"/>
<path d="M158.192 110.287L135.483 97.0234L128.994 100.745L151.704 114.008L158.192 110.287Z" fill="#AEC0D0"/>
<path d="M151.704 114.007L162.963 125.839L169.356 122.023L158.192 110.286L151.704 114.007Z" fill="#F0F0F4"/>
<path d="M72.5069 8.47538L76.8007 7.80745C76.5144 7.61662 76.2282 7.5212 75.9419 7.42578L71.6481 8.09371C72.0298 8.18912 72.2206 8.28454 72.5069 8.47538Z" fill="#6B799A"/>
<path d="M71.7435 8.09403L76.0373 7.4261C75.4648 7.23526 74.9877 7.04443 74.4152 7.04443C74.4152 7.04443 72.734 6.94442 71.6952 7.04438C70.2784 7.18074 68.213 7.90321 68.213 7.90321C68.7855 7.90321 71.171 7.90319 71.7435 8.09403Z" fill="#6B799A"/>
<path d="M143.021 142.061L147.314 141.393C149.7 141.011 151.704 139.007 152.562 135.858L148.269 136.526C147.41 139.771 145.406 141.774 143.021 142.061Z" fill="#6B799A"/>
<path d="M160.959 59.8104L165.348 59.1424L76.8006 7.80762L72.5068 8.47554L160.959 59.8104Z" fill="#6B799A"/>
<path d="M148.269 136.622L152.562 135.859L169.738 71.6427C169.738 71.6427 170.258 69.6641 169.833 67.5398C169.356 65.1543 168.874 63.3059 167.925 61.8147C167.076 60.4809 165.062 58.9521 165.062 58.9521L160.768 59.4292L165.444 72.4061L148.269 136.622Z" fill="#6B799A"/>
<path d="M63.4421 13.2469L72.9839 18.7812L145.883 61.0513L165.444 72.406C165.539 72.1198 165.635 71.7381 165.635 71.4519C166.398 66.8718 164.49 61.9101 160.959 59.8109L72.5068 8.47605C69.0718 6.47228 65.2551 8.1898 63.7284 12.2928C63.633 12.579 63.5375 12.8653 63.4421 13.2469Z" fill="#F0F0F4"/>
<path d="M128.708 125.268L148.269 136.623L165.444 72.4065L145.883 61.0518L128.708 125.268Z" fill="#F0F0F4"/>
<path d="M46.3623 77.4633L55.9041 82.9976L73.0793 18.7813L63.4421 13.2471L46.3623 77.4633Z" fill="#F0F0F4"/>
<path d="M143.975 68.2072L128.708 125.267L121.552 121.069L136.819 64.0088L143.975 68.2072Z" fill="#6B799A"/>
<path d="M142.353 70.593L140.731 76.4135L135.864 73.551L137.486 67.7305L142.353 70.593Z" fill="#F0F0F4"/>
<path d="M140.349 78.0354L138.727 83.8559L133.861 80.9933L135.483 75.1729L140.349 78.0354Z" fill="#F0F0F4"/>
<path d="M138.441 85.4787L136.819 91.2992L131.952 88.4367L133.479 82.6162L138.441 85.4787Z" fill="#F0F0F4"/>
<path d="M136.437 92.9211L134.815 98.7416L129.948 95.8791L131.475 90.0586L136.437 92.9211Z" fill="#F0F0F4"/>
<path d="M134.338 100.268L132.716 106.088L127.849 103.321L129.471 97.4053L134.338 100.268Z" fill="#F0F0F4"/>
<path d="M132.334 107.71L130.712 113.531L125.845 110.668L127.468 104.848L132.334 107.71Z" fill="#F0F0F4"/>
<path d="M130.426 115.154L128.803 120.974L123.937 118.112L125.559 112.291L130.426 115.154Z" fill="#F0F0F4"/>
<path d="M55.9042 82.9974L71.171 25.9375L89.4913 36.6243L74.2244 93.6842L55.9042 82.9974Z" fill="#6B799A"/>
<path d="M57.7667 81.2758L66.1138 51.3184L81.2853 60.0014L72.8427 90.0542L57.7667 81.2758Z" fill="#F0F0F4"/>
<path d="M66 55.1817L66.6139 53L78 59.6817L77.5574 61.7346L66 55.1817Z" fill="#E02222"/>
<path d="M65 59.1817L65.6139 57L72 60.6817L71.5574 62.7346L65 59.1817Z" fill="#6B799A"/>
<path d="M62 72.1817L62.6139 70L69 73.6817L68.5574 75.7346L62 72.1817Z" fill="#6B799A"/>
<path d="M64 63.1817L64.6139 61L71 64.6817L70.5574 66.7346L64 63.1817Z" fill="#6B799A"/>
<path d="M61 76.1817L61.6139 74L68 77.6817L67.5574 79.7346L61 76.1817Z" fill="#6B799A"/>
<path d="M60 80.1817L60.6139 78L67 81.6817L66.5574 83.7346L60 80.1817Z" fill="#6B799A"/>
<path d="M63 68.1817L63.6139 66L75 72.6817L74.5574 74.7346L63 68.1817Z" fill="#FFDB1D"/>
<path d="M67.736 45.6892L72.0298 29.2773L87.1058 38.0558L82.812 54.4677L67.736 45.6892Z" fill="#C9D6E5"/>
<path d="M72.8588 32L84.9655 38.5305L84.2022 41.393L72 34.8625L72.8588 32Z" fill="#221EC4"/>
<path d="M71.8588 36L83.9655 42.5305L83.2022 45.393L71 38.8625L71.8588 36Z" fill="#221EC4"/>
<path d="M70.8588 40L82.9655 46.5305L82.2022 49.393L70 42.8625L70.8588 40Z" fill="#221EC4"/>
<path d="M89.4913 36.624L136.819 64.009L121.552 121.069L74.2244 93.6839L89.4913 36.624Z" fill="#221EC4"/>
<path d="M72.7931 19.5449L145.597 61.815L144.261 66.8722L71.3619 24.6021L72.7931 19.5449Z" fill="white"/>
<path d="M50.7516 89.9626L139.204 141.297C140.158 141.87 141.208 142.156 142.162 142.156C144.643 142.156 146.837 140.439 147.982 137.481C148.078 137.194 148.173 136.908 148.269 136.622L128.708 125.267L55.9042 82.9971L46.3624 77.4629C46.267 77.7491 46.1715 78.0354 46.1715 78.4171C45.3128 82.9017 47.2211 87.9589 50.7516 89.9626Z" fill="#F0F0F4"/>
<path fill-rule="evenodd" clip-rule="evenodd" d="M71.8389 18.1125L63.4421 13.2462C63.5375 12.8645 63.633 12.5782 63.8238 12.292L72.2206 17.1583L73.3656 17.8262L146.169 60.0964L146.169 60.0964L147.314 60.7643L147.314 60.7643L165.635 71.3557C165.635 71.6419 165.539 72.0236 165.444 72.3098L147.111 61.766L129.948 125.935L129.934 125.982L148.173 136.622L147.887 137.48L129.567 126.889L128.422 126.221L55.6179 83.9509L54.4728 83.283L46.0761 78.4166C46.1715 78.035 46.2669 77.7487 46.3623 77.4625L54.7591 82.3288L71.9214 18.1606L71.8389 18.1125ZM73.0665 18.8283L145.883 61.0505L145.883 61.0506L128.708 125.267L55.9041 82.9967L73.0665 18.8283Z" fill="#6B799A"/>
<path d="M149.032 119.161L137.2 112.291L138.727 106.757L150.463 113.627L149.032 119.161Z" fill="#6B799A"/>
<path d="M147.124 125.936L135.292 119.065L136.819 113.531L148.555 120.401L147.124 125.936Z" fill="#6B799A"/>
<path d="M147.505 73.9326L159.337 80.7073L157.81 86.2415L146.074 79.4669L147.505 73.9326Z" fill="#6B799A"/>
<path d="M157.524 87.4824L155.997 93.0166L144.261 86.1465L145.692 80.6123L157.524 87.4824Z" fill="#6B799A"/>
<path d="M140.921 97.9776C142.162 94.5426 145.979 92.8251 149.318 94.0655C152.753 95.3059 154.471 99.1226 153.23 102.558C151.99 105.993 148.173 107.71 144.834 106.47C141.399 105.134 139.681 101.317 140.921 97.9776Z" fill="#6B799A"/>
<path d="M62.1062 50.0776L55.9995 46.5471L56.7628 43.6846L62.8696 47.215L62.1062 50.0776Z" fill="#6B799A"/>
<path d="M60.7704 55.0395L54.6637 51.509L55.427 48.6465L61.5338 52.1769L60.7704 55.0395Z" fill="#6B799A"/>
<path d="M59.3392 60.3829L53.2325 56.7571L53.9958 53.8945L60.1025 57.425L59.3392 60.3829Z" fill="#6B799A"/>
<path d="M58.0033 65.3449L51.8966 61.719L52.6599 58.8564L58.7667 62.4823L58.0033 65.3449Z" fill="#6B799A"/>
<path d="M59.3391 34.0479L65.4459 37.5783L64.6825 40.4408L58.4804 36.9104L59.3391 34.0479Z" fill="#6B799A"/>
<path d="M64.2054 42.3495L63.4421 45.212L57.3354 41.5862L58.0987 38.7236L64.2054 42.3495Z" fill="#6B799A"/>
<path d="M30.8092 88.5318C29.7596 88.3409 28.8054 88.2455 27.7558 88.0547C27.6604 88.0547 27.565 88.0547 27.4696 88.1501C27.1833 88.3409 26.8971 88.7226 26.8971 89.1043L28.71 91.1081C28.71 90.2493 29.3779 89.1997 30.1413 88.7226C30.4275 88.5318 30.6184 88.5318 30.8092 88.5318Z" fill="#6B799A"/>
<path d="M28.0421 90.154C28.0421 90.822 29.0229 91.3823 29.5 91.0006C30.0725 90.7144 30.9541 89.4922 30.5 89.0006C30.5 88.3327 29.5688 88.0548 29.0917 88.4365C28.5192 88.7228 28.0421 89.4861 28.0421 90.154Z" fill="#F0F0F4"/>
<path d="M31.668 95.1152C32.145 95.6877 32.9084 95.7831 33.7672 95.306C35.1984 94.5427 36.3434 92.5389 36.3434 90.9168C36.3434 89.8672 35.8664 89.1993 35.1984 89.1039C33.3855 88.8176 31.4771 88.5314 29.6642 88.2451C29.9504 88.2451 30.1413 88.5314 30.1413 89.0085C30.1413 89.6764 29.6642 90.4397 29.0917 90.726C28.71 90.9168 28.4238 90.9168 28.2329 90.6306C29.3779 92.1573 30.5229 93.6839 31.668 95.1152Z" fill="#F0F0F4"/>
<path d="M31.2863 93.7795C31.2863 95.4016 32.3359 96.0695 33.7672 95.3061C35.1984 94.5428 36.3434 92.539 36.3434 90.9169C36.3434 89.2948 35.2938 88.6269 33.8626 89.3902C32.4313 90.249 31.2863 92.1574 31.2863 93.7795Z" fill="#060809"/>
<path d="M31.2863 93.7795C31.2863 95.4016 32.3359 96.0695 33.7672 95.3061C35.1984 94.5428 36.3434 92.539 36.3434 90.9169C36.3434 89.2948 35.2938 88.6269 33.8626 89.3902C32.4313 90.249 31.2863 92.1574 31.2863 93.7795Z" fill="#F0F0F4"/>
<path d="M68.4993 116.775C68.9764 117.062 69.5489 116.966 70.2168 116.584C71.6481 115.821 72.7931 113.817 72.7931 112.195C72.7931 111.336 72.5068 110.764 72.0297 110.478L35.5801 89.2949C36.0572 89.5812 36.3435 90.1537 36.3435 91.0124C36.3435 92.6345 35.1984 94.5429 33.7672 95.4017C33.0993 95.7833 32.4313 95.7833 32.0497 95.5925C43.0227 101.89 57.5262 110.382 68.4993 116.775Z" fill="#F0F0F4"/>
<path d="M73.8427 119.829C74.3198 120.115 74.8923 120.02 75.5603 119.638C76.9915 118.875 78.1365 116.871 78.1365 115.249C78.1365 114.39 77.8503 113.818 77.3732 113.532L72.0298 110.383C72.5069 110.669 72.7931 111.242 72.7931 112.1C72.7931 113.722 71.6481 115.631 70.2169 116.49C69.5489 116.871 68.881 116.871 68.4993 116.68C70.1214 117.73 72.2206 118.97 73.8427 119.829Z" fill="#F0F0F4"/>
<path d="M77.4686 113.722L72.1252 110.574C71.6481 110.287 71.0756 110.383 70.4076 110.765C68.9764 111.528 67 114.001 68 116.501L74 120.001C77.5 120.501 74.3198 114.772 75.751 113.913C76.419 113.436 76.9915 113.436 77.4686 113.722Z" fill="#6460FF"/>
<path d="M73.1748 118.207C73.1748 119.829 74.2244 120.497 75.6557 119.734C77.0869 118.971 78.2319 116.967 78.2319 115.345C78.2319 113.723 77.1823 113.055 75.7511 113.818C74.3198 114.677 73.1748 116.585 73.1748 118.207Z" fill="#1712B0"/>
<path d="M41.6868 68.9706L44.8356 56.8525C44.454 58.2838 43.4044 59.6197 41.496 60.7647C37.8701 62.9593 32.4313 63.5318 27.8512 62.4822L28.9963 73.169C32.4313 73.9323 36.5343 73.5507 39.206 71.9286C40.5418 71.0698 41.4006 70.1156 41.6868 68.9706Z" fill="#6B799A"/>
<path d="M28.9963 73.1686L27.8513 62.4818C26.42 62.1002 25.0841 61.6231 23.8437 60.9552C23.2712 60.6689 22.7941 60.2872 22.4124 60.001L24.8933 71.3557C25.1796 71.642 25.5612 71.8328 25.9429 72.1191C26.8971 72.5961 27.9467 72.9778 28.9963 73.1686Z" fill="#6B799A"/>
<path d="M24.8933 71.3561L22.4124 60.0013C21.172 59.0471 20.5041 57.9021 20.2178 56.8525L23.2712 68.9706C23.462 69.8294 24.0345 70.5927 24.8933 71.3561Z" fill="#6B799A"/>
<path d="M23.462 50.7458C18.6911 53.6084 18.882 58.1884 23.8437 61.051C28.8054 63.8181 36.7251 63.7227 41.496 60.8601C46.2669 57.9976 46.0761 53.4175 41.1143 50.555C36.1526 47.7879 28.2329 47.7879 23.462 50.7458Z" fill="#F0F0F4"/>
<path d="M26.7062 52.5587C23.6528 54.3716 23.7482 57.3296 26.897 59.1425C30.1412 60.9554 35.1984 60.86 38.2518 59.0471C41.3051 57.2341 41.2097 54.2762 38.0609 52.4632C34.8167 50.6503 29.7596 50.6503 26.7062 52.5587Z" fill="#221EC4"/>
<path d="M97.1246 46.9296C97.4109 46.5479 98.0788 46.9296 97.7926 47.3112C92.8308 55.1355 94.0713 64.8681 97.5063 72.9787C99.033 76.6045 101.037 79.7533 103.518 82.7113C105.808 85.4784 108.193 88.0547 110.483 90.8218C113.059 93.8752 115.445 97.2148 116.876 101.032C118.307 104.944 118.307 109.142 116.876 113.054C116.781 113.245 116.494 113.15 116.59 112.959C117.639 109.524 117.83 105.898 116.781 102.463C115.827 99.2186 113.918 96.2606 111.819 93.5889C107.525 88.1501 101.991 83.3792 98.6513 77.2725C93.6896 68.2078 91.1133 56.1851 97.1246 46.9296Z" fill="#FFDB1D"/>
<path d="M102.945 53.895C103.136 53.4179 103.804 53.7996 103.613 54.2767C101.896 57.998 102.277 62.2918 103.231 66.1085C104.281 70.2115 106.094 74.0282 108.098 77.7495C109.815 80.8983 111.914 83.6654 114.204 86.3371C116.399 88.818 118.594 91.2988 120.025 94.2568C121.552 97.4056 121.552 100.745 120.311 104.085C120.216 104.276 119.93 104.18 120.025 103.989C121.265 100.459 120.884 97.0239 119.071 93.7797C117.449 90.8218 114.968 88.3409 112.773 85.86C110.483 83.1883 108.575 80.3258 106.857 77.177C104.853 73.5511 103.231 69.7344 102.277 65.7268C101.418 61.7193 101.228 57.5209 102.945 53.895Z" fill="#E02222"/>
<path d="M97.9834 87.6725C100.655 86.4321 103.709 86.7183 105.808 88.9129C107.811 91.1075 107.334 94.3518 106.571 96.928C105.808 99.5043 104.472 101.89 103.422 104.371C103.327 104.657 102.945 104.561 103.041 104.275C104.567 99.5997 109.72 91.4892 103.422 88.245C101.037 87.0046 97.1247 88.1496 95.7888 90.535C95.0255 91.8709 95.598 93.8747 96.9338 94.638C98.7468 95.783 100.178 93.1113 100.56 91.7755C100.655 91.4892 101.037 91.4892 101.037 91.8709C101.037 93.3976 99.9872 94.8288 98.6514 95.4013C97.2201 96.0693 95.8842 95.2105 95.1209 93.9701C93.6896 91.2984 95.598 88.7221 97.9834 87.6725Z" fill="white"/>
<path d="M118.784 69.1619C120.979 67.826 123.651 69.0665 124.891 71.0702C125.464 71.929 125.75 73.1694 125.464 74.219C125.082 75.3641 123.842 75.9366 122.792 75.8411C120.12 75.7457 119.262 71.929 121.838 70.9748C122.315 70.784 122.506 71.5473 122.029 71.7382C120.597 72.3107 120.693 74.219 121.933 74.887C123.174 75.6503 124.891 74.7915 124.891 73.3603C124.987 70.5932 121.742 68.3985 119.262 69.5436C117.162 70.4977 117.258 73.3603 117.735 75.3641C118.307 77.9403 119.643 80.3258 121.552 82.1387C122.601 83.0929 123.842 83.7608 125.273 83.7608C125.368 83.7608 125.464 83.9517 125.273 84.0471C123.078 84.4288 121.17 82.9021 119.834 81.28C118.212 79.3716 117.162 76.8907 116.781 74.4099C116.685 72.5015 116.972 70.2115 118.784 69.1619Z" fill="white"/>
<path d="M121.552 86.0503C117.83 80.039 112.678 75.0773 108.956 69.0659C105.712 63.818 103.708 57.3295 106.38 51.4136C106.571 51.032 107.144 51.3182 107.048 51.6999C106.189 55.1349 105.998 58.57 106.953 62.005C107.907 65.3446 109.72 68.3026 111.628 71.0697C115.636 76.7948 120.788 81.7565 123.842 88.0541C127.181 94.8288 124.891 103.321 120.597 109.141C120.502 109.332 120.216 109.141 120.311 108.951C122.506 105.325 124.128 101.222 124.51 96.928C124.7 94.8288 124.51 92.7296 123.937 90.7258C123.46 89.1991 122.506 87.577 121.552 86.0503Z" fill="#6460FF"/>
<path d="M83.0028 81.8521C83.289 81.5659 83.7661 81.9475 83.5753 82.3292C82.7165 83.6651 81.0944 85.5734 81.3807 87.2909C81.5715 88.5314 82.7165 89.1039 83.8615 89.2947C86.8195 89.9627 90.7316 88.7222 92.5446 86.1459C93.4988 84.8101 93.6896 83.188 93.3079 81.5659C93.0217 80.4209 92.5446 79.2758 91.7812 78.4171C91.0179 77.4629 89.8729 76.795 88.8233 76.2225C87.8691 75.65 86.9149 75.0775 86.1516 74.2187C85.2928 73.1691 85.102 71.9287 85.102 70.6882C85.102 69.0661 85.4837 67.444 86.3424 66.0128C87.0103 64.9632 88.2508 64.1044 89.4912 64.5815C89.9683 64.6769 89.7775 65.154 89.3958 65.154C87.392 64.6769 86.3424 67.5394 86.1516 69.0661C85.9607 70.5928 85.9607 72.3103 87.0103 73.5508C87.7737 74.505 89.0141 75.0775 90.0637 75.7454C91.2087 76.4133 92.2583 77.2721 93.1171 78.4171C94.3575 80.1346 94.93 82.6155 94.4529 84.7147C94.0713 86.4322 92.9262 87.8635 91.495 88.8176C89.0141 90.6306 85.102 91.3939 82.144 90.0581C78.5182 88.2451 80.7128 83.7605 83.0028 81.8521Z" fill="#6460FF"/>
<defs>
<filter id="filter0_f" x="0" y="100" width="190" height="80" filterUnits="userSpaceOnUse" color-interpolation-filters="sRGB">
<feFlood flood-opacity="0" result="BackgroundImageFix"/>
<feBlend mode="normal" in="SourceGraphic" in2="BackgroundImageFix" result="shape"/>
<feGaussianBlur stdDeviation="10" result="effect1_foregroundBlur"/>
</filter>
</defs>
</svg>
