<svg width="190" height="180" viewBox="0 0 190 180" fill="none" xmlns="http://www.w3.org/2000/svg">
<g opacity="0.1" filter="url(#filter0_f)">
<ellipse cx="95" cy="140" rx="75" ry="20" fill="#6B799A"/>
</g>
<path d="M73.5101 70.0678L22.1595 97.1964C21.1906 97.6808 21.1906 99.1341 22.1595 99.6186L109.601 149.031C111.296 150 113.234 150 114.93 149.031L164.827 122.629C166.522 121.661 166.522 119.238 164.827 118.269L79.0811 69.8256C77.3856 69.0989 75.2056 69.0989 73.5101 70.0678Z" fill="#CCD2E2"/>
<path d="M77.1423 2.73059V63.0432C77.1423 64.7388 78.1112 66.1921 79.5645 67.161L165.795 115.847C167.49 116.816 169.428 115.605 169.428 113.667V53.8389C169.428 51.6589 168.217 49.4789 166.279 48.5101L81.0178 0.308394C79.3223 -0.660484 77.1423 0.792833 77.1423 2.73059Z" fill="#6B799A"/>
<path d="M76.416 2.97312V63.2858C76.416 64.9813 77.3849 66.4346 78.8382 67.4035L165.068 116.09C166.764 117.059 168.702 115.847 168.702 113.91V54.0814C168.702 51.9015 167.491 49.7215 165.553 48.7526L80.5337 0.793147C78.596 -0.175731 76.416 1.03537 76.416 2.97312Z" fill="#F0F0F4"/>
<path d="M165.795 117.058C166.28 118.269 166.038 119.481 164.827 120.207L114.929 148.305C113.234 149.274 111.296 149.274 109.6 148.305L22.1592 98.8919C21.4326 98.4074 21.1904 97.4386 21.6748 96.7119C21.1904 97.1964 20.2215 98.6497 22.1592 99.8608L109.6 149.274C111.296 150.242 113.234 150.242 114.929 149.274L164.827 123.114C168.218 121.176 165.795 117.058 165.795 117.058Z" fill="#6B799A"/>
<path d="M73.5101 67.645L22.1595 96.2269C21.1906 96.7113 21.1906 98.1646 22.1595 98.6491L109.601 148.062C111.296 149.031 113.234 149.031 114.93 148.062L164.827 120.207C166.522 119.238 166.522 116.816 164.827 115.847L79.0811 67.4027C77.3856 66.6761 75.2056 66.6761 73.5101 67.645Z" fill="#F0F0F4"/>
<path d="M101.607 119.238L75.932 104.705L56.3123 115.363L81.9875 129.896L101.607 119.238Z" fill="white"/>
<path d="M80.0494 63.7695V5.15234L164.584 52.8696V111.487L80.0494 63.7695Z" fill="#3834CA"/>
<path d="M47.1079 86.0539L74.721 70.3096C74.9632 70.0674 75.2054 70.0674 75.6898 70.3096L160.951 118.753C161.193 118.996 161.193 119.238 160.951 119.48L132.854 135.224C132.611 135.467 132.369 135.467 131.885 135.224L47.1079 87.0227C46.8657 86.7805 46.8657 86.2961 47.1079 86.0539Z" fill="#6B799A"/>
<path d="M55.3436 90.4137L48.077 86.296L51.9525 84.116L59.2191 88.2338L55.3436 90.4137ZM64.548 91.3826L59.9458 88.7182L56.0703 90.8982L60.6724 93.5626L64.548 91.3826ZM69.8768 94.2892L65.2746 91.6248L61.3991 93.8048L66.0013 96.4692L69.8768 94.2892ZM75.2056 97.4381L70.6034 94.7737L66.7279 96.9537L71.3301 99.6181L75.2056 97.4381ZM80.5344 100.345L75.9323 97.6803L72.0568 99.8603L76.6589 102.525L80.5344 100.345ZM85.8633 103.494L81.2611 100.829L77.3856 103.009L81.9878 105.674L85.8633 103.494ZM91.1921 106.4L86.5899 103.736L82.7144 105.916L87.3166 108.58L91.1921 106.4ZM79.8078 73.4584L75.2056 70.7939L71.3301 72.9739L75.9323 75.6383L79.8078 73.4584ZM85.1366 76.365L80.5344 73.7006L76.6589 75.8806L81.2611 78.545L85.1366 76.365ZM90.4654 79.5138L85.8633 76.8494L81.9878 79.0294L86.5899 81.6938L90.4654 79.5138ZM95.7943 82.4205L91.1921 79.9983L87.3166 82.1783L91.9188 84.8427L95.7943 82.4205ZM101.123 85.5693L96.5209 82.9049L92.6454 85.0849L97.2476 87.7493L101.123 85.5693ZM106.452 88.476L101.85 85.8116L97.9742 87.9915L102.576 90.6559L106.452 88.476ZM111.781 91.6248L107.179 88.9604L103.303 91.1404L107.905 93.8048L111.781 91.6248ZM117.11 94.7737L112.507 92.1093L108.632 94.2892L113.234 96.9537L117.11 94.7737ZM122.681 97.6803L118.078 95.0159L114.203 97.1959L118.805 99.8603L122.681 97.6803ZM128.009 100.829L123.165 98.1647L119.29 100.345L123.892 103.009L128.009 100.829ZM133.338 103.736L128.736 101.071L124.861 103.251L129.463 105.916L133.338 103.736ZM138.667 106.885L133.823 104.22L129.947 106.4L134.549 109.065L138.667 106.885ZM143.996 109.791L139.394 107.127L135.518 109.307L140.12 111.971L143.996 109.791ZM149.325 112.94L144.723 110.276L140.847 112.456L145.449 115.12L149.325 112.94ZM154.654 115.847L150.051 113.182L146.176 115.362L150.778 118.027L154.654 115.847ZM159.982 118.996L155.38 116.331L151.505 118.511L156.107 121.176L159.982 118.996ZM77.87 77.5761L70.6034 73.4584L66.7279 75.6383L73.9945 79.7561L77.87 77.5761ZM83.1989 80.7249L78.5967 78.0605L74.7212 80.2405L79.3233 82.9049L83.1989 80.7249ZM88.5277 83.6316L83.9255 80.9672L80.05 83.1471L84.6522 85.8116L88.5277 83.6316ZM93.8565 86.7804L89.2543 84.116L85.3788 86.296L89.981 88.9604L93.8565 86.7804ZM99.1853 89.6871L94.5832 87.0227L90.7077 89.2026L95.3098 91.867L99.1853 89.6871ZM104.514 92.8359L99.912 90.1715L96.0365 92.3515L100.639 95.0159L104.514 92.8359ZM109.843 95.7426L105.241 93.0781L101.365 95.2581L105.967 97.9225L109.843 95.7426ZM115.172 98.8914L110.57 96.227L106.694 98.407L111.296 101.071L115.172 98.8914ZM120.501 101.798L115.898 99.1336L112.023 101.314L116.625 103.978L120.501 101.798ZM125.829 104.947L121.227 102.282L117.352 104.462L121.954 107.127L125.829 104.947ZM136.487 111.002L131.885 108.338L128.009 110.518L132.612 113.182L136.487 111.002ZM147.387 117.058L142.543 114.393L138.667 116.573L143.269 119.238L147.387 117.058ZM155.138 121.418L147.871 117.3L143.996 119.48L151.263 123.598L155.138 121.418ZM131.158 107.854L126.556 105.189L122.681 107.369L127.283 110.034L131.158 107.854ZM141.816 113.909L137.214 111.245L133.338 113.425L137.94 116.089L141.816 113.909ZM70.6034 78.7872L66.0013 76.1228L62.1258 78.3027L66.7279 80.9672L70.6034 78.7872ZM75.9323 81.6938L71.3301 79.0294L67.4546 81.4516L72.0568 84.116L75.9323 81.6938ZM81.2611 84.8427L76.6589 82.1783L72.7834 84.3582L77.3856 87.0227L81.2611 84.8427ZM86.5899 87.7493L81.9878 85.3271L78.1122 87.5071L82.7144 90.1715L86.5899 87.7493ZM91.9188 90.8982L87.3166 88.2338L83.4411 90.4137L88.0432 93.0781L91.9188 90.8982ZM97.2476 94.047L92.6454 91.3826L88.7699 93.5626L93.3721 96.227L97.2476 94.047ZM102.576 96.9537L97.9742 94.2892L94.0987 96.4692L98.7009 99.1336L102.576 96.9537ZM107.905 100.103L103.303 97.4381L99.4276 99.6181L104.03 102.282L107.905 100.103ZM113.234 103.009L108.632 100.345L104.756 102.525L109.359 105.189L113.234 103.009ZM118.563 106.158L113.961 103.494L110.085 105.674L114.687 108.338L118.563 106.158ZM123.892 109.065L119.29 106.4L115.414 108.58L120.016 111.245L123.892 109.065ZM129.221 112.213L124.618 109.549L120.743 111.729L125.345 114.393L129.221 112.213ZM134.549 115.12L129.947 112.456L126.072 114.636L130.674 117.3L134.549 115.12ZM139.878 118.269L135.276 115.605L131.401 117.785L136.003 120.449L139.878 118.269ZM145.207 121.176L140.605 118.511L136.729 120.691L141.332 123.356L145.207 121.176ZM150.536 124.324L145.934 121.66L142.058 123.84L146.66 126.504L150.536 124.324ZM68.6657 82.9049L61.3991 78.7872L57.5236 80.9672L64.7902 85.0849L68.6657 82.9049ZM73.9945 86.0538L69.3923 83.3894L65.5168 85.5693L70.119 88.2338L73.9945 86.0538ZM79.3233 88.9604L74.7212 86.296L70.8457 88.476L75.4478 91.1404L79.3233 88.9604ZM84.6522 92.1093L80.05 89.4449L76.1745 91.6248L80.7767 94.2892L84.6522 92.1093ZM89.981 95.0159L85.3788 92.3515L81.5033 94.5315L86.1055 97.1959L89.981 95.0159ZM95.3098 98.1647L90.7077 95.5003L86.8321 97.6803L91.4343 100.345L95.3098 98.1647ZM100.639 101.071L96.0365 98.407L92.161 100.587L96.7631 103.251L100.639 101.071ZM105.967 104.22L101.365 101.556L97.4898 103.736L102.092 106.4L105.967 104.22ZM111.296 107.127L106.694 104.462L102.819 106.642L107.421 109.307L111.296 107.127ZM116.625 110.276L112.023 107.611L108.147 109.791L112.75 112.456L116.625 110.276ZM127.283 116.331L122.681 113.667L118.805 115.847L123.407 118.511L127.283 116.331ZM137.94 122.387L133.338 119.722L129.463 121.902L134.065 124.567L137.94 122.387ZM145.934 126.989L138.667 122.871L134.792 125.051L142.058 129.169L145.934 126.989ZM121.954 113.182L117.352 110.518L113.476 112.698L118.078 115.362L121.954 113.182ZM132.612 119.238L128.009 116.573L124.134 118.753L128.736 121.418L132.612 119.238ZM61.1569 84.116L56.5547 81.4516L52.6792 83.6316L57.2814 86.296L61.1569 84.116ZM66.4857 87.0227L61.8835 84.3582L58.008 86.5382L62.6102 89.2026L66.4857 87.0227ZM71.8145 90.1715L67.2124 87.5071L63.3369 89.6871L67.939 92.3515L71.8145 90.1715ZM77.1434 93.3204L72.5412 90.6559L68.6657 92.8359L73.2679 95.5003L77.1434 93.3204ZM82.4722 96.227L77.87 93.5626L73.9945 95.7426L78.5967 98.407L82.4722 96.227ZM87.801 99.3758L83.1989 96.7114L79.3233 98.8914L83.9255 101.556L87.801 99.3758ZM93.1298 102.282L88.5277 99.6181L84.6522 101.798L89.2543 104.462L93.1298 102.282ZM98.4587 105.431L93.8565 102.767L89.981 104.947L94.5832 107.611L98.4587 105.431ZM103.788 108.338L99.1853 105.674L95.3098 107.854L99.912 110.518L103.788 108.338ZM109.116 111.487L104.514 108.822L100.639 111.002L105.241 113.667L109.116 111.487ZM114.445 114.393L109.843 111.729L105.967 113.909L110.57 116.573L114.445 114.393ZM119.774 117.542L115.172 114.878L111.296 117.058L115.898 119.722L119.774 117.542ZM125.103 120.449L120.501 117.785L116.625 119.965L121.227 122.629L125.103 120.449ZM96.5209 109.549L91.9188 106.885L88.0432 109.065L92.6454 111.729L96.5209 109.549ZM101.85 112.456L97.2476 109.791L93.3721 111.971L97.9742 114.636L101.85 112.456ZM107.179 115.605L102.576 112.94L98.7009 115.12L103.303 117.785L107.179 115.605ZM117.836 121.66L113.234 118.996L109.359 121.176L113.961 123.84L117.836 121.66ZM129.463 128.2L123.892 125.051L120.016 127.231L125.587 130.38L129.463 128.2ZM136.487 132.075L130.674 128.684L126.798 130.864L132.612 134.255L136.487 132.075ZM137.214 127.473L131.401 124.082L127.525 126.262L133.338 129.653L137.214 127.473ZM112.507 118.511L107.905 115.847L104.03 118.027L108.632 120.691L112.507 118.511ZM123.165 124.567L118.563 121.902L114.687 124.082L119.29 126.747L123.165 124.567Z" fill="white"/>
<path d="M75.932 104.947L101.123 119.48L101.607 119.238L75.932 104.705L56.3123 115.363H56.5545L75.932 104.947Z" fill="#6B799A"/>
<path d="M152.425 74.7667L147.161 71.7305V73.1106L152.425 76.1469V74.7667Z" fill="white"/>
<path d="M128.596 62.3459L145.775 72.2828V70.9027L128.596 60.9658V62.3459Z" fill="white"/>
<path d="M108.37 50.7532L119.453 57.1017V55.7216L108.37 49.373V50.7532Z" fill="white"/>
<path d="M125.826 60.6897L127.488 61.5178L127.211 60.1376L125.548 59.3096L125.826 60.6897Z" fill="white"/>
<path d="M120.839 57.9299L124.995 60.4141V59.034L120.839 56.5498V57.9299Z" fill="white"/>
<path d="M102.274 40.5403L107.539 43.5765V42.1964L102.274 39.1602V40.5403Z" fill="white"/>
<path d="M152.425 72.0066L146.606 68.6943V70.0745L152.425 73.3867V72.0066Z" fill="white"/>
<path d="M128.596 59.5862L145.775 69.523L145.498 68.1429L128.596 58.2061V59.5862Z" fill="#6460FF"/>
<path d="M108.37 47.9934L119.453 54.3419L119.176 52.9618L108.37 46.6133V47.9934Z" fill="white"/>
<path d="M125.548 57.9299L127.211 58.758V57.3779L125.548 56.5498V57.9299Z" fill="white"/>
<path d="M120.839 55.1692L124.995 57.6534V56.2733L120.562 53.7891L120.839 55.1692Z" fill="white"/>
<path d="M152.425 68.143L146.329 64.5547V65.9348L152.425 69.5231V68.143Z" fill="#FFDB1D"/>
<path d="M108.093 43.8528L119.176 50.2013V48.8212L108.093 42.4727V43.8528Z" fill="white"/>
<path d="M128.319 55.4455L145.498 65.3824L145.221 64.0023L128.319 54.0654V55.4455Z" fill="white"/>
<path d="M125.548 53.7893L126.934 54.8934V53.2373L125.271 52.4092L125.548 53.7893Z" fill="white"/>
<path d="M120.562 51.0295L124.718 53.5137V52.1336L120.562 49.6494V51.0295Z" fill="white"/>
<path d="M102.274 44.4045L107.262 47.4408V46.0607L102.274 43.0244V44.4045Z" fill="#E02222"/>
<path d="M152.424 84.9796L147.437 81.9434V83.3235L152.424 86.3597V84.9796Z" fill="white"/>
<path d="M129.151 72.8342L146.33 82.7711L146.053 81.391L129.151 71.4541V72.8342Z" fill="white"/>
<path d="M108.924 61.2414L120.007 67.59V66.2099L108.924 59.8613V61.2414Z" fill="white"/>
<path d="M126.103 71.1789L127.765 72.007V70.6269L126.103 69.7988V71.1789Z" fill="white"/>
<path d="M121.392 68.4182L125.548 70.6264V69.2463L121.392 67.0381V68.4182Z" fill="white"/>
<path d="M102.274 50.4768L108.093 54.0651L107.816 52.409L102.274 49.0967V50.4768Z" fill="white"/>
<path d="M152.425 82.2195L146.884 78.9072V80.5634L152.425 83.5996V82.2195Z" fill="white"/>
<path d="M128.874 70.0745L146.052 80.0113V78.6312L128.874 68.6943V70.0745Z" fill="#FFDB1D"/>
<path d="M108.924 58.4817L119.73 64.8302V63.4501L108.647 57.1016L108.924 58.4817Z" fill="white"/>
<path d="M126.103 68.4182L127.765 69.2463L127.488 67.8662L126.103 67.0381V68.4182Z" fill="white"/>
<path d="M121.115 65.6584L125.548 68.1426L125.271 66.4865L121.115 64.2783V65.6584Z" fill="white"/>
<path d="M152.425 78.3553L146.606 75.043L146.883 76.4231L152.425 79.7354V78.3553Z" fill="#E02222"/>
<path d="M108.647 54.3411L119.73 60.6896L119.453 59.3095L108.647 52.9609V54.3411Z" fill="white"/>
<path d="M128.596 65.9338L145.775 75.8707V74.2145L128.596 64.5537V65.9338Z" fill="white"/>
<path d="M125.826 64.2776L127.488 65.1056V63.7255L125.826 62.8975V64.2776Z" fill="white"/>
<path d="M121.116 61.5178L125.272 64.002V62.3459L120.839 60.1377L121.116 61.5178Z" fill="white"/>
<path d="M102.274 54.6174L107.816 57.6537L107.539 56.2736L102.274 53.2373V54.6174Z" fill="#6460FF"/>
<path d="M88.1434 35.5713L82.879 39.4356V39.7116L88.9747 49.3725L90.9142 47.9924L86.481 41.3678L90.36 38.8836L88.1434 35.5713Z" fill="white"/>
<path d="M100.889 35.0194L97.5644 33.3633L90.3605 54.0651L93.6854 55.7212L100.889 35.0194Z" fill="white"/>
<path d="M156.303 69.7988L154.364 71.1789V71.455L158.797 77.8035L154.918 80.2877V80.5638L157.135 83.876L162.399 80.0117V79.4597L156.303 69.7988Z" fill="white"/>
<defs>
<filter id="filter0_f" x="0" y="100" width="190" height="80" filterUnits="userSpaceOnUse" color-interpolation-filters="sRGB">
<feFlood flood-opacity="0" result="BackgroundImageFix"/>
<feBlend mode="normal" in="SourceGraphic" in2="BackgroundImageFix" result="shape"/>
<feGaussianBlur stdDeviation="10" result="effect1_foregroundBlur"/>
</filter>
</defs>
</svg>
