<svg width="190" height="180" viewBox="0 0 190 180" fill="none" xmlns="http://www.w3.org/2000/svg">
<g opacity="0.1" filter="url(#filter0_f)">
<ellipse cx="95" cy="140" rx="75" ry="20" fill="#6B799A"/>
</g>
<g clip-path="url(#clip0)">
<path d="M162.308 147.292L123.574 124.957C119.2 122.458 115.66 115.69 115.66 109.859V6.82684C115.66 3.85928 113.213 3.23453 114.723 2.14121C114.775 2.08915 118.159 0.579336 118.263 0.527273C119.825 -0.0974775 121.543 -0.35779 123.626 0.839649L162.308 23.1745C166.681 25.6735 170.222 32.4416 170.222 38.2726V141.304C170.222 144.376 169.232 146.615 167.618 147.604C167.514 147.656 163.453 149.634 163.349 149.634C161.892 150.155 164.182 148.385 162.308 147.292Z" fill="#6B799A"/>
<path opacity="0.6" d="M159.288 148.697L120.606 126.362C116.233 123.863 112.692 117.095 112.692 111.264V8.18019C112.692 2.34918 116.233 -0.30601 120.606 2.19299L159.288 24.5278C163.662 27.0268 167.202 33.795 167.202 39.626V142.658C167.202 148.541 163.662 151.196 159.288 148.697Z" fill="#6B799A"/>
<path d="M158.612 149.061L119.877 126.726C115.504 124.227 111.964 117.459 111.964 111.628V8.54445C111.964 2.71344 115.504 0.0582483 119.877 2.55725L158.56 24.8921C162.933 27.3911 166.473 34.1592 166.473 39.9902V143.022C166.473 148.905 162.985 151.56 158.612 149.061Z" fill="#6B799A"/>
<path d="M113.057 112.306V9.11789C113.057 4.01576 116.181 1.67294 119.981 3.85957L158.455 26.0903C162.256 28.2769 165.38 34.212 165.38 39.3142V142.502C165.38 147.604 162.256 149.947 158.455 147.76L119.981 125.53C116.181 123.343 113.057 117.408 113.057 112.306Z" fill="#F0F0F4"/>
<path d="M114.619 112.93V10.2631C114.619 5.99394 117.222 4.01556 120.398 5.88982L158.091 27.652C161.319 29.5262 163.87 34.4722 163.87 38.7413V141.409C163.87 145.678 161.267 147.656 158.091 145.782L120.398 124.02C117.222 122.146 114.619 117.2 114.619 112.93Z" fill="#181A22"/>
<path d="M120.866 7.03464C117.847 5.31657 115.4 6.6702 115.4 10.1584V113.971C115.4 117.459 117.847 121.676 120.866 123.394L157.674 144.636C160.694 146.354 163.141 145 163.141 141.512V37.6995C163.141 34.2113 160.694 29.9942 157.674 28.2762L120.866 7.03464Z" fill="#3834CA"/>
<path d="M167.514 63.8878V56.9114C167.514 56.0263 168.035 54.9851 168.712 54.6207C169.389 54.2562 169.909 54.6207 169.909 55.5578V62.4821C169.909 63.3672 169.389 64.4084 168.712 64.7729C168.087 65.1894 167.514 64.7729 167.514 63.8878Z" fill="#F0F0F4"/>
<path d="M168.243 64.6686C167.879 64.6686 167.775 64.2521 167.775 63.8876V56.9112C167.775 56.1303 168.243 55.1411 168.868 54.8287C168.972 54.7767 169.128 54.7246 169.232 54.7246C169.597 54.7246 169.701 55.1411 169.701 55.5055V62.4819C169.701 63.2629 169.232 64.2521 168.608 64.5644C168.504 64.6165 168.347 64.6686 168.243 64.6686Z" fill="#6B799A"/>
<path d="M168.139 64.0431V57.0668C168.139 56.2858 168.608 55.2966 169.232 54.9842C169.337 54.9322 169.441 54.8801 169.545 54.8801C169.493 54.776 169.389 54.6719 169.232 54.6719C169.128 54.6719 169.024 54.7239 168.868 54.776C168.295 55.0884 167.775 56.0776 167.775 56.8585V63.8349C167.775 64.1993 167.879 64.6158 168.243 64.6158H168.295C168.191 64.5117 168.139 64.2514 168.139 64.0431Z" fill="#181A22"/>
<path d="M157.622 28.2762L120.814 7.03464C117.795 5.31657 115.348 6.6702 115.348 10.1584V113.971C115.348 117.459 117.795 121.676 120.814 123.394L157.622 144.636C160.642 146.354 163.089 145 163.089 141.512V37.6995C163.089 34.2113 160.642 29.9942 157.622 28.2762ZM162.62 141.512C162.62 142.606 162.36 143.491 161.892 144.063C161.475 144.636 160.85 144.896 160.069 144.896C159.393 144.896 158.612 144.636 157.831 144.219L121.022 122.978C118.159 121.312 115.816 117.251 115.816 113.971V10.1584C115.816 8.07589 116.805 6.77433 118.367 6.77433C119.044 6.77433 119.825 7.03464 120.606 7.45114L157.414 28.6927C160.278 30.3587 162.62 34.4195 162.62 37.6995V141.512Z" fill="#BCBEC0"/>
<path opacity="0.5" d="M134.715 100.435C136.485 101.424 137.995 103.455 138.724 105.537C139.505 104.34 141.014 104.079 142.733 105.069C145.232 106.526 147.262 110.014 147.262 112.878C147.262 118.136 138.724 119.698 138.724 119.698C138.724 119.698 130.185 108.296 130.185 103.038C130.185 100.175 132.216 98.9772 134.715 100.435Z" fill="#1B1AA3"/>
<path d="M133.882 100.956C135.652 101.945 137.162 103.976 137.891 106.058C138.672 104.861 140.181 104.6 141.9 105.59C144.399 107.047 146.429 110.536 146.429 113.399C146.429 118.657 137.891 120.219 137.891 120.219C137.891 120.219 129.352 108.818 129.352 103.559C129.352 100.696 131.383 99.5504 133.882 100.956Z" fill="#E02222"/>
<path d="M133.205 101.32C134.975 102.309 136.485 104.34 137.214 106.422C137.37 106.162 137.578 105.953 137.787 105.797C137.006 103.819 135.548 101.945 133.882 100.955C132.528 100.175 131.279 100.175 130.446 100.799C131.227 100.591 132.164 100.695 133.205 101.32Z" fill="#AC1313"/>
<path d="M141.9 105.589C140.546 104.808 139.296 104.808 138.463 105.433C139.244 105.225 140.182 105.329 141.223 105.954C143.722 107.411 145.752 110.9 145.752 113.763C145.752 116.21 143.93 117.824 141.952 118.917C144.138 117.876 146.429 116.158 146.429 113.451C146.429 110.535 144.399 107.047 141.9 105.589Z" fill="#AC1313"/>
<path d="M145.752 36.5545C141.691 34.2638 136.069 34.6803 129.925 38.2205L109.621 49.9346L119.773 55.8177L140.077 44.1036C146.065 40.6675 151.479 40.1989 155.54 42.2293L145.752 36.5545Z" fill="#E02222"/>
<path d="M99 56.0776V72.0609L109.204 66.1778V61.9607L119.773 55.8694L109.621 49.9863L99 56.0776Z" fill="url(#paint0_radial)"/>
<path d="M99 56.0776L109.204 61.9607L119.773 55.8694L109.621 49.9863L99 56.0776Z" fill="#F0F0F4"/>
<path d="M119.773 55.8691L109.204 61.9605L119.773 55.8691Z" fill="url(#paint1_linear)"/>
<path d="M140.077 44.1553L119.773 55.8694L119.877 55.9215V71.8005L140.077 60.1385C144.815 57.3792 148.72 59.6179 148.72 65.0324C148.72 65.0845 148.72 65.1886 148.72 65.2407L162.621 57.2751C162.621 57.171 162.621 57.1189 162.621 57.0148C162.621 42.6976 152.52 36.9707 140.077 44.1553Z" fill="#AD1616"/>
<path d="M119.773 55.8691L109.204 61.9605V66.1775V77.9437L119.877 71.8003V55.9212L119.773 55.8691Z" fill="url(#paint2_linear)"/>
<path d="M119.773 55.8691L109.204 61.9605V66.1775V77.9437L119.877 71.8003V55.9212L119.773 55.8691Z" fill="#6B799A"/>
<path d="M140.077 79.9226L109.204 97.7801V113.763L140.077 95.9058C152.468 88.7732 162.464 71.5405 162.62 57.2754L148.72 65.241C148.616 70.6555 144.763 77.2154 140.077 79.9226Z" fill="url(#paint3_linear)"/>
<path d="M148.72 65.241C148.616 70.6555 144.815 77.2154 140.077 79.9226L119.877 91.5846V107.568L140.077 95.9058C152.468 88.7732 162.464 71.5405 162.621 57.2754L148.72 65.241Z" fill="#1712B0"/>
<path d="M119.877 91.585L109.204 97.7283V113.712L119.877 107.568V91.585Z" fill="url(#paint4_linear)"/>
<path d="M119.877 91.585L109.204 97.7283V113.712L119.877 107.568V91.585Z" fill="#6B799A"/>
<path d="M99 107.829L103.79 105.069L99 102.258V107.829Z" fill="url(#paint5_radial)"/>
<path d="M148.72 65.241C148.72 65.1889 148.72 65.0848 148.72 65.0327C148.72 59.5662 144.867 57.3795 140.077 60.1388L139.765 60.295L148.72 65.241Z" fill="url(#paint6_linear)"/>
<path d="M109.204 97.7282L140.077 79.8708C144.763 77.1635 148.616 70.6036 148.72 65.1891L139.817 60.2432L138.411 61.0762C137.63 66.0742 134.142 71.5928 129.925 73.9877L99.0521 91.8451V102.258L103.842 105.017L109.256 101.893V97.7282H109.204Z" fill="url(#paint7_radial)"/>
<path d="M148.668 65.2409L139.765 60.2949L138.359 61.1279C137.578 66.1259 134.09 71.6446 129.873 74.0394L109.673 85.7015L119.825 91.5845L140.025 79.9225C144.763 77.2153 148.616 70.6554 148.668 65.2409Z" fill="#6460FF"/>
<path d="M99 91.8445V102.257L103.79 105.068L109.204 101.945V97.7276L119.877 91.5842L109.725 85.7012L99 91.8445Z" fill="url(#paint8_linear)"/>
<path d="M99 91.8445L109.204 97.7276L119.877 91.5842L109.725 85.7012L99 91.8445Z" fill="#F0F0F4"/>
<path d="M109.204 113.659L99 107.724V91.793L109.204 97.7281V113.659Z" fill="#F0F0F4"/>
<path d="M109.204 77.9444L99 71.9572V56.0781L109.204 61.9612V77.9444Z" fill="#F0F0F4"/>
<path opacity="0.6" d="M155.436 42.229C155.488 42.229 155.54 42.2811 155.592 42.2811L145.804 36.6063C141.743 34.3155 136.121 34.732 129.977 38.2723L125.24 41.0316L135.808 46.7064V62.6376L140.129 60.1385L139.817 60.2947L138.411 61.1277C137.63 66.1257 134.142 71.6444 129.925 74.0393L125.24 76.6944L135.756 82.7858V98.4045L140.077 95.9055C152.468 88.773 162.464 71.5402 162.62 57.2751C162.62 57.171 162.62 57.1189 162.62 57.0148C162.62 49.5178 159.861 44.3636 155.436 42.229Z" fill="url(#paint9_linear)"/>
<path d="M28.8086 61.4604C28.8086 63.7427 29.6094 65.3442 30.8506 66.145C30.8907 66.185 33.0127 67.5063 33.0528 67.5063C34.3741 68.2671 33.5333 66.5454 35.5352 65.3843C39.5792 63.022 42.9024 57.3764 42.9024 52.6918C42.9024 50.3696 45.0245 50.3696 43.7433 49.6088C43.7032 49.5688 41.3009 48.2074 41.2608 48.2074C39.9395 47.4867 38.1378 47.6068 36.1358 48.768C32.0918 51.1303 28.8086 56.8159 28.8086 61.4604Z" fill="#FFDB1D"/>
<path d="M31.211 62.9015C31.211 67.5461 34.4942 69.4279 38.5782 67.1057C42.6221 64.7433 45.9454 59.0978 45.9454 54.4132C45.9454 49.7286 42.6622 47.8868 38.5782 50.2091C34.4942 52.5314 31.211 58.257 31.211 62.9015Z" fill="#E4AB19"/>
<path d="M38.8184 52.2513C35.6553 54.0931 33.0928 58.4974 33.0928 62.1409C33.0928 65.7845 35.6553 67.2259 38.8184 65.4242C41.9815 63.5824 44.5441 59.178 44.5441 55.5345C44.5441 51.8909 41.9815 50.4094 38.8184 52.2513ZM40.5001 55.3343C40.9806 55.054 41.3409 55.2942 41.3409 55.8147C41.3409 56.3353 40.9806 56.9759 40.5001 57.2562C40.0196 57.5364 39.6593 57.2962 39.6593 56.7757C39.6593 56.2552 40.0597 55.6145 40.5001 55.3343ZM37.1368 57.2962C37.6173 57.0159 37.9776 57.2562 37.9776 57.7767C37.9776 58.2972 37.6173 58.9378 37.1368 59.2181C36.6563 59.4984 36.296 59.2581 36.296 58.7376C36.296 58.1771 36.6563 57.5364 37.1368 57.2962ZM38.8184 63.3421C37.4571 64.1429 36.1759 63.8626 35.6954 62.7015L36.4561 61.9007C36.8165 62.7816 37.7774 62.9818 38.8184 62.3812C39.8995 61.7806 40.8604 60.4193 41.2208 59.0579L41.9815 58.9378C41.5011 60.7396 40.2198 62.5413 38.8184 63.3421Z" fill="white"/>
<path d="M65.7648 114.633L65.6848 116.234L74.2131 111.59L74.3332 109.868L65.7648 114.633Z" fill="#AD1616"/>
<path d="M65.7648 114.633L65.6848 116.274L57.757 108.907L57.8771 107.186L65.7648 114.633Z" fill="#AD1616"/>
<path d="M57.8771 107.186L65.7648 114.633L74.3332 109.868L66.4055 102.461L57.8771 107.186Z" fill="#E02222"/>
<path d="M67.2463 110.349C67.0061 110.029 66.8859 109.668 66.926 109.308C66.926 109.108 67.1662 108.988 67.4465 109.028C67.8068 109.068 68.1672 109.068 68.5275 109.028C68.7277 109.148 69.0481 109.228 69.2082 109.108C69.4084 108.988 69.4484 108.828 69.4084 108.707C70.1692 108.227 70.5295 107.546 69.5686 106.665C68.6076 105.745 67.6467 105.865 66.8059 106.305C66.6457 106.225 66.4055 106.225 66.2053 106.345C66.0051 106.465 66.0451 106.705 66.1652 106.866C66.0051 107.106 65.925 107.386 65.925 107.626C65.925 107.827 65.6848 107.987 65.4045 107.907C64.9641 107.827 64.5236 107.666 64.1232 107.426C63.6027 107.106 62.882 107.066 62.4015 107.346L61.5607 107.827C61.4006 107.907 61.4006 108.107 61.5207 108.227L65.5646 111.991C65.7248 112.111 65.965 112.151 66.1252 112.071L66.966 111.59C67.4865 111.31 67.5666 110.789 67.2463 110.349Z" fill="white"/>
<path d="M67.6467 78.1162V79.7178L81.6204 71.9102V70.2285L67.6467 78.1162Z" fill="#AD1616"/>
<path d="M67.6467 78.1162V79.7178L56.9962 73.5518V71.8701L67.6467 78.1162Z" fill="#AD1616"/>
<path d="M56.9962 71.8702L67.6467 78.1163L81.6204 70.2285L70.9299 64.0225L56.9962 71.8702Z" fill="#E02222"/>
<path d="M73.5324 67.3853C73.132 67.145 72.4914 67.145 72.091 67.3853L69.2482 69.0269L67.8068 68.186C67.2062 67.8257 66.2453 67.8257 65.6447 68.186C65.4445 68.3062 65.4445 68.4663 65.6447 68.5864L66.8859 69.3071C67.2463 69.5073 67.4465 69.7876 67.4865 70.0679L67.6066 71.7495L70.7297 73.5513C71.09 73.7515 71.6506 73.7515 72.011 73.5513L73.5324 72.6704L75.4543 71.5493L76.4953 70.9487C76.8957 70.7085 76.8957 70.3882 76.5354 70.148C76.3752 70.0278 76.135 69.9878 75.8948 69.9478C76.2551 69.7075 76.2551 69.3472 75.8547 69.147C75.5744 68.9868 75.2141 68.9468 74.8537 68.9868C75.2541 68.7466 75.2541 68.3862 74.8938 68.146C74.5735 67.9458 74.093 67.9058 73.6926 68.0259C73.8928 67.8257 73.8528 67.5454 73.5324 67.3853Z" fill="white"/>
<path d="M70.2893 74.553L68.8078 75.3939C68.4875 75.5941 68.007 75.5941 67.7267 75.4339L64.1232 73.3519C63.8429 73.1917 63.883 72.9114 64.2033 72.7112L65.6847 71.8704C66.0051 71.6702 66.4855 71.6702 66.7658 71.8304L70.3693 73.9124C70.6496 74.0726 70.6096 74.3528 70.2893 74.553Z" fill="#6460FF"/>
<path d="M45.3048 98.6963H20V99.9775V99.7773C20 99.8174 20 100.058 20 100.098C20 104.182 25.6455 107.465 32.6524 107.465C39.6192 107.465 45.3048 104.182 45.3048 100.098C45.3048 100.058 45.3048 99.8174 45.3048 99.7773V98.6963Z" fill="#E4AB19"/>
<path d="M32.6524 105.063C39.6401 105.063 45.3048 102.23 45.3048 98.7364C45.3048 95.2425 39.6401 92.4102 32.6524 92.4102C25.6647 92.4102 20 95.2425 20 98.7364C20 102.23 25.6647 105.063 32.6524 105.063Z" fill="#FFDB1D"/>
<g opacity="0.1">
<path opacity="0.7" d="M45.3048 110.628C45.3048 114.111 39.6593 116.954 32.6524 116.954C25.6455 116.954 20 114.111 20 110.628V110.588V111.869V111.669C20 111.709 20 111.949 20 111.989C20 116.073 25.6455 119.356 32.6524 119.356C39.6192 119.356 45.3048 116.073 45.3048 111.989C45.3048 111.949 45.3048 111.709 45.3048 111.669V110.628Z" fill="url(#paint10_linear)"/>
</g>
<path d="M38.2178 98.3357C38.8585 98.696 38.8585 99.2566 38.2178 99.6169C37.6173 99.9773 36.5762 99.9773 35.9756 99.6169C35.335 99.2566 35.335 98.696 35.9756 98.3357C36.5762 97.9753 37.5772 97.9753 38.2178 98.3357Z" fill="#25054D"/>
<path d="M33.6534 95.6931C34.294 96.0535 34.294 96.614 33.6534 96.9744C33.0528 97.3347 32.0118 97.3347 31.4112 96.9744C30.7705 96.614 30.7705 96.0535 31.4112 95.6931C32.0118 95.3328 33.0127 95.3328 33.6534 95.6931Z" fill="#25054D"/>
<path d="M27.6875 101.739C25.8457 100.658 25.2852 99.0166 26.3262 97.6152L27.7676 97.9756C26.9668 99.0166 27.3672 100.258 28.8086 101.059C30.25 101.899 32.4522 102.1 34.294 101.619L34.9747 102.46C32.5323 103.141 29.6094 102.86 27.6875 101.739Z" fill="#25054D"/>
<path d="M88.1468 55.4541L88.6673 53.9726C88.6673 53.9726 87.0257 53.1318 86.8255 53.0517C86.2649 52.8515 85.7044 52.8515 85.1839 53.0918C84.3831 53.4922 83.9426 54.373 83.9426 55.374L83.4221 55.1338C83.262 55.0537 82.9016 54.8935 82.9016 54.8935C82.3811 54.7334 81.8606 54.7334 81.3801 54.9736C80.179 55.5742 79.7786 57.2959 80.4592 58.8574C80.8997 59.8584 81.9407 60.6992 83.0618 61.3399V61.3799L85.5843 62.6611L85.6643 62.461C86.2649 62.6611 86.6253 62.7412 86.6253 62.7412C86.6253 62.7412 88.5872 58.417 88.1468 55.4541Z" fill="#E02222"/>
<path d="M86.7054 53.8522C85.8645 54.2526 85.4241 55.2535 85.4641 56.2946C84.7034 55.5739 83.7024 55.3336 82.8616 55.734C81.6604 56.3346 81.26 58.0563 81.9407 59.6178C83.2219 62.4206 88.8675 63.862 88.8675 63.862C88.8675 63.862 91.3899 58.3366 90.1087 55.5338C89.428 54.0524 87.9065 53.2516 86.7054 53.8522Z" fill="#AD1616"/>
<path d="M58.1173 53.252L69.5285 46.6455C70.8899 45.8447 71.9709 46.6855 71.9709 48.4873V50.289C71.9709 52.0908 70.8899 54.2129 69.5285 54.9736L65.2844 57.416L63.4025 62.9414L61.5207 59.5782L58.1173 61.5801C56.756 62.3809 55.675 61.5401 55.675 59.7383V57.9365C55.675 56.1348 56.756 54.0527 58.1173 53.252Z" fill="#1712B0"/>
<path d="M60.7599 60.0586L61.5207 59.6182L63.4025 62.9815L61.881 62.0606L60.7599 60.0586Z" fill="#6460FF"/>
<path d="M56.8761 52.5316L68.2873 45.9251C68.8879 45.6048 69.4084 45.5648 69.8088 45.7649L71.1701 46.5657C70.7297 46.3255 70.1692 46.3255 69.5686 46.6858L58.1174 53.2523C56.756 54.0531 55.675 56.1351 55.675 57.9369V59.7386C55.675 60.6195 55.9552 61.2601 56.3556 61.6205L55.5949 61.14C54.9543 60.7797 54.3937 60.2191 54.3937 59.0179V57.2162C54.3937 55.4144 55.5148 53.2923 56.8761 52.5316Z" fill="#6460FF"/>
<path d="M60.9201 57.7363L63.5627 56.335V56.8555L60.9201 58.2969V57.7363Z" fill="white"/>
<path d="M64.8439 51.6504L62.2414 53.0518V52.5313L64.8439 51.0898V51.6504Z" fill="white"/>
<path d="M64.7639 54.4531V55.0137L61.9611 56.5352V56.0147L64.7639 54.4531Z" fill="white"/>
<path d="M61.841 54.4531V53.8926L62.882 53.332V53.8525L61.841 54.4531Z" fill="white"/>
<path d="M60.3195 53.6523V54.1729L58.6779 55.0938V54.5732L60.3195 53.6523Z" fill="white"/>
<path d="M65.6047 52.3311L63.4025 53.5322V53.0117L65.6047 51.7705V52.3311Z" fill="white"/>
<path d="M62.8019 54.9736V54.4531L64.4435 53.5723V54.0928L62.8019 54.9736Z" fill="white"/>
<path d="M64.0832 56.5352V56.0146L64.5236 55.7344V56.2949L64.0832 56.5352Z" fill="white"/>
<path d="M62.2414 54.7334V55.294L60.5197 56.2549V55.7344L62.2414 54.7334Z" fill="white"/>
<path d="M65.2844 54.6934V54.1729L65.885 53.8125V54.333L65.2844 54.6934Z" fill="white"/>
<path d="M61.3205 54.2129V54.7334L59.1984 55.9346V55.4141L61.3205 54.2129Z" fill="white"/>
<path d="M60.3996 58.5772L59.5587 59.0977V58.5371L60.3996 58.0566V58.5772Z" fill="white"/>
<path d="M61.7209 53.3721L60.84 53.8926V53.332L61.7209 52.8516V53.3721Z" fill="white"/>
<path d="M67.3264 50.8096L69.6486 49.4482V50.0088L67.3264 51.3301V50.8096Z" fill="white"/>
<path d="M67.8869 51.6104L68.7278 51.0898V51.6104L67.8869 52.1309V51.6104Z" fill="white"/>
<path d="M66.4455 53.4922L70.4094 51.25V51.7705L66.4455 54.0527V53.4922Z" fill="white"/>
<path d="M64.9641 53.252L67.3664 51.8906V52.4111L64.9641 53.7725V53.252Z" fill="white"/>
<path d="M65.0441 55.9746V55.4541L66.966 54.373V54.8936L65.0441 55.9746Z" fill="white"/>
<path d="M66.8058 51.6104L66.1652 52.0107V51.4902L66.8058 51.0898V51.6104Z" fill="white"/>
<path d="M59.9992 56.5752L57.3166 58.0967V57.5361L59.9992 56.0146V56.5752Z" fill="white"/>
<path d="M61.4406 56.8555L58.4777 58.5371V58.0166L61.4406 56.2949V56.8555Z" fill="white"/>
<path d="M73.0119 94.0921V92.4905L71.7707 92.971L60.4796 86.4846C59.7589 86.0442 58.5578 86.0442 57.8371 86.4846L51.2306 90.2883L50.3097 89.6077V91.2493C50.2696 91.5296 50.4698 91.8499 50.8702 92.0501L58.3576 96.3743L58.3976 100.659L62.1213 98.4964L62.882 98.9368C63.6027 99.3773 64.8039 99.3773 65.5246 98.9368L72.4514 94.8929C72.8518 94.6927 73.0119 94.3723 73.0119 94.0921Z" fill="#1712B0"/>
<path d="M72.4514 91.6497L60.4797 84.7629C59.759 84.3225 58.5578 84.3225 57.8371 84.7629L50.8302 88.8069C50.1095 89.2473 50.1095 89.928 50.8302 90.3284L58.3175 94.6526L58.3576 98.9368L62.0812 96.7747L62.842 97.2151C63.5627 97.6556 64.7639 97.6556 65.4846 97.2151L72.4914 93.1712C73.2121 92.7708 73.1721 92.0901 72.4514 91.6497Z" fill="#6460FF"/>
<path d="M59.8791 89.167C59.8791 89.6074 59.2384 89.9678 58.4777 89.9678C57.717 89.9678 57.0763 89.6074 57.0763 89.167C57.0763 88.7266 57.717 88.3662 58.4777 88.3662C59.2785 88.3662 59.8791 88.7266 59.8791 89.167Z" fill="white"/>
<path d="M63.148 91.0542C63.1504 90.612 62.5249 90.2501 61.751 90.2459C60.977 90.2417 60.3476 90.5968 60.3453 91.0391C60.3429 91.4813 60.9683 91.8432 61.7423 91.8474C62.5162 91.8516 63.1456 91.4965 63.148 91.0542Z" fill="white"/>
<path d="M66.3654 92.8906C66.3654 93.3311 65.7248 93.6914 64.9641 93.6914C64.2033 93.6914 63.5627 93.3311 63.5627 92.8906C63.5627 92.4502 64.2033 92.0898 64.9641 92.0898C65.7248 92.0898 66.3654 92.4502 66.3654 92.8906Z" fill="white"/>
<path d="M62.0412 96.8145V98.5361L58.3576 100.658V98.9365L62.0412 96.8145Z" fill="#1712B0"/>
<path d="M31.3712 81.1593V79.9181L31.7315 79.838C32.252 78.7169 33.4532 77.5958 35.1749 76.5948C39.0587 74.3526 44.3439 73.752 46.9464 75.2335C47.3868 75.4737 47.7072 75.7941 47.9474 76.1144L48.3878 75.9942V77.3556C48.4279 78.837 47.1066 80.5988 44.6241 82.0402C44.2237 82.2804 43.8234 82.4806 43.3829 82.6808C43.5831 84.4425 40.5802 86.6046 40.5802 86.6046C40.5802 86.6046 40.1798 85.3234 38.6983 84.0421C36.4161 84.3624 34.254 84.1623 32.8526 83.3615C31.9317 82.8009 31.4512 82.0802 31.4112 81.2394V81.1593H31.3712Z" fill="#1712B0"/>
<path d="M32.8126 82.1603C30.21 80.6388 31.251 77.5958 35.1348 75.3536C39.0186 73.1114 44.3038 72.5108 46.9064 73.9923C49.5089 75.5138 48.4679 78.5568 44.5841 80.799C44.1837 81.0392 43.7833 81.2394 43.3429 81.4396C43.5431 83.2013 40.5401 85.3634 40.5401 85.3634C40.5401 85.3634 40.1397 84.0822 38.6583 82.8009C36.376 83.1613 34.2139 82.9611 32.8126 82.1603Z" fill="#6460FF"/>
<path d="M93.9525 86.2445V84.9232L91.6302 85.4838L89.1077 85.0434C88.8274 85.0033 88.5872 84.8832 88.5071 84.683L87.1858 82.2406C86.9456 81.8402 86.0247 81.7601 85.5843 82.0805L83.0217 84.1625C82.8616 84.2826 82.5813 84.3627 82.261 84.3627L77.8166 84.3227C77.8166 84.3227 77.8167 84.3227 77.7766 84.3227L76.8958 83.4418V84.8031C76.8958 84.9232 76.9358 85.0434 77.0559 85.1635L79.6985 87.2055C79.8587 87.3256 79.9387 87.5258 79.8186 87.686L79.0178 89.0473L78.3772 88.9272V90.2084C78.3772 90.2485 78.3772 90.2885 78.3772 90.3285V90.3686C78.4573 90.6489 78.9778 90.8891 79.5383 90.769L83.7425 89.9682C84.0227 89.9281 84.343 89.9281 84.5833 90.0483L88.1468 91.5698C88.7474 91.81 89.5882 91.5698 89.5882 91.1694L89.5081 88.6069C89.5081 88.4467 89.6282 88.2865 89.8685 88.1664L93.472 86.685C93.8724 86.6049 93.9925 86.4047 93.9525 86.2445Z" fill="#E4AB19"/>
<path d="M89.1077 83.682L93.3518 84.4428C94.0726 84.5629 94.1927 85.1234 93.5921 85.3637L89.9886 86.8451C89.7483 86.9252 89.5882 87.0854 89.6282 87.2856L89.7083 89.8481C89.7083 90.2885 88.8675 90.5287 88.2669 90.2485L84.7034 88.727C84.4631 88.6069 84.1428 88.6069 83.8626 88.6469L79.6584 89.4477C78.9377 89.5678 78.2971 89.2074 78.5373 88.8071L79.9387 86.4047C80.0188 86.2445 79.9787 86.0844 79.8186 85.9242L77.176 83.8822C76.7356 83.5219 77.176 83.0414 77.8967 83.0414L82.3411 83.0814C82.6213 83.0814 82.9016 83.0014 83.1018 82.8812L85.6643 80.7992C86.1047 80.4389 87.0257 80.5189 87.2659 80.9594L88.5872 83.4018C88.6272 83.4818 88.8274 83.602 89.1077 83.682Z" fill="#FFDB1D"/>
<g opacity="0.1">
<path opacity="0.1" d="M79.9387 99.8975C80.0188 99.7373 79.9788 99.5772 79.8186 99.417L77.176 97.375C77.0559 97.2549 76.9758 97.1348 77.0159 97.0147L76.9758 96.9746V98.3359C76.9758 98.4561 77.0159 98.5762 77.136 98.6963L79.5383 100.538L79.9387 99.8975Z" fill="url(#paint11_linear)"/>
<path opacity="0.1" d="M88.2669 103.782L84.7034 102.26C84.4632 102.14 84.1428 102.14 83.8626 102.18L79.6584 102.981C79.0579 103.101 78.4973 102.821 78.4973 102.501V103.782C78.4973 103.822 78.4973 103.862 78.4973 103.902V103.942C78.5774 104.222 79.0979 104.462 79.6584 104.342L83.8626 103.542C84.1428 103.501 84.4632 103.501 84.7034 103.622L88.2669 105.143C88.8675 105.383 89.7083 105.143 89.7083 104.743L89.6683 103.542C89.5081 103.822 88.7874 103.982 88.2669 103.782Z" fill="url(#paint12_linear)"/>
<path opacity="0.1" d="M93.5921 98.8965L89.9886 100.378C89.7483 100.458 89.5882 100.618 89.6282 100.818L89.6682 102.02C89.7083 101.899 89.8284 101.819 90.0286 101.739L93.6321 100.258C93.9124 100.138 94.0325 99.9775 93.9925 99.7773V98.5361C93.9524 98.6963 93.8323 98.8164 93.5921 98.8965Z" fill="url(#paint13_linear)"/>
</g>
<path d="M69.4084 73.9922C69.4084 74.1924 69.1281 74.3125 68.8078 74.3125C68.4875 74.3125 68.2072 74.1523 68.2072 73.9522C68.2072 73.752 68.4875 73.6318 68.8078 73.6318C69.1682 73.6318 69.4084 73.792 69.4084 73.9922Z" fill="white"/>
</g>
<defs>
<filter id="filter0_f" x="0" y="100" width="190" height="80" filterUnits="userSpaceOnUse" color-interpolation-filters="sRGB">
<feFlood flood-opacity="0" result="BackgroundImageFix"/>
<feBlend mode="normal" in="SourceGraphic" in2="BackgroundImageFix" result="shape"/>
<feGaussianBlur stdDeviation="10" result="effect1_foregroundBlur"/>
</filter>
<radialGradient id="paint0_radial" cx="0" cy="0" r="1" gradientUnits="userSpaceOnUse" gradientTransform="translate(127.284 53.606) scale(23.8665)">
<stop stop-color="#271273"/>
<stop offset="0.0835944" stop-color="#210F60"/>
<stop offset="0.2596" stop-color="#150A3D"/>
<stop offset="0.4388" stop-color="#0C0522"/>
<stop offset="0.6203" stop-color="#05020F"/>
<stop offset="0.8055" stop-color="#010104"/>
<stop offset="1"/>
</radialGradient>
<linearGradient id="paint1_linear" x1="66.8697" y1="58.9211" x2="119.878" y2="58.9211" gradientUnits="userSpaceOnUse">
<stop offset="0.0353535" stop-color="#9D9EB3"/>
<stop offset="0.5808" stop-color="#D4D1D8"/>
<stop offset="1" stop-color="#EEEBF2"/>
</linearGradient>
<linearGradient id="paint2_linear" x1="66.8697" y1="66.9045" x2="119.878" y2="66.9045" gradientUnits="userSpaceOnUse">
<stop offset="0.0353535" stop-color="#9D9EB3"/>
<stop offset="0.5808" stop-color="#D4D1D8"/>
<stop offset="1" stop-color="#EEEBF2"/>
</linearGradient>
<linearGradient id="paint3_linear" x1="109.196" y1="100.882" x2="162.622" y2="100.882" gradientUnits="userSpaceOnUse">
<stop offset="0.0353535" stop-color="#6B24D6"/>
<stop offset="0.2945" stop-color="#7733DC"/>
<stop offset="0.7943" stop-color="#975CED"/>
<stop offset="1" stop-color="#A56EF4"/>
</linearGradient>
<linearGradient id="paint4_linear" x1="66.8697" y1="102.647" x2="119.878" y2="102.647" gradientUnits="userSpaceOnUse">
<stop offset="0.0353535" stop-color="#9D9EB3"/>
<stop offset="0.5808" stop-color="#D4D1D8"/>
<stop offset="1" stop-color="#EEEBF2"/>
</linearGradient>
<radialGradient id="paint5_radial" cx="0" cy="0" r="1" gradientUnits="userSpaceOnUse" gradientTransform="translate(123.866 83.3756) scale(24.6467)">
<stop stop-color="#271273"/>
<stop offset="0.0835944" stop-color="#210F60"/>
<stop offset="0.2596" stop-color="#150A3D"/>
<stop offset="0.4388" stop-color="#0C0522"/>
<stop offset="0.6203" stop-color="#05020F"/>
<stop offset="0.8055" stop-color="#010104"/>
<stop offset="1"/>
</radialGradient>
<linearGradient id="paint6_linear" x1="131.966" y1="65.2353" x2="157.251" y2="59.5669" gradientUnits="userSpaceOnUse">
<stop offset="0.0353535" stop-color="#138BBD"/>
<stop offset="0.2257" stop-color="#169AC7"/>
<stop offset="0.5946" stop-color="#1FC3DF"/>
<stop offset="1" stop-color="#2AF6FF"/>
</linearGradient>
<radialGradient id="paint7_radial" cx="0" cy="0" r="1" gradientUnits="userSpaceOnUse" gradientTransform="translate(123.864 83.3753) scale(24.6482)">
<stop stop-color="#271273"/>
<stop offset="0.0835944" stop-color="#210F60"/>
<stop offset="0.2596" stop-color="#150A3D"/>
<stop offset="0.4388" stop-color="#0C0522"/>
<stop offset="0.6203" stop-color="#05020F"/>
<stop offset="0.8055" stop-color="#010104"/>
<stop offset="1"/>
</radialGradient>
<linearGradient id="paint8_linear" x1="66.8695" y1="95.3747" x2="119.878" y2="95.3747" gradientUnits="userSpaceOnUse">
<stop offset="0.0353535" stop-color="#9D9EB3"/>
<stop offset="0.5808" stop-color="#D4D1D8"/>
<stop offset="1" stop-color="#EEEBF2"/>
</linearGradient>
<linearGradient id="paint9_linear" x1="126.963" y1="12.1512" x2="166.184" y2="133.977" gradientUnits="userSpaceOnUse">
<stop offset="0.010101" stop-color="#AB1933"/>
<stop offset="0.4293" stop-color="#2A27BD"/>
<stop offset="0.904" stop-color="#060F5F"/>
</linearGradient>
<linearGradient id="paint10_linear" x1="20.1206" y1="114.927" x2="45.0097" y2="114.927" gradientUnits="userSpaceOnUse">
<stop stop-color="#FFBB96"/>
<stop offset="0.2273" stop-color="#FFFBC9"/>
<stop offset="0.5404" stop-color="#F9B673"/>
<stop offset="0.6391" stop-color="#F9B876"/>
<stop offset="0.7249" stop-color="#FABE81"/>
<stop offset="0.8057" stop-color="#FCC993"/>
<stop offset="0.8586" stop-color="#FED2A3"/>
<stop offset="0.9697" stop-color="#FFC28C"/>
</linearGradient>
<linearGradient id="paint11_linear" x1="78.5714" y1="99.9732" x2="78.1642" y2="95.5521" gradientUnits="userSpaceOnUse">
<stop offset="0.0353535" stop-color="#FFA98C"/>
<stop offset="0.3169" stop-color="#FFB892"/>
<stop offset="0.8601" stop-color="#FEE1A3"/>
<stop offset="1" stop-color="#FEECA8"/>
</linearGradient>
<linearGradient id="paint12_linear" x1="84.1985" y1="104.994" x2="83.8062" y2="100.735" gradientUnits="userSpaceOnUse">
<stop offset="0.0353535" stop-color="#FFA98C"/>
<stop offset="0.3169" stop-color="#FFB892"/>
<stop offset="0.8601" stop-color="#FEE1A3"/>
<stop offset="1" stop-color="#FEECA8"/>
</linearGradient>
<linearGradient id="paint13_linear" x1="91.8987" y1="101.245" x2="91.571" y2="97.6882" gradientUnits="userSpaceOnUse">
<stop offset="0.0353535" stop-color="#FFA98C"/>
<stop offset="0.3169" stop-color="#FFB892"/>
<stop offset="0.8601" stop-color="#FEE1A3"/>
<stop offset="1" stop-color="#FEECA8"/>
</linearGradient>
<clipPath id="clip0">
<rect width="150" height="150" fill="white" transform="translate(20)"/>
</clipPath>
</defs>
</svg>
