<svg width="28" height="28" viewBox="0 0 28 28" fill="none" xmlns="http://www.w3.org/2000/svg">
<path opacity="0.1" d="M8 14C8 10.6863 10.6863 8 14 8H22C25.3137 8 28 10.6863 28 14V22C28 25.3137 25.3137 28 22 28H8V14Z" fill="#F0F0F4"/>
<path fill-rule="evenodd" clip-rule="evenodd" d="M5 5.875C4.37868 5.875 3.875 6.37868 3.875 7V17C3.875 17.6213 4.37868 18.125 5 18.125H19C19.6213 18.125 20.125 17.6213 20.125 17V7C20.125 6.37868 19.6213 5.875 19 5.875H5ZM2.125 7C2.125 5.41218 3.41218 4.125 5 4.125H19C20.5878 4.125 21.875 5.41218 21.875 7V17C21.875 18.5878 20.5878 19.875 19 19.875H5C3.41218 19.875 2.125 18.5878 2.125 17V7Z" fill="#F0F0F4"/>
<path fill-rule="evenodd" clip-rule="evenodd" d="M2.27193 6.51473C2.53999 6.11264 3.08325 6.00399 3.48533 6.27205L12 11.9485L20.5146 6.27205C20.9167 6.00399 21.46 6.11264 21.728 6.51473C21.9961 6.91682 21.8874 7.46008 21.4853 7.72814L12.4853 13.7281C12.1914 13.9241 11.8085 13.9241 11.5146 13.7281L2.51461 7.72814C2.11252 7.46008 2.00387 6.91682 2.27193 6.51473Z" fill="#F0F0F4"/>
</svg>
