<svg width="28" height="28" viewBox="0 0 28 28" fill="none" xmlns="http://www.w3.org/2000/svg">
<path d="M3.44285 5.59453L5.93894 3.10078C6.24363 2.79609 6.65144 2.625 7.08269 2.625C7.51394 2.625 7.92175 2.79375 8.22644 3.10078L10.9147 5.78437C11.2194 6.08906 11.3905 6.49922 11.3905 6.93047C11.3905 7.36406 11.2218 7.76953 10.9147 8.07656L8.81472 10.1789C9.29312 11.2936 9.98049 12.3063 10.8397 13.1625C11.6999 14.0273 12.7053 14.7094 13.821 15.1922L15.921 13.0898C16.2257 12.7852 16.6335 12.6141 17.0647 12.6141C17.2774 12.6133 17.4882 12.655 17.6846 12.7366C17.881 12.8183 18.0591 12.9384 18.2085 13.0898L20.8991 15.7734C21.2038 16.0781 21.3749 16.4883 21.3749 16.9195C21.3749 17.3531 21.2061 17.7586 20.8991 18.0656L18.4053 20.5594C17.885 21.0797 17.1678 21.3773 16.4319 21.3773C16.2796 21.3773 16.1319 21.3656 15.9819 21.3398C12.8788 20.8289 9.7991 19.1766 7.31238 16.6922C4.828 14.2031 3.178 11.1234 2.66238 8.01797C2.51472 7.13672 2.81004 6.22969 3.44285 5.59453ZM4.3241 7.73906C4.78113 10.5023 6.26707 13.2586 8.50535 15.4969C10.7436 17.7352 13.4975 19.2211 16.2608 19.6781C16.6077 19.7367 16.9639 19.6195 17.2171 19.3687L19.6663 16.9195L17.0694 14.3203L14.2616 17.1328L14.2405 17.1539L13.7343 16.9664C12.1993 16.402 10.8054 15.5107 9.64912 14.354C8.49288 13.1974 7.60198 11.8032 7.03816 10.268L6.85066 9.76172L9.68191 6.93281L7.08503 4.33359L4.63581 6.78281C4.38269 7.03594 4.2655 7.39219 4.3241 7.73906Z" fill="#F0F0F4"/>
<path opacity="0.1" d="M8 14C8 10.6863 10.6863 8 14 8H22C25.3137 8 28 10.6863 28 14V22C28 25.3137 25.3137 28 22 28H8V14Z" fill="#F0F0F4"/>
</svg>
