<svg width="65" height="65" viewBox="0 0 65 65" fill="none" xmlns="http://www.w3.org/2000/svg">
<path d="M16.25 22.25C16.25 18.9363 18.9363 16.25 22.25 16.25H59C62.3137 16.25 65 18.9363 65 22.25V59C65 62.3137 62.3137 65 59 65H16.25V22.25Z" fill="#E4E4F6"/>
<path d="M50.371 9.06005L7.15408 25.7252C4.2047 26.9099 4.22177 28.5552 6.61296 29.2889L17.7085 32.7501L43.3802 16.5529C44.5941 15.8144 45.7031 16.2117 44.7915 17.0209L23.9923 35.7921H23.9875L23.9923 35.7946L23.227 47.2313C24.3482 47.2313 24.843 46.717 25.4719 46.1101L30.8612 40.8694L42.0713 49.1496C44.1383 50.2879 45.6227 49.7029 46.137 47.2362L53.4958 12.5554C54.249 9.53537 52.3429 8.16793 50.371 9.06005Z" fill="#221EC4"/>
</svg>
