<svg width="65" height="65" viewBox="0 0 65 65" fill="none" xmlns="http://www.w3.org/2000/svg">
<path d="M16.25 22.25C16.25 18.9363 18.9363 16.25 22.25 16.25H59C62.3137 16.25 65 18.9363 65 22.25V59C65 62.3137 62.3137 65 59 65H16.25V22.25Z" fill="#E4E4F6"/>
<path d="M29.25 4.875C42.9829 4.875 53.625 14.9346 53.625 28.5187C53.625 42.1029 42.9829 52.1625 29.25 52.1625C26.8665 52.1686 24.493 51.8538 22.1934 51.2265C21.7615 51.1077 21.3019 51.1413 20.8918 51.3216L16.0558 53.4568C15.7636 53.5859 15.4442 53.6413 15.1256 53.6181C14.807 53.5948 14.499 53.4936 14.2287 53.3234C13.9583 53.1532 13.7339 52.9192 13.5752 52.642C13.4165 52.3648 13.3284 52.0528 13.3185 51.7335L13.1844 47.3948C13.1757 47.1309 13.1132 46.8717 13.0009 46.6328C12.8886 46.3939 12.7288 46.1804 12.5312 46.0054C7.78781 41.7666 4.875 35.6289 4.875 28.5187C4.875 14.9346 15.5196 4.875 29.25 4.875ZM14.6128 35.4339C13.9254 36.5235 15.2661 37.752 16.2922 36.972L23.9826 31.1366C24.2364 30.945 24.5457 30.8414 24.8637 30.8414C25.1817 30.8414 25.4911 30.945 25.7449 31.1366L31.4413 35.4023C31.8454 35.7053 32.3079 35.9214 32.7996 36.0369C33.2913 36.1523 33.8017 36.1647 34.2984 36.073C34.7951 35.9814 35.2675 35.7879 35.6857 35.5046C36.1039 35.2214 36.4589 34.8545 36.7283 34.4272L43.8872 23.0685C44.5746 21.9765 43.2339 20.748 42.2077 21.5256L34.5174 27.3658C34.2636 27.5574 33.9543 27.6611 33.6363 27.6611C33.3183 27.6611 33.0089 27.5574 32.7551 27.3658L27.0587 23.1002C26.6546 22.7971 26.1921 22.581 25.7004 22.4655C25.2087 22.3501 24.6983 22.3378 24.2016 22.4294C23.7049 22.521 23.2325 22.7145 22.8143 22.9978C22.3961 23.2811 22.0411 23.6479 21.7717 24.0752L14.6128 35.4339Z" fill="#221EC4"/>
</svg>
