<svg width="65" height="65" viewBox="0 0 65 65" fill="none" xmlns="http://www.w3.org/2000/svg">
<path d="M16.25 22.25C16.25 18.9363 18.9363 16.25 22.25 16.25H59C62.3137 16.25 65 18.9363 65 22.25V59C65 62.3137 62.3137 65 59 65H16.25V22.25Z" fill="#E4E4F6"/>
<g clip-path="url(#clip0)">
<path d="M27.7838 0.00948897C23.0892 0.0661608 12.9961 0.83763 7.35087 6.01671C3.15167 10.1775 1.68551 16.3292 1.51367 23.936C1.37107 31.5154 1.19923 45.7492 14.9193 49.6248V55.5278C14.9193 55.5278 14.8334 57.8898 16.3946 58.3742C18.3178 58.983 19.4128 57.1658 21.241 55.2134L24.6504 51.3579C34.0378 52.1385 41.2279 50.3396 42.056 50.0727C43.9609 49.4639 54.6902 48.0928 56.4433 33.8572C58.2422 19.1554 55.5677 9.89233 50.7396 5.70227H50.7103C49.2533 4.36043 43.3978 0.0935827 30.3158 0.0460515C30.3158 0.0460515 29.345 -0.019761 27.7838 0.00766085V0.00948897ZM27.9447 4.14288C29.2774 4.13374 30.0873 4.19041 30.0873 4.19041C41.1602 4.21966 46.4453 7.55233 47.6921 8.6748C51.7579 12.1592 53.8529 20.5101 52.3191 32.7841C50.8621 44.6852 42.1602 45.4384 40.5496 45.9521C39.8641 46.1715 33.5314 47.7327 25.5535 47.219C25.5535 47.219 19.6121 54.3889 17.7547 56.2353C17.4604 56.5589 17.1167 56.6539 16.8973 56.6064C16.5829 56.5296 16.4878 56.1402 16.5061 55.6064L16.5628 45.8095C4.92678 42.592 5.61232 30.4514 5.73664 24.1097C5.87923 17.7679 7.06934 12.5797 10.6122 9.06602C15.3818 4.75347 23.9521 4.17213 27.941 4.14288H27.9447ZM28.8222 10.4828C28.7264 10.4819 28.6314 10.4999 28.5426 10.5358C28.4539 10.5717 28.3731 10.6248 28.3049 10.6921C28.2368 10.7594 28.1826 10.8396 28.1456 10.9279C28.1085 11.0162 28.0894 11.111 28.0891 11.2068C28.0891 11.6163 28.4218 11.9398 28.8222 11.9398C30.6348 11.9054 32.4363 12.2301 34.1228 12.8953C35.8092 13.5604 37.3473 14.5529 38.6484 15.8155C41.3046 18.3949 42.5989 21.8611 42.6483 26.393C42.6483 26.7933 42.9719 27.1261 43.3814 27.1261V27.0968C43.5744 27.0973 43.7597 27.0215 43.8971 26.8859C44.0344 26.7503 44.1125 26.5659 44.1145 26.3729C44.2032 24.2397 43.8573 22.1108 43.0977 20.1155C42.3381 18.1202 41.1807 16.3002 39.6959 14.7661C36.802 11.938 33.1347 10.481 28.8222 10.481V10.4828ZM19.1862 12.1592C18.6687 12.0836 18.141 12.1875 17.6907 12.4535H17.6524C16.6071 13.0662 15.6656 13.8406 14.8626 14.7478C14.1954 15.5193 13.8334 16.2999 13.7383 17.0513C13.6817 17.4992 13.7201 17.9471 13.8535 18.3748L13.901 18.4041C14.6524 20.6125 15.6341 22.7367 16.8334 24.7367C18.3782 27.5465 20.2793 30.145 22.4896 32.4678L22.5554 32.5629L22.6596 32.6397L22.7254 32.7165L22.8022 32.7823C25.1335 34.9991 27.7383 36.909 30.5534 38.4659C33.7709 40.2173 35.7234 41.0454 36.8952 41.3891V41.4074C37.2389 41.5116 37.5515 41.5591 37.8659 41.5591C38.8646 41.4859 39.81 41.0805 40.5514 40.4074C41.4546 39.6042 42.2203 38.6588 42.8183 37.6085V37.5903C43.3796 36.5336 43.1894 35.5336 42.3796 34.8572C40.7577 33.4395 39.0038 32.1803 37.142 31.0968C35.8952 30.4203 34.6283 30.8298 34.1146 31.5154L33.0196 32.8956C32.4583 33.5812 31.4382 33.4861 31.4382 33.4861L31.409 33.5044C23.8022 31.5611 21.7729 23.8592 21.7729 23.8592C21.7729 23.8592 21.6779 22.8117 22.3817 22.2779L23.7528 21.1737C24.4091 20.6399 24.8661 19.3748 24.1623 18.1262C23.0863 16.2618 21.8298 14.5075 20.411 12.8886C20.1008 12.507 19.6657 12.2473 19.1825 12.1556L19.1862 12.1592ZM30.0873 14.331C29.1165 14.331 29.1165 15.7972 30.0964 15.7972C31.3035 15.8168 32.4949 16.074 33.6025 16.5543C34.7101 17.0345 35.7122 17.7283 36.5515 18.596C37.3172 19.4406 37.9055 20.4303 38.2817 21.5065C38.6579 22.5826 38.8143 23.7233 38.7416 24.861C38.7449 25.0536 38.8235 25.2371 38.9606 25.3724C39.0976 25.5077 39.2821 25.584 39.4747 25.585L39.5039 25.6233C39.6979 25.6219 39.8835 25.5442 40.0207 25.407C40.1579 25.2699 40.2356 25.0842 40.237 24.8903C40.3028 21.9854 39.3997 19.5485 37.6283 17.5961C35.8477 15.6436 33.3633 14.5486 30.1915 14.331H30.0873ZM31.2883 18.2725C30.2884 18.2432 30.25 19.7386 31.2408 19.7679C33.6503 19.8922 34.8203 21.1097 34.9738 23.6142C34.9772 23.8043 35.0548 23.9856 35.1901 24.1192C35.3254 24.2528 35.5076 24.3281 35.6978 24.329H35.727C35.8248 24.3248 35.9207 24.3012 36.0092 24.2596C36.0978 24.2179 36.1771 24.159 36.2426 24.0863C36.3082 24.0137 36.3585 23.9287 36.3909 23.8363C36.4232 23.744 36.4368 23.6461 36.4309 23.5484C36.259 20.2834 34.4784 18.4443 31.3176 18.2743H31.2883V18.2725Z" fill="#221EC4"/>
</g>
<defs>
<clipPath id="clip0">
<rect width="58.5" height="58.5" fill="white"/>
</clipPath>
</defs>
</svg>
