<svg width="1912" height="265" viewBox="0 0 1912 265" fill="none" xmlns="http://www.w3.org/2000/svg">
<g opacity="0.1">
<path d="M112.999 5.94534C134.682 5.94534 153.571 9.90893 169.665 17.8361C185.76 25.7632 198.167 37.1585 206.885 52.0218C215.603 66.8852 219.962 84.2259 219.962 104.044C219.962 123.862 215.603 141.202 206.885 156.066C198.167 170.929 185.76 182.324 169.665 190.251C153.571 198.179 134.682 202.142 112.999 202.142H79.1325V266.055H0V5.94534H112.999ZM107.969 134.514C118.699 134.514 126.746 131.913 132.111 126.71C137.476 121.26 140.158 113.705 140.158 104.044C140.158 94.3825 137.476 86.9508 132.111 81.7486C126.746 76.2987 118.699 73.5738 107.969 73.5738H79.1325V134.514H107.969Z" fill="url(#paint0_linear)"/>
<path d="M394.067 220.721H304.875L289.116 266.055H208.642L311.246 5.94534H389.038L491.641 266.055H409.827L394.067 220.721ZM372.272 157.552L349.471 92.153L326.67 157.552H372.272Z" fill="url(#paint1_linear)"/>
<path d="M604.863 200.656H583.403V266.055H504.271V5.94534H617.269C638.952 5.94534 657.841 9.90893 673.936 17.8361C690.031 25.7632 702.437 37.1585 711.155 52.0218C719.873 66.8852 724.232 84.2259 724.232 104.044C724.232 122.623 720.432 138.849 712.832 152.721C705.231 166.594 694.278 177.618 679.971 185.792L729.262 266.055H644.764L604.863 200.656ZM644.429 104.044C644.429 94.3825 641.746 86.9508 636.382 81.7486C631.017 76.2987 622.969 73.5738 612.239 73.5738H583.403V134.514H612.239C622.969 134.514 631.017 131.913 636.382 126.71C641.746 121.26 644.429 113.705 644.429 104.044Z" fill="url(#paint2_linear)"/>
<path d="M801.806 73.9454H733.068V5.94534H949.676V73.9454H880.938V266.055H801.806V73.9454Z" fill="url(#paint3_linear)"/>
<path d="M1201.59 5.94534V266.055H1136.54L1047.35 147.891V266.055H970.23V5.94534H1035.28L1124.47 124.109V5.94534H1201.59Z" fill="url(#paint4_linear)"/>
<path d="M1434.87 199.913V266.055H1239.72V5.94534H1430.51V72.0874H1317.51V102.557H1416.76V165.727H1317.51V199.913H1434.87Z" fill="url(#paint5_linear)"/>
<path d="M1565.92 200.656H1544.46V266.055H1465.33V5.94534H1578.33C1600.01 5.94534 1618.9 9.90893 1635 17.8361C1651.09 25.7632 1663.5 37.1585 1672.22 52.0218C1680.93 66.8852 1685.29 84.2259 1685.29 104.044C1685.29 122.623 1681.49 138.849 1673.89 152.721C1666.29 166.594 1655.34 177.618 1641.03 185.792L1690.32 266.055H1605.83L1565.92 200.656ZM1605.49 104.044C1605.49 94.3825 1602.81 86.9508 1597.44 81.7486C1592.08 76.2987 1584.03 73.5738 1573.3 73.5738H1544.46V134.514H1573.3C1584.03 134.514 1592.08 131.913 1597.44 126.71C1602.81 121.26 1605.49 113.705 1605.49 104.044Z" fill="url(#paint6_linear)"/>
<path d="M1802.69 272C1783.24 272 1764.24 269.647 1745.69 264.94C1727.36 259.985 1712.27 253.421 1700.42 245.246L1725.9 181.333C1737.08 188.517 1749.6 194.339 1763.46 198.798C1777.32 203.009 1790.62 205.115 1803.36 205.115C1814.31 205.115 1822.14 204 1826.83 201.77C1831.53 199.293 1833.87 195.701 1833.87 190.995C1833.87 185.545 1830.74 181.457 1824.48 178.732C1818.45 176.007 1808.39 173.035 1794.31 169.814C1776.2 165.603 1761.11 161.144 1749.04 156.437C1736.97 151.483 1726.46 143.556 1717.52 132.656C1708.58 121.508 1704.11 106.521 1704.11 87.694C1704.11 71.3443 1708.24 56.4809 1716.52 43.1038C1724.79 29.7268 1737.08 19.1985 1753.4 11.5191C1769.94 3.83971 1789.95 0 1813.42 0C1829.51 0 1845.27 1.98178 1860.7 5.94534C1876.35 9.66119 1890.09 15.235 1901.94 22.6667L1878.13 86.2077C1855.11 73.3261 1833.31 66.8853 1812.75 66.8853C1792.41 66.8853 1782.24 72.3352 1782.24 83.235C1782.24 88.4372 1785.25 92.4007 1791.29 95.1257C1797.32 97.6029 1807.27 100.328 1821.13 103.301C1839.01 107.016 1854.1 111.352 1866.4 116.306C1878.69 121.013 1889.31 128.816 1898.25 139.716C1907.42 150.616 1912 165.479 1912 184.306C1912 200.656 1907.86 215.519 1899.59 228.896C1891.32 242.026 1878.92 252.554 1862.37 260.481C1846.06 268.16 1826.16 272 1802.69 272Z" fill="url(#paint7_linear)"/>
</g>
<defs>
<linearGradient id="paint0_linear" x1="956" y1="0" x2="956" y2="272" gradientUnits="userSpaceOnUse">
<stop stop-color="white" stop-opacity="0"/>
<stop offset="1" stop-color="white"/>
</linearGradient>
<linearGradient id="paint1_linear" x1="956" y1="0" x2="956" y2="272" gradientUnits="userSpaceOnUse">
<stop stop-color="white" stop-opacity="0"/>
<stop offset="1" stop-color="white"/>
</linearGradient>
<linearGradient id="paint2_linear" x1="956" y1="0" x2="956" y2="272" gradientUnits="userSpaceOnUse">
<stop stop-color="white" stop-opacity="0"/>
<stop offset="1" stop-color="white"/>
</linearGradient>
<linearGradient id="paint3_linear" x1="956" y1="0" x2="956" y2="272" gradientUnits="userSpaceOnUse">
<stop stop-color="white" stop-opacity="0"/>
<stop offset="1" stop-color="white"/>
</linearGradient>
<linearGradient id="paint4_linear" x1="956" y1="0" x2="956" y2="272" gradientUnits="userSpaceOnUse">
<stop stop-color="white" stop-opacity="0"/>
<stop offset="1" stop-color="white"/>
</linearGradient>
<linearGradient id="paint5_linear" x1="956" y1="0" x2="956" y2="272" gradientUnits="userSpaceOnUse">
<stop stop-color="white" stop-opacity="0"/>
<stop offset="1" stop-color="white"/>
</linearGradient>
<linearGradient id="paint6_linear" x1="956" y1="0" x2="956" y2="272" gradientUnits="userSpaceOnUse">
<stop stop-color="white" stop-opacity="0"/>
<stop offset="1" stop-color="white"/>
</linearGradient>
<linearGradient id="paint7_linear" x1="956" y1="0" x2="956" y2="272" gradientUnits="userSpaceOnUse">
<stop stop-color="white" stop-opacity="0"/>
<stop offset="1" stop-color="white"/>
</linearGradient>
</defs>
</svg>
