<svg width="1920" height="213" viewBox="0 0 1920 213" fill="none" xmlns="http://www.w3.org/2000/svg">
<g opacity="0.1">
<path d="M88.414 213C71.6009 213 55.1742 211.157 39.1341 207.471C23.2872 203.592 10.2425 198.451 0 192.049L22.031 142C31.6938 147.626 42.516 152.184 54.4978 155.676C66.4796 158.974 77.9783 160.623 88.9938 160.623C98.4633 160.623 105.227 159.75 109.286 158.004C113.344 156.064 115.373 153.251 115.373 149.566C115.373 145.298 112.667 142.097 107.256 139.963C102.038 137.829 93.342 135.501 81.167 132.98C65.5134 129.682 52.4687 126.19 42.0329 122.504C31.5971 118.624 22.5142 112.417 14.784 103.881C7.0538 95.1516 3.1887 83.4153 3.1887 68.6721C3.1887 55.8688 6.76391 44.2295 13.9143 33.7541C21.0648 23.2787 31.6938 15.0341 45.8014 9.02048C60.1022 3.00682 77.3985 0 97.6903 0C111.605 0 125.229 1.55191 138.564 4.65573C152.091 7.56556 163.977 11.9303 174.219 17.75L153.638 67.5082C133.732 57.4208 114.89 52.377 97.1105 52.377C79.5243 52.377 70.7312 56.6448 70.7312 65.1803C70.7312 69.2541 73.3402 72.3579 78.558 74.4918C83.7759 76.4317 92.3758 78.5656 104.358 80.8934C119.818 83.8033 132.863 87.1981 143.492 91.0779C154.121 94.7637 163.3 100.874 171.03 109.41C178.954 117.945 182.916 129.585 182.916 144.328C182.916 157.131 179.34 168.77 172.19 179.246C165.04 189.527 154.314 197.772 140.013 203.98C125.905 209.993 108.706 213 88.414 213Z" fill="url(#paint0_linear)"/>
<path d="M384.449 208.344L383.87 115.52L339.807 190.012H309.66L265.598 118.721V208.344H203.273V4.65573L259.51 4.65573L325.603 113.193L389.957 4.65573L446.194 4.65573L446.774 208.344H384.449Z" fill="url(#paint1_linear)"/>
<path d="M661.026 208.344L660.446 115.52L616.384 190.012H586.237L542.175 118.721V208.344L479.85 208.344V4.65573L536.087 4.65573L602.18 113.193L666.534 4.65573L722.771 4.65573L723.351 208.344H661.026Z" fill="url(#paint2_linear)"/>
<path d="M832.086 213C815.273 213 798.846 211.157 782.806 207.471C766.959 203.592 753.915 198.451 743.672 192.049L765.703 142C775.366 147.626 786.188 152.184 798.17 155.676C810.152 158.974 821.65 160.623 832.666 160.623C842.135 160.623 848.899 159.75 852.958 158.004C857.016 156.064 859.045 153.251 859.045 149.566C859.045 145.298 856.34 142.097 850.928 139.963C845.711 137.829 837.014 135.501 824.839 132.98C809.185 129.682 796.141 126.19 785.705 122.504C775.269 118.624 766.186 112.417 758.456 103.881C750.726 95.1516 746.861 83.4153 746.861 68.6721C746.861 55.8688 750.436 44.2295 757.586 33.7541C764.737 23.2787 775.366 15.0341 789.474 9.02048C803.774 3.00682 821.071 0 841.362 0C855.277 0 868.901 1.55191 882.236 4.65573C895.764 7.56556 907.649 11.9303 917.891 17.75L897.31 67.5082C877.404 57.4208 858.562 52.377 840.783 52.377C823.196 52.377 814.403 56.6448 814.403 65.1803C814.403 69.2541 817.012 72.3579 822.23 74.4918C827.448 76.4317 836.048 78.5656 848.03 80.8934C863.49 83.8033 876.535 87.1981 887.164 91.0779C897.793 94.7637 906.972 100.874 914.703 109.41C922.626 117.945 926.588 129.585 926.588 144.328C926.588 157.131 923.013 168.77 915.862 179.246C908.712 189.527 897.986 197.772 883.685 203.98C869.578 209.993 852.378 213 832.086 213Z" fill="url(#paint3_linear)"/>
<path d="M988.176 57.9057H928.751V4.65573L1116.01 4.65573V57.9057H1056.59V208.344H988.176V57.9057Z" fill="url(#paint4_linear)"/>
<path d="M1228.06 213C1196.95 213 1172.7 204.561 1155.3 187.684C1137.91 170.807 1129.21 147.141 1129.21 116.684V4.65573L1197.63 4.65573V114.648C1197.63 129.585 1200.23 140.448 1205.45 147.238C1210.86 154.027 1218.59 157.422 1228.64 157.422C1238.69 157.422 1246.33 154.027 1251.54 147.238C1256.95 140.448 1259.66 129.585 1259.66 114.648V4.65573L1326.91 4.65573V116.684C1326.91 147.141 1318.22 170.807 1300.82 187.684C1283.43 204.561 1259.18 213 1228.06 213Z" fill="url(#paint5_linear)"/>
<path d="M1358.27 4.65573L1458.28 4.65573C1480.89 4.65573 1500.8 8.8265 1518 17.168C1535.39 25.3156 1548.82 37.0519 1558.29 52.377C1567.95 67.7022 1572.78 85.7432 1572.78 106.5C1572.78 127.257 1567.95 145.298 1558.29 160.623C1548.82 175.948 1535.39 187.781 1518 196.123C1500.8 204.27 1480.89 208.344 1458.28 208.344H1358.27V4.65573ZM1455.38 154.803C1470.07 154.803 1481.76 150.633 1490.46 142.291C1499.35 133.755 1503.79 121.825 1503.79 106.5C1503.79 91.1749 1499.35 79.3415 1490.46 71C1481.76 62.4645 1470.07 58.1967 1455.38 58.1967H1426.68V154.803H1455.38Z" fill="url(#paint6_linear)"/>
<path d="M1597.76 4.65573L1666.18 4.65573V208.344H1597.76V4.65573Z" fill="url(#paint7_linear)"/>
<path d="M1805.5 213C1783.66 213 1764.04 208.441 1746.65 199.324C1729.26 190.206 1715.63 177.597 1705.78 161.496C1695.92 145.201 1690.99 126.869 1690.99 106.5C1690.99 86.1311 1695.92 67.8962 1705.78 51.7951C1715.63 35.5 1729.26 22.7937 1746.65 13.6762C1764.04 4.55874 1783.66 0 1805.5 0C1827.33 0 1846.95 4.55874 1864.34 13.6762C1881.74 22.7937 1895.36 35.5 1905.22 51.7951C1915.07 67.8962 1920 86.1311 1920 106.5C1920 126.869 1915.07 145.201 1905.22 161.496C1895.36 177.597 1881.74 190.206 1864.34 199.324C1846.95 208.441 1827.33 213 1805.5 213ZM1805.5 157.422C1814 157.422 1821.63 155.385 1828.4 151.311C1835.35 147.044 1840.86 141.127 1844.92 133.561C1848.98 125.802 1851.01 116.781 1851.01 106.5C1851.01 96.2186 1848.98 87.2951 1844.92 79.7295C1840.86 71.9699 1835.35 66.0533 1828.4 61.9795C1821.63 57.7117 1814 55.5779 1805.5 55.5779C1796.99 55.5779 1789.26 57.7117 1782.31 61.9795C1775.54 66.0533 1770.13 71.9699 1766.07 79.7295C1762.01 87.2951 1759.99 96.2186 1759.99 106.5C1759.99 116.781 1762.01 125.802 1766.07 133.561C1770.13 141.127 1775.54 147.044 1782.31 151.311C1789.26 155.385 1796.99 157.422 1805.5 157.422Z" fill="url(#paint8_linear)"/>
</g>
<defs>
<linearGradient id="paint0_linear" x1="960" y1="0" x2="960" y2="213" gradientUnits="userSpaceOnUse">
<stop stop-color="white" stop-opacity="0"/>
<stop offset="1" stop-color="white"/>
</linearGradient>
<linearGradient id="paint1_linear" x1="960" y1="0" x2="960" y2="213" gradientUnits="userSpaceOnUse">
<stop stop-color="white" stop-opacity="0"/>
<stop offset="1" stop-color="white"/>
</linearGradient>
<linearGradient id="paint2_linear" x1="960" y1="0" x2="960" y2="213" gradientUnits="userSpaceOnUse">
<stop stop-color="white" stop-opacity="0"/>
<stop offset="1" stop-color="white"/>
</linearGradient>
<linearGradient id="paint3_linear" x1="960" y1="0" x2="960" y2="213" gradientUnits="userSpaceOnUse">
<stop stop-color="white" stop-opacity="0"/>
<stop offset="1" stop-color="white"/>
</linearGradient>
<linearGradient id="paint4_linear" x1="960" y1="0" x2="960" y2="213" gradientUnits="userSpaceOnUse">
<stop stop-color="white" stop-opacity="0"/>
<stop offset="1" stop-color="white"/>
</linearGradient>
<linearGradient id="paint5_linear" x1="960" y1="0" x2="960" y2="213" gradientUnits="userSpaceOnUse">
<stop stop-color="white" stop-opacity="0"/>
<stop offset="1" stop-color="white"/>
</linearGradient>
<linearGradient id="paint6_linear" x1="960" y1="0" x2="960" y2="213" gradientUnits="userSpaceOnUse">
<stop stop-color="white" stop-opacity="0"/>
<stop offset="1" stop-color="white"/>
</linearGradient>
<linearGradient id="paint7_linear" x1="960" y1="0" x2="960" y2="213" gradientUnits="userSpaceOnUse">
<stop stop-color="white" stop-opacity="0"/>
<stop offset="1" stop-color="white"/>
</linearGradient>
<linearGradient id="paint8_linear" x1="960" y1="0" x2="960" y2="213" gradientUnits="userSpaceOnUse">
<stop stop-color="white" stop-opacity="0"/>
<stop offset="1" stop-color="white"/>
</linearGradient>
</defs>
</svg>
