<?xml version="1.0" encoding="UTF-8"?>
<svg xmlns="http://www.w3.org/2000/svg" width="100" height="50" viewBox="0 0 100 50" fill="none">
  <path fill-rule="evenodd" clip-rule="evenodd" d="M37.3809 4.91829e-09H60.7403C61.7755 -5.1758e-05 62.7689 0.408485 63.5046 1.13682C64.2403 1.86515 64.6588 2.85441 64.6692 3.88959V26.9652C64.66 28.0012 64.242 28.9916 63.5062 29.7208C62.7704 30.4501 61.7763 30.8592 60.7403 30.8592H58.7453C59.0331 29.9273 59.1802 28.9577 59.1818 27.9824C59.1269 25.3368 58.0373 22.818 56.1468 20.9664C54.2563 19.1148 51.7155 18.0778 49.0693 18.0778C46.4231 18.0778 43.8823 19.1148 41.9918 20.9664C40.1014 22.818 39.0118 25.3368 38.9568 27.9824C38.9606 28.9575 39.1076 29.9268 39.3934 30.8592H37.3809C36.958 30.8604 36.5378 30.7926 36.1368 30.6584L32.4261 32.5181L34.133 29.161C33.6849 28.5213 33.4441 27.7594 33.4433 26.9783V3.88959C33.4536 2.85441 33.8721 1.86515 34.6078 1.13682C35.3435 0.408485 36.3369 -5.1758e-05 37.3722 4.91829e-09H37.3809ZM86.3391 48.3034C86.3391 48.3646 86.3391 48.4169 86.3391 48.4606C86.3391 48.5042 86.3391 48.5392 86.3391 48.5697C86.3357 48.5974 86.3268 48.6241 86.313 48.6483C86.3 48.6758 86.2805 48.6998 86.2562 48.7182C86.2119 48.7564 86.1618 48.7874 86.1078 48.8098C86.028 48.8484 85.9447 48.8791 85.859 48.9015C85.7554 48.9288 85.6505 48.9507 85.5446 48.967C85.4334 48.9844 85.3211 48.9931 85.2085 48.9932C84.9365 48.9977 84.6659 48.9534 84.4096 48.8622C84.1865 48.7836 83.9868 48.65 83.829 48.4737C83.6634 48.2825 83.5412 48.0576 83.4711 47.8145C83.3858 47.5106 83.3447 47.1959 83.3488 46.8803C83.3464 46.5845 83.3891 46.2901 83.4754 46.0072C83.5508 45.7615 83.6739 45.533 83.8378 45.3349C83.995 45.1447 84.1956 44.995 84.4227 44.8984C84.6757 44.793 84.9476 44.741 85.2216 44.7456C85.3372 44.7465 85.4525 44.7568 85.5665 44.7762C85.6698 44.7942 85.7719 44.819 85.872 44.8504C85.9531 44.8759 86.032 44.908 86.1078 44.9464C86.1583 44.9682 86.2042 44.9993 86.2431 45.0381C86.2656 45.0553 86.2836 45.0778 86.2955 45.1036C86.2991 45.1282 86.2991 45.1532 86.2955 45.1778C86.2983 45.2127 86.2983 45.2477 86.2955 45.2826V45.431C86.3078 45.5105 86.3078 45.5915 86.2955 45.6711C86.2955 45.7191 86.2606 45.7409 86.2257 45.7409C86.1872 45.734 86.1512 45.7175 86.1209 45.6929C85.9806 45.5947 85.8239 45.5222 85.6581 45.479C85.5289 45.4431 85.395 45.427 85.2609 45.431C85.1115 45.4261 84.9627 45.4529 84.8243 45.5096C84.705 45.5625 84.5991 45.6416 84.5144 45.7409C84.4258 45.8402 84.3576 45.9559 84.3136 46.0814C84.2625 46.2223 84.2287 46.3689 84.2132 46.518H85.9026C85.9199 46.514 85.9378 46.514 85.955 46.518C85.9702 46.5338 85.9834 46.5514 85.9943 46.5704C86.0054 46.6044 86.0127 46.6395 86.0161 46.6751C86.0189 46.7246 86.0189 46.7741 86.0161 46.8236C86.0188 46.873 86.0188 46.9225 86.0161 46.972C86.0128 47.0062 86.0055 47.0399 85.9943 47.0724C85.9844 47.0933 85.9711 47.1125 85.955 47.1291C85.9377 47.1329 85.9199 47.1329 85.9026 47.1291H84.2132C84.2231 47.2925 84.2539 47.4538 84.3049 47.6093C84.3465 47.7447 84.4164 47.8697 84.51 47.976C84.5996 48.0807 84.7135 48.1616 84.8418 48.2118C84.9917 48.2712 85.1521 48.2995 85.3133 48.2947C85.4386 48.2965 85.5636 48.2804 85.6843 48.2467C85.7764 48.2209 85.8656 48.1858 85.9506 48.1419C86.0123 48.1105 86.072 48.0755 86.1296 48.0371C86.1614 48.0122 86.1989 47.9957 86.2387 47.9891H86.2737C86.2737 47.9891 86.2737 47.9891 86.3042 48.0328C86.3082 48.0632 86.3082 48.094 86.3042 48.1245C86.3094 48.1738 86.3094 48.2235 86.3042 48.2729L86.3391 48.3034ZM83.1262 48.609C83.1482 48.6684 83.1643 48.7298 83.1742 48.7924C83.1791 48.8096 83.1797 48.8278 83.1759 48.8453C83.1721 48.8628 83.164 48.8791 83.1524 48.8928C83.1153 48.9187 83.071 48.9324 83.0258 48.9321H82.7857H82.5325C82.4877 48.9391 82.442 48.9391 82.3972 48.9321C82.3716 48.9266 82.3486 48.9128 82.3317 48.8928C82.3166 48.873 82.3048 48.8508 82.2968 48.8273L82.0305 48.0066H80.4895L80.2319 48.8055C80.2267 48.8327 80.2147 48.8582 80.197 48.8797C80.1808 48.9022 80.1579 48.919 80.1315 48.9277C80.0895 48.9338 80.0469 48.9338 80.0049 48.9277H79.7823H79.5553C79.513 48.9253 79.4729 48.9083 79.4418 48.8797C79.4347 48.8639 79.431 48.8468 79.431 48.8295C79.431 48.8122 79.4347 48.795 79.4418 48.7793C79.4528 48.7184 79.4689 48.6585 79.4898 48.6003L80.747 44.9639C80.7589 44.9335 80.7735 44.9043 80.7907 44.8766C80.8118 44.8513 80.8412 44.8343 80.8736 44.8286C80.9231 44.8129 80.9745 44.8041 81.0264 44.8024H81.5808C81.6398 44.8045 81.6984 44.8133 81.7555 44.8286C81.7903 44.834 81.8216 44.8528 81.8428 44.8809C81.8642 44.9077 81.8791 44.9391 81.8864 44.9726L83.148 48.609H83.1262ZM81.2534 45.6012L80.6859 47.3474H81.834L81.2534 45.6012ZM79.1362 48.609C79.1647 48.6655 79.1895 48.7239 79.2104 48.7836C79.2192 48.7997 79.2238 48.8177 79.2238 48.836C79.2238 48.8543 79.2192 48.8723 79.2104 48.8884C79.17 48.9148 79.1233 48.9298 79.0751 48.9321H78.7957H78.5643H78.429L78.3592 48.8928C78.3441 48.873 78.3323 48.8508 78.3242 48.8273L77.5515 47.3474L76.792 48.8273C76.7826 48.8525 76.7675 48.8751 76.7478 48.8933C76.7281 48.9115 76.7043 48.9248 76.6785 48.9321H76.5431H76.3118H76.0586C76.0143 48.9302 75.9717 48.915 75.9363 48.8884C75.9276 48.8723 75.9229 48.8543 75.9229 48.836C75.9229 48.8177 75.9276 48.7997 75.9363 48.7836C75.9572 48.7232 75.9835 48.6647 76.0149 48.609L76.9928 46.8192L76.0848 45.1385C76.0537 45.0796 76.0275 45.0183 76.0062 44.9552C75.996 44.9396 75.9906 44.9214 75.9906 44.9028C75.9906 44.8842 75.996 44.866 76.0062 44.8504C76.0452 44.8251 76.0907 44.8115 76.1372 44.8111H76.4165H76.6523C76.6972 44.8048 76.7427 44.8048 76.7876 44.8111C76.816 44.8157 76.8421 44.8295 76.8618 44.8504C76.8779 44.8687 76.8911 44.8893 76.9011 44.9115L77.6083 46.2735L78.3024 44.9159C78.3124 44.8937 78.3256 44.8731 78.3417 44.8547C78.3586 44.8347 78.3816 44.8209 78.4072 44.8155C78.4492 44.8093 78.4918 44.8093 78.5338 44.8155H78.7564H79.0052C79.0511 44.8154 79.0957 44.8308 79.1318 44.8591C79.1411 44.8742 79.146 44.8916 79.146 44.9093C79.146 44.927 79.1411 44.9444 79.1318 44.9595C79.1124 45.022 79.0891 45.0833 79.062 45.1429L78.1496 46.8105L79.1231 48.6134L79.1362 48.609ZM75.3295 48.8142C75.3359 48.8326 75.3359 48.8526 75.3295 48.8709L75.2597 48.9102C75.2176 48.9142 75.1752 48.9142 75.1331 48.9102H74.9323H74.7315C74.6894 48.9142 74.647 48.9142 74.6049 48.9102C74.5809 48.9012 74.5587 48.8879 74.5394 48.8709C74.5331 48.8526 74.5331 48.8326 74.5394 48.8142V46.6533C74.5394 46.5704 74.5394 46.4918 74.5394 46.4132C74.5394 46.3346 74.5394 46.2604 74.5394 46.1993L74.4827 46.3041L74.4041 46.4263L74.3211 46.5616L74.2338 46.6926L72.8063 48.8186L72.7539 48.8753C72.7346 48.8944 72.7105 48.9079 72.6841 48.9146C72.6494 48.9205 72.614 48.9205 72.5793 48.9146H72.4222H72.2214C72.1822 48.9182 72.1427 48.9182 72.1035 48.9146C72.0806 48.906 72.0609 48.8908 72.0467 48.8709C72.0418 48.8509 72.0418 48.8299 72.0467 48.8098V44.9333C72.0468 44.9137 72.0546 44.8948 72.0686 44.8809C72.0873 44.8601 72.1115 44.845 72.1384 44.8373C72.1805 44.8333 72.2229 44.8333 72.265 44.8373H72.4658H72.6623C72.7044 44.8329 72.7468 44.8329 72.7889 44.8373C72.8152 44.8436 72.8384 44.859 72.8544 44.8809C72.8603 44.8979 72.8603 44.9164 72.8544 44.9333V47.116C72.8544 47.1815 72.8544 47.2557 72.8544 47.3299C72.8544 47.4042 72.8544 47.4827 72.8544 47.5526C72.8936 47.4915 72.9373 47.4129 72.994 47.3256C73.0508 47.2383 73.1032 47.151 73.1643 47.0637L74.5831 44.9421L74.6311 44.8853C74.6504 44.8662 74.6746 44.8527 74.7009 44.846C74.7357 44.8422 74.7709 44.8422 74.8057 44.846H74.9672H75.1593C75.1998 44.8476 75.2398 44.8564 75.2772 44.8722C75.2895 44.8742 75.3013 44.8788 75.3118 44.8855C75.3223 44.8923 75.3313 44.9011 75.3383 44.9115C75.3453 44.9298 75.3453 44.95 75.3383 44.9683V48.8491L75.3295 48.8142ZM71.4269 49.8837C71.4319 49.9008 71.4319 49.919 71.4269 49.9361C71.4122 49.9536 71.3923 49.9659 71.3701 49.971C71.3339 49.9858 71.2956 49.9947 71.2566 49.9972H70.903C70.8655 49.9942 70.8287 49.9854 70.7939 49.971C70.7701 49.9668 70.7485 49.9544 70.7328 49.9361C70.7277 49.919 70.7277 49.9008 70.7328 49.8837V48.919H68.0044V49.8837C68.0112 49.9005 68.0112 49.9193 68.0044 49.9361C67.9886 49.9544 67.967 49.9668 67.9432 49.971C67.9072 49.9863 67.8688 49.9952 67.8297 49.9972H67.4761C67.4385 49.9948 67.4016 49.9859 67.367 49.971C67.3365 49.971 67.3146 49.971 67.3059 49.9361C67.3008 49.919 67.3008 49.9008 67.3059 49.8837V48.4126C67.3013 48.3898 67.3016 48.3664 67.3069 48.3438C67.3122 48.3212 67.3223 48.3 67.3365 48.2816C67.3515 48.2659 67.37 48.2538 67.3904 48.2462C67.4108 48.2387 67.4327 48.2359 67.4543 48.238H67.6464L67.7905 48.0197C67.8393 47.932 67.883 47.8417 67.9214 47.749C67.9607 47.6443 68.0044 47.5177 68.0437 47.3736C68.0937 47.1998 68.1345 47.0235 68.1659 46.8454C68.2052 46.6358 68.2445 46.4088 68.2881 46.1033C68.3318 45.7977 68.3711 45.479 68.4147 45.0948C68.4217 45.0213 68.4472 44.9507 68.4889 44.8897C68.5097 44.8667 68.5354 44.8489 68.5642 44.8375C68.593 44.8261 68.624 44.8216 68.6548 44.8242H70.7415C70.7735 44.8227 70.8055 44.8277 70.8355 44.8389C70.8656 44.8502 70.893 44.8675 70.9161 44.8897C70.9603 44.9452 70.9821 45.0153 70.9772 45.0861V48.2423H71.3265C71.3482 48.2395 71.3702 48.242 71.3908 48.2496C71.4113 48.2572 71.4297 48.2697 71.4443 48.286C71.4687 48.3236 71.4809 48.3678 71.4792 48.4126V49.8837H71.4269ZM70.1172 45.5183H69.1612C69.1263 45.837 69.087 46.1207 69.0477 46.3652C69.0084 46.6096 68.9735 46.8017 68.9386 47.0025C68.9036 47.2033 68.8644 47.3474 68.8251 47.4784C68.7951 47.5963 68.7557 47.7117 68.7072 47.8232C68.6749 47.9093 68.6354 47.9925 68.5893 48.0721C68.5457 48.1419 68.502 48.203 68.4584 48.2641H70.1172V45.5183ZM67.1051 48.6308C67.1051 48.7094 67.1444 48.7705 67.1531 48.8142C67.1564 48.8318 67.1557 48.85 67.1512 48.8673C67.1467 48.8847 67.1384 48.9008 67.1269 48.9146C67.0916 48.9407 67.0486 48.9545 67.0047 48.9539H66.7602H66.5114C66.4651 48.9606 66.418 48.9606 66.3717 48.9539C66.3461 48.9484 66.3231 48.9346 66.3062 48.9146C66.2926 48.8945 66.2823 48.8724 66.2757 48.8491L66.005 48.0284H64.464L64.2064 48.8273C64.2006 48.8536 64.1902 48.8787 64.1759 48.9015C64.1597 48.924 64.1368 48.9409 64.1104 48.9495C64.067 48.9561 64.0228 48.9561 63.9794 48.9495H63.7612H63.5342C63.4915 48.9491 63.4507 48.9319 63.4207 48.9015C63.4126 48.886 63.4084 48.8688 63.4084 48.8513C63.4084 48.8338 63.4126 48.8166 63.4207 48.8011C63.4299 48.7403 63.4445 48.6804 63.4643 48.6221L64.6866 44.9639C64.6949 44.9321 64.7098 44.9023 64.7303 44.8766C64.7505 44.8524 64.7781 44.8355 64.8089 44.8286C64.8585 44.8133 64.9098 44.8045 64.9617 44.8024H65.5161C65.5751 44.8041 65.6337 44.8129 65.6907 44.8286C65.7255 44.834 65.7568 44.8528 65.778 44.8809C65.7992 44.9085 65.8155 44.9395 65.826 44.9726L67.0876 48.609L67.1051 48.6308ZM65.228 45.6231L64.6561 47.3692H65.8042L65.228 45.6231ZM62.8663 48.8273C62.8726 48.8472 62.8726 48.8685 62.8663 48.8884C62.8463 48.9067 62.8224 48.9202 62.7964 48.9277L62.6698 48.9539H62.4734H62.2726L62.146 48.9277C62.1212 48.9203 62.0986 48.9068 62.0805 48.8884C62.0727 48.8688 62.0727 48.8469 62.0805 48.8273V47.1466H60.5482V48.8011C60.5546 48.821 60.5546 48.8423 60.5482 48.8622C60.5301 48.8806 60.5075 48.8942 60.4827 48.9015L60.3561 48.9277H60.1553H59.9545L59.8279 48.9015C59.8019 48.894 59.778 48.8805 59.7581 48.8622C59.7517 48.8423 59.7517 48.821 59.7581 48.8011V44.9333C59.7518 44.9149 59.7518 44.895 59.7581 44.8766C59.7775 44.8567 59.8015 44.8417 59.8279 44.8329C59.87 44.829 59.9124 44.829 59.9545 44.8329C60.0213 44.8275 60.0885 44.8275 60.1553 44.8329C60.2222 44.8278 60.2893 44.8278 60.3561 44.8329C60.3983 44.8294 60.4406 44.8294 60.4827 44.8329C60.5079 44.8417 60.5304 44.8567 60.5482 44.8766C60.5545 44.895 60.5545 44.9149 60.5482 44.9333V46.4394H62.0805V44.9333C62.073 44.9152 62.073 44.8947 62.0805 44.8766C62.0983 44.8567 62.1208 44.8417 62.146 44.8329C62.188 44.8286 62.2305 44.8286 62.2726 44.8329C62.3394 44.8275 62.4065 44.8275 62.4734 44.8329C62.5387 44.8275 62.6044 44.8275 62.6698 44.8329C62.7119 44.829 62.7543 44.829 62.7964 44.8329C62.8228 44.8417 62.8468 44.8567 62.8663 44.8766C62.8726 44.895 62.8726 44.9149 62.8663 44.9333V48.8273ZM57.5186 46.8454C57.5244 47.1543 57.4816 47.4621 57.392 47.7578C57.3186 48.0096 57.1904 48.2422 57.0166 48.4388C56.8497 48.6318 56.6385 48.7816 56.4011 48.8753C56.1297 48.9798 55.8405 49.0302 55.5498 49.0237C55.2682 49.0287 54.9877 48.9859 54.7204 48.8971C54.4942 48.8213 54.2903 48.6909 54.1267 48.5173C53.9606 48.3288 53.8397 48.1048 53.7731 47.8625C53.6892 47.5584 53.6495 47.2438 53.6552 46.9283C53.6497 46.6252 53.6924 46.3231 53.7818 46.0334C53.8571 45.7836 53.9852 45.5529 54.1572 45.3568C54.3252 45.1648 54.5361 45.0153 54.7728 44.9202C55.0507 44.8115 55.3475 44.7596 55.6458 44.7674C55.9231 44.7634 56.1991 44.8062 56.4622 44.894C56.6899 44.9665 56.8946 45.0975 57.0559 45.2738C57.2232 45.4588 57.3457 45.6799 57.4138 45.9199C57.5013 46.2189 57.5425 46.5295 57.5361 46.841L57.5186 46.8454ZM56.6455 46.889C56.6462 46.6916 56.6301 46.4944 56.5975 46.2997C56.5675 46.1451 56.5098 45.9973 56.4273 45.8632C56.346 45.7399 56.2349 45.6393 56.1042 45.5707C55.9461 45.496 55.7725 45.4601 55.5978 45.4659C55.4201 45.4593 55.2439 45.5 55.0871 45.5838C54.9528 45.6584 54.8389 45.7648 54.7553 45.8937C54.6691 46.0264 54.6098 46.1747 54.5807 46.3303C54.5449 46.5099 54.5274 46.6927 54.5283 46.8759C54.5273 47.0777 54.5434 47.2793 54.5763 47.4784C54.6048 47.6402 54.6625 47.7956 54.7466 47.9367C54.8252 48.0621 54.937 48.1634 55.0696 48.2292C55.229 48.2991 55.4021 48.3319 55.576 48.3253C55.7533 48.3332 55.9295 48.2941 56.0868 48.2118C56.2219 48.1384 56.3361 48.0317 56.4185 47.9018C56.506 47.7614 56.5667 47.606 56.5975 47.4434C56.6298 47.2604 56.6459 47.0749 56.6455 46.889ZM53.3933 49.9055C53.4001 49.9223 53.4001 49.9411 53.3933 49.9579C53.3791 49.9768 53.3592 49.9906 53.3365 49.9972C53.2988 50.0009 53.2608 50.0009 53.223 49.9972H52.8651C52.8277 49.9932 52.791 49.9844 52.7559 49.971C52.7339 49.9653 52.7142 49.9532 52.6992 49.9361C52.6924 49.9193 52.6924 49.9005 52.6992 49.8837V48.919H48.2159C48.1832 48.9206 48.1505 48.9156 48.1198 48.9044C48.089 48.8931 48.0608 48.8758 48.0369 48.8535C48.0132 48.8269 47.9952 48.7958 47.9839 48.762C47.9727 48.7282 47.9684 48.6925 47.9714 48.657V44.9246C47.9651 44.9077 47.9651 44.8891 47.9714 44.8722C47.9883 44.8522 48.0113 44.8384 48.0369 44.8329C48.079 44.829 48.1214 44.829 48.1635 44.8329H48.3556H48.552C48.5927 44.8289 48.6336 44.8289 48.6743 44.8329C48.7002 44.8381 48.7244 44.8502 48.7441 44.8678C48.7501 44.8863 48.7501 44.9062 48.7441 44.9246V48.238H49.9795V44.9246C49.9732 44.9062 49.9732 44.8862 49.9795 44.8678C49.9999 44.8511 50.0238 44.8391 50.0494 44.8329C50.09 44.8289 50.131 44.8289 50.1716 44.8329H50.3637H50.5558C50.5979 44.8294 50.6402 44.8294 50.6824 44.8329C50.7067 44.839 50.7292 44.851 50.7478 44.8678C50.7538 44.8863 50.7538 44.9062 50.7478 44.9246V48.238H51.9833V44.9246C51.9769 44.9062 51.9769 44.8862 51.9833 44.8678C52.0041 44.8519 52.0278 44.8401 52.0531 44.8329H52.1753H52.3718H52.5639H52.6861C52.7117 44.8391 52.7356 44.8511 52.7559 44.8678C52.7619 44.8863 52.7619 44.9062 52.7559 44.9246V48.238H53.1008C53.1221 48.2364 53.1434 48.2391 53.1637 48.2458C53.1839 48.2526 53.2026 48.2632 53.2187 48.2772C53.2448 48.3157 53.2571 48.3619 53.2536 48.4082V49.8837L53.3933 49.9055ZM45.7407 48.3384C45.7454 48.4154 45.7454 48.4927 45.7407 48.5697C45.7334 48.6352 45.7188 48.6996 45.697 48.7618C45.6572 48.8909 45.5952 49.012 45.5137 49.1198L45.0771 49.7309C45.0646 49.7513 45.0483 49.7691 45.0291 49.7833C45.0104 49.8 44.9879 49.812 44.9636 49.8182H44.872H44.7366H44.5882C44.5608 49.8235 44.5327 49.8235 44.5053 49.8182C44.4976 49.8138 44.4911 49.8074 44.4865 49.7998C44.4819 49.7922 44.4794 49.7835 44.4791 49.7746C44.4713 49.755 44.4713 49.7331 44.4791 49.7135L44.8676 48.8404V48.3384C44.8595 48.2804 44.8595 48.2217 44.8676 48.1637C44.8839 48.1223 44.9129 48.0871 44.9506 48.0633C44.9918 48.0381 45.0379 48.0218 45.0859 48.0153H45.2823H45.4744C45.5208 48.0226 45.5653 48.0389 45.6054 48.0633C45.6416 48.0865 45.6681 48.1223 45.6796 48.1637C45.6988 48.2199 45.7077 48.279 45.7058 48.3384H45.7407ZM44.2084 48.609C44.2274 48.669 44.242 48.7303 44.2521 48.7924C44.2601 48.8079 44.2643 48.8251 44.2643 48.8426C44.2643 48.86 44.2601 48.8773 44.2521 48.8928C44.215 48.9187 44.1707 48.9324 44.1255 48.9321H43.8854H43.6322C43.5874 48.9391 43.5417 48.9391 43.4969 48.9321C43.4713 48.9266 43.4482 48.9128 43.4314 48.8928C43.4163 48.873 43.4045 48.8508 43.3965 48.8273L43.1302 48.0066H41.5543L41.2967 48.8055C41.2914 48.8327 41.2794 48.8582 41.2618 48.8797C41.2456 48.9022 41.2226 48.919 41.1963 48.9277C41.1543 48.9338 41.1117 48.9338 41.0697 48.9277H40.8471H40.62C40.5779 48.93 40.5363 48.9176 40.5022 48.8928C40.4951 48.877 40.4914 48.8599 40.4914 48.8426C40.4914 48.8253 40.4951 48.8081 40.5022 48.7924C40.5132 48.7315 40.5293 48.6716 40.5502 48.6134L41.8118 44.9639C41.8237 44.9335 41.8383 44.9043 41.8555 44.8766C41.8766 44.8513 41.906 44.8343 41.9384 44.8286C41.9879 44.8129 42.0393 44.8041 42.0912 44.8024H42.6456C42.7046 44.8045 42.7632 44.8133 42.8202 44.8286C42.855 44.834 42.8864 44.8528 42.9075 44.8809C42.9272 44.9088 42.9419 44.9398 42.9512 44.9726L44.2128 48.609H44.2084ZM42.3313 45.6012L41.7638 47.3474H42.9119L42.3313 45.6012ZM40.249 48.8098C40.2551 48.8297 40.2551 48.851 40.249 48.8709C40.2297 48.8879 40.2075 48.9012 40.1835 48.9102H40.0525H39.8386H39.6204C39.5743 48.9079 39.5287 48.8991 39.485 48.884C39.4543 48.8771 39.4267 48.8602 39.4065 48.836C39.3906 48.8135 39.3788 48.7884 39.3715 48.7618L39.0441 47.8494C39.0047 47.7332 38.955 47.6207 38.8957 47.5133C38.8522 47.4323 38.7963 47.3586 38.7298 47.295C38.6705 47.2393 38.5986 47.1989 38.5203 47.1772C38.435 47.1537 38.3468 47.1419 38.2584 47.1422H38.0706V48.7836C38.0776 48.8034 38.0776 48.825 38.0706 48.8447C38.0513 48.8617 38.0292 48.875 38.0052 48.884C37.9644 48.8987 37.9218 48.9075 37.8786 48.9102H37.6778H37.4769C37.4337 48.9078 37.391 48.899 37.3503 48.884C37.3251 48.8748 37.3015 48.8615 37.2805 48.8447C37.2735 48.825 37.2735 48.8034 37.2805 48.7836V44.9115C37.2734 44.8932 37.2734 44.873 37.2805 44.8547C37.3 44.8348 37.3239 44.8199 37.3503 44.8111C37.3925 44.8071 37.4348 44.8071 37.4769 44.8111H37.6778H37.8786C37.9207 44.8075 37.963 44.8075 38.0052 44.8111C38.0303 44.8199 38.0529 44.8349 38.0706 44.8547C38.0777 44.873 38.0777 44.8932 38.0706 44.9115V46.4481H38.2584C38.343 46.45 38.4273 46.4367 38.5072 46.4088C38.5796 46.3825 38.6463 46.3425 38.7036 46.291C38.7659 46.2275 38.8188 46.1555 38.8608 46.0771C38.9152 45.9715 38.9619 45.862 39.0005 45.7497L39.2362 44.9639C39.2465 44.9378 39.2597 44.9129 39.2755 44.8897C39.293 44.8666 39.3175 44.8498 39.3453 44.8417C39.3876 44.827 39.4317 44.8182 39.4763 44.8155H39.6902H39.8954C39.9375 44.8115 39.9799 44.8115 40.022 44.8155C40.0464 44.8209 40.0681 44.8348 40.0831 44.8547C40.0881 44.8733 40.0881 44.8929 40.0831 44.9115C40.0866 44.9449 40.0866 44.9785 40.0831 45.0119C40.0707 45.0653 40.0546 45.1178 40.0351 45.1691L39.7601 45.8981C39.7248 46.026 39.6811 46.1514 39.6291 46.2735C39.5859 46.3606 39.5332 46.4426 39.4719 46.518C39.42 46.5798 39.3598 46.6342 39.293 46.6795C39.2288 46.7221 39.16 46.7573 39.0878 46.7843C39.1662 46.8196 39.2421 46.8605 39.3148 46.9065C39.3874 46.9562 39.4534 47.0149 39.5112 47.0811C39.5764 47.1611 39.6334 47.2474 39.6815 47.3387C39.7464 47.4584 39.8033 47.5824 39.8517 47.7097L40.1835 48.561C40.2092 48.6187 40.2296 48.6786 40.2446 48.74C40.2483 48.7675 40.2483 48.7954 40.2446 48.8229L40.249 48.8098ZM36.6388 47.5831C36.6403 47.7658 36.6108 47.9473 36.5515 48.1201C36.496 48.2865 36.4 48.4366 36.2721 48.5566C36.1248 48.6873 35.9525 48.7868 35.7657 48.8491C35.4823 48.9317 35.1876 48.9686 34.8926 48.9582H33.8886C33.8554 48.9648 33.8213 48.9648 33.7882 48.9582C33.7583 48.9492 33.7313 48.9327 33.7096 48.9102C33.6845 48.8891 33.665 48.8621 33.6528 48.8317C33.6381 48.7926 33.6307 48.7512 33.631 48.7094V44.9813C33.6315 44.9618 33.6393 44.9431 33.6528 44.929C33.6708 44.9081 33.6955 44.8942 33.7227 44.8897C33.7633 44.8747 33.806 44.8659 33.8493 44.8635H34.0501H34.2465C34.2899 44.8652 34.3326 44.8741 34.3731 44.8897C34.3861 44.8914 34.3987 44.8958 34.4099 44.9025C34.4212 44.9093 34.431 44.9183 34.4386 44.929C34.4446 44.9459 34.4446 44.9644 34.4386 44.9813V46.3783H35.0105C35.259 46.3724 35.5072 46.4003 35.7482 46.4612C35.9195 46.5063 36.0789 46.5883 36.2153 46.7013C36.3425 46.8066 36.444 46.9395 36.5122 47.0898C36.5845 47.2549 36.6202 47.4336 36.617 47.6137L36.6388 47.5831ZM35.7875 47.653C35.788 47.5592 35.7717 47.4661 35.7395 47.378C35.7106 47.3002 35.6643 47.23 35.6042 47.1728C35.5362 47.1122 35.4557 47.0675 35.3684 47.0418C35.2258 47.0063 35.0788 46.9916 34.9319 46.9982H34.4517V48.3078H34.9581C35.1057 48.3127 35.2532 48.2935 35.3946 48.251C35.4824 48.2185 35.5616 48.1662 35.626 48.0983C35.6792 48.0388 35.7193 47.9689 35.7439 47.8931C35.7679 47.8198 35.7797 47.7432 35.7788 47.6661L35.7875 47.653ZM33.0373 48.3253C33.0373 48.3776 33.0373 48.4213 33.0373 48.4606C33.0402 48.4911 33.0402 48.5218 33.0373 48.5523C33.0333 48.5765 33.026 48.6 33.0155 48.6221L32.9631 48.6876C32.9209 48.7223 32.8756 48.753 32.8278 48.7793C32.7505 48.8214 32.6702 48.8579 32.5877 48.8884C32.4805 48.9233 32.3711 48.951 32.2603 48.9713C32.128 48.9969 31.9934 49.0086 31.8586 49.0063C31.6014 49.0095 31.3456 48.9666 31.1034 48.8797C30.8724 48.7896 30.6671 48.6442 30.5054 48.4562C30.3398 48.2693 30.2162 48.0489 30.143 47.8101C29.9657 47.2148 29.9657 46.5807 30.143 45.9854C30.2243 45.7341 30.3566 45.5023 30.5315 45.3044C30.6937 45.1138 30.8987 44.9642 31.1296 44.8678C31.3737 44.7695 31.6348 44.7206 31.8979 44.7238C32.0078 44.7227 32.1175 44.733 32.2253 44.7543C32.3246 44.7713 32.4224 44.7961 32.5178 44.8286C32.6004 44.8574 32.6806 44.8924 32.7579 44.9333C32.8124 44.9605 32.8625 44.9958 32.9063 45.0381C32.9295 45.0588 32.95 45.0823 32.9675 45.1079C32.9705 45.1326 32.9705 45.1575 32.9675 45.1822C32.9706 45.217 32.9706 45.2521 32.9675 45.2869C32.9675 45.3262 32.9675 45.3742 32.9675 45.4354C32.9701 45.4877 32.9701 45.5402 32.9675 45.5925C32.9645 45.6296 32.9571 45.6662 32.9456 45.7016C32.9386 45.7243 32.9267 45.7452 32.9107 45.7628C32.8937 45.7684 32.8753 45.7684 32.8583 45.7628C32.8139 45.7572 32.7725 45.7373 32.7405 45.706L32.5527 45.5838C32.4651 45.5346 32.373 45.4937 32.2777 45.4615C32.155 45.4224 32.0268 45.4032 31.8979 45.4048C31.7464 45.4022 31.5965 45.4367 31.4614 45.5052C31.3321 45.5737 31.2202 45.6708 31.134 45.7889C31.0419 45.9215 30.9739 46.0693 30.9332 46.2255C30.8837 46.4179 30.8602 46.6161 30.8633 46.8148C30.8603 47.0253 30.8852 47.2352 30.9375 47.4391C30.9769 47.5974 31.0482 47.7459 31.1471 47.8756C31.2356 47.9856 31.3494 48.0725 31.4788 48.1288C31.6171 48.1864 31.7657 48.2146 31.9154 48.2118C32.044 48.2146 32.1722 48.1969 32.2952 48.1594C32.3913 48.1335 32.4838 48.0953 32.5702 48.0459C32.6366 48.0122 32.7007 47.9743 32.7623 47.9324C32.7956 47.9073 32.8346 47.8908 32.8758 47.8844H32.9238C32.9398 47.8985 32.9519 47.9165 32.9587 47.9367C32.9623 47.9716 32.9623 48.0067 32.9587 48.0415C32.9587 48.0895 32.9587 48.1506 32.9587 48.2249L33.0373 48.3253ZM29.318 48.8273C29.3243 48.8472 29.3243 48.8685 29.318 48.8884C29.298 48.9067 29.2741 48.9202 29.2481 48.9277L29.1215 48.9539H28.9251H28.7243L28.5977 48.9277C28.5729 48.9203 28.5503 48.9068 28.5322 48.8884C28.5244 48.8688 28.5244 48.8469 28.5322 48.8273V47.1466H26.9694V48.8011C26.9757 48.821 26.9757 48.8423 26.9694 48.8622C26.9512 48.8806 26.9287 48.8942 26.9039 48.9015L26.7773 48.9277H26.5765H26.3757L26.2491 48.9015C26.2231 48.894 26.1991 48.8805 26.1792 48.8622C26.1729 48.8423 26.1729 48.821 26.1792 48.8011V44.9333C26.1729 44.9149 26.1729 44.895 26.1792 44.8766C26.1987 44.8567 26.2226 44.8417 26.2491 44.8329C26.2912 44.829 26.3336 44.829 26.3757 44.8329C26.4425 44.8275 26.5096 44.8275 26.5765 44.8329C26.6433 44.8278 26.7104 44.8278 26.7773 44.8329C26.8194 44.8294 26.8618 44.8294 26.9039 44.8329C26.9291 44.8417 26.9516 44.8567 26.9694 44.8766C26.9757 44.895 26.9757 44.9149 26.9694 44.9333V46.4394H28.5016V44.9333C28.4941 44.9152 28.4941 44.8947 28.5016 44.8766C28.5194 44.8567 28.5419 44.8417 28.5671 44.8329C28.6092 44.8286 28.6516 44.8286 28.6937 44.8329C28.7605 44.8275 28.8277 44.8275 28.8945 44.8329C28.9599 44.8275 29.0256 44.8275 29.091 44.8329C29.1331 44.829 29.1755 44.829 29.2176 44.8329C29.244 44.8417 29.2679 44.8567 29.2874 44.8766C29.2937 44.895 29.2937 44.9149 29.2874 44.9333L29.318 48.8273ZM25.5593 48.6308C25.5814 48.6902 25.5975 48.7516 25.6073 48.8142C25.6122 48.8314 25.6128 48.8496 25.609 48.8671C25.6052 48.8846 25.5971 48.9009 25.5855 48.9146C25.5484 48.9405 25.5042 48.9542 25.4589 48.9539H25.2188H24.9656C24.9208 48.9609 24.8751 48.9609 24.8303 48.9539C24.8193 48.9472 24.8098 48.9383 24.8023 48.9278C24.7948 48.9173 24.7894 48.9054 24.7866 48.8928C24.7716 48.873 24.7598 48.8508 24.7517 48.8273L24.4854 48.0066H22.9226L22.6651 48.8055C22.6598 48.8327 22.6478 48.8582 22.6301 48.8797C22.6139 48.9022 22.591 48.919 22.5646 48.9277C22.5227 48.9338 22.48 48.9338 22.4381 48.9277H22.2154H21.9884C21.9462 48.9253 21.9061 48.9083 21.8749 48.8797C21.8678 48.8639 21.8641 48.8468 21.8641 48.8295C21.8641 48.8122 21.8678 48.795 21.8749 48.7793C21.886 48.7184 21.902 48.6585 21.9229 48.6003L23.1583 44.9639C23.1685 44.9328 23.1832 44.9033 23.202 44.8766C23.2231 44.8513 23.2525 44.8343 23.2849 44.8286C23.3344 44.8129 23.3858 44.8041 23.4377 44.8024H23.9921C24.0498 44.804 24.1069 44.8128 24.1624 44.8286C24.1804 44.8307 24.1978 44.8364 24.2135 44.8454C24.2293 44.8544 24.2431 44.8665 24.2541 44.8809C24.2737 44.9088 24.2885 44.9398 24.2977 44.9726L25.5593 48.609V48.6308ZM23.6866 45.6231L23.1191 47.3692H24.2628L23.6866 45.6231ZM21.3249 48.836C21.3312 48.8544 21.3312 48.8744 21.3249 48.8928C21.3056 48.9097 21.2834 48.923 21.2594 48.9321C21.2158 48.936 21.172 48.936 21.1284 48.9321H20.932H20.7312C20.6891 48.9364 20.6467 48.9364 20.6046 48.9321C20.5788 48.9239 20.5551 48.9105 20.5347 48.8928C20.5284 48.8744 20.5284 48.8544 20.5347 48.836V45.5401H19.0068V48.836C19.0143 48.8542 19.0143 48.8746 19.0068 48.8928C18.9875 48.9097 18.9654 48.923 18.9413 48.9321C18.8992 48.936 18.8569 48.936 18.8147 48.9321H18.6139H18.4131C18.371 48.936 18.3286 48.936 18.2865 48.9321C18.2625 48.923 18.2403 48.9097 18.221 48.8928C18.2147 48.8744 18.2147 48.8544 18.221 48.836V45.1079C18.2183 45.0725 18.2227 45.0368 18.2339 45.0031C18.2452 44.9694 18.2631 44.9382 18.2865 44.9115C18.3097 44.8893 18.3371 44.872 18.3671 44.8608C18.3971 44.8495 18.4291 44.8445 18.4611 44.846H21.159C21.1917 44.8439 21.2246 44.8486 21.2554 44.8599C21.2862 44.8711 21.3143 44.8887 21.338 44.9115C21.3822 44.967 21.404 45.0371 21.3991 45.1079V48.836H21.3249ZM17.5488 48.3253C17.5488 48.3776 17.5488 48.4213 17.5488 48.4606C17.5516 48.4911 17.5516 48.5218 17.5488 48.5523C17.5519 48.5754 17.5519 48.5989 17.5488 48.6221L17.4964 48.6876C17.4551 48.7235 17.4097 48.7543 17.3611 48.7793C17.2838 48.8214 17.2035 48.8579 17.121 48.8884C17.0138 48.9233 16.9044 48.951 16.7936 48.9713C16.6613 48.9969 16.5267 49.0086 16.3919 49.0063C16.1347 49.0095 15.8789 48.9666 15.6367 48.8797C15.3978 48.7928 15.1847 48.6472 15.0168 48.4562C14.8512 48.2693 14.7277 48.0489 14.6545 47.8101C14.4771 47.2148 14.4771 46.5807 14.6545 45.9854C14.7358 45.7341 14.8681 45.5023 15.043 45.3044C15.2052 45.1138 15.4101 44.9642 15.6411 44.8678C15.8851 44.7695 16.1463 44.7206 16.4094 44.7238C16.5193 44.7227 16.629 44.733 16.7368 44.7543C16.8361 44.7713 16.9339 44.7961 17.0293 44.8286C17.1122 44.8565 17.1925 44.8916 17.2694 44.9333C17.3239 44.9605 17.374 44.9958 17.4178 45.0381C17.441 45.0588 17.4615 45.0823 17.4789 45.1079C17.4894 45.1316 17.4967 45.1566 17.5008 45.1822C17.5039 45.217 17.5039 45.2521 17.5008 45.2869C17.5008 45.3262 17.5008 45.3742 17.5008 45.4354C17.5034 45.4877 17.5034 45.5402 17.5008 45.5925C17.5049 45.6288 17.5049 45.6654 17.5008 45.7016C17.4937 45.7243 17.4818 45.7452 17.4658 45.7628C17.4488 45.7684 17.4304 45.7684 17.4134 45.7628C17.369 45.7572 17.3276 45.7373 17.2956 45.706L17.1079 45.5838C17.0202 45.5346 16.9281 45.4937 16.8328 45.4615C16.7101 45.4224 16.5819 45.4032 16.4531 45.4048C16.3015 45.4022 16.1517 45.4367 16.0165 45.5052C15.8873 45.5737 15.7753 45.6708 15.6891 45.7889C15.597 45.9215 15.529 46.0693 15.4883 46.2255C15.4388 46.4179 15.4153 46.6161 15.4184 46.8148C15.4154 47.0253 15.4404 47.2352 15.4927 47.4391C15.5339 47.5967 15.605 47.7449 15.7022 47.8756C15.7907 47.9856 15.9045 48.0725 16.034 48.1288C16.1722 48.1864 16.3208 48.2146 16.4705 48.2118C16.6005 48.2143 16.7301 48.1966 16.8547 48.1594C16.9492 48.1328 17.0401 48.0946 17.1253 48.0459C17.1923 48.0132 17.2565 47.9753 17.3174 47.9324C17.3507 47.9073 17.3897 47.8908 17.4309 47.8844H17.4833C17.4979 47.8989 17.5084 47.9169 17.5139 47.9367C17.5174 47.9716 17.5174 48.0067 17.5139 48.0415C17.5139 48.0895 17.5139 48.1506 17.5139 48.2249L17.5488 48.3253ZM13.8338 48.8055C13.8399 48.8254 13.8399 48.8467 13.8338 48.8666C13.8156 48.885 13.7931 48.8985 13.7683 48.9059L13.6417 48.9321H13.4365H13.2357L13.0873 48.8928C13.0625 48.8854 13.04 48.8719 13.0218 48.8535C13.014 48.8339 13.014 48.812 13.0218 48.7924V44.9246C13.0213 44.9141 13.0229 44.9037 13.0267 44.8939C13.0304 44.8841 13.0362 44.8752 13.0437 44.8678C13.0624 44.847 13.0866 44.8319 13.1135 44.8242C13.1556 44.8202 13.198 44.8202 13.2401 44.8242C13.3055 44.8189 13.3712 44.8189 13.4365 44.8242C13.5048 44.8188 13.5734 44.8188 13.6417 44.8242C13.6838 44.8206 13.7262 44.8206 13.7683 44.8242C13.7935 44.833 13.816 44.848 13.8338 44.8678C13.8398 44.8863 13.8398 44.9062 13.8338 44.9246V48.8055ZM80.0224 41.8775H83.148C83.9288 41.8822 84.6798 41.5777 85.2368 41.0305C85.7938 40.4833 86.1117 39.7378 86.1209 38.9571V37.0363H80.5812C79.3676 37.0363 78.2282 37.3986 77.5821 38.2935C77.0714 39.0007 77.0932 39.5682 77.0495 40.3802V41.8775H80.0224ZM70.043 35.4473V38.5031C70.0411 38.743 70.0887 38.9808 70.1827 39.2015C70.2731 39.4145 70.4069 39.6063 70.5756 39.7647C70.7446 39.9307 70.943 40.0639 71.1606 40.1576C71.3796 40.2522 71.6161 40.2998 71.8547 40.2972H75.9669V41.8557H71.8547C71.4045 41.8574 70.9588 41.7668 70.545 41.5894C70.1457 41.4177 69.7815 41.1735 69.4711 40.8691C69.1646 40.5696 68.9186 40.2139 68.7465 39.8214C68.568 39.408 68.4773 38.9621 68.4802 38.5118V35.456H66.6947V33.8801H68.4802V32.2037H70.0605V33.8801H75.4256V35.4473H70.043ZM63.879 41.8775V33.8408H65.4724V41.8775H63.879ZM64.6735 31.4311C64.8517 31.4336 65.0251 31.4888 65.172 31.5897C65.3188 31.6905 65.4326 31.8325 65.499 31.9979C65.5654 32.1632 65.5814 32.3445 65.5451 32.5189C65.5088 32.6933 65.4217 32.8531 65.2948 32.9782C65.1679 33.1032 65.0069 33.188 64.832 33.2218C64.6571 33.2556 64.476 33.237 64.3117 33.1682C64.1473 33.0995 64.007 32.9837 63.9082 32.8354C63.8095 32.687 63.7568 32.5129 63.7568 32.3347C63.7591 32.0935 63.8569 31.863 64.0286 31.6937C64.2004 31.5243 64.4323 31.4299 64.6735 31.4311ZM55.0696 35.4036V41.8775H53.5985V33.8408H59.5223C59.9443 33.8394 60.3615 33.9303 60.7447 34.1071C61.1188 34.2824 61.4565 34.5268 61.74 34.8274C62.0295 35.1391 62.2589 35.5017 62.4166 35.8969C62.5814 36.3138 62.6659 36.7582 62.6654 37.2065V41.8775H61.1987V37.2153C61.1995 36.9805 61.155 36.7478 61.0677 36.5299C60.9078 36.107 60.5967 35.7586 60.1946 35.552C59.9973 35.4566 59.7808 35.4074 59.5616 35.408L55.0696 35.4036ZM34.6394 39.0531V41.8732H33.3036V33.8408H40.1049C40.4086 33.8391 40.7082 33.911 40.978 34.0503C41.2519 34.1884 41.4965 34.3781 41.6983 34.6091C41.9084 34.8525 42.0752 35.1301 42.1916 35.4298C42.3811 35.9106 42.4332 36.4346 42.3423 36.9434C42.2513 37.4521 42.0208 37.9256 41.6765 38.311C41.469 38.5386 41.2182 38.7227 40.9387 38.8523C40.6668 38.985 40.3682 39.0537 40.0656 39.0531H34.6394ZM41.0348 36.4338C41.0274 36.3022 40.9994 36.1726 40.9518 36.0497C40.8545 35.8005 40.6677 35.5965 40.428 35.4778C40.3099 35.4246 40.1821 35.3963 40.0525 35.3949H34.6438V37.4772H40.0656C40.1912 37.4778 40.3152 37.4494 40.428 37.3942C40.5423 37.3371 40.6458 37.2602 40.7335 37.1672C40.8224 37.065 40.8933 36.9484 40.9431 36.8224C40.9907 36.6995 41.0187 36.5698 41.026 36.4382L41.0348 36.4338ZM24.5596 36.233C24.5733 36.452 24.6524 36.6619 24.7866 36.8355C24.8458 36.9102 24.9216 36.97 25.008 37.0101C25.0945 37.0503 25.1891 37.0697 25.2843 37.0668H30.0688C30.3593 37.0655 30.6461 37.1312 30.907 37.2589C31.1669 37.3823 31.3998 37.5559 31.5923 37.7697C31.7826 37.9944 31.9305 38.2518 32.0289 38.5292C32.2502 39.1354 32.2502 39.8002 32.0289 40.4064C31.9305 40.6852 31.7826 40.944 31.5923 41.1703C31.399 41.3892 31.1628 41.5661 30.8982 41.6898C30.6371 41.8162 30.3502 41.8804 30.0601 41.8775H23.5119V40.3103H30.0601C30.1584 40.3099 30.2553 40.2876 30.3438 40.2449C30.4353 40.2022 30.517 40.1413 30.5839 40.0659C30.6533 39.9875 30.708 39.8973 30.7455 39.7996C30.7841 39.6978 30.8033 39.5897 30.8022 39.4809C30.8033 39.3692 30.7841 39.2583 30.7455 39.1535C30.709 39.0527 30.6542 38.9595 30.5839 38.8785C30.5212 38.8033 30.4421 38.7435 30.3526 38.7039C30.261 38.661 30.1612 38.6386 30.0601 38.6384H25.3018C25.0133 38.6392 24.7283 38.5751 24.468 38.4507C24.2097 38.3268 23.9782 38.1532 23.787 37.9399C23.5848 37.7184 23.4263 37.4607 23.3199 37.1803C23.2057 36.8776 23.148 36.5566 23.1496 36.233C23.1484 35.9124 23.2061 35.5943 23.3199 35.2945C23.425 35.018 23.5804 34.7635 23.7782 34.5436C23.9689 34.336 24.1989 34.1684 24.4549 34.0503C24.7178 33.9192 25.008 33.8519 25.3018 33.8539H31.8499V35.4211H25.3018C25.2033 35.4194 25.1058 35.4418 25.018 35.4865C24.9267 35.5333 24.844 35.5953 24.7736 35.6699C24.7095 35.7399 24.6592 35.8214 24.6251 35.91C24.5858 36.0103 24.5637 36.1166 24.5596 36.2243V36.233ZM19.1116 33.8408H15.9729C15.192 33.8361 14.4411 34.1406 13.8841 34.6878C13.327 35.2351 13.0092 35.9805 13 36.7612V38.682H18.5354C19.7489 38.682 20.8927 38.3197 21.5344 37.4248C22.0495 36.7176 22.0233 36.1501 22.067 35.3381V33.8408H19.1116ZM13.0262 39.3369C13.1275 40.0449 13.4817 40.6923 14.0234 41.1594C14.5651 41.6265 15.2576 41.8816 15.9729 41.8775H22.0845V40.3802H16.0252C15.7207 40.3816 15.4248 40.2789 15.1867 40.0892C14.9485 39.8994 14.7823 39.634 14.7156 39.3369H13.0262ZM18.1818 35.3599H16.0296C15.6787 35.3576 15.3411 35.4939 15.0901 35.7391C14.8392 35.9843 14.6952 36.3187 14.6894 36.6696V37.2022H18.1818C19.7751 37.2022 20.299 36.9795 20.2859 35.3599H18.1818ZM46.4261 41.9081H49.5473C50.3282 41.9128 51.0791 41.6082 51.6361 41.061C52.1932 40.5138 52.511 39.7684 52.5202 38.9876V37.0668H46.9848C45.7713 37.0668 44.6275 37.4292 43.9858 38.3241C43.475 39.0313 43.4969 39.5988 43.4532 40.4107V41.9081H46.4261ZM52.494 36.412C52.3927 35.704 52.0385 35.0565 51.4968 34.5895C50.9551 34.1224 50.2626 33.8673 49.5473 33.8713H43.4357V35.3599H49.495C49.7995 35.3585 50.0953 35.4612 50.3335 35.651C50.5717 35.8407 50.7379 36.1061 50.8046 36.4033L52.494 36.412ZM47.3384 40.3802H49.495C49.8451 40.3814 50.1816 40.2446 50.4316 39.9995C50.6816 39.7544 50.825 39.4206 50.8308 39.0706V38.5336H47.3384C45.7451 38.5336 45.2212 38.7562 45.2343 40.3758L47.3384 40.3802ZM86.0947 36.3815C85.9924 35.673 85.6373 35.0255 85.0949 34.5586C84.5525 34.0916 83.8594 33.8366 83.1437 33.8408H77.0321V35.3599H83.0738C83.3783 35.3585 83.6742 35.4612 83.9124 35.651C84.1506 35.8407 84.3168 36.1061 84.3834 36.4033L86.0947 36.3815ZM80.9348 40.3802H83.0913C83.4414 40.3814 83.7779 40.2446 84.0279 39.9995C84.278 39.7544 84.4214 39.4206 84.4271 39.0706V38.5336H80.9348C79.3414 38.5336 78.8175 38.7562 78.835 40.3758L80.9348 40.3802ZM50.4292 23.94C50.5743 23.9443 50.7149 23.9913 50.8334 24.0751C50.9519 24.1589 51.043 24.2759 51.0954 24.4112C51.1478 24.5466 51.159 24.6944 51.1278 24.8362C51.0966 24.978 51.0242 25.1073 50.9198 25.2082C50.8153 25.309 50.6835 25.3768 50.5407 25.403C50.398 25.4293 50.2506 25.4128 50.1172 25.3557C49.9837 25.2986 49.8701 25.2035 49.7904 25.0821C49.7108 24.9607 49.6688 24.8185 49.6696 24.6734C49.6707 24.5752 49.6913 24.4782 49.7302 24.388C49.7691 24.2978 49.8255 24.2162 49.8962 24.148C49.9668 24.0798 50.0503 24.0263 50.1418 23.9906C50.2333 23.9549 50.331 23.9377 50.4292 23.94ZM43.3441 26.0092C43.4896 26.0109 43.6314 26.0557 43.7515 26.1378C43.8717 26.2199 43.9649 26.3357 44.0194 26.4706C44.0739 26.6056 44.0873 26.7536 44.0578 26.8962C44.0284 27.0387 43.9575 27.1693 43.8539 27.2716C43.7504 27.3739 43.619 27.4434 43.4761 27.4711C43.3332 27.4989 43.1853 27.4838 43.051 27.4277C42.9167 27.3716 42.802 27.277 42.7213 27.1559C42.6407 27.0348 42.5976 26.8925 42.5976 26.747C42.5999 26.5505 42.6795 26.3629 42.8193 26.2248C42.959 26.0866 43.1476 26.0092 43.3441 26.0092ZM57.1956 30.8592H49.7962C51.055 30.3093 52.1434 29.4319 52.948 28.3185C53.0921 28.1221 53.2405 27.93 53.1226 27.7205C53.0048 27.5065 52.6555 27.3494 52.5158 27.5502C51.1407 29.4797 49.2636 30.331 47.2293 30.8592H40.9387C40.6045 29.937 40.4346 28.9633 40.4367 27.9824C40.4367 25.6911 41.3469 23.4937 42.9671 21.8736C44.5872 20.2534 46.7846 19.3432 49.0759 19.3432C51.3671 19.3432 53.5645 20.2534 55.1847 21.8736C56.8049 23.4937 57.7151 25.6911 57.7151 27.9824C57.715 28.9631 57.5452 29.9364 57.213 30.8592H57.1956ZM64.0755 19.4087C64.1083 19.46 64.13 19.5177 64.1392 19.578C64.1483 19.6382 64.1448 19.6998 64.1288 19.7586C64.1127 19.8174 64.0845 19.8722 64.046 19.9194C64.0075 19.9667 63.9596 20.0053 63.9052 20.0329C63.7997 20.0935 63.6745 20.11 63.5569 20.079C63.4392 20.0479 63.3385 19.9718 63.2766 19.8671C63.2438 19.8157 63.2221 19.758 63.2129 19.6978C63.2037 19.6375 63.2073 19.576 63.2233 19.5172C63.2394 19.4584 63.2675 19.4036 63.306 19.3563C63.3445 19.3091 63.3925 19.2704 63.4469 19.2428C63.5524 19.1822 63.6776 19.1657 63.7952 19.1967C63.9129 19.2278 64.0136 19.3039 64.0755 19.4087ZM61.3165 15.8596C61.3608 15.9005 61.3962 15.9501 61.4204 16.0053C61.4446 16.0605 61.4571 16.1202 61.4571 16.1805C61.4571 16.2407 61.4446 16.3004 61.4204 16.3556C61.3962 16.4108 61.3608 16.4604 61.3165 16.5013C61.2299 16.5869 61.1131 16.6349 60.9913 16.6349C60.8695 16.6349 60.7527 16.5869 60.6661 16.5013C60.6218 16.4604 60.5864 16.4108 60.5622 16.3556C60.538 16.3004 60.5255 16.2407 60.5255 16.1805C60.5255 16.1202 60.538 16.0605 60.5622 16.0053C60.5864 15.9501 60.6218 15.9005 60.6661 15.8596C60.7092 15.8152 60.7608 15.78 60.8178 15.7559C60.8748 15.7318 60.936 15.7194 60.9979 15.7194C61.0597 15.7194 61.121 15.7318 61.1779 15.7559C61.2349 15.78 61.2865 15.8152 61.3296 15.8596H61.3165ZM57.7238 13.1312C57.7781 13.1588 57.8261 13.1975 57.8646 13.2447C57.9031 13.292 57.9313 13.3468 57.9473 13.4056C57.9634 13.4644 57.9669 13.5259 57.9577 13.5862C57.9485 13.6464 57.9268 13.7041 57.894 13.7555C57.8313 13.8605 57.7298 13.9367 57.6114 13.9678C57.4931 13.9988 57.3673 13.9821 57.2611 13.9213C57.2073 13.8937 57.1599 13.8552 57.1218 13.8083C57.0837 13.7614 57.0558 13.707 57.0398 13.6488C57.0238 13.5905 57.0201 13.5296 57.0289 13.4698C57.0376 13.41 57.0587 13.3527 57.0908 13.3015C57.1536 13.1965 57.2548 13.1201 57.3729 13.0883C57.491 13.0566 57.6168 13.0719 57.7238 13.1312ZM53.5373 11.42C53.617 11.447 53.6871 11.4965 53.7393 11.5625C53.7915 11.6285 53.8235 11.7081 53.8315 11.7919C53.8395 11.8756 53.8231 11.9599 53.7843 12.0346C53.7455 12.1092 53.686 12.1711 53.6129 12.2127C53.5398 12.2543 53.4562 12.2739 53.3722 12.2691C53.2882 12.2644 53.2074 12.2354 53.1395 12.1858C53.0715 12.1362 53.0194 12.068 52.9893 11.9894C52.9592 11.9109 52.9524 11.8253 52.9698 11.743C53.0025 11.625 53.0805 11.5248 53.1869 11.4643C53.2932 11.4038 53.4193 11.3878 53.5373 11.42ZM49.0584 10.835C49.1425 10.8402 49.2233 10.8695 49.291 10.9196C49.3588 10.9696 49.4106 11.0382 49.4403 11.1171C49.4699 11.1959 49.4761 11.2817 49.4581 11.3639C49.4401 11.4462 49.3987 11.5216 49.3389 11.5808C49.279 11.6401 49.2033 11.6808 49.1208 11.698C49.0384 11.7153 48.9527 11.7082 48.8741 11.6778C48.7956 11.6475 48.7275 11.595 48.6781 11.5268C48.6287 11.4585 48.6001 11.3775 48.5957 11.2934C48.5968 11.1714 48.6461 11.0548 48.7327 10.969C48.8194 10.8831 48.9364 10.835 49.0584 10.835ZM44.5664 11.42C44.6246 11.4041 44.6853 11.3999 44.7451 11.4075C44.805 11.4152 44.8627 11.4346 44.915 11.4646C44.9673 11.4946 45.0132 11.5346 45.05 11.5824C45.0868 11.6302 45.1138 11.6848 45.1295 11.743C45.1479 11.8012 45.1539 11.8626 45.147 11.9232C45.1402 11.9839 45.1207 12.0424 45.0899 12.0951C45.059 12.1477 45.0175 12.1933 44.9679 12.2289C44.9184 12.2645 44.8619 12.2893 44.8021 12.3018C44.7439 12.3176 44.6832 12.3219 44.6234 12.3142C44.5635 12.3065 44.5058 12.2871 44.4535 12.2571C44.4012 12.2271 44.3553 12.1871 44.3185 12.1393C44.2817 12.0915 44.2547 12.037 44.239 11.9787C44.2206 11.9205 44.2147 11.8591 44.2215 11.7985C44.2283 11.7378 44.2478 11.6793 44.2786 11.6267C44.3095 11.574 44.351 11.5284 44.4006 11.4928C44.4502 11.4572 44.5066 11.4324 44.5664 11.42ZM40.38 13.1356C40.4855 13.075 40.6106 13.0585 40.7283 13.0895C40.846 13.1206 40.9466 13.1967 41.0086 13.3015C41.0415 13.3525 41.0635 13.41 41.073 13.47C41.0825 13.5301 41.0793 13.5915 41.0637 13.6503C41.0481 13.709 41.0203 13.7639 40.9823 13.8113C40.9442 13.8588 40.8967 13.8977 40.8427 13.9257C40.7357 13.985 40.6099 14.0003 40.4918 13.9686C40.3737 13.9368 40.2725 13.8604 40.2097 13.7555C40.1776 13.7042 40.1565 13.6469 40.1478 13.5871C40.139 13.5274 40.1427 13.4664 40.1587 13.4081C40.1747 13.3499 40.2026 13.2955 40.2407 13.2486C40.2788 13.2017 40.3262 13.1632 40.38 13.1356ZM36.7828 15.8596C36.8702 15.7737 36.9878 15.7256 37.1102 15.7256C37.2327 15.7256 37.3503 15.7737 37.4377 15.8596C37.482 15.9005 37.5173 15.9501 37.5415 16.0053C37.5657 16.0605 37.5782 16.1202 37.5782 16.1805C37.5782 16.2407 37.5657 16.3004 37.5415 16.3556C37.5173 16.4108 37.482 16.4604 37.4377 16.5013C37.3503 16.5872 37.2327 16.6353 37.1102 16.6353C36.9878 16.6353 36.8702 16.5872 36.7828 16.5013C36.7385 16.4604 36.7032 16.4108 36.679 16.3556C36.6548 16.3004 36.6423 16.2407 36.6423 16.1805C36.6423 16.1202 36.6548 16.0605 36.679 16.0053C36.7032 15.9501 36.7385 15.9005 36.7828 15.8596ZM34.0283 19.4087C34.0933 19.3172 34.1896 19.2528 34.299 19.2276C34.4083 19.2024 34.5231 19.2183 34.6216 19.2721C34.7201 19.3259 34.7954 19.414 34.8333 19.5196C34.8712 19.6252 34.869 19.7411 34.8271 19.8452C34.7644 19.9503 34.6629 20.0265 34.5445 20.0575C34.4262 20.0886 34.3004 20.0719 34.1941 20.0111C34.1432 19.983 34.0983 19.9449 34.0623 19.8992C34.0263 19.8535 33.9997 19.801 33.9843 19.7448C33.9688 19.6887 33.9647 19.6301 33.9723 19.5723C33.9799 19.5146 33.9989 19.459 34.0283 19.4087ZM62.4035 20.3647C62.4431 20.4328 62.4688 20.508 62.479 20.5861C62.4893 20.6642 62.4839 20.7435 62.4631 20.8195C62.4424 20.8955 62.4068 20.9666 62.3583 21.0286C62.3099 21.0907 62.2496 21.1425 62.1809 21.181C62.0423 21.2606 61.878 21.2823 61.7235 21.2415C61.569 21.2006 61.4369 21.1005 61.3558 20.9628C61.3154 20.8951 61.289 20.8201 61.2782 20.742C61.2673 20.664 61.2722 20.5846 61.2925 20.5085C61.3129 20.4324 61.3483 20.3611 61.3966 20.299C61.445 20.2368 61.5053 20.1849 61.5741 20.1464C61.6434 20.1043 61.7205 20.0765 61.8008 20.0646C61.8811 20.0528 61.9629 20.0572 62.0415 20.0775C62.12 20.0979 62.1937 20.1338 62.2581 20.1831C62.3226 20.2324 62.3765 20.2942 62.4166 20.3647H62.4035ZM56.7721 14.7857C56.8404 14.8246 56.9003 14.8767 56.9484 14.9389C56.9964 15.0012 57.0316 15.0723 57.0519 15.1482C57.0722 15.2242 57.0772 15.3034 57.0666 15.3813C57.0561 15.4592 57.0302 15.5342 56.9904 15.602C56.9506 15.6706 56.8978 15.7307 56.8347 15.7789C56.7717 15.827 56.6998 15.8622 56.6232 15.8825C56.5465 15.9027 56.4666 15.9077 56.3881 15.897C56.3095 15.8864 56.2338 15.8603 56.1653 15.8203C56.0967 15.7818 56.0363 15.73 55.9879 15.6679C55.9394 15.6058 55.9038 15.5347 55.8831 15.4588C55.8624 15.3828 55.857 15.3034 55.8672 15.2254C55.8774 15.1473 55.9031 15.072 55.9427 15.004C56.0238 14.8651 56.1567 14.7641 56.3122 14.7232C56.4678 14.6823 56.6332 14.7047 56.7721 14.7857ZM49.0584 12.7427C49.1763 12.7444 49.2911 12.7809 49.3883 12.8477C49.4855 12.9144 49.5608 13.0084 49.6047 13.1179C49.6486 13.2273 49.6592 13.3472 49.6352 13.4627C49.6111 13.5781 49.5535 13.6839 49.4695 13.7666C49.3855 13.8494 49.279 13.9055 49.1632 13.9279C49.0474 13.9502 48.9276 13.9379 48.8188 13.8924C48.7101 13.8469 48.6172 13.7702 48.5518 13.6721C48.4865 13.5739 48.4516 13.4587 48.4516 13.3407C48.4539 13.1813 48.5189 13.0292 48.6324 12.9173C48.746 12.8054 48.899 12.7427 49.0584 12.7427ZM41.3447 14.7857C41.4132 14.7457 41.4889 14.7196 41.5674 14.709C41.646 14.6983 41.7259 14.7033 41.8026 14.7235C41.8792 14.7438 41.9511 14.779 42.0141 14.8271C42.0771 14.8753 42.13 14.9354 42.1698 15.004C42.2101 15.0716 42.2366 15.1467 42.2474 15.2247C42.2583 15.3027 42.2534 15.3821 42.2331 15.4582C42.2127 15.5343 42.1773 15.6056 42.1289 15.6678C42.0806 15.73 42.0203 15.7818 41.9515 15.8203C41.8125 15.9013 41.6471 15.9237 41.4916 15.8828C41.3361 15.8419 41.2032 15.7409 41.1221 15.602C41.0825 15.534 41.0568 15.4587 41.0466 15.3806C41.0363 15.3026 41.0417 15.2232 41.0625 15.1472C41.0832 15.0713 41.1188 15.0002 41.1673 14.9381C41.2157 14.876 41.276 14.8242 41.3447 14.7857ZM35.7002 20.3647C35.7821 20.2267 35.915 20.1265 36.0702 20.0857C36.2254 20.0448 36.3904 20.0666 36.5296 20.1464C36.6653 20.225 36.7643 20.354 36.8052 20.5053C36.8461 20.6566 36.8255 20.8179 36.7479 20.954C36.6652 21.0912 36.5323 21.1907 36.3775 21.2314C36.2226 21.2722 36.058 21.251 35.9185 21.1723C35.7837 21.093 35.6854 20.964 35.6446 20.813C35.6038 20.6621 35.6238 20.5011 35.7002 20.3647ZM62.3599 27.9824C62.3599 28.1551 62.3087 28.3239 62.2127 28.4674C62.1168 28.611 61.9804 28.7229 61.8209 28.789C61.6614 28.8551 61.4858 28.8724 61.3165 28.8387C61.1471 28.805 60.9915 28.7218 60.8694 28.5997C60.7473 28.4776 60.6642 28.3221 60.6305 28.1527C60.5968 27.9833 60.6141 27.8078 60.6802 27.6483C60.7462 27.4887 60.8581 27.3524 61.0017 27.2564C61.1453 27.1605 61.3141 27.1093 61.4868 27.1093C61.7183 27.1093 61.9404 27.2013 62.1041 27.365C62.2679 27.5287 62.3599 27.7508 62.3599 27.9824ZM60.5788 21.4342C60.6372 21.5341 60.6752 21.6445 60.6906 21.7592C60.7059 21.8738 60.6984 21.9903 60.6683 22.102C60.6382 22.2137 60.5863 22.3183 60.5155 22.4098C60.4447 22.5012 60.3564 22.5777 60.2557 22.6347C60.1552 22.6959 60.0433 22.7362 59.9268 22.7531C59.8103 22.7699 59.6917 22.7631 59.5779 22.7329C59.4641 22.7027 59.3576 22.6498 59.2648 22.5775C59.172 22.5051 59.0948 22.4147 59.0378 22.3117C58.9794 22.2119 58.9414 22.1014 58.926 21.9868C58.9106 21.8721 58.9182 21.7556 58.9482 21.6439C58.9783 21.5322 59.0303 21.4276 59.1011 21.3361C59.1719 21.2447 59.2602 21.1682 59.3608 21.1112C59.4614 21.05 59.5732 21.0097 59.6897 20.9929C59.8062 20.976 59.9249 20.9829 60.0387 21.013C60.1524 21.0432 60.2589 21.0961 60.3517 21.1685C60.4446 21.2409 60.5218 21.3313 60.5788 21.4342ZM55.7113 16.5886C55.812 16.6457 55.9002 16.7221 55.9711 16.8136C56.0419 16.905 56.0938 17.0096 56.1239 17.1213C56.154 17.233 56.1615 17.3496 56.1461 17.4642C56.1308 17.5788 56.0928 17.6893 56.0344 17.7891C55.9774 17.8915 55.9003 17.9814 55.8079 18.0534C55.7154 18.1253 55.6094 18.178 55.4961 18.2081C55.3829 18.2383 55.2647 18.2453 55.1487 18.2288C55.0327 18.2123 54.9211 18.1727 54.8208 18.1122C54.7198 18.0555 54.6311 17.9793 54.5598 17.888C54.4886 17.7967 54.4362 17.6922 54.4057 17.5805C54.3752 17.4687 54.3673 17.3521 54.3823 17.2373C54.3974 17.1224 54.4351 17.0118 54.4934 16.9117C54.5504 16.8087 54.6276 16.7183 54.7204 16.6459C54.8132 16.5735 54.9197 16.5206 55.0335 16.4905C55.1472 16.4603 55.2659 16.4534 55.3824 16.4703C55.4989 16.4872 55.6108 16.5274 55.7113 16.5886ZM49.0584 14.8424C49.2311 14.8424 49.3999 14.8937 49.5435 14.9896C49.6871 15.0855 49.799 15.2219 49.865 15.3814C49.9311 15.541 49.9484 15.7165 49.9147 15.8859C49.881 16.0552 49.7979 16.2108 49.6758 16.3329C49.5537 16.455 49.3981 16.5382 49.2287 16.5718C49.0594 16.6055 48.8838 16.5882 48.7243 16.5222C48.5648 16.4561 48.4284 16.3442 48.3325 16.2006C48.2365 16.057 48.1853 15.8882 48.1853 15.7155C48.1853 15.484 48.2773 15.2619 48.4411 15.0982C48.6048 14.9344 48.8269 14.8424 49.0584 14.8424ZM42.4055 16.5886C42.6098 16.4718 42.8518 16.4397 43.0795 16.4993C43.3073 16.5589 43.5025 16.7053 43.6235 16.9073C43.6824 17.0076 43.7207 17.1186 43.7361 17.2339C43.7515 17.3492 43.7438 17.4664 43.7133 17.5786C43.6828 17.6909 43.6302 17.7959 43.5585 17.8875C43.4869 17.9791 43.3976 18.0555 43.2961 18.1122C43.0915 18.2298 42.8487 18.2618 42.6206 18.2013C42.3925 18.1408 42.1975 17.9927 42.0781 17.7891C42.0199 17.689 41.9821 17.5783 41.9671 17.4635C41.952 17.3487 41.96 17.232 41.9904 17.1203C42.0209 17.0086 42.0733 16.904 42.1445 16.8128C42.2158 16.7215 42.3045 16.6453 42.4055 16.5886ZM37.5337 21.3906C37.6567 21.1895 37.8541 21.0451 38.0829 20.9887C38.3118 20.9323 38.5537 20.9685 38.756 21.0894C38.857 21.146 38.9457 21.2222 39.017 21.3135C39.0882 21.4048 39.1406 21.5093 39.1711 21.6211C39.2016 21.7328 39.2095 21.8494 39.1945 21.9643C39.1794 22.0791 39.1417 22.1898 39.0834 22.2899C38.9642 22.4888 38.7724 22.6336 38.5484 22.6939C38.3245 22.7541 38.0859 22.7251 37.8829 22.6129C37.7819 22.5562 37.6932 22.48 37.622 22.3888C37.5507 22.2975 37.4983 22.1929 37.4678 22.0812C37.4374 21.9695 37.4294 21.8528 37.4445 21.738C37.4595 21.6232 37.4973 21.5125 37.5555 21.4124L37.5337 21.3906ZM35.7526 27.9387C35.7526 27.766 35.8038 27.5972 35.8997 27.4537C35.9957 27.3101 36.132 27.1982 36.2916 27.1321C36.4511 27.066 36.6267 27.0487 36.796 27.0824C36.9654 27.1161 37.1209 27.1993 37.243 27.3214C37.3652 27.4435 37.4483 27.599 37.482 27.7684C37.5157 27.9378 37.4984 28.1133 37.4323 28.2728C37.3662 28.4324 37.2543 28.5687 37.1107 28.6647C36.9672 28.7606 36.7984 28.8118 36.6257 28.8118C36.3941 28.8118 36.1721 28.7198 36.0083 28.5561C35.8446 28.3924 35.7526 28.1703 35.7526 27.9387Z" fill="white"></path>
</svg>
