<?xml version="1.0" encoding="UTF-8"?>
<svg xmlns="http://www.w3.org/2000/svg" width="100" height="50" viewBox="0 0 100 50" fill="none">
  <path fill-rule="evenodd" clip-rule="evenodd" d="M21.9171 13.1285C24.9897 7.68154 35.1852 8.51953 30.5763 0C29.8779 6.7039 21.6378 4.46925 21.9171 13.1285Z" fill="white"></path>
  <path fill-rule="evenodd" clip-rule="evenodd" d="M28.3418 41.3399C22.8949 22.0662 23.8726 8.37908 43.7049 4.7478C17.3083 8.23941 19.4033 30.0271 18.4257 32.122C17.448 24.7198 17.7273 16.34 19.543 10.7534C17.3083 12.569 14.096 11.4517 9.20779 11.731C3.48155 12.0104 0.827925 15.502 0.129603 19.1332C-0.56872 23.7422 1.52625 27.6528 7.11283 28.3511C10.4648 28.7701 13.3977 26.8148 13.9564 23.7422C14.3754 21.5075 12.4201 19.6919 9.34747 19.6919C14.2357 21.7869 13.258 25.9768 8.92845 27.0941C4.59885 28.2114 0.688243 23.7422 1.94522 19.2729C3.76086 13.1277 9.76647 12.0104 15.772 13.6863C16.191 24.5802 17.867 42.3176 13.6771 47.7645C15.9117 46.5075 19.9619 44.6918 21.4982 40.0829C18.8446 36.312 19.8223 20.1109 25.4089 15.502C21.4983 24.8595 24.0122 33.379 24.2915 40.2226C24.4312 43.0159 22.7553 45.5299 20.5206 47.7645C23.5932 47.0662 26.2469 45.2505 28.3418 41.3399Z" fill="white"></path>
  <path fill-rule="evenodd" clip-rule="evenodd" d="M55.1572 49.999C61.1628 46.7867 59.9058 32.8203 56.1349 27.3733C58.5092 27.932 60.8835 27.932 62.8388 27.094C60.4645 34.4962 60.6041 41.2001 63.3974 46.3677C61.8611 48.323 57.6712 49.4403 55.1572 49.999Z" fill="white"></path>
  <path fill-rule="evenodd" clip-rule="evenodd" d="M50.2695 30.0281C47.3365 30.0281 44.5432 30.4471 42.1689 32.961C46.3589 31.0057 51.6661 30.5867 53.0628 34.4973C53.6214 36.313 52.6438 38.6873 49.0125 37.7096C48.3142 35.056 46.9175 33.5197 45.1019 32.4024C46.7779 36.8716 45.9399 41.6202 42.8673 46.5085C45.2416 48.6034 48.0349 49.7207 51.3868 50.0001C47.6159 47.3465 45.8002 43.9945 48.5935 39.2459C53.2024 40.9219 56.4147 40.0839 56.9734 35.894C57.1131 32.961 54.8784 30.0281 50.2695 30.0281Z" fill="white"></path>
  <path fill-rule="evenodd" clip-rule="evenodd" d="M35.4647 27.6529H35.3251C33.7888 27.5133 32.9508 28.7702 33.0905 31.9825C33.2301 36.4518 33.0905 40.9211 33.0905 45.2507C33.0905 46.9266 33.9285 47.625 35.3251 47.7646H35.4647C36.8614 47.625 37.6994 46.787 37.6994 45.2507C37.6994 40.7814 37.5597 36.3121 37.6994 31.9825C37.839 28.7702 37.001 27.5133 35.4647 27.6529ZM35.4647 49.4406C32.3921 49.3009 30.1575 47.7646 30.0178 43.5747C29.8782 40.0831 29.8782 36.5915 30.0178 32.9602C30.2972 29.0496 32.1128 26.815 35.1854 26.6753H35.4647C38.677 26.815 40.4927 29.0496 40.772 32.9602C41.0513 36.4518 41.0514 39.9434 40.9117 43.5747C40.772 47.7646 38.5374 49.3009 35.4647 49.4406Z" fill="white"></path>
  <path fill-rule="evenodd" clip-rule="evenodd" d="M59.4866 21.5078C60.7436 21.5078 61.7212 22.4855 61.7212 23.6028C61.7212 24.7201 60.7436 25.6977 59.4866 25.6977C58.2296 25.6977 57.252 24.7201 57.252 23.6028C57.252 22.4855 58.3693 21.5078 59.4866 21.5078Z" fill="white"></path>
  <path d="M36.3027 18.436C39.6547 19.4137 42.029 18.436 44.5429 17.3187C46.3586 16.4807 46.4983 13.9668 47.8949 13.5478C50.2692 12.7098 52.5038 14.5255 53.4815 16.2014" stroke="white" stroke-width="1.4538" stroke-miterlimit="22.9256" stroke-linecap="round" stroke-linejoin="round"></path>
  <path fill-rule="evenodd" clip-rule="evenodd" d="M36.5821 15.3624L36.3027 18.2954L38.3977 18.7143C39.7943 18.7143 41.0513 18.5747 42.1687 18.1557L45.2413 16.759L46.9172 14.1054C47.4759 13.5468 48.1742 13.2674 48.8725 13.1278L50.9675 13.8261L53.3418 15.7814C53.6211 15.0831 53.6212 13.9658 53.4815 12.5691C53.0625 11.3121 52.0848 10.1948 50.9675 9.21717L46.4983 6.14453L43.1463 7.26185L38.258 11.4518L36.5821 15.3624Z" fill="white"></path>
  <path fill-rule="evenodd" clip-rule="evenodd" d="M49.1514 7.96075C50.548 8.9384 51.805 9.91606 52.9223 11.3127C53.3413 10.1954 53.3413 9.77639 53.9 9.07807C54.1793 8.79874 56.5536 10.6144 57.1122 12.011C57.6709 13.8267 57.6709 16.3406 57.3916 18.4356H57.9502C58.5089 15.782 59.4865 11.3127 56.6932 9.07807C55.1569 7.82109 54.0396 6.00544 53.481 4.05014C53.2016 3.63114 52.9223 3.49148 52.3636 3.77081C51.1067 4.32947 50.129 6.14511 49.1514 7.96075Z" fill="white"></path>
  <path d="M44.5428 23.7427C39.0959 24.1617 36.163 19.8321 36.3026 17.5975C36.4423 14.5249 37.6993 12.1506 39.3753 10.4746C42.1685 7.54162 45.9395 6.42432 46.4982 6.42432C47.0568 6.42432 51.2467 9.2176 52.6434 10.8936C54.459 12.9885 53.621 15.6422 53.621 17.8768C53.9003 18.0165 54.1797 18.1561 54.5987 18.1561C53.7607 20.2511 53.621 22.2064 54.5987 23.8824C53.7607 24.5807 52.0847 24.86 49.7104 24.9997C49.0121 24.5807 48.8724 23.7427 48.7327 22.9047C48.1741 22.6254 47.8948 22.9047 47.6155 23.1841C47.4758 24.1617 47.6155 24.9997 48.3138 25.4187C50.2691 25.698 52.2244 25.5583 54.1797 25.279C53.7607 26.2567 53.202 27.0947 52.7831 28.0723C51.8054 28.0723 50.8277 28.3516 49.8501 28.7706C48.0345 28.631 46.4982 28.212 45.1015 27.374C45.1015 25.698 44.8222 23.8824 44.2635 22.2064" stroke="white" stroke-width="1.4538" stroke-miterlimit="22.9256" stroke-linecap="round" stroke-linejoin="round"></path>
  <path d="M52.643 18.4355C53.2017 17.4578 52.643 16.8992 50.967 16.8992C49.7101 16.8992 49.0117 17.4578 49.1514 18.7148C49.2911 19.9718 50.2687 20.6701 50.967 20.3908C51.6654 19.9718 52.224 19.1338 52.643 18.4355Z" stroke="white" stroke-width="1.4538" stroke-miterlimit="22.9256" stroke-linecap="round" stroke-linejoin="round"></path>
  <path d="M46.7775 14.804C47.1965 15.5023 47.6155 16.0609 48.5932 16.4799C47.6155 17.4576 47.4759 18.5749 47.6155 19.6922C46.3585 19.8319 45.5205 20.1112 45.2412 20.5302" stroke="white" stroke-width="1.4538" stroke-miterlimit="22.9256" stroke-linecap="round" stroke-linejoin="round"></path>
  <path fill-rule="evenodd" clip-rule="evenodd" d="M46.7777 9.07725C41.8895 8.0996 36.8616 2.65269 36.8616 3.63034C36.5822 6.84262 31.5543 10.6136 31.1354 12.1499C30.856 12.8482 32.8113 15.0828 34.0683 19.4124H34.4873C34.627 18.0158 34.3476 16.0605 33.6493 13.5465C33.6493 12.7085 36.0236 11.1722 37.1409 8.37892C38.2582 9.63591 38.8169 11.7309 38.9565 14.6638L46.7777 9.07725Z" fill="white"></path>
  <path fill-rule="evenodd" clip-rule="evenodd" d="M57.5314 18.4358C58.09 18.4358 58.509 18.8548 58.509 19.4134C58.509 19.9721 58.09 20.3911 57.5314 20.3911C56.9727 20.3911 56.5537 19.9721 56.5537 19.4134C56.5537 18.8548 56.9727 18.4358 57.5314 18.4358Z" fill="white"></path>
  <path fill-rule="evenodd" clip-rule="evenodd" d="M34.3478 19.4126C34.9064 19.4126 35.3255 19.8316 35.3255 20.3903C35.3255 20.9489 34.9064 21.3679 34.3478 21.3679C33.7891 21.3679 33.3701 20.9489 33.3701 20.3903C33.3701 19.8316 33.7891 19.4126 34.3478 19.4126Z" fill="white"></path>
  <path fill-rule="evenodd" clip-rule="evenodd" d="M63.5369 41.2002C68.9839 21.9265 67.7269 8.23941 48.0342 4.7478C56.6934 5.44613 63.9559 7.96009 69.1235 12.8483C66.3302 15.6416 68.1459 24.4405 68.9839 24.9992C70.7995 21.0885 72.3358 14.3847 71.9168 11.0327C73.3135 11.8707 74.9895 11.8707 75.8274 11.731C78.6207 11.5914 82.5313 10.893 85.7436 12.15C88.8162 13.2673 91.0508 16.2003 91.4698 19.1332C92.3078 23.7422 90.0732 27.6528 84.4866 28.3511C81.1347 28.7701 78.2017 26.8148 77.6431 23.8819C77.2241 21.6472 79.0397 19.8316 82.252 19.8316C77.3637 21.9265 78.3414 26.1165 82.671 27.2338C89.7939 28.9098 92.3078 18.2953 87.2799 15.2226C81.9727 12.0104 71.6375 11.4517 71.0788 27.2338C72.6151 28.0718 75.1291 29.0494 75.1291 30.7254C75.1291 38.1276 75.6878 44.9712 77.9224 47.9041C75.4085 46.5075 73.0341 43.8539 70.7995 39.9433C73.8721 32.6807 72.0565 31.703 71.4978 31.2841C69.6822 30.1667 67.4476 30.7254 67.4476 35.1947C67.4476 43.7142 68.4252 45.2505 70.9392 47.7645C68.2856 46.9265 65.6319 45.1108 63.5369 41.2002Z" fill="white"></path>
</svg>
